<svg width="180" height="458" viewBox="0 0 180 458" fill="none" xmlns="http://www.w3.org/2000/svg">
<path d="M5.36094 433.824C7.65458 430.909 10.8162 411.582 27.4795 411.508C44.1429 411.434 56.2916 433.854 73.4347 426.343C87.1491 420.334 94.1697 406.681 95.9657 400.606" stroke="#FD9558" stroke-width="2.27699"/>
<path d="M10.7915 6.51808C13.2192 6.86753 25.3307 2.28861 30.8817 11.8053C36.4326 21.322 27.6114 35.6899 37.5792 43.0227C45.5535 48.889 55.6917 48.3955 59.7641 47.4155" stroke="#F89358" stroke-width="1.50546"/>
<path d="M122.013 235.462C122.978 233.207 121.69 220.323 132.319 217.425C142.949 214.526 154.544 226.765 164.207 219.035C171.937 212.851 174.084 202.93 174.192 198.743" stroke="#00C65E" stroke-width="1.50546"/>
</svg>
