<svg width="652" height="236" viewBox="0 0 652 236" fill="none" xmlns="http://www.w3.org/2000/svg">
<g clip-path="url(#clip0_1873_57093)">
<path d="M168.917 22.9002L168.517 22.8595C166.464 22.6271 157.24 22.0589 153.38 16.8874C151.006 13.7331 151.684 0.540582 151.684 0.540582L136.526 1.17185C136.526 1.17185 132.786 17.7796 132.268 28.099C132.262 28.2719 132.266 28.4451 132.281 28.6175C132.295 29.6895 132.735 30.7128 133.504 31.4647C134.272 32.2167 135.309 32.6366 136.387 32.6331L168.423 31.8149C168.96 31.7946 169.488 31.6693 169.976 31.4461C170.464 31.223 170.903 30.9064 171.268 30.5145C171.634 30.1225 171.917 29.6629 172.104 29.1618C172.29 28.6607 172.375 28.128 172.355 27.5941C172.302 25.5709 170.951 23.2348 168.917 22.9002Z" fill="#FD9558"/>
<path opacity="0.1" d="M136.808 13.9697C138.2 8.91873 136.858 7.69151 138.65 4.59377C140.441 1.49604 146.2 0.667357 147.063 2.75119C148.548 6.31462 144.562 11.971 145.974 17.4692C147.387 22.9674 150.582 22.3059 154.309 23.1874C158.036 24.0688 163.77 26.5878 163.282 29.8252C162.985 31.7556 160.361 35.5053 155.238 35.2089C151.241 34.9752 146.757 30.9695 143.131 30.4314C139.505 29.8932 133.418 29.1432 134.053 23.2774C134.723 17.2072 135.696 18.0369 136.808 13.9697Z" fill="white"/>
<path d="M169.318 31.7149L133.096 32.6406L133.206 36.8739L169.428 35.9482L169.318 31.7149Z" fill="#FFB762" stroke="#F79358" stroke-width="2.9882" stroke-miterlimit="10"/>
<path d="M169.948 39.2538C172.026 39.2007 173.667 37.4826 173.613 35.4164C173.559 33.3501 171.83 31.718 169.752 31.7711C167.674 31.8242 166.033 33.5422 166.087 35.6085C166.141 37.6748 167.87 39.3069 169.948 39.2538Z" fill="#FFB762"/>
<path d="M145.768 39.2538C147.846 39.2007 149.487 37.4826 149.433 35.4164C149.379 33.3501 147.651 31.718 145.572 31.7711C143.494 31.8242 141.853 33.5422 141.907 35.6085C141.961 37.6748 143.69 39.3069 145.768 39.2538Z" fill="#FFB762"/>
<path d="M168.705 40.16C170.783 40.107 172.424 38.3889 172.37 36.3226C172.316 34.2563 170.587 32.6243 168.509 32.6773C166.431 32.7304 164.79 34.4485 164.844 36.5148C164.898 38.5811 166.626 40.2131 168.705 40.16Z" fill="#F69258"/>
<path d="M144.526 40.16C146.604 40.107 148.245 38.3889 148.191 36.3226C148.137 34.2563 146.408 32.6243 144.33 32.6773C142.252 32.7304 140.611 34.4485 140.665 36.5148C140.719 38.5811 142.448 40.2131 144.526 40.16Z" fill="#F69258"/>
<path d="M157.738 39.5702C159.816 39.5171 161.457 37.7991 161.403 35.7328C161.349 33.6665 159.62 32.0344 157.542 32.0875C155.464 32.1406 153.823 33.8587 153.877 35.9249C153.931 37.9912 155.66 39.6233 157.738 39.5702Z" fill="#FFB762"/>
<path d="M133.56 39.5702C135.638 39.5171 137.279 37.7991 137.225 35.7328C137.171 33.6665 135.443 32.0344 133.364 32.0875C131.286 32.1406 129.645 33.8587 129.699 35.9249C129.753 37.9912 131.482 39.6233 133.56 39.5702Z" fill="#FFB762"/>
<path d="M156.489 40.4725C158.567 40.4195 160.208 38.7014 160.154 36.6351C160.1 34.5688 158.371 32.9368 156.293 32.9898C154.215 33.0429 152.574 34.761 152.628 36.8273C152.682 38.8936 154.411 40.5256 156.489 40.4725Z" fill="#F69258"/>
<path d="M132.311 40.4725C134.389 40.4195 136.03 38.7014 135.976 36.6351C135.922 34.5688 134.194 32.9368 132.115 32.9898C130.037 33.0429 128.396 34.761 128.45 36.8273C128.504 38.8936 130.233 40.5256 132.311 40.4725Z" fill="#F69258"/>
<path d="M151.676 9.17801L143.965 9.375L144.004 10.8703L151.715 10.6733L151.676 9.17801Z" fill="#FD9558" stroke="white" stroke-width="2.33176" stroke-miterlimit="10"/>
<path d="M152.979 16.4575L144.153 16.683L144.114 15.1875L152.459 14.9743L152.979 16.4575Z" fill="#FD9558" stroke="white" stroke-width="2.33176" stroke-miterlimit="10"/>
<path d="M134.668 185.904L135.054 185.781C137.027 185.129 145.994 182.669 148.716 176.781C150.396 173.185 146.972 160.335 146.972 160.335L162.035 157.832C162.035 157.832 169.188 173.414 171.854 183.468C171.896 183.637 171.928 183.809 171.949 183.982C172.159 185.04 171.94 186.138 171.34 187.037C170.739 187.936 169.806 188.563 168.744 188.782L137.016 194.58C136.483 194.671 135.937 194.656 135.41 194.537C134.882 194.418 134.383 194.197 133.942 193.886C133.501 193.575 133.125 193.181 132.837 192.726C132.548 192.271 132.353 191.764 132.262 191.235C131.892 189.231 132.734 186.653 134.668 185.904Z" fill="#FFB762"/>
<path opacity="0.3" d="M164.426 170.494C161.999 165.808 163.065 164.322 160.653 161.641C158.241 158.96 152.395 159.332 151.98 161.561C151.262 165.376 156.37 170.125 156.127 175.83C155.884 181.535 152.598 181.543 149.111 183.179C145.624 184.815 140.501 188.478 141.659 191.565C142.355 193.405 145.723 196.556 150.708 195.208C154.596 194.154 158.176 189.285 161.635 188.008C165.095 186.731 170.934 184.737 169.084 179.092C167.156 173.253 166.37 174.27 164.426 170.494Z" fill="white"/>
<path d="M136.112 194.672L171.981 188.117L172.756 192.305L136.887 198.86L136.112 194.672Z" fill="#F89358" stroke="#FFB762" stroke-width="2.9882" stroke-miterlimit="10"/>
<path d="M173.359 195.593C171.3 195.97 169.325 194.616 168.947 192.57C168.568 190.524 169.93 188.561 171.988 188.185C174.046 187.809 176.022 189.162 176.4 191.208C176.778 193.254 175.417 195.217 173.359 195.593Z" fill="#F69257"/>
<path d="M137.069 202.23C135.01 202.606 133.035 201.253 132.657 199.207C132.278 197.161 133.64 195.198 135.698 194.822C137.756 194.446 139.732 195.799 140.11 197.845C140.488 199.891 139.127 201.854 137.069 202.23Z" fill="#F69257"/>
<path d="M149.159 200.019C147.101 200.395 145.126 199.042 144.747 196.996C144.369 194.95 145.731 192.987 147.789 192.611C149.847 192.235 151.822 193.588 152.201 195.634C152.579 197.68 151.218 199.643 149.159 200.019Z" fill="#F69257"/>
<path d="M161.264 197.804C159.206 198.181 157.23 196.827 156.852 194.781C156.474 192.735 157.835 190.772 159.893 190.396C161.952 190.02 163.927 191.373 164.305 193.419C164.684 195.465 163.322 197.428 161.264 197.804Z" fill="#F69257"/>
<path d="M148.784 168.837L156.42 167.441L156.694 168.921L149.058 170.317L148.784 168.837Z" fill="#FFB762" stroke="white" stroke-width="2.33176" stroke-miterlimit="10"/>
<path d="M149.021 176.276L157.76 174.679L157.486 173.199L149.223 174.709L149.021 176.276Z" fill="#FFB762" stroke="white" stroke-width="2.33176" stroke-miterlimit="10"/>
<path d="M166.215 49.7969H143.858C141.435 49.7969 139.472 51.7031 139.472 54.0545V104.289C139.472 106.641 141.435 108.547 143.858 108.547H166.215C168.638 108.547 170.601 106.641 170.601 104.289V54.0545C170.601 51.7031 168.638 49.7969 166.215 49.7969Z" fill="white"/>
<path d="M166.216 49.7969H163.328C163.328 49.7969 161.772 92.6232 153.895 108.547H166.216C168.638 108.547 170.602 106.641 170.602 104.289V54.0545C170.602 51.7031 168.638 49.7969 166.216 49.7969Z" fill="#CCEFDB"/>
<path d="M147.98 49.7969H161.47V50.9673C161.469 51.1777 161.425 51.3859 161.34 51.5795C161.255 51.7732 161.132 51.9486 160.976 52.0954C160.821 52.2422 160.637 52.3576 160.435 52.4347C160.234 52.5119 160.018 52.5493 159.802 52.5448H149.614C149.181 52.5448 148.765 52.3777 148.459 52.0803C148.153 51.7828 147.98 51.3794 147.98 50.9588V49.7969Z" fill="#00C65E"/>
<path d="M159.801 53.2077H149.614C149.002 53.2077 148.416 52.9718 147.983 52.5519C147.551 52.132 147.308 51.5625 147.308 50.9687V49.1367H162.16V50.9687C162.16 51.2671 162.099 51.5624 161.98 51.8375C161.861 52.1125 161.686 52.3616 161.466 52.5702C161.247 52.7788 160.986 52.9427 160.7 53.0521C160.414 53.1616 160.109 53.2145 159.801 53.2077ZM148.662 50.4513V50.9687C148.662 51.2139 148.762 51.449 148.941 51.6224C149.119 51.7957 149.362 51.8931 149.614 51.8931H159.801C160.054 51.8931 160.296 51.7957 160.475 51.6224C160.653 51.449 160.754 51.2139 160.754 50.9687V50.4513H148.662Z" fill="#00C65E"/>
<path d="M166.218 109.398H143.86C142.47 109.398 141.137 108.862 140.154 107.908C139.17 106.953 138.618 105.659 138.618 104.309V54.0575C138.618 52.7079 139.17 51.4135 140.154 50.4592C141.137 49.5049 142.47 48.9688 143.86 48.9688H166.218C167.608 48.9688 168.942 49.5049 169.925 50.4592C170.908 51.4135 171.46 52.7079 171.46 54.0575V104.292C171.463 104.962 171.329 105.625 171.066 106.245C170.804 106.864 170.418 107.427 169.931 107.902C169.444 108.376 168.865 108.752 168.228 109.009C167.591 109.266 166.908 109.398 166.218 109.398ZM143.86 50.648C142.933 50.648 142.045 51.0055 141.389 51.6417C140.734 52.2779 140.366 53.1408 140.366 54.0406V104.292C140.366 105.192 140.734 106.055 141.389 106.691C142.045 107.327 142.933 107.685 143.86 107.685H166.218C167.145 107.685 168.034 107.327 168.689 106.691C169.345 106.055 169.713 105.192 169.713 104.292V54.0575C169.713 53.1578 169.345 52.2949 168.689 51.6587C168.034 51.0224 167.145 50.665 166.218 50.665L143.86 50.648Z" fill="#00C65E"/>
<rect x="141.723" y="95.4688" width="24.7677" height="8.7412" rx="2.33176" fill="#FFB762"/>
<rect x="141.723" y="83.9922" width="24.7677" height="6.89329" rx="2.33176" fill="#FFB762"/>
<rect x="141.723" y="58.7109" width="24.7677" height="1.35842" rx="0.679211" fill="#FFB762"/>
<rect x="141.723" y="65.0312" width="24.7677" height="1.35842" rx="0.679211" fill="#FFB762"/>
<rect x="141.723" y="71.3516" width="15.4393" height="1.35842" rx="0.679211" fill="#FFB762"/>
<rect x="141.723" y="77.6719" width="12.401" height="1.35842" rx="0.679211" fill="#FFB762"/>
<path d="M9.49728 115.261C9.49728 115.261 12.2639 118.876 25.6115 121.402C38.9591 123.927 42.8716 121.576 42.8716 121.576L45.8502 95.2123C46.7213 87.504 41.9691 80.195 33.8867 78.6656C25.8148 77.1382 18.5882 82.2526 16.591 89.6757L9.49728 115.261Z" fill="white"/>
<path d="M7.1078 93.8063C6.15932 98.6979 12.659 106.143 12.659 106.143C17.1971 107.002 22.8163 100.592 23.5296 96.9136C24.2429 93.235 21.8777 89.6335 16.9426 88.4523C12.2281 87.2614 8.07362 88.8253 7.1078 93.8063Z" fill="white"/>
<path d="M33.5164 80.4354C32.1928 80.185 31.3159 78.9706 31.5578 77.723C31.7997 76.4755 33.0688 75.6672 34.3924 75.9176C35.7161 76.1681 36.593 77.3824 36.3511 78.63C36.1091 79.8776 34.84 80.6859 33.5164 80.4354Z" fill="white"/>
<path d="M33.6809 113.873L40.0702 117.875L56.1865 97.3242L50.2418 96.22L33.6809 113.873Z" fill="white"/>
<path d="M5.56372 116.13C5.56372 116.13 8.34088 119.747 21.6779 122.271C35.015 124.795 38.938 122.445 38.938 122.445L41.8639 96.0717C42.7475 88.3554 37.9953 81.0464 29.9128 79.5169C21.8304 77.9875 14.6038 83.102 12.6047 90.535L5.56372 116.13Z" fill="#FFB762"/>
<path d="M8.07551 108.098L8.52933 108.184C13.9963 109.218 20.0557 102.119 20.85 98.0227C21.7252 93.5088 18.6388 89.4513 13.3332 88.1485C12.0482 87.7714 10.6999 87.6446 9.3708 87.7759C8.04166 87.9072 6.75957 88.2938 5.60287 88.9121C4.62705 89.5375 3.80147 90.3484 3.17758 91.2944C2.55369 92.2403 2.14485 93.3009 1.97653 94.4103C0.935496 99.7791 7.50993 107.403 7.79753 107.726L8.07551 108.098ZM12.105 90.3074L12.696 90.4192C16.7044 91.4147 18.9743 94.2664 18.34 97.5374C17.7058 100.808 12.8677 106.067 9.34698 105.885C7.49398 103.648 3.73793 98.248 4.38761 94.8974C4.48813 94.0962 4.76576 93.3268 5.20257 92.6389C5.63938 91.951 6.22565 91.36 6.92349 90.9039C8.49585 90.0877 10.3488 89.8744 12.105 90.3074Z" fill="#FFB762"/>
<path d="M29.6248 81.3104C28.3012 81.06 27.4243 79.8456 27.6662 78.598C27.9081 77.3505 29.1772 76.5422 30.5008 76.7926C31.8244 77.0431 32.7014 78.2574 32.4595 79.505C32.2175 80.7526 30.9484 81.5609 29.6248 81.3104Z" fill="#FFB762"/>
<path d="M29.7902 114.748L36.1795 118.75L52.2871 98.1875L46.3405 97.0932L29.7902 114.748Z" fill="#FFB762"/>
<path d="M41.9986 93.1854L13.5766 87.8209C13.8671 87.0564 14.7222 85.8122 14.7222 85.8122L41.7183 90.9402C41.7687 91.6433 42.0181 92.49 41.9986 93.1854Z" fill="white"/>
<path d="M26.8944 84.2763L31.6612 85.18L31.0145 84.1054L27.8966 83.5143L26.8944 84.2763Z" fill="white"/>
<path d="M12.5267 108.741L13.6592 111.509L17.3584 95.707L15.4918 96.1148L12.5267 108.741Z" fill="white"/>
<path d="M29.8249 0L10.7599 0C7.60414 0 5.0459 2.40418 5.0459 5.36987L5.0459 57.8573C5.0459 60.823 7.60414 63.2272 10.7599 63.2272L29.8249 63.2272C32.9807 63.2272 35.5389 60.823 35.5389 57.8573L35.5389 5.36987C35.5389 2.40418 32.9807 0 29.8249 0Z" fill="#00C65E"/>
<path d="M35.4913 5.36988C35.4913 2.40418 32.933 0 29.7773 0C28.963 11.148 27.6901 23.4789 23.8333 38.8171C19.9765 54.1553 13.04 63.2272 16.1957 63.2272H29.7773C32.933 63.2272 35.4913 60.823 35.4913 57.8573L35.4913 5.36988Z" fill="#08A636"/>
<path d="M35.534 20.668L5.04102 20.668V22.0595L35.534 22.0595V20.668Z" fill="#FAFAFA"/>
<path d="M8.46777 27.3966L8.46777 33.4219H10.4946V27.3966H8.46777Z" fill="#FAFAFA"/>
<path d="M8.45508 8.82628L8.45508 14.8516H10.4819V8.82628H8.45508Z" fill="#FAFAFA"/>
<path d="M122.029 125.576H63.6984L59.9121 110.719H118.028H125.658L122.029 125.576Z" fill="#00C65E"/>
<path d="M122.314 125.872H63.4044L59.4609 110.398H126.1L122.314 125.872ZM63.9759 125.243H121.735L125.214 111.009H60.3539L63.9759 125.243Z" fill="#00C65E"/>
<path d="M117.336 112.273L114.55 111.707C116.279 105.115 118.393 100.48 120.822 97.9323C122.873 95.7749 124.551 95.7623 125.016 95.8126C125.455 95.8405 125.88 95.9571 126.259 96.1535C126.638 96.3499 126.961 96.6207 127.202 96.9448C128.766 98.9199 128.259 103.864 125.702 111.588L122.958 110.883C126.13 101.297 125.216 98.5362 124.794 98.3034C124.387 98.4041 120.686 99.4922 117.336 112.273Z" fill="#00C65E"/>
<path d="M60.0177 111.968C56.8672 104.546 55.9599 99.7023 57.3244 97.5763C57.5428 97.2232 57.849 96.9182 58.2201 96.684C58.5913 96.4499 59.0177 96.2926 59.4676 96.224C60.4178 96.0227 65.7686 95.7585 71.148 111.074L68.419 111.817C66.0187 104.986 63.7826 101.753 62.3252 100.262C60.9964 98.8846 60.1249 98.7273 59.9463 98.7085C59.8963 98.7085 59.8677 98.7525 59.8248 98.8154C59.1819 99.8218 59.5462 103.64 62.6824 111.081L60.0177 111.968ZM60.0177 98.6833H59.9606H60.0177Z" fill="#00C65E"/>
<path d="M69.8858 125.891H70.736L67.9641 110.387H67.1211L69.8858 125.891Z" fill="#FFB762"/>
<path d="M65.7387 125.911L67.2961 125.917L64.5313 110.413L62.9668 110.406L65.7387 125.911Z" fill="#FFB762"/>
<path d="M75.0401 125.911L75.5688 125.917L72.7969 110.413L72.2754 110.406L75.0401 125.911Z" fill="#FFB762"/>
<path d="M110.39 125.898H108.833L111.691 110.406H113.248L110.39 125.898Z" fill="#FFB762"/>
<path d="M118.454 125.898H115.468L118.325 110.406H121.312L118.454 125.898Z" fill="#FFB762"/>
<path d="M164.863 204.692H161.704L164.366 206.393C166.733 207.904 168.655 210.002 169.942 212.476C171.228 214.949 171.834 217.711 171.7 220.487C171.565 223.263 170.695 225.956 169.175 228.297C167.695 230.577 165.648 232.446 163.23 233.727H148.028C145.61 232.446 143.564 230.577 142.084 228.297C140.564 225.956 139.694 223.263 139.559 220.487C139.425 217.711 140.03 214.949 141.317 212.476C142.603 210.002 144.525 207.904 146.893 206.393L149.554 204.692H146.396H145.002C144.965 204.692 144.931 204.678 144.908 204.655C144.886 204.633 144.876 204.606 144.876 204.579V203.96C144.876 203.933 144.887 203.905 144.91 203.883C144.933 203.86 144.967 203.845 145.004 203.844H166.253C166.291 203.844 166.325 203.859 166.349 203.883C166.372 203.905 166.383 203.933 166.383 203.96V204.579C166.383 204.593 166.38 204.606 166.375 204.619C166.37 204.632 166.361 204.644 166.35 204.655C166.339 204.666 166.325 204.676 166.309 204.682C166.292 204.689 166.275 204.693 166.256 204.692H166.253H164.863ZM166.455 205.596C166.524 205.583 166.591 205.564 166.655 205.537C166.783 205.486 166.899 205.409 166.997 205.313C167.095 205.217 167.172 205.103 167.225 204.977C167.278 204.851 167.306 204.716 167.306 204.579V203.957C167.305 203.682 167.193 203.419 166.996 203.225C166.799 203.031 166.531 202.922 166.253 202.922L166.455 205.596Z" stroke="#00C65E" stroke-width="1.84513"/>
<path d="M140.11 212.852C138.333 216.768 138.14 221.207 139.571 225.26C141.002 229.312 143.947 232.672 147.804 234.649H163.458C167.315 232.672 170.261 229.312 171.692 225.26C173.122 221.207 172.929 216.768 171.153 212.852H140.11Z" fill="#00C65E"/>
<path d="M144.753 222.518C145.599 223.557 146.585 224.478 147.684 225.255L148.688 224.713L148.879 225.861C155.248 228.935 160.26 222.518 160.26 222.518C151.814 213.583 144.753 222.518 144.753 222.518Z" fill="#F9B565"/>
<path d="M144.753 222.516C145.604 223.637 146.649 224.601 147.838 225.365L148.314 225.63C148.833 225.901 149.378 226.123 149.94 226.292C150.669 225.165 151.049 223.853 151.033 222.516C151.067 221.282 150.741 220.064 150.094 219.008C147.925 219.459 146.013 220.715 144.753 222.516Z" fill="#F3935A"/>
<path d="M149.421 222.654C149.957 222.654 150.392 222.251 150.392 221.755C150.392 221.258 149.957 220.855 149.421 220.855C148.884 220.855 148.449 221.258 148.449 221.755C148.449 222.251 148.884 222.654 149.421 222.654Z" fill="white"/>
<path d="M149.225 221.12C149.292 221.09 149.366 221.074 149.44 221.074C149.514 221.074 149.588 221.09 149.655 221.12C149.794 221.175 149.913 221.27 149.997 221.392C150.084 221.509 150.131 221.649 150.131 221.794C150.131 221.938 150.084 222.079 149.997 222.195C149.902 221.993 149.794 221.797 149.672 221.609C149.546 221.427 149.395 221.262 149.225 221.12Z" fill="#F3935A"/>
<path d="M152.183 226.723L156.447 228.669C156.938 228.059 156.577 225.559 156.577 225.559C156.577 225.559 154.288 226.751 152.183 226.723Z" fill="#F3935A"/>
<path d="M147.255 220.141C147.255 220.141 149.6 217.331 153.031 217.203C155.262 217.159 157.481 217.521 159.58 218.27L157.576 220.233C157.576 220.233 153.092 217.006 147.255 220.141Z" fill="#F3935A"/>
<path d="M159.588 221.847L160.25 222.518L159.588 223.196C160.243 223.696 160.973 224.094 161.75 224.376C162.72 224.711 163.73 224.919 164.754 224.994C164.754 224.994 164.161 222.526 162.531 222.084C163.024 221.67 163.394 221.131 163.601 220.525C163.808 219.919 163.844 219.269 163.706 218.645C162.672 218.916 161.739 219.473 161.015 220.25C160.507 220.732 159.588 221.847 159.588 221.847Z" fill="#F3935A"/>
<path d="M147.678 225.261C147.86 225.138 148.036 225.004 148.202 224.86C148.368 224.727 148.513 224.57 148.633 224.395C148.572 224.606 148.48 224.807 148.361 224.993C148.258 225.161 148.144 225.321 148.019 225.474L147.857 225.386L147.678 225.261Z" fill="#F9B565"/>
<path d="M143.834 221.633C144.573 221.633 145.172 221.042 145.172 220.313C145.172 219.583 144.573 218.992 143.834 218.992C143.096 218.992 142.497 219.583 142.497 220.313C142.497 221.042 143.096 221.633 143.834 221.633Z" fill="white"/>
<path d="M145.592 217.643C146.071 217.643 146.458 217.261 146.458 216.788C146.458 216.316 146.071 215.934 145.592 215.934C145.114 215.934 144.727 216.316 144.727 216.788C144.727 217.261 145.114 217.643 145.592 217.643Z" fill="white"/>
<path d="M143.558 214.882C143.874 214.882 144.131 214.628 144.131 214.316C144.131 214.003 143.874 213.75 143.558 213.75C143.241 213.75 142.984 214.003 142.984 214.316C142.984 214.628 143.241 214.882 143.558 214.882Z" fill="white"/>
<path opacity="0.5" d="M167.303 203.959V204.581C167.303 204.856 167.193 205.119 166.996 205.313C166.799 205.507 166.533 205.617 166.254 205.617H164.86C167.362 207.215 169.395 209.434 170.756 212.052C172.117 214.669 172.758 217.593 172.616 220.532C172.474 223.471 171.554 226.322 169.947 228.799C168.34 231.277 166.102 233.295 163.458 234.651H147.8C147.8 234.651 161.112 231.524 167.206 223.22C169.555 220.009 170.864 212.384 164.535 206.764C162.421 204.906 167.303 203.835 167.303 203.959Z" fill="white"/>
<path d="M155.631 152.817C165.723 152.817 173.904 144.685 173.904 134.654C173.904 124.624 165.723 116.492 155.631 116.492C145.54 116.492 137.359 124.624 137.359 134.654C137.359 144.685 145.54 152.817 155.631 152.817Z" fill="#00C65E"/>
<path d="M155.634 148.459C163.305 148.459 169.523 142.278 169.523 134.653C169.523 127.029 163.305 120.848 155.634 120.848C147.964 120.848 141.745 127.029 141.745 134.653C141.745 142.278 147.964 148.459 155.634 148.459Z" fill="#CCE7D7"/>
<path d="M155.636 140.778C158.882 140.778 161.512 138.164 161.512 134.938C161.512 131.712 158.882 129.098 155.636 129.098C152.391 129.098 149.761 131.712 149.761 134.938C149.761 138.164 152.391 140.778 155.636 140.778Z" fill="white"/>
<path d="M155.628 139.13C158.115 139.13 160.131 137.127 160.131 134.655C160.131 132.183 158.115 130.18 155.628 130.18C153.142 130.18 151.126 132.183 151.126 134.655C151.126 137.127 153.142 139.13 155.628 139.13Z" fill="#00C65E"/>
<path d="M156.224 134.203H155.018V149.552H156.224V134.203Z" fill="#00C65E"/>
<path d="M156.224 119.59H155.018V134.939H156.224V119.59Z" fill="#00C65E"/>
<path d="M155.872 133.977V135.176H171.314V133.977H155.872Z" fill="#00C65E"/>
<path d="M141.167 133.965V135.164H156.609V133.965H141.167Z" fill="#00C65E"/>
<path d="M155.862 134.321L155.013 135.172L165.977 145.98L166.827 145.128L155.862 134.321Z" fill="#00C65E"/>
<path d="M145.424 124.028L144.574 124.879L155.539 135.687L156.388 134.835L145.424 124.028Z" fill="#00C65E"/>
<path d="M155.433 134.41L156.289 135.254L167.162 124.355L166.306 123.511L155.433 134.41Z" fill="#00C65E"/>
<path d="M145.092 144.785L145.948 145.629L156.821 134.73L155.965 133.886L145.092 144.785Z" fill="#00C65E"/>
<path d="M155.63 137.35C157.127 137.35 158.341 136.144 158.341 134.656C158.341 133.167 157.127 131.961 155.63 131.961C154.133 131.961 152.919 133.167 152.919 134.656C152.919 136.144 154.133 137.35 155.63 137.35Z" fill="white"/>
</g>
<g clip-path="url(#clip1_1873_57093)">
<path d="M389.787 188.149C393.103 188.149 395.792 185.59 395.792 182.434C395.792 179.277 393.103 176.719 389.787 176.719C386.471 176.719 383.783 179.277 383.783 182.434C383.783 185.59 386.471 188.149 389.787 188.149Z" stroke="#FD9558" stroke-width="4.14617" stroke-miterlimit="10"/>
<path d="M390.044 185.728C392.186 185.728 393.923 184.075 393.923 182.036C393.923 179.997 392.186 178.344 390.044 178.344C387.902 178.344 386.165 179.997 386.165 182.036C386.165 184.075 387.902 185.728 390.044 185.728Z" stroke="#FFB762" stroke-width="1.38206" stroke-miterlimit="10"/>
<path d="M405.591 169.805C402.539 168.897 398.395 169.465 395.062 168.562C391.764 167.535 387.436 163.914 384.377 163.017C380.507 161.882 376.626 163.267 375.684 166.122C374.742 168.977 377.198 171.837 380.853 174.391C384.169 176.552 387.78 178.27 391.586 179.499C394.892 180.447 398.313 180.983 401.764 181.093C406.301 181.065 410.004 179.89 410.928 177.036C411.852 174.181 409.467 170.946 405.591 169.805ZM385.247 168.971C384.884 169.8 383.655 170.106 382.505 169.646C381.354 169.187 380.716 168.142 381.086 167.314C381.455 166.485 382.678 166.179 383.828 166.633C384.979 167.087 385.581 168.137 385.247 168.971ZM405.52 174.93C405.156 175.764 403.928 176.065 402.783 175.611C401.638 175.157 400.994 174.107 401.364 173.279C401.734 172.45 402.956 172.143 404.107 172.597C405.258 173.051 405.872 174.101 405.52 174.93Z" fill="#00C65E"/>
<path d="M395.27 168.552C393.982 168.172 392.747 167.646 391.591 166.985C390.398 166.361 389.265 165.703 388.115 165.061C387.002 164.403 385.819 163.859 384.585 163.438C383.369 163.078 382.083 162.983 380.823 163.16C379.592 163.305 378.44 163.81 377.525 164.607C377.1 164.992 376.769 165.462 376.556 165.983C376.344 166.504 376.255 167.064 376.297 167.621C376.481 168.779 377.018 169.861 377.841 170.731C378.671 171.684 379.598 172.557 380.608 173.336L381.377 173.904C381.627 174.085 381.884 174.256 382.158 174.431C382.701 174.778 383.267 175.107 383.834 175.43C384.972 176.072 386.147 176.668 387.334 177.241C388.52 177.814 389.719 178.342 390.953 178.796C392.199 179.252 393.478 179.62 394.781 179.897C397.357 180.495 399.999 180.804 402.651 180.816C403.982 180.808 405.307 180.638 406.592 180.311C407.89 180.004 409.088 179.398 410.081 178.546C409.13 179.468 407.951 180.147 406.652 180.521C405.36 180.905 404.021 181.13 402.669 181.191C399.964 181.299 397.255 181.077 394.608 180.532C393.276 180.288 391.962 179.966 390.673 179.568C389.39 179.144 388.13 178.659 386.898 178.115C385.676 177.547 384.472 176.98 383.285 176.361C382.689 176.043 382.093 175.72 381.532 175.368C381.246 175.186 380.936 174.999 380.673 174.8L379.874 174.187C378.787 173.371 377.789 172.452 376.893 171.446C375.922 170.397 375.299 169.098 375.104 167.712C375.048 166.992 375.165 166.269 375.446 165.598C375.727 164.928 376.165 164.327 376.726 163.841C377.824 162.922 379.195 162.351 380.65 162.207C382.059 162.058 383.486 162.215 384.823 162.666C386.088 163.158 387.288 163.786 388.401 164.539C390.702 165.941 392.789 167.559 395.27 168.552Z" fill="#08A636"/>
<path d="M385.423 168.957C385.309 169.185 385.143 169.387 384.936 169.547C384.73 169.707 384.489 169.821 384.231 169.881C383.686 170.023 383.112 170.023 382.567 169.881C381.982 169.74 381.457 169.429 381.065 168.991C380.827 168.735 380.669 168.421 380.61 168.084C380.551 167.747 380.593 167.401 380.731 167.086C380.869 166.771 381.098 166.499 381.391 166.302C381.685 166.105 382.03 165.99 382.389 165.972C383 165.919 383.613 166.057 384.135 166.363C384.622 166.634 385.022 167.026 385.292 167.498C385.426 167.717 385.508 167.961 385.53 168.213C385.553 168.466 385.516 168.719 385.423 168.957ZM385.423 168.957C385.51 168.725 385.53 168.476 385.479 168.235C385.429 167.994 385.31 167.771 385.137 167.589C384.809 167.233 384.37 166.987 383.885 166.886C382.955 166.676 381.995 167.022 381.81 167.521C381.625 168.02 381.983 168.894 382.794 169.376C383.209 169.634 383.7 169.76 384.195 169.734C384.454 169.722 384.705 169.644 384.922 169.507C385.138 169.37 385.311 169.18 385.423 168.957Z" fill="#08A636"/>
<path d="M400.258 147.732C404.69 149.035 406.978 153.999 405.405 158.829C404.65 161.185 403.178 163.276 401.176 164.838C399.665 166.043 398.534 167.623 397.909 169.403C397.465 170.712 397.607 172.448 396.867 173.194C395.634 174.414 392.268 173.874 391.559 173.669C390.85 173.464 387.724 172.079 387.453 170.424C387.287 169.415 388.427 168.077 388.834 166.739C389.375 164.934 389.375 163.022 388.834 161.217C388.108 158.853 388.131 156.338 388.902 153.988C390.511 149.152 395.35 146.289 399.758 147.585L400.258 147.732Z" fill="#FD9558"/>
<path d="M401.216 149.479C405.503 150.739 407.716 155.54 406.195 160.211C405.465 162.49 404.041 164.512 402.105 166.022C400.643 167.188 399.549 168.716 398.945 170.438C398.515 171.703 398.653 173.383 397.937 174.104C396.745 175.285 393.489 174.762 392.803 174.564C392.118 174.365 389.095 173.026 388.832 171.425C388.671 170.449 389.774 169.155 390.168 167.861C390.691 166.116 390.691 164.266 390.168 162.521C389.466 160.235 389.489 157.802 390.234 155.529C391.79 150.852 396.47 148.083 400.733 149.337L401.216 149.479Z" fill="#FFB762"/>
<path d="M393.118 162.154C392.032 161.048 391.425 159.593 391.419 158.079C391.363 156.516 391.804 154.974 392.683 153.653C393.576 152.268 394.956 151.229 396.576 150.718C397.387 150.466 398.251 150.404 399.092 150.537C399.891 150.664 400.63 151.02 401.209 151.558C399.951 151.788 398.777 152.326 397.805 153.119C396.981 153.804 396.272 154.604 395.7 155.491C395.087 156.418 394.583 157.406 394.197 158.437C393.737 159.648 393.376 160.89 393.118 162.154Z" fill="#FD9558"/>
<path d="M396.178 170.44C396.357 171.114 396.797 171.699 397.409 172.078C397.483 169.603 399.025 167.33 399.787 166.503C399.466 166.324 399.095 166.242 398.724 166.27C398.334 166.299 397.956 166.418 397.624 166.615C396.96 167.013 396.466 167.622 396.228 168.333C395.99 169.015 395.972 169.749 396.178 170.44Z" fill="white"/>
<path d="M401.294 173.375C401.398 173.139 401.553 172.926 401.749 172.751C401.946 172.576 402.179 172.443 402.433 172.36C402.978 172.153 403.57 172.089 404.15 172.172C404.804 172.255 405.41 172.547 405.867 173.001C406.13 173.261 406.319 173.582 406.415 173.931C406.535 174.328 406.52 174.751 406.373 175.14C406.222 175.521 405.954 175.851 405.604 176.087C405.291 176.292 404.932 176.422 404.555 176.468C403.898 176.534 403.237 176.388 402.677 176.053C402.178 175.759 401.767 175.347 401.485 174.856C401.345 174.636 401.256 174.39 401.223 174.135C401.19 173.88 401.215 173.621 401.294 173.375ZM401.294 173.375C401.219 173.61 401.216 173.859 401.284 174.096C401.353 174.332 401.491 174.544 401.682 174.709C402.037 175.023 402.497 175.21 402.981 175.236C403.391 175.265 403.802 175.193 404.174 175.026C404.402 174.934 404.583 174.761 404.68 174.544C404.752 174.32 404.729 174.077 404.615 173.869C404.444 173.507 404.174 173.196 403.834 172.967C403.442 172.692 402.961 172.555 402.475 172.581C402.219 172.593 401.973 172.675 401.764 172.815C401.555 172.956 401.392 173.15 401.294 173.375Z" fill="#08A636"/>
<path d="M264.535 36.2651C267.034 21.0146 274.733 16.832 274.733 16.832C271.145 22.9623 268.423 29.4934 266.634 36.2651H264.535Z" fill="#1E7836"/>
<path d="M267.516 36.2657C269.127 26.0237 276.409 27.3053 276.409 27.3053C276.409 27.3053 273.099 26.4205 269.614 36.2657H267.516Z" fill="#1E7836"/>
<path d="M267.516 36.2657C269.127 26.0237 276.409 27.3053 276.409 27.3053C276.409 27.3053 271.394 26.4205 267.916 36.2657H267.516Z" fill="#1E7836"/>
<path d="M251.523 36.4005C250.23 26.1155 242.913 27.2094 242.913 27.2094C242.913 27.2094 246.247 26.3944 249.418 36.3254L251.523 36.4005Z" fill="#1E7836"/>
<path d="M251.641 36.3028C250.087 26.0768 242.8 27.2994 242.8 27.2994C242.8 27.2994 247.809 26.4254 251.235 36.3028H251.641Z" fill="#1E7836"/>
<path d="M254.029 36.3206C251.669 21.0541 244.005 16.8125 244.005 16.8125C247.537 22.9694 250.201 29.5203 251.93 36.3045L254.029 36.3206Z" fill="#1E7836"/>
<path d="M254.03 36.3201C251.671 21.0536 244.876 17.418 244.876 17.418C244.876 17.418 250.784 21.8955 252.993 36.3041L254.03 36.3201Z" fill="#1E7836"/>
<path d="M257.227 36.2642C257.807 20.7725 251.517 3.48438 251.517 3.48438C251.517 3.48438 251.853 25.3144 255.14 36.2642H257.227Z" fill="#1E7836"/>
<path d="M255.779 36.2642C254.405 22.0541 251.529 3.48438 251.529 3.48438C251.529 3.48438 251.854 25.3144 255.141 36.2642H255.779Z" fill="#1E7836"/>
<path d="M261.671 36.2648C261.289 20.7463 267.84 3.55469 267.84 3.55469C267.84 3.55469 267.214 25.3632 263.782 36.2648H261.671Z" fill="#1E7836"/>
<path d="M262.517 36.2658C263.236 20.1788 267.839 4.42969 267.839 4.42969C267.839 4.42969 267.213 25.3427 263.78 36.2712L262.517 36.2658Z" fill="#1E7836"/>
<path d="M258.298 36.2654C257.91 20.7629 258.733 0 258.733 0C258.733 0 263.841 25.3477 260.403 36.2654H258.298Z" fill="#1E7836"/>
<path d="M267.669 55.1906H248.49L245.545 34.9961H267.373H270.243L267.669 55.1906Z" fill="#FD9558"/>
<path d="M272.587 39.153L270.299 57.8369H253.228L250.608 39.153H270.432H272.587Z" fill="white" stroke="#FD9558" stroke-width="0.915428"/>
<path d="M326.242 235.486C341.8 235.486 354.412 223.481 354.412 208.673C354.412 193.864 341.8 181.859 326.242 181.859C310.684 181.859 298.072 193.864 298.072 208.673C298.072 223.481 310.684 235.486 326.242 235.486Z" fill="#00C65E"/>
<path d="M326.242 229.052C338.068 229.052 347.655 219.927 347.655 208.671C347.655 197.414 338.068 188.289 326.242 188.289C314.416 188.289 304.829 197.414 304.829 208.671C304.829 219.927 314.416 229.052 326.242 229.052Z" fill="#CCE7D7"/>
<path d="M326.24 217.717C331.243 217.717 335.299 213.857 335.299 209.095C335.299 204.333 331.243 200.473 326.24 200.473C321.237 200.473 317.182 204.333 317.182 209.095C317.182 213.857 321.237 217.717 326.24 217.717Z" fill="white"/>
<path d="M326.243 215.28C330.077 215.28 333.184 212.322 333.184 208.673C333.184 205.024 330.077 202.066 326.243 202.066C322.409 202.066 319.302 205.024 319.302 208.673C319.302 212.322 322.409 215.28 326.243 215.28Z" fill="#00C65E"/>
<path d="M327.157 208.008H325.298V230.668H327.157V208.008Z" fill="#00C65E"/>
<path d="M327.157 186.434H325.298V209.093H327.157V186.434Z" fill="#00C65E"/>
<path d="M326.604 207.671V209.441H350.41V207.671H326.604Z" fill="#00C65E"/>
<path d="M303.943 207.656V209.426H327.75V207.656H303.943Z" fill="#00C65E"/>
<path d="M326.588 208.177L325.278 209.434L342.182 225.389L343.492 224.132L326.588 208.177Z" fill="#00C65E"/>
<path d="M310.5 192.985L309.19 194.242L326.094 210.198L327.404 208.941L310.5 192.985Z" fill="#00C65E"/>
<path d="M325.935 208.312L327.256 209.559L344.019 193.469L342.698 192.222L325.935 208.312Z" fill="#00C65E"/>
<path d="M309.988 223.629L311.309 224.875L328.072 208.785L326.751 207.539L309.988 223.629Z" fill="#00C65E"/>
<path d="M326.246 212.652C328.554 212.652 330.425 210.871 330.425 208.673C330.425 206.476 328.554 204.695 326.246 204.695C323.938 204.695 322.066 206.476 322.066 208.673C322.066 210.871 323.938 212.652 326.246 212.652Z" fill="white"/>
<path d="M283.047 205.108L283.047 195.871L268.875 195.871L268.875 205.108L283.047 205.108Z" fill="#F89358"/>
<path d="M286.031 206.373L286.031 196.12C286.031 194.798 284.905 193.727 283.516 193.727L281.398 193.727C280.009 193.727 278.883 194.798 278.883 196.12L278.883 206.373C278.883 207.695 280.009 208.767 281.398 208.767L283.516 208.767C284.905 208.767 286.031 207.695 286.031 206.373Z" fill="#F89358"/>
<path d="M275.082 223.466L275.082 195.881C275.082 192.159 271.911 189.141 268 189.141L245.936 189.141C242.025 189.141 238.855 192.159 238.855 195.881L238.855 223.466C238.855 227.189 242.025 230.207 245.936 230.207L268 230.207C271.911 230.207 275.082 227.189 275.082 223.466Z" fill="#F89358"/>
<path d="M275.082 223.882L275.082 197.644C275.082 194.151 272.108 191.32 268.439 191.32L248.112 191.32C244.443 191.32 241.469 194.151 241.469 197.644L241.469 223.882C241.469 227.374 244.443 230.205 248.112 230.205L268.439 230.205C272.108 230.205 275.082 227.374 275.082 223.882Z" fill="#FFB762"/>
<path d="M263.813 218.043L272.186 218.043L272.186 224.477C272.186 225.312 271.837 226.113 271.216 226.704C270.596 227.294 269.754 227.626 268.876 227.626L263.805 227.626L263.813 218.043Z" fill="white"/>
<path d="M283.047 206.604L283.047 197.367L268.875 197.367L268.875 206.604L283.047 206.604Z" fill="#FFB762"/>
<path d="M286.031 206.602L286.031 197.38C286.031 196.18 285.009 195.207 283.748 195.207L281.787 195.207C280.526 195.207 279.504 196.18 279.504 197.38L279.504 206.602C279.504 207.802 280.526 208.775 281.787 208.775L283.748 208.775C285.009 208.775 286.031 207.802 286.031 206.602Z" fill="#FFB762"/>
<path d="M309.518 12.3008H343.266C346.302 12.3008 349.214 13.4488 351.361 15.4923C353.507 17.5358 354.714 20.3073 354.714 23.1972V23.5421C354.714 26.0621 353.662 28.4789 351.79 30.2609C349.918 32.0428 347.378 33.0439 344.731 33.0439H308.053C305.405 33.0439 302.866 32.0428 300.994 30.2609C299.122 28.4789 298.07 26.0621 298.07 23.5421V23.1972C298.07 20.3073 299.276 17.5358 301.423 15.4923C303.57 13.4488 306.482 12.3008 309.518 12.3008Z" fill="#08A636"/>
<path d="M343.521 12.3217H342.257C341.203 5.36394 334.489 0 326.366 0C318.243 0 311.553 5.36394 310.474 12.3217H309.081C306.373 12.2972 303.766 13.2972 301.832 15.102C299.898 16.9067 298.796 19.3685 298.769 21.9462C298.769 27.2718 303.381 30.2143 309.081 30.2143H343.521C349.213 30.2373 353.834 27.3101 353.834 21.9462C353.804 19.3691 352.702 16.9085 350.768 15.1042C348.835 13.2999 346.229 12.2992 343.521 12.3217Z" fill="#00C65E"/>
<path d="M324.86 12.5266H314.685C314.685 7.53813 319.241 3.49219 324.86 3.49219V12.5266Z" fill="white"/>
<path d="M324.339 12.1618H317.005C317.005 8.56795 320.289 5.64844 324.339 5.64844V12.1618Z" fill="#CCE7D7"/>
<path d="M327.734 12.5266H337.918C337.918 7.53813 333.362 3.49219 327.734 3.49219V12.5266Z" fill="white"/>
<path d="M338.96 39.6472C342.636 39.6472 345.617 36.858 345.617 33.4173C345.617 29.9767 342.636 27.1875 338.96 27.1875C335.283 27.1875 332.302 29.9767 332.302 33.4173C332.302 36.858 335.283 39.6472 338.96 39.6472Z" fill="white"/>
<path d="M338.965 34.8953C339.836 34.8953 340.543 34.2332 340.543 33.4164C340.543 32.5996 339.836 31.9375 338.965 31.9375C338.093 31.9375 337.387 32.5996 337.387 33.4164C337.387 34.2332 338.093 34.8953 338.965 34.8953Z" fill="white"/>
<path d="M338.962 39.6485C341.967 39.6485 344.404 37.3671 344.404 34.5528C344.404 31.7385 341.967 29.457 338.962 29.457C335.956 29.457 333.52 31.7385 333.52 34.5528C333.52 37.3671 335.956 39.6485 338.962 39.6485Z" fill="#FFB762"/>
<path d="M338.968 35.7652C339.684 35.7652 340.264 35.2231 340.264 34.5545C340.264 33.8858 339.684 33.3438 338.968 33.3438C338.252 33.3438 337.672 33.8858 337.672 34.5545C337.672 35.2231 338.252 35.7652 338.968 35.7652Z" fill="white"/>
<path d="M313.637 39.6472C317.314 39.6472 320.295 36.858 320.295 33.4173C320.295 29.9767 317.314 27.1875 313.637 27.1875C309.96 27.1875 306.979 29.9767 306.979 33.4173C306.979 36.858 309.96 39.6472 313.637 39.6472Z" fill="white"/>
<path d="M313.632 34.8953C314.503 34.8953 315.21 34.2332 315.21 33.4164C315.21 32.5996 314.503 31.9375 313.632 31.9375C312.76 31.9375 312.054 32.5996 312.054 33.4164C312.054 34.2332 312.76 34.8953 313.632 34.8953Z" fill="white"/>
<path d="M313.631 39.6485C316.636 39.6485 319.073 37.3671 319.073 34.5528C319.073 31.7385 316.636 29.457 313.631 29.457C310.625 29.457 308.188 31.7385 308.188 34.5528C308.188 37.3671 310.625 39.6485 313.631 39.6485Z" fill="#FFB762"/>
<path d="M313.636 35.7652C314.352 35.7652 314.932 35.2231 314.932 34.5545C314.932 33.8858 314.352 33.3438 313.636 33.3438C312.92 33.3438 312.34 33.8858 312.34 34.5545C312.34 35.2231 312.92 35.7652 313.636 35.7652Z" fill="white"/>
<path d="M320.287 15.9867V17.1055H324.924V15.9867H320.287Z" fill="white"/>
<path d="M333.347 15.9789V17.0977H337.984V15.9789H333.347Z" fill="white"/>
<path d="M328.266 12.1618H335.6C335.6 8.56795 332.315 5.64844 328.266 5.64844V12.1618Z" fill="#CCE7D7"/>
<path d="M302.913 18.4611C303.576 17.3939 303.726 16.3104 303.248 16.041C302.769 15.7717 301.844 16.4184 301.181 17.4856C300.517 18.5528 300.367 19.6363 300.846 19.9057C301.324 20.1751 302.249 19.5283 302.913 18.4611Z" fill="#FFB762"/>
<path d="M273.401 176.212H241.487V123.085C241.493 122.402 241.763 121.744 242.245 121.238C242.519 120.931 242.859 120.683 243.242 120.513C243.625 120.342 244.043 120.253 244.466 120.25H270.412C270.803 120.25 271.189 120.323 271.55 120.466C271.911 120.609 272.239 120.818 272.515 121.081C272.79 121.344 273.009 121.657 273.157 122.001C273.306 122.345 273.382 122.713 273.38 123.085L273.401 176.212Z" fill="#00C65E"/>
<path d="M273.399 176.211H241.485V123.084C241.485 121.513 243.945 147.622 249.871 155.554C252.255 158.666 255.444 161.136 259.129 162.726C263.643 164.564 268.51 165.489 273.42 165.443L273.399 176.211Z" fill="#08A636"/>
<path d="M263.726 127.008V133.31H268.074V127.008H263.726Z" fill="white"/>
<path d="M251.386 127.008H247.037V133.31H251.386V127.008Z" fill="white"/>
<path d="M255.383 127.008V133.31H259.731V127.008H255.383Z" fill="white"/>
<path d="M263.725 137.609V143.961H268.073V137.609H263.725Z" fill="white"/>
<path d="M251.385 137.609H247.036V143.912H251.385V137.609Z" fill="white"/>
<path d="M255.382 137.609V143.961H259.73V137.609H255.382Z" fill="white"/>
<path d="M263.729 148.207V154.51H268.078V148.207H263.729Z" fill="white"/>
<path d="M255.384 148.207V154.51H259.732V148.207H255.384Z" fill="white"/>
<path d="M263.725 160.871V167.174H268.073V160.871H263.725Z" fill="white"/>
<path d="M380.042 193.535H409.738C410.444 193.535 411.122 193.802 411.621 194.277C412.12 194.753 412.401 195.397 412.401 196.07V234.496H377.392V196.07C377.392 195.399 377.67 194.756 378.167 194.281C378.664 193.807 379.338 193.538 380.042 193.535Z" fill="white"/>
<path d="M383.492 195.867H410.191C410.849 195.87 411.478 196.12 411.944 196.563C412.409 197.006 412.671 197.605 412.674 198.231V235.464H380.973V198.231C380.974 197.918 381.041 197.609 381.168 197.32C381.296 197.032 381.482 196.771 381.716 196.551C381.95 196.331 382.228 196.158 382.533 196.04C382.837 195.923 383.163 195.864 383.492 195.867Z" fill="#FFB762"/>
<path d="M401.591 203.117V208.243H405.495V203.117H401.591Z" fill="white"/>
<path d="M392.104 203.117H388.199V208.243H392.104V203.117Z" fill="white"/>
<path d="M394.895 203.117V208.243H398.787V203.117H394.895Z" fill="white"/>
<path d="M401.591 211.73V216.856H405.495V211.73H401.591Z" fill="white"/>
<path d="M392.104 211.73H388.199V216.856H392.104V211.73Z" fill="white"/>
<path d="M394.895 211.73V216.856H398.787V211.73H394.895Z" fill="white"/>
<path d="M401.591 220.348V225.508H405.495V220.348H401.591Z" fill="white"/>
<path d="M392.104 220.348H388.199V225.473H392.104V220.348Z" fill="white"/>
<path d="M394.895 220.348V225.508H398.787V220.348H394.895Z" fill="white"/>
<path d="M407.237 134.043L395.332 141.179C394.85 141.428 394.31 141.558 393.762 141.558C393.214 141.558 392.675 141.428 392.193 141.179L380.264 134.284C379.81 134.054 379.44 133.697 379.205 133.262C378.97 132.826 378.88 132.333 378.948 131.848L388.365 76.1902C388.501 75.5702 388.863 75.0158 389.387 74.6248C389.91 74.2337 390.562 74.0311 391.227 74.0526H397.384C398.049 74.0292 398.7 74.2314 399.222 74.623C399.744 75.0146 400.103 75.57 400.234 76.1902L408.589 131.353C408.666 131.879 408.579 132.414 408.338 132.892C408.098 133.37 407.715 133.77 407.237 134.043Z" fill="#08A636"/>
<path d="M407.443 133.892L397.156 140.052C396.76 140.288 396.302 140.414 395.834 140.414C395.367 140.414 394.908 140.288 394.512 140.052L384.225 133.892C383.826 133.651 383.508 133.307 383.307 132.9C383.106 132.493 383.031 132.04 383.09 131.593L390.781 78.8779C390.85 78.3152 391.134 77.7964 391.58 77.421C392.025 77.0456 392.601 76.84 393.196 76.8438H398.472C399.067 76.84 399.643 77.0456 400.089 77.421C400.534 77.7964 400.819 78.3152 400.887 78.8779L408.542 131.57C408.61 132.017 408.543 132.472 408.348 132.884C408.154 133.295 407.84 133.645 407.443 133.892Z" fill="#00C65E"/>
<path d="M402.186 58.2969H386.949C386.566 58.331 386.196 58.4465 385.866 58.6347C385.536 58.823 385.255 59.0793 385.043 59.3848C384.831 59.6902 384.694 60.037 384.641 60.3997C384.589 60.7623 384.622 61.1316 384.74 61.4803L388.362 74.7309C388.477 75.2192 388.756 75.6585 389.157 75.982C389.558 76.3056 390.058 76.4958 390.583 76.5237H398.673C399.198 76.4958 399.699 76.3056 400.1 75.982C400.5 75.6585 400.78 75.2192 400.894 74.7309L404.517 61.4803C404.635 61.1228 404.666 60.7442 404.607 60.3736C404.548 60.0029 404.4 59.6502 404.175 59.3426C403.949 59.035 403.653 58.7808 403.308 58.5995C402.964 58.4181 402.58 58.3146 402.186 58.2969V58.2969Z" fill="#08A636"/>
<path d="M401.95 60.375H389.309C388.975 60.4236 388.656 60.5412 388.374 60.7196C388.093 60.898 387.856 61.1329 387.68 61.4078C387.504 61.6826 387.393 61.9908 387.355 62.3107C387.318 62.6306 387.354 62.9545 387.462 63.2596L390.432 75.2231C390.502 75.6523 390.722 76.0463 391.058 76.3406C391.394 76.6349 391.824 76.8122 392.279 76.8435H398.992C399.446 76.8118 399.875 76.6341 400.208 76.3396C400.542 76.0451 400.76 75.6514 400.827 75.2231L403.798 63.2596C403.905 62.9545 403.942 62.6306 403.904 62.3107C403.867 61.9908 403.756 61.6826 403.58 61.4078C403.404 61.1329 403.167 60.898 402.885 60.7196C402.604 60.5412 402.285 60.4236 401.95 60.375Z" fill="#00C65E"/>
<path d="M399.095 72.3516H390.04C388.086 72.3516 386.502 73.8591 386.502 75.7188V77.9139C386.502 79.7735 388.086 81.2811 390.04 81.2811H399.095C401.049 81.2811 402.633 79.7735 402.633 77.9139V75.7188C402.633 73.8591 401.049 72.3516 399.095 72.3516Z" fill="#F89358"/>
<path d="M393.854 125.456V126.778H398.309V128.662H393.854V130.559H391.656V128.662H390.062V126.778H391.656V125.456H390.062V123.56H391.656V117.32H397.114C397.701 117.298 398.286 117.388 398.836 117.586C399.385 117.783 399.888 118.083 400.313 118.469C400.71 118.846 401.026 119.293 401.241 119.786C401.456 120.279 401.566 120.808 401.566 121.342C401.566 121.876 401.456 122.404 401.241 122.897C401.026 123.39 400.71 123.838 400.313 124.215C399.888 124.6 399.385 124.901 398.836 125.098C398.286 125.295 397.701 125.386 397.114 125.364L393.854 125.456ZM397.114 123.56C397.415 123.568 397.716 123.517 397.996 123.41C398.276 123.304 398.531 123.143 398.744 122.939C398.962 122.739 399.134 122.498 399.248 122.23C399.362 121.963 399.417 121.676 399.408 121.388C399.416 121.101 399.363 120.815 399.25 120.548C399.138 120.281 398.97 120.039 398.756 119.836C398.542 119.63 398.286 119.467 398.003 119.359C397.721 119.25 397.418 119.198 397.114 119.204H393.854V123.548L397.114 123.56Z" fill="white"/>
<path d="M256.231 74.2383L251.675 76.4621L273.526 111.119C273.654 111.327 273.829 111.509 274.039 111.656C274.249 111.803 274.491 111.911 274.75 111.974C275.011 112.043 275.286 112.065 275.557 112.039C275.828 112.012 276.091 111.938 276.329 111.821L277.3 111.349C277.534 111.234 277.74 111.08 277.906 110.896C278.073 110.711 278.196 110.499 278.269 110.273C278.343 110.046 278.365 109.809 278.334 109.575C278.303 109.341 278.22 109.115 278.09 108.909L256.208 74.2522L256.231 74.2383Z" fill="#CCE7D7"/>
<path d="M242.617 78.4967L252.962 76.3006L264.017 70.2129L260.779 65.1328L249.068 70.1295L241.487 76.7037L242.617 78.4967Z" fill="#00C65E"/>
<path d="M244.387 79.0323L254.732 76.8363L265.788 70.7555L262.55 65.6406L250.831 70.6373L243.25 77.2115L244.387 79.0323Z" fill="#CCE7D7"/>
<path d="M412.995 1.52812L411.849 0.72482C411.278 0.324513 410.474 0.440641 410.054 0.9842L391.928 24.4107C391.508 24.9542 391.63 25.7194 392.201 26.1197L393.347 26.923C393.918 27.3233 394.722 27.2072 395.142 26.6636L413.268 3.23714C413.688 2.69358 413.566 1.92843 412.995 1.52812Z" fill="#F89358"/>
<path d="M383.596 53.3828C379.495 52.37 375.718 50.4159 372.595 47.6917C368.137 43.7212 366.501 37.0413 366.501 37.0413C366.501 37.0413 374.386 33.9272 378.549 30.9454C386.18 25.4801 388.585 20.9023 388.585 20.9023L398.964 29.5752C396.969 34.4379 394.403 39.0708 391.317 43.3864C388.438 47.5126 383.596 53.3828 383.596 53.3828Z" fill="#FFB762"/>
<path d="M370.178 44.9802L369.688 44.2484C369.769 44.2017 377.949 38.7987 381.907 35.1473C385.142 32.2104 388.057 28.9709 390.61 25.4779L391.338 24.7539C388.68 28.5988 385.613 32.173 382.185 35.4198C378.227 39.1334 370.26 44.9413 370.178 44.9802Z" fill="#F89358"/>
<path d="M372.592 47.6906L371.406 46.5695C371.488 46.4994 379.839 40.1388 382.726 37.157C389.401 30.3371 392.1 26.2575 392.124 26.1797L392.852 26.53C392.754 26.7169 390.12 30.9054 383.454 37.8655C380.894 40.5358 372.968 47.3869 372.592 47.6906Z" fill="white"/>
<path d="M368.273 41.759L367.528 40.1007C367.61 40.0617 375.659 36.3715 379.216 33.343C386.226 27.3794 388.876 23.0897 388.901 23.0508L389.252 23.2454C389.252 23.2454 386.88 27.7298 379.822 33.7401C376.215 36.7997 368.346 41.72 368.273 41.759Z" fill="#F89358"/>
<path d="M376.04 50.3927L375.468 49.9956C375.533 49.9256 380.694 45.013 385.185 39.9292C388.692 36.0142 391.881 31.8499 394.722 27.4727L394.321 28.0098L394.566 27.7062C394.665 27.9242 391.188 33.3272 385.569 40.1628C381.373 45.2466 376.106 50.3927 376.04 50.3927Z" fill="white"/>
<path d="M384.315 53.6304C384.315 53.6304 382.908 53.2801 382.45 53.1321C381.992 52.9842 379.857 52.159 379.857 52.159C383.241 48.9558 386.436 45.577 389.427 42.038C392.826 37.7572 395.753 33.1553 398.163 28.3047L399.218 29.4958C397.254 34.4445 394.705 39.1643 391.619 43.564C388.781 47.6746 384.364 53.5759 384.315 53.6304Z" fill="#F89358"/>
<path d="M388.965 20.0402L400.82 28.3502C401.022 28.4943 401.156 28.7085 401.192 28.9462C401.229 29.1838 401.166 29.4257 401.016 29.6192L398.974 32.2583L385.585 22.8726L387.627 20.2334C387.777 20.0389 388.003 19.9093 388.254 19.873C388.505 19.8368 388.761 19.8969 388.965 20.0402Z" fill="#F89358"/>
</g>
<g clip-path="url(#clip2_1873_57093)">
<path d="M513.641 6.69702L505.17 11.2359L496.312 6.69702V1.25391H513.641V6.69702Z" fill="#00C65E"/>
<path d="M504.901 61.7607H523.052V23.3779L527.645 26.0117L534.225 14.8182L521.648 5.7317C520.959 5.32785 520.217 4.90645 519.881 4.76598C517.592 3.91086 515.179 3.43054 512.736 3.34375C512.444 5.04692 510.748 11.245 504.893 11.245C499.037 11.245 497.341 5.09959 497.05 3.34375C494.609 3.43149 492.199 3.91179 489.913 4.76598C489.595 4.90645 488.853 5.32785 488.147 5.7317L475.578 14.8182L482.158 26.0468L486.751 23.413V61.7607H504.901Z" fill="#00C65E"/>
<path d="M496.28 1.25391L504.971 11.2359L500.272 15.5026L494.213 3.64185L496.28 1.25391Z" fill="#CCEFDB"/>
<path d="M513.672 1.25391L504.972 11.2359L509.679 15.5026L515.738 3.64185L513.672 1.25391Z" fill="#CCEFDB"/>
<path d="M506.552 10.9805H503.381V22.8412H506.552V10.9805Z" fill="#CCEFDB"/>
<path d="M484.817 24.5203L482.158 26.0479L475.578 14.8192L478.113 12.9844L484.817 24.5203Z" fill="#CCEFDB"/>
<path d="M524.982 24.5203L527.641 26.0479L534.221 14.8192L531.686 12.9844L524.982 24.5203Z" fill="#CCEFDB"/>
<path d="M523.063 59.3711H486.753V61.7503H523.063V59.3711Z" fill="#CCEFDB"/>
<path d="M524.302 105.694L523.891 105.563C521.786 104.868 512.22 102.242 509.317 95.9616C507.525 92.1262 511.177 78.4181 511.177 78.4181L495.109 75.748C495.109 75.748 487.478 92.37 484.634 103.095C484.589 103.276 484.556 103.459 484.533 103.643C484.309 104.772 484.543 105.944 485.183 106.903C485.823 107.861 486.819 108.53 487.952 108.764L521.797 114.949C522.366 115.046 522.949 115.03 523.511 114.903C524.074 114.776 524.606 114.54 525.077 114.209C525.548 113.877 525.949 113.457 526.256 112.972C526.564 112.486 526.772 111.946 526.869 111.38C527.264 109.243 526.366 106.493 524.302 105.694Z" fill="#FFB762"/>
<path opacity="0.3" d="M492.552 89.2572C495.14 84.2576 494.004 82.6734 496.577 79.8133C499.15 76.9533 505.386 77.3493 505.828 79.728C506.595 83.7977 501.146 88.8629 501.405 94.9491C501.664 101.035 505.169 101.043 508.889 102.789C512.609 104.534 518.073 108.441 516.839 111.735C516.096 113.697 512.504 117.059 507.186 115.621C503.038 114.496 499.219 109.303 495.529 107.94C491.838 106.577 485.609 104.451 487.583 98.4287C489.64 92.1996 490.478 93.2852 492.552 89.2572Z" fill="white"/>
<path d="M522.757 115.051L484.493 108.059L483.667 112.526L521.93 119.518L522.757 115.051Z" fill="#F89358" stroke="#FFB762" stroke-width="2.9882" stroke-miterlimit="10"/>
<path d="M483.018 116.036C485.214 116.437 487.321 114.993 487.725 112.811C488.128 110.628 486.676 108.534 484.48 108.133C482.285 107.732 480.178 109.175 479.774 111.358C479.37 113.54 480.823 115.635 483.018 116.036Z" fill="#F69257"/>
<path d="M521.737 123.11C523.933 123.511 526.04 122.067 526.444 119.885C526.847 117.703 525.395 115.608 523.199 115.207C521.003 114.806 518.896 116.25 518.493 118.432C518.089 120.614 519.542 122.709 521.737 123.11Z" fill="#F69257"/>
<path d="M508.838 120.751C511.033 121.152 513.14 119.708 513.544 117.526C513.948 115.343 512.495 113.249 510.3 112.848C508.104 112.446 505.997 113.89 505.593 116.073C505.19 118.255 506.642 120.349 508.838 120.751Z" fill="#F69257"/>
<path d="M495.931 118.395C498.126 118.796 500.233 117.353 500.637 115.17C501.041 112.988 499.588 110.893 497.392 110.492C495.197 110.091 493.09 111.535 492.686 113.717C492.282 115.9 493.735 117.994 495.931 118.395Z" fill="#F69257"/>
<path d="M509.238 87.4925L501.093 86.0039L500.801 87.5824L508.946 89.071L509.238 87.4925Z" fill="#FFB762" stroke="white" stroke-width="2.33176" stroke-miterlimit="10"/>
<path d="M508.988 95.4268L499.665 93.723L499.957 92.1445L508.772 93.7555L508.988 95.4268Z" fill="#FFB762" stroke="white" stroke-width="2.33176" stroke-miterlimit="10"/>
<path d="M639.171 2.08594H616.722C614.29 2.08594 612.318 3.99991 612.318 6.36091V56.8005C612.318 59.1615 614.29 61.0754 616.722 61.0754H639.171C641.603 61.0754 643.575 59.1615 643.575 56.8005V6.36091C643.575 3.99991 641.603 2.08594 639.171 2.08594Z" fill="white"/>
<path d="M639.172 2.08984H636.273C636.273 2.08984 634.71 45.0908 626.801 61.0793H639.172C641.604 61.0793 643.576 59.1654 643.576 56.8044V6.36482C643.576 4.00381 641.604 2.08984 639.172 2.08984Z" fill="#CCEFDB"/>
<path d="M620.869 2.08984H634.414V3.26503C634.413 3.47634 634.368 3.68532 634.283 3.87979C634.198 4.07426 634.074 4.25034 633.918 4.39776C633.762 4.54518 633.577 4.661 633.375 4.73847C633.172 4.81594 632.956 4.85351 632.738 4.84899H622.51C622.075 4.84899 621.657 4.68121 621.35 4.38256C621.042 4.08392 620.869 3.67886 620.869 3.25652V2.08984Z" fill="#00C65E"/>
<path d="M632.737 5.51341H622.508C621.894 5.51341 621.305 5.27654 620.871 4.85492C620.436 4.43331 620.192 3.86147 620.192 3.26521V1.42578H635.106V3.26521C635.106 3.5648 635.044 3.86138 634.925 4.13753C634.805 4.41368 634.63 4.66382 634.409 4.87327C634.188 5.08271 633.927 5.24723 633.64 5.35716C633.353 5.46709 633.046 5.52021 632.737 5.51341ZM621.552 2.74574V3.26521C621.552 3.5114 621.653 3.74749 621.832 3.92157C622.012 4.09565 622.255 4.19344 622.508 4.19344H632.737C632.991 4.19344 633.234 4.09565 633.413 3.92157C633.593 3.74749 633.693 3.5114 633.693 3.26521V2.74574H621.552Z" fill="#00C65E"/>
<path d="M639.175 61.9296H616.726C615.33 61.9296 613.992 61.3912 613.005 60.433C612.017 59.4748 611.463 58.1752 611.463 56.82V6.36343C611.463 5.0083 612.017 3.70867 613.005 2.75045C613.992 1.79223 615.33 1.25391 616.726 1.25391H639.175C640.571 1.25391 641.91 1.79223 642.897 2.75045C643.884 3.70867 644.439 5.0083 644.439 6.36343V56.803C644.441 57.4754 644.307 58.1417 644.043 58.7636C643.78 59.3854 643.392 59.9507 642.903 60.427C642.414 60.9033 641.833 61.2812 641.194 61.539C640.554 61.7968 639.868 61.9296 639.175 61.9296ZM616.726 2.94005C615.796 2.94005 614.903 3.29893 614.245 3.93775C613.587 4.57656 613.217 5.44298 613.217 6.3464V56.803C613.217 57.7064 613.587 58.5728 614.245 59.2116C614.903 59.8505 615.796 60.2093 616.726 60.2093H639.175C640.106 60.2093 640.999 59.8505 641.657 59.2116C642.315 58.5728 642.684 57.7064 642.684 56.803V6.36343C642.684 5.46001 642.315 4.5936 641.657 3.95478C640.999 3.31597 640.106 2.95708 639.175 2.95708L616.726 2.94005Z" fill="#00C65E"/>
<rect x="614.602" y="47.9453" width="24.8687" height="8.77684" rx="2.63807" fill="#FFB762"/>
<rect x="614.602" y="36.4219" width="24.8687" height="6.9214" rx="2.63807" fill="#FFB762"/>
<rect x="614.602" y="11.0391" width="24.8687" height="1.36396" rx="0.681981" fill="#FFB762"/>
<rect x="614.602" y="17.3828" width="24.8687" height="1.36396" rx="0.681981" fill="#FFB762"/>
<rect x="614.602" y="23.7305" width="15.5022" height="1.36396" rx="0.681981" fill="#FFB762"/>
<rect x="614.602" y="30.0742" width="12.4516" height="1.36396" rx="0.681981" fill="#FFB762"/>
<path d="M643.945 199.977H606.316C604.296 199.977 602.659 201.604 602.659 203.612V228.826C602.659 230.834 604.296 232.461 606.316 232.461H643.945C645.965 232.461 647.602 230.834 647.602 228.826V203.612C647.602 201.604 645.965 199.977 643.945 199.977Z" fill="white"/>
<path d="M643.949 232.985H606.315C605.206 232.985 604.143 232.548 603.358 231.769C602.574 230.99 602.132 229.934 602.131 228.832V203.612C602.139 202.511 602.583 201.458 603.365 200.68C604.148 199.902 605.208 199.461 606.315 199.453H643.949C645.056 199.461 646.116 199.902 646.898 200.68C647.681 201.458 648.125 202.511 648.133 203.612V228.832C648.132 229.934 647.69 230.99 646.906 231.769C646.121 232.548 645.058 232.985 643.949 232.985ZM606.315 200.511C605.487 200.519 604.696 200.85 604.111 201.431C603.525 202.013 603.193 202.8 603.185 203.622V228.832C603.194 229.653 603.527 230.439 604.112 231.019C604.698 231.6 605.488 231.929 606.315 231.938H643.949C644.776 231.929 645.566 231.6 646.151 231.019C646.736 230.439 647.069 229.653 647.079 228.832V203.612C647.071 202.789 646.738 202.003 646.153 201.421C645.568 200.839 644.777 200.509 643.949 200.501L606.315 200.511Z" fill="#00C65E"/>
<path d="M599.274 232.395H650.482C650.535 232.395 650.586 232.416 650.624 232.453C650.661 232.49 650.682 232.541 650.682 232.594V234.259C650.682 234.559 650.562 234.847 650.349 235.059C650.135 235.271 649.846 235.391 649.544 235.391H600.212C599.91 235.391 599.62 235.271 599.407 235.059C599.193 234.847 599.074 234.559 599.074 234.259V232.604C599.072 232.577 599.076 232.55 599.086 232.525C599.095 232.499 599.11 232.476 599.128 232.456C599.147 232.437 599.17 232.421 599.195 232.411C599.22 232.4 599.247 232.394 599.274 232.395Z" fill="#1E7836"/>
<rect x="606.858" y="202.812" width="24.469" height="8.10887" rx="0.781799" fill="#FFB762"/>
<rect x="606.858" y="212.098" width="24.469" height="8.10887" rx="0.781799" fill="#FFB762"/>
<rect x="606.858" y="221.516" width="24.469" height="8.10887" rx="0.781799" fill="#FFB762"/>
<rect x="635.247" y="227.906" width="24.3218" height="8.15792" rx="0.781799" transform="rotate(-90 635.247 227.906)" fill="#CCEFDB"/>
<path d="M538.677 104.093L538.677 121.255C538.677 124.096 540.867 126.398 543.569 126.398L591.391 126.398C594.093 126.398 596.283 124.096 596.283 121.255L596.283 104.093C596.283 101.252 594.093 98.9492 591.391 98.9492L543.569 98.9492C540.867 98.9492 538.677 101.252 538.677 104.093Z" fill="#00C65E"/>
<path d="M543.569 98.9922C540.867 98.9922 538.677 101.295 538.677 104.136C548.834 104.869 560.068 106.015 574.043 109.487C588.018 112.958 596.283 119.202 596.283 116.362L596.283 104.136C596.283 101.295 594.093 98.9922 591.391 98.9922L543.569 98.9922Z" fill="#08A636"/>
<path d="M557.509 98.9531L557.509 126.402L558.777 126.402L558.777 98.9531L557.509 98.9531Z" fill="#FAFAFA"/>
<path d="M563.638 123.32L569.128 123.32L569.128 121.496L563.638 121.496L563.638 123.32Z" fill="#FAFAFA"/>
<path d="M546.719 123.324L552.209 123.324L552.209 121.5L546.719 121.5L546.719 123.324Z" fill="#FAFAFA"/>
<path d="M639.344 72.378H634.614L638.6 74.9239C641.756 76.9398 644.319 79.7371 646.034 83.0347C647.749 86.3321 648.557 90.015 648.378 93.7156C648.198 97.4162 647.038 101.007 645.012 104.128C643.045 107.159 640.327 109.644 637.117 111.351H616.782C613.572 109.644 610.854 107.159 608.887 104.128C606.861 101.007 605.701 97.4162 605.521 93.7156C605.342 90.015 606.15 86.3321 607.865 83.0347C609.58 79.7371 612.143 76.9398 615.299 74.9239L619.285 72.378H614.555H612.684C612.671 72.378 612.663 72.3729 612.659 72.3693C612.659 72.3686 612.658 72.3681 612.658 72.3677V71.5403C612.658 71.5397 612.659 71.5383 612.661 71.5363C612.665 71.5319 612.675 71.5264 612.688 71.5261H641.21C641.224 71.5261 641.234 71.5317 641.238 71.5363C641.24 71.5383 641.241 71.5397 641.241 71.5404V72.3677C641.241 72.3681 641.24 72.3687 641.24 72.3694C641.238 72.371 641.235 72.3732 641.231 72.375C641.226 72.3769 641.221 72.378 641.215 72.378H641.21H639.344Z" stroke="#00C65E" stroke-width="2.76311"/>
<path d="M606.115 83.4727C603.73 88.7302 603.472 94.6889 605.392 100.129C607.312 105.568 611.266 110.077 616.444 112.732H637.456C642.634 110.077 646.587 105.568 648.508 100.129C650.428 94.6889 650.169 88.7302 647.785 83.4727H606.115Z" fill="#00C65E"/>
<path d="M612.354 96.4472C613.49 97.8429 614.813 99.079 616.288 100.121L617.635 99.3942L617.892 100.935C626.442 105.062 633.169 96.4472 633.169 96.4472C621.831 84.4547 612.354 96.4472 612.354 96.4472Z" fill="#F9B565"/>
<path d="M612.354 96.4469C613.497 97.9515 614.898 99.2462 616.495 100.272L617.133 100.628C617.831 100.991 618.562 101.289 619.316 101.517C620.294 100.004 620.804 98.2418 620.784 96.4469C620.828 94.7906 620.391 93.1564 619.523 91.7383C616.611 92.3446 614.045 94.0297 612.354 96.4469Z" fill="#F3935A"/>
<path d="M618.62 96.6284C619.341 96.6284 619.925 96.0881 619.925 95.4216C619.925 94.7551 619.341 94.2148 618.62 94.2148C617.9 94.2148 617.316 94.7551 617.316 95.4216C617.316 96.0881 617.9 96.6284 618.62 96.6284Z" fill="white"/>
<path d="M618.356 94.5726C618.447 94.5325 618.546 94.5117 618.646 94.5117C618.745 94.5117 618.844 94.5325 618.935 94.5726C619.121 94.6472 619.28 94.7747 619.393 94.9389C619.51 95.0948 619.573 95.2837 619.573 95.4777C619.573 95.6717 619.51 95.8605 619.393 96.0164C619.266 95.7446 619.12 95.4817 618.957 95.2298C618.787 94.9851 618.586 94.764 618.356 94.5726Z" fill="#F3935A"/>
<path d="M622.321 102.094L628.045 104.707C628.705 103.888 628.22 100.531 628.22 100.531C628.22 100.531 625.148 102.131 622.321 102.094Z" fill="#F3935A"/>
<path d="M615.719 93.2569C615.719 93.2569 618.867 89.4856 623.472 89.3132C626.466 89.2552 629.446 89.741 632.262 90.7463L629.572 93.3808C629.572 93.3808 623.554 89.0493 615.719 93.2569Z" fill="#F3935A"/>
<path d="M632.269 95.5453L633.158 96.445L632.269 97.3555C633.148 98.0273 634.127 98.5616 635.171 98.9394C636.473 99.3895 637.828 99.6684 639.204 99.7691C639.204 99.7691 638.407 96.4558 636.219 95.8632C636.881 95.3073 637.378 94.5839 637.656 93.7705C637.934 92.9572 637.982 92.0845 637.796 91.2461C636.409 91.6103 635.155 92.3579 634.184 93.4011C633.502 94.0476 632.269 95.5453 632.269 95.5453Z" fill="#F3935A"/>
<path d="M616.274 100.132C616.52 99.9668 616.755 99.7869 616.978 99.5937C617.201 99.4147 617.396 99.2041 617.557 98.9688C617.475 99.2525 617.352 99.5229 617.191 99.7715C617.053 99.997 616.9 100.213 616.733 100.418L616.514 100.299L616.274 100.132Z" fill="#F9B565"/>
<path d="M611.114 95.2637C612.106 95.2637 612.91 94.4701 612.91 93.4912C612.91 92.5123 612.106 91.7188 611.114 91.7188C610.123 91.7188 609.319 92.5123 609.319 93.4912C609.319 94.4701 610.123 95.2637 611.114 95.2637Z" fill="white"/>
<path d="M613.477 89.9083C614.119 89.9083 614.639 89.3946 614.639 88.7608C614.639 88.127 614.119 87.6133 613.477 87.6133C612.835 87.6133 612.314 88.127 612.314 88.7608C612.314 89.3946 612.835 89.9083 613.477 89.9083Z" fill="white"/>
<path d="M610.748 86.199C611.173 86.199 611.517 85.8589 611.517 85.4393C611.517 85.0198 611.173 84.6797 610.748 84.6797C610.323 84.6797 609.979 85.0198 609.979 85.4393C609.979 85.8589 610.323 86.199 610.748 86.199Z" fill="white"/>
<path opacity="0.5" d="M642.621 71.5326V72.3677C642.621 72.7363 642.473 73.0899 642.209 73.3506C641.945 73.6112 641.587 73.7577 641.214 73.7577H639.342C642.7 75.9036 645.429 78.882 647.256 82.3953C649.083 85.9087 649.944 89.8339 649.753 93.7788C649.563 97.7237 648.327 101.55 646.17 104.876C644.012 108.202 641.009 110.91 637.46 112.731H616.442C616.442 112.731 634.311 108.534 642.49 97.3872C645.644 93.0772 647.401 82.841 638.906 75.2985C636.068 72.8041 642.621 71.3656 642.621 71.5326Z" fill="white"/>
<path d="M626.08 152.987C626.08 154.197 625.84 155.395 625.373 156.512C624.907 157.63 624.224 158.645 623.362 159.499C622.501 160.354 621.478 161.031 620.353 161.492C619.228 161.954 618.022 162.19 616.805 162.187L604.26 162.187C601.857 162.112 599.577 161.111 597.904 159.394C596.231 157.678 595.295 155.382 595.295 152.992C595.295 150.602 596.231 148.306 597.904 146.589C599.577 144.873 601.857 143.871 604.26 143.796L616.805 143.796C618.022 143.794 619.226 144.03 620.351 144.49C621.475 144.951 622.498 145.627 623.359 146.481C624.22 147.335 624.904 148.349 625.371 149.465C625.837 150.581 626.078 151.778 626.08 152.987ZM599.582 152.987C599.582 154.221 600.074 155.405 600.952 156.279C601.829 157.152 603.018 157.644 604.26 157.646L616.805 157.646C618.012 157.593 619.151 157.08 619.985 156.213C620.82 155.346 621.286 154.192 621.286 152.992C621.286 151.792 620.82 150.638 619.985 149.771C619.151 148.904 618.012 148.39 616.805 148.337L604.26 148.337C603.02 148.34 601.832 148.83 600.955 149.702C600.078 150.573 599.584 151.755 599.582 152.987Z" fill="#F89358"/>
<path d="M606.285 134.042L606.285 174.022C606.285 178.18 609.676 181.551 613.86 181.551L640.659 181.551C644.842 181.551 648.234 178.18 648.234 174.022L648.234 134.042C648.234 129.884 644.842 126.513 640.659 126.513L613.86 126.513C609.676 126.513 606.285 129.884 606.285 134.042Z" fill="#F89358"/>
<path d="M610.634 133.033L610.634 171.804C610.634 175.401 613.567 178.316 617.185 178.316L637.424 178.316C641.042 178.316 643.975 175.401 643.975 171.804L643.975 133.033C643.975 129.436 641.042 126.521 637.424 126.521L617.185 126.521C613.567 126.521 610.634 129.436 610.634 133.033Z" fill="#FFB762"/>
<path d="M606.285 131.652L606.285 173.185C606.285 176.019 608.596 178.316 611.448 178.316L621.846 178.316C624.697 178.316 627.008 176.019 627.008 173.185L627.008 131.652C627.008 128.818 624.697 126.521 621.846 126.521L611.448 126.521C608.596 126.521 606.285 128.818 606.285 131.652Z" fill="#F89358"/>
<path d="M619.584 152.333L619.584 152.397C619.584 153.947 620.848 155.203 622.407 155.203L627.954 155.203C629.513 155.203 630.777 153.947 630.777 152.397L630.777 152.333C630.777 150.783 629.513 149.527 627.954 149.527L622.407 149.527C620.848 149.527 619.584 150.783 619.584 152.333Z" fill="white"/>
</g>
<defs>
<clipPath id="clip0_1873_57093">
<rect width="176.424" height="235.487" fill="white"/>
</clipPath>
<clipPath id="clip1_1873_57093">
<rect width="176.424" height="235.487" fill="white" transform="translate(237.788)"/>
</clipPath>
<clipPath id="clip2_1873_57093">
<rect width="176.424" height="235.487" fill="white" transform="translate(475.576)"/>
</clipPath>
</defs>
</svg>
