<svg width="262" height="480" viewBox="0 0 262 480" fill="none" xmlns="http://www.w3.org/2000/svg">
<path d="M157.479 415.046C161.633 414.655 180.39 401.582 192.598 416.024C204.805 430.467 194.573 459.397 213.461 468.168C228.572 475.185 245.311 470.116 251.792 466.705" stroke="#00C65E" stroke-width="1.71937"/>
<path d="M137.355 21.5969C139.714 20.2492 146.921 9.57359 158.608 11.9416C170.296 14.3096 173.01 28.9817 186.954 27.1352C198.11 25.658 206.553 18.8093 209.38 15.5695" stroke="#FD9558" stroke-width="2.59812"/>
<path d="M5.59555 188.252C7.63224 188.599 17.02 185.806 22.7432 192.839C28.4665 199.872 22.9786 209.802 32.0625 215.449C39.3296 219.966 47.5963 220.018 50.8212 219.479" stroke="#CCEFDB" stroke-width="1.97559"/>
</svg>
