<?xml version="1.0" encoding="utf-8"?><svg viewBox="0 0 38 27" xmlns="http://www.w3.org/2000/svg" xmlns:xlink="http://www.w3.org/1999/xlink"><style>:root>svg{display:none}:root>svg:target{display:block}</style><svg fill="none" viewBox="0 0 17 18" id="icon-address" xmlns="http://www.w3.org/2000/svg"><path d="M8.634.558h0l.003.002 6.588 4.455c.182.123.32.302.392.51l.33-.116-.33.116a1.024 1.024 0 01-.975 1.362.35.35 0 00-.353.35v9.124a.302.302 0 01-.301.301H2.139h0a.314.314 0 01-.22-.09l-.245.25.245-.25a.314.314 0 01-.093-.215v-9.12a.35.35 0 00-.35-.35 1.024 1.024 0 01-.574-1.872L7.489.56h0l.004-.002a1 1 0 011.141 0z" stroke="#363A45" stroke-width=".7" stroke-linecap="round" stroke-linejoin="round"/><path d="M11.563 8.672c0 2.696-3.5 6.25-3.5 6.25s-3.5-3.554-3.5-6.25A3.89 3.89 0 015.59 6.02a3.386 3.386 0 012.474-1.098c.929 0 1.819.395 2.475 1.098a3.89 3.89 0 011.025 2.652z" fill="#00C65E"/><ellipse cx="8.063" cy="8.737" rx="1.87" ry="1.979" fill="#fff"/></svg><svg fill="none" viewBox="0 0 14 18" id="icon-advert" xmlns="http://www.w3.org/2000/svg"><rect x=".35" y=".428" width="13.3" height="16.3" rx=".435" fill="#fff" stroke="#363A45" stroke-width=".7"/><path d="M8.67 14.995v-.757h-.537v-.545h.537v-.527h-.537v-.68h.537v-2.072h1.378c.583 0 1.01.117 1.281.353.277.23.415.56.415.988 0 .265-.06.505-.182.718-.12.214-.312.383-.575.507-.26.124-.6.186-1.023.186h-.466v.527h1.023v.545H9.498v.757H8.67zm1.204-2.509c.314 0 .565-.053.75-.16.186-.107.278-.289.278-.546 0-.23-.075-.402-.226-.513-.147-.115-.373-.173-.68-.173h-.498v1.392h.376z" fill="#00C65E"/><rect x="2.559" y="2.78" width="8.882" height="1.07" rx=".535" fill="#363A45"/><rect x="2.559" y="5.412" width="8.882" height="1.07" rx=".535" fill="#363A45"/><rect x="2.559" y="8.043" width="6.709" height="1.07" rx=".535" fill="#363A45"/><rect x="2.559" y="10.675" width="4.726" height="1.07" rx=".535" fill="#363A45"/><rect x="2.559" y="13.306" width="2.521" height="1.07" rx=".535" fill="#363A45"/></svg><svg fill="none" viewBox="0 0 22 26" id="icon-advert-w" xmlns="http://www.w3.org/2000/svg"><rect x="1.284" y="1.378" width="19.559" height="23.971" rx=".639" fill="#00C65E" stroke="#fff" stroke-width="1.029"/><path d="M13.519 22.8v-1.113h-.79v-.802h.79v-.774h-.79v-1h.79v-3.049h2.027c.856 0 1.484.173 1.884.52.406.34.609.824.609 1.453 0 .39-.089.742-.266 1.057-.178.314-.46.563-.847.745-.381.183-.882.274-1.504.274h-.685v.774h1.504v.802h-1.504V22.8h-1.218zm1.77-3.69c.463 0 .83-.078 1.104-.235.273-.158.409-.425.409-.802 0-.34-.111-.592-.333-.755-.216-.17-.549-.255-1-.255h-.732v2.048h.552z" fill="#fff"/><rect x="4.532" y="4.837" width="13.062" height="1.573" rx=".786" fill="#fff"/><rect x="4.532" y="8.707" width="13.062" height="1.573" rx=".786" fill="#fff"/><rect x="4.532" y="12.576" width="9.867" height="1.573" rx=".786" fill="#fff"/><rect x="4.532" y="16.447" width="6.95" height="1.573" rx=".786" fill="#fff"/><rect x="4.532" y="20.315" width="3.708" height="1.573" rx=".786" fill="#fff"/></svg><svg fill="none" viewBox="0 0 13 7" id="icon-arrow" xmlns="http://www.w3.org/2000/svg"><path d="M.918 1.197l5.31 5 5.308-5"/></svg><svg fill="none" viewBox="0 0 10 6" id="icon-arrow-maps" xmlns="http://www.w3.org/2000/svg"><path fill-rule="evenodd" clip-rule="evenodd" d="M4.979 5.309L1.155 1.615a.637.637 0 010-.923.693.693 0 01.956 0l3.346 3.232L8.803.69a.693.693 0 01.956 0 .638.638 0 010 .924L5.95 5.294l-.015.015a.695.695 0 01-.956 0z" fill="#363A45"/></svg><svg viewBox="0 0 7 12" id="icon-arrow-services" xmlns="http://www.w3.org/2000/svg"><path fill-rule="evenodd" clip-rule="evenodd" d="M6.548 6.191l-4.674 4.674A.826.826 0 11.706 9.696l4.09-4.089-4.09-4.09A.826.826 0 011.873.35l4.655 4.655.019.019a.827.827 0 010 1.168z"/></svg><svg fill="none" viewBox="0 0 20 26" id="icon-auction-w" xmlns="http://www.w3.org/2000/svg"><mask id="aga" fill="#fff"><path fill-rule="evenodd" clip-rule="evenodd" d="M15.75 19.399c-1.144 1.658-3.802 2.82-6.897 2.82-3.096 0-5.754-1.162-6.898-2.82-.08.116-.154.235-.219.356h-.382v1.591h.003c.105 2.508 3.42 4.52 7.496 4.52 4.074 0 7.39-2.012 7.496-4.52h.002v-1.591h-.382a3.754 3.754 0 00-.218-.356z"/></mask><path fill-rule="evenodd" clip-rule="evenodd" d="M15.75 19.399c-1.144 1.658-3.802 2.82-6.897 2.82-3.096 0-5.754-1.162-6.898-2.82-.08.116-.154.235-.219.356h-.382v1.591h.003c.105 2.508 3.42 4.52 7.496 4.52 4.074 0 7.39-2.012 7.496-4.52h.002v-1.591h-.382a3.754 3.754 0 00-.218-.356z" fill="#00C65E"/><path d="M15.75 19.399l.848-.585a1.03 1.03 0 00-1.694 0l.847.585zm-13.795 0l.847-.585a1.03 1.03 0 00-1.694 0l.847.585zm-.219.356v1.03c.38 0 .728-.209.907-.543l-.907-.487zm-.382 0v-1.03c-.568 0-1.03.462-1.03 1.03h1.03zm0 1.591H.324c0 .569.462 1.03 1.03 1.03v-1.03zm.003 0l1.028-.043a1.03 1.03 0 00-1.028-.986v1.03zm14.992 0v-1.029a1.03 1.03 0 00-1.029.986l1.029.043zm.002 0v1.03c.569 0 1.03-.461 1.03-1.03h-1.03zm0-.1l-1.03-.003v.004h1.03zm0-.023l1.03.004v-.008l-1.03.004zm0-.023h-1.03v.004l1.03-.005zm0-1.445h1.03c0-.568-.461-1.03-1.03-1.03v1.03zm-.382 0l-.907.488c.18.333.528.541.907.541v-1.029zm-1.066-.94c-.88 1.276-3.144 2.374-6.05 2.374v2.06c3.285 0 6.337-1.226 7.745-3.265l-1.694-1.17zm-6.05 2.374c-2.906 0-5.17-1.098-6.051-2.375l-1.694 1.17c1.408 2.04 4.46 3.264 7.745 3.264V21.19zm-7.745-2.375a4.786 4.786 0 00-.278.454l1.813.974c.046-.086.1-.172.159-.258l-1.694-1.17zm.628-.088h-.382v2.058h.382v-2.058zm-1.411 1.03v1.59h2.058v-1.59H.325zm1.029 2.62h.003v-2.059h-.003v2.059zM.328 21.39c.073 1.725 1.237 3.12 2.756 4.038 1.535.928 3.573 1.468 5.769 1.468v-2.058c-1.88 0-3.537-.466-4.704-1.172-1.185-.715-1.731-1.58-1.764-2.363l-2.057.087zm8.525 5.506c2.195 0 4.233-.54 5.768-1.468 1.52-.918 2.683-2.313 2.756-4.038l-2.057-.087c-.033.783-.579 1.648-1.763 2.363-1.168.706-2.825 1.172-4.704 1.172v2.058zm7.496-4.52h.002v-2.059h-.002v2.059zm1.031-1.03v-.1h-2.058v.1h2.058zm0-.095v-.024l-2.058-.008v.023l2.058.009zm0-.032v-.024l-2.058.009v.023l2.059-.008zm0-.02v-1.444h-2.058V21.2h2.058zm-1.029-2.473h-.382v2.058h.382v-2.058zm.524.542a4.787 4.787 0 00-.277-.454l-1.694 1.17c.06.086.112.172.158.258l1.813-.974z" fill="#fff" mask="url(#aga)"/><path d="M15.838 19.598c0 .947-.663 1.9-1.94 2.645-1.266.737-3.048 1.21-5.044 1.21-1.996 0-3.778-.473-5.043-1.21-1.278-.745-1.94-1.698-1.94-2.645 0-.947.662-1.9 1.94-2.645 1.265-.737 3.047-1.21 5.043-1.21s3.778.473 5.043 1.21c1.278.745 1.94 1.698 1.94 2.645z" fill="#00C65E" stroke="#fff" stroke-width="1.029" stroke-linejoin="round"/><mask id="agb" fill="#fff"><path fill-rule="evenodd" clip-rule="evenodd" d="M8.086 9.382c1.453-1.548 3.008-3.158 4.06-4.115 1.998-1.818 3.263-2.636 3.699-2.896a.425.425 0 01.36-.047c.09.03.206.081.34.162l.564-.514c-.062-.34.024-.673.263-.89.408-.372 1.108-.267 1.564.234.456.5.494 1.208.086 1.579-.239.217-.579.271-.91.178l-.55.5c.088.17.137.315.163.421a.425.425 0 01-.081.354c-.3.41-1.233 1.592-3.232 3.41-1.052.957-2.8 2.354-4.48 3.655l2.495 2.74a.68.68 0 01-.046.961l-3.493 3.179a.68.68 0 01-.96-.045L.946 10.576a.68.68 0 01.045-.96l3.494-3.18a.68.68 0 01.96.046l2.64 2.9z"/></mask><path fill-rule="evenodd" clip-rule="evenodd" d="M8.086 9.382c1.453-1.548 3.008-3.158 4.06-4.115 1.998-1.818 3.263-2.636 3.699-2.896a.425.425 0 01.36-.047c.09.03.206.081.34.162l.564-.514c-.062-.34.024-.673.263-.89.408-.372 1.108-.267 1.564.234.456.5.494 1.208.086 1.579-.239.217-.579.271-.91.178l-.55.5c.088.17.137.315.163.421a.425.425 0 01-.081.354c-.3.41-1.233 1.592-3.232 3.41-1.052.957-2.8 2.354-4.48 3.655l2.495 2.74a.68.68 0 01-.046.961l-3.493 3.179a.68.68 0 01-.96-.045L.946 10.576a.68.68 0 01.045-.96l3.494-3.18a.68.68 0 01.96.046l2.64 2.9z" fill="#00C65E"/><path d="M12.146 5.267l.692.761-.692-.76zm-4.06 4.115l-.762.693.75.824.762-.812-.75-.705zm7.759-7.01l.527.884-.527-.885zm.36-.048l-.34.971.34-.971zm.34.161l-.53.883.656.394.566-.515-.692-.762zm.564-.513l.693.761.423-.384-.103-.562-1.013.185zm.263-.89L16.68.32l.692.761zm1.564.234l-.761.692.761-.692zm.086 1.579l-.692-.762.692.762zm-.91.178l.279-.991-.55-.155-.422.384.692.762zm-.55.5l-.693-.762-.586.534.366.703.913-.475zm.163.421l1-.246-1 .246zm-.081.354l-.831-.608.83.608zm-3.232 3.41l.693.762-.693-.762zm-4.48 3.654l-.63-.813-.88.682.75.824.76-.693zm2.495 2.741l.761-.692-.761.692zm-.046.96l.693.762-.693-.761zm-3.493 3.18l-.693-.761.693.76zm-.961-.046l.761-.692-.761.692zm-6.98-7.671l-.762.692.762-.693zm.045-.961l.693.761-.693-.761zm3.494-3.179l.692.761-.692-.761zm.96.045l-.761.693.761-.693zm6.007-1.975c-1.086.988-2.666 2.625-4.118 4.172l1.501 1.409c1.455-1.55 2.984-3.132 4.002-4.059l-1.385-1.522zm3.865-3.02c-.5.299-1.82 1.159-3.865 3.02l1.385 1.522c1.953-1.776 3.163-2.552 3.534-2.772l-1.054-1.77zm1.226-.134a1.453 1.453 0 00-1.226.135l1.054 1.769a.607.607 0 01-.506.04l.678-1.944zm.53.25a2.873 2.873 0 00-.53-.25l-.678 1.943c.027.01.079.03.15.073l1.058-1.765zm-.657-.392l-.565.514 1.385 1.523.565-.514-1.385-1.523zm.263-.89c-.556.506-.695 1.226-.583 1.837l2.025-.37c-.006-.03 0-.038-.004-.024a.201.201 0 01-.053.08L16.68.32zm3.017.303C19-.145 17.647-.56 16.68.32l1.385 1.523a.19.19 0 01-.076.043c-.018.004-.02.001-.005.003a.355.355 0 01.19.12L19.698.622zm.018 3.033c.967-.88.681-2.265-.018-3.033l-1.522 1.385a.355.355 0 01.1.202c.001.016-.002.013.005-.005a.19.19 0 01.05-.072l1.385 1.523zm-1.883.407c.598.169 1.327.098 1.883-.407L18.33 2.133a.202.202 0 01.084-.045c.014-.002.006.002-.023-.006l-.559 1.981zm.422.271l.55-.5-1.385-1.523-.55.5 1.386 1.523zm.47-.586a2.932 2.932 0 00-.25-.65l-1.825.95a.88.88 0 01.076.192l2-.492zm-.25 1.208c.213-.291.37-.724.25-1.208l-1.999.492a.607.607 0 01.088-.5l1.661 1.216zm-3.37 3.564c2.046-1.861 3.027-3.094 3.37-3.564L16.813 3.74c-.255.349-1.14 1.48-3.094 3.257l1.386 1.523zm-4.54 3.706c1.677-1.3 3.455-2.719 4.54-3.707L13.72 6.998c-1.018.926-2.736 2.3-4.417 3.602l1.261 1.627zm-1.393-.12l2.494 2.74 1.523-1.385-2.494-2.741-1.523 1.385zm2.494 2.74a.35.35 0 01.024-.494l1.385 1.523a1.71 1.71 0 00.114-2.414l-1.523 1.385zm.024-.494l-3.494 3.18 1.385 1.522 3.494-3.179-1.385-1.523zm-3.494 3.18a.35.35 0 01.493.023L7.166 18.94a1.71 1.71 0 002.414.114l-1.385-1.522zm.493.023l-6.98-7.672-1.523 1.385 6.98 7.672 1.523-1.385zm-6.98-7.672a.35.35 0 01-.023.493L.299 8.854a1.71 1.71 0 00-.114 2.414l1.523-1.385zm-.023.493l3.493-3.179-1.385-1.522L.3 8.854l1.386 1.522zm3.493-3.179a.35.35 0 01-.493-.023L6.208 5.79a1.71 1.71 0 00-2.415-.114l1.385 1.522zm-.493-.023l2.64 2.901L8.846 8.69l-2.64-2.901-1.522 1.385z" fill="#fff" mask="url(#agb)"/></svg><svg fill="none" viewBox="0 0 14 16" id="icon-burger" xmlns="http://www.w3.org/2000/svg"><path fill-rule="evenodd" clip-rule="evenodd" d="M0 1.378a1.3 1.3 0 011.3-1.3h11.4a1.3 1.3 0 010 2.6H1.3a1.3 1.3 0 01-1.3-1.3zm0 6.197a1.3 1.3 0 011.3-1.3h11.4a1.3 1.3 0 110 2.6H1.3a1.3 1.3 0 01-1.3-1.3zm1.3 4.898a1.3 1.3 0 100 2.6h5.4a1.3 1.3 0 000-2.6H1.3z" fill="#363A45"/></svg><svg fill="none" viewBox="0 0 16 16" id="icon-burger-close" xmlns="http://www.w3.org/2000/svg"><path fill-rule="evenodd" clip-rule="evenodd" d="M1.317 12.648a1.63 1.63 0 000 2.193l.367.393a1.38 1.38 0 002.047 0L8 10.66l4.269 4.573a1.38 1.38 0 002.047 0l.367-.393a1.63 1.63 0 000-2.193l-4.27-4.572 4.27-4.573a1.63 1.63 0 000-2.193l-.367-.393a1.38 1.38 0 00-2.048 0L8 5.49 3.73.917a1.38 1.38 0 00-2.046 0l-.367.393a1.63 1.63 0 000 2.193l4.269 4.573-4.27 4.572z" fill="#00C65E"/></svg><svg fill="none" viewBox="0 0 18 18" id="icon-cart" xmlns="http://www.w3.org/2000/svg"><path fill-rule="evenodd" clip-rule="evenodd" d="M.996.525a.4.4 0 100 .8h.512a1.6 1.6 0 011.541 1.17l2.242 8.027c.005.017.01.033.017.049l.251.926A1.4 1.4 0 006.91 12.53h7.665a1.4 1.4 0 001.352-1.033l1.587-5.856a1.4 1.4 0 00-1.351-1.767H4.265L3.82 2.28A2.4 2.4 0 001.508.525H.996zM6.33 11.287L4.538 4.674h11.625a.6.6 0 01.579.757l-1.588 5.856a.6.6 0 01-.579.443H6.91a.6.6 0 01-.579-.443z" fill="#363A45"/><path d="M9.272 15.677a1.425 1.425 0 11-2.849-.001 1.425 1.425 0 012.85.001zM15.065 15.677a1.425 1.425 0 11-2.849-.001 1.425 1.425 0 012.85.001z"/></svg><svg fill="none" viewBox="0 0 25 18" id="icon-charity" xmlns="http://www.w3.org/2000/svg"><path d="M8.15 6.433l.35.016h0V6.44l.001-.024.004-.093.016-.335.047-1.072c.035-.813.074-1.727.085-2.12.012-.386.046-.845.16-1.194a.894.894 0 01.193-.356.26.26 0 01.216-.08l.02.001c.08 0 .136.017.18.045.047.03.109.089.173.216.136.269.247.769.28 1.656a533.172 533.172 0 01.109 3.087l.006.201.002.053v.017h0v.001h0l.35-.01-.35.01a.35.35 0 00.7.002l.08-2.23c.034-.713.162-1.039.274-1.183.087-.113.186-.145.35-.145.066 0 .104.012.134.03.03.02.085.067.145.193.128.267.24.798.264 1.816l-.017 6.133-.007.151c-.032.704-.06 1.303-.126 1.826-.072.56-.186 1.002-.381 1.362a36.638 36.638 0 00-.217.474c-.227.503-.54 1.195-.785 1.644H5.137a35.016 35.016 0 00-1.496-2.518c-.487-.797-1.273-2.48-1.946-3.988a157.69 157.69 0 01-1.12-2.575L.504 7.27l-.018-.044-.005-.01-.001-.003h0V7.21h0l-.003-.007a1.312 1.312 0 01-.053-.159 1.84 1.84 0 01-.072-.396.766.766 0 01.053-.364.383.383 0 01.242-.202c.086-.03.18-.024.298.029.123.055.252.155.375.279a2.868 2.868 0 01.401.513l.005.008h0l1.502 2.636a.35.35 0 00.654-.174V3.862c0-.674.07-1.162.18-1.47.11-.306.215-.333.243-.335.09.002.167.038.25.165.097.146.18.383.246.718l.486 3.54a.35.35 0 00.696-.037l-.35-.01.35.01h0v-.007l.001-.022.003-.087a119.282 119.282 0 01.05-1.377c.034-.836.083-1.837.144-2.521.061-.7.134-1.23.273-1.582.068-.17.141-.272.212-.331a.409.409 0 01.277-.088c.145 0 .231.034.29.076a.566.566 0 01.179.249c.12.278.174.702.22 1.289.044.567.086 1.663.117 2.626A251.508 251.508 0 017.797 6.3l.002.105.001.027V6.441h0l.35-.008zm0 0l.35.016a.35.35 0 01-.7-.007l.35-.009zM16.85 6.433l-.349.016h0V6.44l-.001-.024-.005-.093-.015-.335-.047-1.072a214.93 214.93 0 01-.085-2.12c-.012-.386-.046-.845-.16-1.194a.893.893 0 00-.193-.356.26.26 0 00-.216-.08l-.02.001a.322.322 0 00-.18.045.519.519 0 00-.173.216c-.136.269-.247.769-.281 1.656a528.805 528.805 0 00-.108 3.087l-.006.201-.002.053v.017h0v.001h0l-.35-.01.35.01a.35.35 0 01-.7.002l-.08-2.23c-.034-.713-.162-1.039-.273-1.183-.088-.113-.187-.145-.35-.145a.241.241 0 00-.135.03c-.03.02-.085.067-.145.193-.128.267-.24.798-.264 1.816l.017 6.133.007.151c.032.704.06 1.303.126 1.826.072.56.186 1.002.381 1.362a35.01 35.01 0 01.217.474c.227.503.54 1.195.785 1.644h5.269a35.017 35.017 0 011.496-2.518c.487-.797 1.273-2.48 1.946-3.988a157.334 157.334 0 001.12-2.575l.071-.167.018-.044.005-.01.001-.003h0V7.21h0l.003-.007a1.977 1.977 0 00.124-.555.765.765 0 00-.052-.364.382.382 0 00-.242-.202c-.086-.03-.18-.024-.298.029a1.337 1.337 0 00-.375.279 2.864 2.864 0 00-.38.48l-.021.033-.005.008h0l-1.502 2.636a.35.35 0 01-.654-.174V3.862c0-.674-.07-1.162-.18-1.47-.11-.306-.215-.333-.243-.335-.09.002-.167.038-.25.165-.097.146-.18.383-.246.718l-.486 3.54a.35.35 0 01-.696-.037l.35-.01-.35.01h0v-.007l-.001-.022-.003-.087a117.154 117.154 0 00-.05-1.377 61.303 61.303 0 00-.144-2.521c-.061-.7-.134-1.23-.273-1.582-.068-.17-.141-.272-.212-.331a.409.409 0 00-.277-.088.476.476 0 00-.29.076.565.565 0 00-.179.249c-.12.278-.174.702-.22 1.289a74.037 74.037 0 00-.117 2.626c-.016.48-.028.923-.037 1.246l-.01.386-.003.105-.001.027V6.441h0l-.35-.008zm0 0l-.349.016a.35.35 0 00.7-.007l-.35-.009z" fill="#fff" stroke="#363A45" stroke-width=".7" stroke-linejoin="round"/><path d="M12.55 14.994l-.399.236a66.56 66.56 0 01-1.829-1.177c-1.093-.728-2.306-1.59-2.896-2.18a3.677 3.677 0 01-.975-1.228 3.644 3.644 0 01-.371-1.478c.012-.67.23-1.323.626-1.872a3.428 3.428 0 013.6-1.311 3.347 3.347 0 011.701 1.031.354.354 0 00.528.005 3.418 3.418 0 011.731-1.01 3.418 3.418 0 011.999.131c.636.242 1.18.669 1.56 1.224.38.552.58 1.206.574 1.875a3.771 3.771 0 01-.421 1.472 3.848 3.848 0 01-1.004 1.219c-.701.664-1.943 1.512-3.03 2.204-.54.343-1.034.644-1.394.859z" fill="#00C65E" stroke="#fff" stroke-width=".7" stroke-linejoin="round"/></svg><svg fill="none" viewBox="0 0 38 26" id="icon-charity-w" xmlns="http://www.w3.org/2000/svg"><path d="M12.754 10.208l.514.024h0v-.003l.001-.01.002-.035.006-.136.022-.493.07-1.576c.052-1.196.108-2.54.125-3.117.017-.568.068-1.244.236-1.756.084-.256.183-.426.283-.525a.382.382 0 01.318-.116h.029c.119 0 .2.025.266.067.068.043.159.13.253.318.2.395.364 1.13.413 2.435a787.077 787.077 0 01.159 4.539l.01.296.002.078v.025h0v.001h0l.515-.016-.514.016a.515.515 0 001.028.003l.118-3.278c.05-1.05.238-1.529.402-1.741.128-.167.274-.212.515-.212.098 0 .154.017.198.044.045.028.124.097.213.282.188.393.353 1.174.388 2.671l-.025 9.02-.01.222c-.047 1.035-.088 1.916-.186 2.684-.105.823-.273 1.475-.56 2.005a55.85 55.85 0 00-.32.697c-.333.738-.794 1.756-1.153 2.416H8.323a51.5 51.5 0 00-2.2-3.703c-.716-1.171-1.872-3.647-2.861-5.864a231.256 231.256 0 01-1.648-3.786l-.104-.246-.027-.065-.007-.016-.002-.003h0v-.001h0l-.004-.01a2.967 2.967 0 01-.183-.816c-.012-.217.014-.4.078-.536.056-.118.152-.227.355-.298.126-.044.266-.035.439.043.18.081.37.227.551.41a4.22 4.22 0 01.59.755l.007.01v.001l2.21 3.877a.515.515 0 00.961-.255V6.427c0-.99.102-1.709.265-2.163.161-.449.315-.488.357-.491.133.002.245.056.368.243.142.215.263.563.36 1.055l.715 5.207a.515.515 0 001.025-.055l-.515-.015.515.015h0v-.011l.001-.032.004-.127a184.099 184.099 0 01.073-2.026c.05-1.229.123-2.702.212-3.707.09-1.03.197-1.809.402-2.326.1-.252.207-.401.312-.487a.602.602 0 01.408-.13c.212 0 .34.05.425.112.09.064.18.174.263.366.176.408.256 1.033.323 1.896.065.833.127 2.446.174 3.86a376.37 376.37 0 01.07 2.401l.003.155.001.04V10.22h0v.001l.515-.013zm0 0l.514.024a.515.515 0 01-1.028-.011l.514-.013zM25.55 10.208l-.515.024h0V10.219l-.002-.035-.006-.136-.022-.493-.07-1.576c-.052-1.196-.108-2.54-.125-3.117-.017-.568-.068-1.244-.236-1.756-.084-.256-.184-.426-.284-.525a.382.382 0 00-.317-.116h-.03c-.118 0-.2.025-.265.067-.069.043-.16.13-.254.318-.199.395-.363 1.13-.412 2.435a773.56 773.56 0 00-.16 4.539l-.009.296-.002.078v.025h0v.001h0l-.515-.016.514.016a.515.515 0 01-1.029.003l-.117-3.278c-.05-1.05-.238-1.529-.402-1.741-.129-.167-.274-.212-.515-.212a.355.355 0 00-.198.044c-.045.028-.125.097-.213.282-.188.393-.354 1.174-.388 2.671l.025 9.02.01.222c.047 1.035.087 1.916.186 2.684.105.823.272 1.475.56 2.005a55.85 55.85 0 01.32.697c.333.738.793 1.756 1.153 2.416h7.749a51.49 51.49 0 012.2-3.703c.716-1.171 1.871-3.647 2.861-5.864a230.346 230.346 0 001.752-4.032l.027-.065.007-.016.001-.003h0v-.001h0l.005-.01.018-.049a2.981 2.981 0 00.165-.768c.012-.216-.014-.4-.078-.535-.056-.118-.152-.227-.355-.298-.127-.044-.266-.035-.439.043-.18.081-.37.227-.551.41a4.22 4.22 0 00-.59.755l-.007.01v.001l-2.21 3.877a.515.515 0 01-.962-.255V6.427c0-.99-.101-1.709-.264-2.163-.161-.449-.315-.488-.358-.491-.132.002-.244.056-.367.243-.142.215-.264.563-.36 1.055l-.716 5.207a.515.515 0 01-1.024-.055l.514-.015-.514.015h0v-.011l-.001-.032-.004-.127a197.412 197.412 0 00-.073-2.026c-.05-1.229-.123-2.702-.212-3.707-.091-1.03-.197-1.809-.402-2.326-.1-.252-.207-.401-.312-.487a.602.602 0 00-.408-.13c-.213 0-.34.05-.425.112-.09.064-.181.174-.264.366-.175.408-.255 1.033-.323 1.896-.065.833-.127 2.446-.173 3.86a376.37 376.37 0 00-.07 2.401l-.004.155v.05l-.001.003h0v.001l-.515-.013zm0 0l-.515.024a.515.515 0 001.029-.011l-.515-.013z" fill="#00C65E" stroke="#fff" stroke-width="1.029" stroke-linejoin="round"/><path d="M18.426 11.065a.524.524 0 00.777.007 5.027 5.027 0 012.545-1.485 5.027 5.027 0 012.94.192 4.892 4.892 0 012.295 1.8c.558.812.852 1.773.843 2.758a5.544 5.544 0 01-.62 2.164 5.658 5.658 0 01-1.476 1.792c-1.031.977-2.857 2.224-4.456 3.241a86.08 86.08 0 01-2.636 1.61l-.614-.384c-.54-.341-1.28-.815-2.076-1.345-1.607-1.071-3.39-2.338-4.259-3.208a.488.488 0 00-.035-.032 5.41 5.41 0 01-1.399-1.774 5.359 5.359 0 01-.546-2.172c.018-.986.34-1.945.921-2.753a5.042 5.042 0 015.295-1.928 4.922 4.922 0 012.501 1.517z" fill="#fff" stroke="#00C65E" stroke-width="1.029" stroke-linejoin="round"/></svg><svg fill="none" viewBox="0 0 25 25" id="icon-children-goods" xmlns="http://www.w3.org/2000/svg"><path d="M22.22 12.571c-.19-.78-.62-1-1.15-.7 0 0-1.07.7-1.48 1a4.19 4.19 0 01-2.56.59 8.841 8.841 0 01-3.89-1.06 4.38 4.38 0 001.88-1.72 4.5 4.5 0 00.65-2.5 5.74 5.74 0 00-1.59-4 5.43 5.43 0 00-3.85-1.69c-1 0-2.44.83-3.33 3a4.61 4.61 0 00-.48 2.22c0 .76-.45 2.22 0 2.79.6.87-3.92 4.12-3.92 7 0 3.19 2.39 5.16 9.74 5 5-.13 8.89-2.16 9.78-4.9a8.68 8.68 0 00.2-5.03z" fill="#fff" stroke="#363A45" stroke-width=".7" stroke-miterlimit="10"/><path d="M6.95 6.331l-3.36-.59c-.11.16-.37.59.21 1.63.26.4.6.74 1 1 0 0-1.08-.09-1.3.2a.51.51 0 00-.09.16.61.61 0 000 .19.51.51 0 00.07.17l.13.13c.19.1 3.07 1 3.07 1a1.77 1.77 0 00.49-1.14c0-.73-.45-.8-.32-2.11.02-.215.054-.429.1-.64z" fill="#00C65E"/><path d="M8.55 6.02c.29-.63.31-1.24 0-1.36-.31-.12-.7.28-1 .91-.3.63-.31 1.23-.06 1.36.25.13.77-.25 1.06-.91z" fill="#363A45"/><path d="M8.1 19.73a4.668 4.668 0 01-.56-1.17 2.61 2.61 0 01-.12-1.33 1.2 1.2 0 01.37-.61 2.59 2.59 0 01.56-.37c.382-.194.78-.355 1.19-.48.81-.25 1.63-.45 2.46-.62l2.47-.47.29-.06c.026.561-.056 1.121-.24 1.65a2.998 2.998 0 01-.45.62s1.63-1 2.38-1.27l.12-.05.07.08a1.362 1.362 0 01.32 1 1.81 1.81 0 01-.43.94c-.206.26-.445.492-.71.69a8.61 8.61 0 01-.81.52c-2-2.81-5.19-2.44-6.44-.95a2.85 2.85 0 00-.47 1.88z" fill="#00C65E"/></svg><svg fill="none" viewBox="0 0 16 16" id="icon-close" xmlns="http://www.w3.org/2000/svg"><path fill-rule="evenodd" clip-rule="evenodd" d="M1.317 12.573a1.63 1.63 0 000 2.193l.367.393a1.38 1.38 0 002.047 0L8 10.586l4.269 4.573a1.38 1.38 0 002.047 0l.367-.393a1.63 1.63 0 000-2.193l-4.27-4.572 4.27-4.573a1.63 1.63 0 000-2.193l-.367-.393a1.38 1.38 0 00-2.048 0L8 5.415 3.73.842a1.38 1.38 0 00-2.046 0l-.367.393a1.63 1.63 0 000 2.193l4.269 4.573-4.27 4.572z" fill="currentColor"/></svg><svg fill="none" viewBox="0 0 11 11" id="icon-comment" xmlns="http://www.w3.org/2000/svg"><path d="M.728 4.454c0-2.205 2.243-4 5-4s5 1.795 5 4c0 2.16-2.152 3.926-4.83 3.998l-2.67 2.002V7.921c-1.551-.709-2.5-2.013-2.5-3.467z" fill="currentColor"/></svg><svg fill="none" viewBox="0 0 22 18" id="icon-comparison" xmlns="http://www.w3.org/2000/svg"><path d="M3.508 9.563H1.383A.566.566 0 01.82 9V6.875c0-.308.255-.563.563-.563h2.125c.308 0 .562.255.562.563V9a.566.566 0 01-.562.563zm0 5.312H1.383a.566.566 0 01-.563-.563v-2.124c0-.309.255-.563.563-.563h2.125c.308 0 .562.254.562.563v2.124a.566.566 0 01-.562.563zm0-10.625H1.383a.566.566 0 01-.563-.563V1.563c0-.309.255-.563.563-.563h2.125c.308 0 .562.254.562.563v2.125a.566.566 0 01-.562.562zM17.32 9.563H6.695A.566.566 0 016.133 9V6.875c0-.308.254-.563.562-.563H17.32c.308 0 .563.255.563.563V9a.566.566 0 01-.563.563zm0 5.312H6.695a.566.566 0 01-.562-.563v-2.124c0-.309.254-.563.562-.563H17.32c.308 0 .563.254.563.563v2.124a.566.566 0 01-.563.563zM6.133 3.687V1.563c0-.309.254-.563.562-.563H17.32c.308 0 .563.254.563.563v2.125a.566.566 0 01-.563.562H6.695a.566.566 0 01-.562-.563z" stroke="#363A45"/><circle cx="16.789" cy="12.719" r="3.898" fill="#00C65E" stroke="#00C65E" stroke-width="1.766"/><path fill-rule="evenodd" clip-rule="evenodd" d="M16.79 10.273a.299.299 0 00-.3.3v1.847h-1.847a.299.299 0 100 .598h1.847v1.847a.299.299 0 10.598 0v-1.847h1.848a.299.299 0 000-.598h-1.848v-1.848a.299.299 0 00-.299-.299z" fill="#fff"/></svg><svg fill="none" viewBox="0 0 15 17" id="icon-del" xmlns="http://www.w3.org/2000/svg"><mask id="aqa" fill="#fff"><rect x="1.61" y="4" width="12" height="13" rx="1"/></mask><rect x="1.61" y="4" width="12" height="13" rx="1" mask="url(#aqa)"/><path clip-rule="evenodd" d="M4.646 0a1 1 0 00-.833.445l-.536.805H1.11a.75.75 0 000 1.5h13a.75.75 0 000-1.5h-2.166l-.537-.805A1 1 0 0010.575 0h-5.93z"/></svg><svg fill="none" viewBox="0 0 19 15" id="icon-delivery" xmlns="http://www.w3.org/2000/svg"><path d="M18.946 7.25L16.91 2.467a.681.681 0 00-.624-.417H14.25V.683A.686.686 0 0014.051.2a.676.676 0 00-.48-.2H.68a.676.676 0 00-.48.2A.686.686 0 000 .683V12.3c0 .181.071.355.199.483.127.129.3.2.48.2H2.13c.156.58.497 1.09.97 1.455a2.702 2.702 0 003.298 0c.473-.364.814-.876.97-1.455h4.262c.156.58.497 1.09.97 1.455a2.702 2.702 0 003.297 0c.474-.364.815-.876.971-1.455h1.452c.18 0 .353-.072.48-.2A.686.686 0 0019 12.3V7.517a.687.687 0 00-.054-.267zM4.75 13.667a1.351 1.351 0 01-1.254-.844 1.376 1.376 0 01.294-1.49 1.354 1.354 0 011.48-.296 1.374 1.374 0 01.44 2.229c-.255.257-.6.4-.96.4zm9.5 0a1.351 1.351 0 01-1.254-.844 1.375 1.375 0 01.294-1.49 1.354 1.354 0 011.48-.296 1.36 1.36 0 01.837 1.263c0 .363-.143.71-.397.966-.255.257-.6.4-.96.4z" fill="currentColor"/></svg><svg fill="none" viewBox="0 0 18 18" id="icon-delivery-pay" xmlns="http://www.w3.org/2000/svg"><g clip-path="url(#asclip0_3718_44587)"><mask id="asa" fill="#fff"><path fill-rule="evenodd" clip-rule="evenodd" d="M.274 4.127c0-.614.498-1.111 1.111-1.111h9.722c.613 0 1.11.497 1.11 1.11V5.74h2.734c.434 0 .83.254 1.01.65l1.213 2.656c.066.145.1.302.1.462v2.173c0 .613-.497 1.11-1.11 1.11H1.384a1.111 1.111 0 01-1.11-1.111V4.127z"/></mask><path d="M12.218 5.74h-.7v.7h.7v-.7zm3.743.65l-.637.29.637-.29zm1.213 2.656l-.637.291.637-.29zm-5.508 3.745h-.7v.7h.7v-.7zm0 0h.7v-.7h-.7v.7zM1.386 2.316c-1 0-1.812.81-1.812 1.81h1.4c0-.226.184-.41.411-.41v-1.4zm9.72 0h-9.72v1.4h9.72v-1.4zm1.812 1.81c0-1-.811-1.81-1.811-1.81v1.4c.227 0 .41.184.41.41h1.4zm0 1.614V4.127h-1.4V5.74h1.4zm2.033-.7h-2.733v1.4h2.733v-1.4zm1.647 1.06a1.81 1.81 0 00-1.647-1.06v1.4a.41.41 0 01.373.24l1.274-.58zm1.213 2.655L16.598 6.1l-1.274.582 1.213 2.656 1.274-.582zm.163.753c0-.26-.055-.516-.163-.753l-1.274.582a.412.412 0 01.037.17h1.4zm0 2.173V9.508h-1.4v2.173h1.4zm-1.81 1.81c1 0 1.81-.81 1.81-1.81h-1.4c0 .227-.184.41-.41.41v1.4zm-4.499 0h4.498v-1.4h-4.498v1.4zm-.7-.7h1.4-1.4zm-9.58.7h10.28v-1.4H1.386v1.4zm-1.81-1.811c0 1 .81 1.81 1.81 1.81v-1.4a.411.411 0 01-.41-.41h-1.4zm0-7.553v7.553h1.4V4.127h-1.4z" fill="#363A45" mask="url(#asa)"/><path d="M14.706 6.855h-1.849c-.122 0-.222.1-.222.223v2.079c0 .122.1.222.222.222h2.876c.162 0 .269-.167.202-.315l-.917-2.008a.342.342 0 00-.312-.2z" fill="#00C65E"/><path d="M11.078 12.299a1.495 1.495 0 102.99 0 1.495 1.495 0 00-2.99 0z" fill="#fff" stroke="#363A45" stroke-width=".7"/><path d="M12.574 13.222a.923.923 0 110-1.845.923.923 0 010 1.845z" fill="#00C65E"/><path d="M3.48 12.299a1.495 1.495 0 102.991 0 1.495 1.495 0 00-2.99 0z" fill="#fff" stroke="#363A45" stroke-width=".7"/><path d="M4.977 13.222a.923.923 0 110-1.845.923.923 0 010 1.845z" fill="#00C65E"/></g><defs><clipPath id="asclip0_3718_44587"><path fill="#fff" transform="translate(.274 .078)" d="M0 0h17v17H0z"/></clipPath></defs></svg><svg fill="none" viewBox="0 0 25 25" id="icon-electronic" xmlns="http://www.w3.org/2000/svg"><path d="M15.199 21.21c-.243-.017-.446-.15-.608-.332a.902.902 0 01-.23-.677v-1.272a.907.907 0 01.23-.677.927.927 0 01.63-.313H9.757a.936.936 0 01.634.333.91.91 0 01.23.687v1.262a1.116 1.116 0 01-.26.646.998.998 0 01-.6.344H15.2z" fill="#fff" stroke="#363A45" stroke-width=".7" stroke-miterlimit="10"/><path d="M21.14 2.535H3.85a1.45 1.45 0 00-1.33 1.54v12.34a1.45 1.45 0 001.33 1.54h17.29a1.45 1.45 0 001.34-1.54V4.075a1.45 1.45 0 00-1.34-1.54z" fill="#fff" stroke="#363A45" stroke-width=".7" stroke-miterlimit="10"/><path d="M16.78 4.055H4.99a1 1 0 00-.92 1.12v9a1 1 0 00.92 1.12c3.9-.04 11.79-6.91 11.79-11.24z" fill="#00C65E"/><path d="M6.936 21.215h11.11a.625.625 0 010 1.25H6.936a.625.625 0 110-1.25z" fill="#F7F7F7" stroke="#363A45" stroke-width=".7" stroke-miterlimit="10"/><path d="M12.5 16.635a1 1 0 100-2 1 1 0 000 2z" fill="#00C65E"/></svg><svg fill="none" viewBox="0 0 23 16" id="icon-eye" xmlns="http://www.w3.org/2000/svg"><path d="M11.432 5.366a3 3 0 110 6 3 3 0 010-6zm0-4.5c4.86 0 9.22 3 11 7.5-2.39 6.08-9.25 9.06-15.33 6.67-3.05-1.2-5.47-3.61-6.67-6.67 1.78-4.5 6.14-7.5 11-7.5zm-8.82 7.5c2.38 4.87 8.27 6.89 13.14 4.5a9.811 9.811 0 004.5-4.5c-2.38-4.87-8.27-6.89-13.14-4.5a9.811 9.811 0 00-4.5 4.5z" fill="currentColor"/></svg><svg fill="none" viewBox="0 0 20 20" id="icon-facebook" xmlns="http://www.w3.org/2000/svg"><path d="M14.746.89H5.452C2.896.89.798 2.99.798 5.56v9.294c0 2.556 2.098 4.654 4.654 4.654h9.294a4.679 4.679 0 004.669-4.67V5.56c0-2.571-2.098-4.67-4.669-4.67zm-2.143 9.31h-1.758v5.762H8.63v-5.763H7.447V7.835H8.48V6.83c0-.945.473-2.438 2.468-2.438h1.817v1.966h-1.285c-.207 0-.488.133-.488.59v.887h1.817l-.207 2.364z" fill="currentColor"/></svg><svg viewBox="0 0 20 18" id="icon-favorites" xmlns="http://www.w3.org/2000/svg"><g clip-path="url(#awclip0_3718_44631)"><path d="M9.954 3.33l.335.518.336-.518C12.14.994 14.266.522 15.994 1.186c1.753.673 3.176 2.545 3.176 5.075 0 .89-.472 1.965-1.267 3.127-.786 1.15-1.85 2.33-2.952 3.421a57.788 57.788 0 01-3.131 2.853c-.325.278-.62.526-.876.74l-.282.239c-.14.118-.268.226-.375.32a27.923 27.923 0 00-.393-.325l-.416-.337c-.237-.19-.502-.405-.792-.642a61.451 61.451 0 01-3.282-2.854C4.247 11.71 3.128 10.53 2.301 9.38 1.464 8.217.971 7.145.971 6.26c0-2.534 1.519-4.412 3.39-5.087 1.851-.668 4.086-.17 5.593 2.157z"/></g><defs><clipPath id="awclip0_3718_44631"><path transform="translate(.57 .5)" d="M0 0h19v17H0z"/></clipPath></defs></svg><svg fill="none" viewBox="0 0 25 25" id="icon-for-bussines" xmlns="http://www.w3.org/2000/svg"><path d="M21.015 6.965h-17a1.43 1.43 0 00-1.45 1.43v12.53a1.43 1.43 0 001.43 1.43h17a1.43 1.43 0 001.42-1.43V8.395a1.43 1.43 0 00-1.4-1.43z" fill="#fff" stroke="#363A45" stroke-width=".7" stroke-miterlimit="10"/><path d="M9.675 7.285v-1.83a2.83 2.83 0 01.82-2 2.78 2.78 0 012-.81 2.77 2.77 0 012.78 2.78v1.86" stroke="#00C65E" stroke-width="2" stroke-miterlimit="10"/><path d="M20.905 6.965h-16.8a1.54 1.54 0 00-1.54 1.56v3.41a1.54 1.54 0 001.54 1.54h16.8a1.53 1.53 0 001.53-1.54v-3.41a1.53 1.53 0 00-1.53-1.56z" fill="#fff" stroke="#363A45" stroke-width=".7" stroke-miterlimit="10"/><path d="M13.675 11.414h-2.34v4.11h2.34v-4.11z" fill="#00C65E"/></svg><svg fill="none" viewBox="0 0 25 25" id="icon-give-nothing" xmlns="http://www.w3.org/2000/svg"><path d="M15.08 10.711v.12a.36.36 0 01-.117.246c-.248.082-.737.055-.704-.716v-2.21c-.03-.99-.07-2.12-.12-2.71-.01-.452-.087-.9-.23-1.33a.52.52 0 00-.18-.25.45.45 0 00-.3-.08.42.42 0 00-.29.09.829.829 0 00-.21.34 6.314 6.314 0 00-.29 1.63c-.06.71-.14 1.74-.14 2.6-.05.42-.05 1.73-.05 2 .006.11.006.22 0 .33v.11a.36.36 0 01-.72 0l-.5-4.57a2.151 2.151 0 00-.25-.74.31.31 0 00-.26-.17c-.03 0-.14.03-.25.34a4.63 4.63 0 00-.19 1.52v6.5a.37.37 0 01-.27.35.36.36 0 01-.4-.18l-1.55-2.71S7.117 9.392 6.558 9.74c-.559.346.341 2.132.341 2.132.06.15.16.36.27.63.23.51.54 1.23.89 2 .69 1.56 2.98 5.67 3.55 6.72h5.45c.26-.46.58-1.17.81-1.69.09-.19.16-.36.22-.47.178-.462.312-.941.4-1.43.07-.53.13-1.15.13-1.88v-7.4a5.002 5.002 0 00-.27-1.87c-.186-.56-.51-.266-.65-.05a2.33 2.33 0 00-.28 1.22l-.14 3.14a.36.36 0 01-.36.35.349.349 0 01-.36-.35v-1.04c-.02-.63-.08-2.41-.08-3.34a4.58 4.58 0 00-.29-1.71.54.54 0 00-.18-.22.33.33 0 00-.19 0 .31.31 0 00-.24.09 1 1 0 00-.2.37 4.929 4.929 0 00-.17 1.23c-.01.41-.08 1.35-.08 2.19-.05.4-.05 1.71-.05 2v.35z" fill="#fff" stroke="#363A45" stroke-width=".7" stroke-linejoin="round"/><path d="M14.15 16.053l.24.15 1.11-.57a12.39 12.39 0 001.72-1.25 2 2 0 00.56-.68c.138-.26.22-.546.24-.84a1.87 1.87 0 00-.32-1.07 2 2 0 00-.89-.7 2.001 2.001 0 00-2.14.5.2.2 0 01-.16.07.23.23 0 01-.15-.07 1.84 1.84 0 00-1-.58 1.92 1.92 0 00-1.14 0 2 2 0 00-.91.69 1.88 1.88 0 00-.36 1.07 2 2 0 00.21.84c.13.261.314.493.54.68.516.456 1.067.87 1.65 1.24l.8.52z" fill="#00C65E" stroke="#fff" stroke-width=".4" stroke-linejoin="round"/></svg><svg fill="none" viewBox="0 0 25 25" id="icon-hobby" xmlns="http://www.w3.org/2000/svg"><path d="M13.565 11.047c1.686 2.399 5.886 2.764 6.777 2.898.474.071 1.045.432 1.293.833.271.39.41.858.392 1.334.005.492-.184.966-.526 1.32a1.98 1.98 0 01-.597.41c-.224.09-.463.141-.704.151H5.692a1.864 1.864 0 01-1.293-.561 1.828 1.828 0 01-.517-1.311 1.007 1.007 0 010-.232A91.142 91.142 0 016.04 4.029a.57.57 0 01.552-.436h5.788a.561.561 0 01.57.597c-.08 1.552-.223 5.68.615 6.857zM20.6 17.994H4.202v1.926H20.6v-1.926z" fill="#fff" stroke="#363A45" stroke-width=".7" stroke-miterlimit="10"/><path d="M4.203 21.409a1.703 1.703 0 100-3.407 1.703 1.703 0 000 3.407zM20.797 21.409a1.704 1.704 0 100-3.407 1.704 1.704 0 000 3.407zM15.269 21.409a1.703 1.703 0 10-.036-3.405 1.703 1.703 0 00.036 3.405zM9.74 21.409a1.703 1.703 0 10-1.703-1.703 1.712 1.712 0 001.703 1.703zM9.232 10.593h3.78c-.07-.268-.169-.57-.222-.892H9.223c-.116 0-.205.125-.205.277v.338c.009.152.071.277.214.277zM12.655 8.265H9.232c-.115 0-.205-.125-.205-.276V7.65c0-.152.09-.276.205-.276h3.362l.063.891z" fill="#00C65E"/></svg><svg fill="none" viewBox="0 0 25 25" id="icon-home-garden" xmlns="http://www.w3.org/2000/svg"><path d="M20.803 10.37l-7.47-7.47a1.17 1.17 0 00-.83-.34 1.13 1.13 0 00-.82.34l-7.49 7.47c-.73.74.65 2 .65 2v10.07h15.32V12.37s1.38-1.26.64-2z" fill="#fff" stroke="#363A45" stroke-width=".7" stroke-linecap="round" stroke-linejoin="round"/><path d="M11.912 3.131l-7.48 7.48a.34.34 0 00-.11.28c.107.466.364.884.73 1.19l.06.06 8.34-8.63-.38-.38a.86.86 0 00-1.16 0zM18.843 14.13c-.25 0-1.74-.06-2.17 2.23h-.56c.46-1.78 1.132-3.499 2-5.12 0 0-2.09 1.1-2.81 5.14h-.27c.7-3.15-.51-8.7-.51-8.7a36.717 36.717 0 00-.17 8.7h-.26c-.72-4-2.8-5.14-2.8-5.14a23.153 23.153 0 012 5.14h-.52c-.42-2.31-1.91-2.27-2.16-2.25.17 0 .86.13 1.56 2.25h-.68l.79 5.72h5l.66-5.72h-.67c.71-2.12 1.4-2.25 1.57-2.25z" fill="#00C65E"/></svg><svg fill="none" viewBox="0 0 25 25" id="icon-house-devices" xmlns="http://www.w3.org/2000/svg"><path d="M15.225 2.95h-5.45a1.6 1.6 0 00-1.6 1.6v15.89a1.61 1.61 0 001.6 1.61h5.45a1.6 1.6 0 001.6-1.61V4.55a1.6 1.6 0 00-1.6-1.6z" fill="#fff" stroke="#363A45" stroke-width=".7" stroke-miterlimit="10"/><path d="M16.478 9.19H8.525v.7h7.953v-.7z" fill="#363A45"/><path d="M9.085 5.99v1.82h1V5.99h-1zM9.085 11.269v1.82h1v-1.82h-1zM16.478 9.19h-1.15a7.64 7.64 0 00-.56-3.2 6.58 6.58 0 00-2.23-2.71h2.82a1.12 1.12 0 011.12 1.12v4.79z" fill="#00C65E"/></svg><svg fill="none" viewBox="0 0 20 20" id="icon-inst" xmlns="http://www.w3.org/2000/svg"><path d="M11.955 9.003a2.036 2.036 0 00-1.655-.857c-.68 0-1.286.34-1.655.857A2.1 2.1 0 008.26 10.2c0 1.123.916 2.039 2.039 2.039a2.043 2.043 0 002.039-2.04 2.1 2.1 0 00-.384-1.196z" fill="currentColor"/><path d="M13.24 9.018c.149.295.237.768.237 1.182a3.181 3.181 0 01-3.177 3.176A3.172 3.172 0 017.124 10.2c0-.429.088-.887.236-1.182H5.572v4.742c0 .621.547 1.168 1.168 1.168h7.121c.62 0 1.168-.547 1.168-1.168V9.018H13.24zM14.496 5.737h-1.714v1.965h1.95v-1.98l-.236.015z" fill="currentColor"/><path d="M14.94.89H5.66A4.679 4.679 0 00.991 5.56v9.294c0 2.556 2.098 4.654 4.67 4.654h9.293c2.571 0 4.67-2.098 4.67-4.67V5.56C19.607 2.989 17.51.89 14.938.89zm1.122 8.112v4.758a2.17 2.17 0 01-2.201 2.202H6.739a2.17 2.17 0 01-2.202-2.202V6.638A2.17 2.17 0 016.74 4.437h7.122a2.17 2.17 0 012.201 2.201v2.364z" fill="currentColor"/></svg><svg fill="none" viewBox="0 0 25 25" id="icon-job" xmlns="http://www.w3.org/2000/svg"><path d="M15.34 19.98l-2.43 2.15a.64.64 0 01-.84 0L9.67 20a.61.61 0 01-.21-.55L10.98 7.2a.64.64 0 01.63-.53h1.7a.63.63 0 01.63.55l1.62 12.23a.66.66 0 01-.22.53z" fill="#fff" stroke="#363A45" stroke-width=".7" stroke-miterlimit="10"/><path d="M14.6 14.69l-.09-.68-4.04.01-.09.68 4.22-.01zM14.86 16.76l-.09-.68-4.56.01-.08.69 4.73-.02zM15.11 18.72l-.1-.68-5.05.01-.09.68 5.24-.01z" fill="#00C65E"/><path d="M11.23 2.51h2.53a.63.63 0 01.62.76l-.37 1.84a.62.62 0 01-.62.51h-1.72a.64.64 0 01-.63-.51l-.43-1.84a.629.629 0 01.62-.76z" fill="#00C65E" stroke="#363A45" stroke-width=".7" stroke-miterlimit="10"/></svg><svg fill="none" viewBox="0 0 17 14" id="icon-like" xmlns="http://www.w3.org/2000/svg"><path class="befill-icon-like" d="M7.664 2.564l.626.95.626-.95C10.086.795 11.668.485 12.927.96c1.302.491 2.393 1.872 2.393 3.785 0 .599-.332 1.394-.986 2.333-.638.916-1.51 1.866-2.424 2.757a47.776 47.776 0 01-2.6 2.329 124.671 124.671 0 01-.97.804l-.056.046a25.586 25.586 0 00-.068-.055l-.353-.28c-.197-.156-.416-.33-.66-.526a50.838 50.838 0 01-2.728-2.33c-.96-.892-1.877-1.844-2.547-2.76-.69-.941-1.034-1.73-1.034-2.318 0-1.9 1.155-3.293 2.564-3.793 1.377-.488 3.05-.14 4.206 1.613z" fill="currentColor"/></svg><svg fill="none" viewBox="0 0 13 13" id="icon-maps" xmlns="http://www.w3.org/2000/svg"><path d="M6.644 11.75c.316.95.915.983 1.337.077l4.806-10.296c.423-.907.03-1.298-.875-.875L1.615 5.461c-.906.422-.872 1.022.077 1.338l3.713 1.238 1.239 3.713z" fill="#00C65E"/></svg><svg fill="none" viewBox="0 0 25 25" id="icon-personal-goods" xmlns="http://www.w3.org/2000/svg"><path d="M18.143 12.881c-.3-1.32.07-7.43.21-9.5a.64.64 0 00-.68-.7h-3.83a.65.65 0 00-.64.7c.334 3.166.387 6.355.16 9.53l-5.95 4.52a2.78 2.78 0 00-.56 3.9 2.66 2.66 0 003.59.51s2.15-1.74 3.16-2.61c2.5-2.16 3.24-1.17 4.55-2.27 1.15-.96.17-3-.01-4.08z" fill="#fff" stroke="#363A45" stroke-width=".7" stroke-miterlimit="10"/><path d="M18.014 3.362a.33.33 0 00-.08-.22.32.32 0 00-.22-.1h-3.88a.32.32 0 00-.22.1.36.36 0 00-.08.23c.04.46.07.9.09 1.32h4.3c.03-.5.06-.96.09-1.33zM8.744 17.342c-.286.003-.57.053-.84.15l-.23.19a2.47 2.47 0 00-1 1.6 2.43 2.43 0 00.46 1.81 2.26 2.26 0 001.47.83 2.32 2.32 0 001.64-.39l.6-.49a2.42 2.42 0 00.36-1.28 2.45 2.45 0 00-2.46-2.42zM15.974 16.202a2.23 2.23 0 012.08-2.23v-.16c0-.05-.1-.35-.14-.52a2.94 2.94 0 00-2.6 2.91c-.004.47.11.934.33 1.35.226-.08.456-.146.69-.2a2.219 2.219 0 01-.36-1.15z" fill="#00C65E"/></svg><svg fill="none" viewBox="0 0 25 25" id="icon-pets" xmlns="http://www.w3.org/2000/svg"><path d="M19.833 9.3l.68-5.17a.65.65 0 00-.84-.66l-4.57 1.83a.58.58 0 01-.41 0 8.33 8.33 0 00-4.43 0 .58.58 0 01-.41 0l-4.48-1.83a.65.65 0 00-.89.68l.69 5.15a.61.61 0 01-.07.35 8.26 8.26 0 007.4 11.93 8.27 8.27 0 008.25-8 8.291 8.291 0 00-.86-3.92.54.54 0 01-.06-.36z" fill="#fff" stroke="#363A45" stroke-width=".7" stroke-miterlimit="10"/><path d="M15.673 16.97c0 .65-.72 1.17-1.6 1.17-.88 0-1.61-.52-1.61-1.17" stroke="#363A45" stroke-width=".7" stroke-linecap="round" stroke-linejoin="round"/><path d="M9.283 16.97c0 .65.72 1.17 1.61 1.17.89 0 1.61-.52 1.61-1.17v-.56M12.493 16.76v-.63" stroke="#363A45" stroke-width=".7" stroke-linecap="round" stroke-linejoin="round"/><path d="M11.853 15.78l-.67-1.11a.66.66 0 01-.12-.38.75.75 0 01.09-.39.86.86 0 01.28-.29.78.78 0 01.39-.1h1.35a.76.76 0 01.39.1.71.71 0 01.28.29.76.76 0 01.1.39.85.85 0 01-.12.38l-.68 1.09a.87.87 0 01-.27.27.79.79 0 01-.37.1.81.81 0 01-.37-.09.77.77 0 01-.28-.26z" fill="#00C65E"/><path d="M15.223 14.079l1.72-.85M16.943 16.13l-1.72-.85M8.053 13.229l1.72.85M9.773 15.28l-1.72.85" stroke="#363A45" stroke-width=".66" stroke-linecap="round" stroke-linejoin="round"/><path d="M9.003 11.739a1.17 1.17 0 10-1.17-1.17 1.16 1.16 0 001.17 1.17zM16.003 11.739a1.17 1.17 0 10-1.17-1.17 1.159 1.159 0 001.17 1.17z" fill="#00C65E"/></svg><svg fill="none" viewBox="0 0 26 26" id="icon-phone" xmlns="http://www.w3.org/2000/svg"><path d="M11.079 15.255c-2.473-2.474-4.838-5.34-3.706-6.473 1.62-1.62 3.034-2.62.16-6.196-2.872-3.573-4.788-.828-6.357.743-1.813 1.812-.097 8.57 6.58 15.248 6.68 6.678 13.436 8.389 15.249 6.574 1.572-1.57 4.316-3.477.742-6.349-3.574-2.873-4.574-1.462-6.196.161-1.133 1.128-3.999-1.236-6.472-3.708z" fill="currentColor"/></svg><svg fill="none" viewBox="0 0 25 25" id="icon-phone-accessories" xmlns="http://www.w3.org/2000/svg"><path d="M21.005 9.32c0-3.76-3.82-6.82-8.5-6.82s-8.51 3.06-8.51 6.82c.046 1.686.27 3.362.67 5l.32 1.71c.038.208.12.406.24.58.23.352.59.6 1 .69.208.04.422.04.63 0l.45-.07c.21-.044.41-.125.59-.24a1.57 1.57 0 00.44-.45 1.81 1.81 0 00.34-.62 1.49 1.49 0 000-.63l-.52-2.42a1.81 1.81 0 00-.25-.59 1.611 1.611 0 00-.45-.45 1.49 1.49 0 00-.58-.24 1.722 1.722 0 00-.64 0l-.43.08a1.45 1.45 0 00-.35.12 13.64 13.64 0 01-.22-2.46c0-3.07 3.25-5.56 7.25-5.56s7.27 2.49 7.27 5.55c.006.828-.065 1.655-.21 2.47a1.332 1.332 0 00-.37-.12l-.43-.09a1.62 1.62 0 00-1.92 1.28l-.48 2.41a1.65 1.65 0 001.24 1.92l.43.08a1.601 1.601 0 001.22-.24c.35-.233.597-.59.69-1l.34-1.7c.46-1.632.708-3.315.74-5.01z" fill="#fff" stroke="#363A45" stroke-width=".7" stroke-miterlimit="10"/><path d="M15.585 7.96h-6.16a.66.66 0 00-.66.71v13.17a.66.66 0 00.66.66h6.16a.66.66 0 00.65-.66V8.67a.66.66 0 00-.65-.71z" fill="#fff" stroke="#363A45" stroke-width=".7" stroke-miterlimit="10"/><path d="M18.885 12.755l-.373-.07a.79.79 0 00-.923.63l-.341 1.808a.79.79 0 00.63.922l.373.07a.79.79 0 00.923-.63l.341-1.807a.79.79 0 00-.63-.923zM6.715 16.121l.374-.07a.79.79 0 00.63-.923l-.341-1.808a.79.79 0 00-.923-.63l-.373.07a.79.79 0 00-.63.923l.34 1.808a.79.79 0 00.923.63z" fill="#00C65E"/><path d="M10.536 7.96v1.111a.5.5 0 00.5.5h2.927a.5.5 0 00.5-.5V7.96h-3.927z" fill="#363A45"/></svg><svg fill="none" viewBox="0 0 10 10" id="icon-plus" xmlns="http://www.w3.org/2000/svg"><path fill-rule="evenodd" clip-rule="evenodd" d="M4.957.397a.563.563 0 00-.563.563v3.478H.916a.563.563 0 000 1.125h3.478V9.04a.563.563 0 001.125 0V5.563h3.478a.563.563 0 000-1.125H5.519V.96a.563.563 0 00-.562-.563z" fill="#00C65E"/></svg><svg viewBox="0 0 13 13" id="icon-profile" xmlns="http://www.w3.org/2000/svg"><path fill-rule="evenodd" clip-rule="evenodd" d="M1.957 12.59s-1 0-1-1 1-4 6-4 6 3 6 4-1 1-1 1h-10zm5-6a3 3 0 100-6 3 3 0 000 6z"/></svg><svg fill="none" viewBox="0 0 12 19" id="icon-question" xmlns="http://www.w3.org/2000/svg"><path d="M4.084 12.066c0 .329.07.68.234 1.079h3.246c0-.551.141-1.055.446-1.524a5.1 5.1 0 011.078-1.219c.422-.34.844-.703 1.266-1.09.421-.398.785-.914 1.078-1.546.293-.633.445-1.36.445-2.168 0-1.313-.54-2.45-1.606-3.387C9.194 1.273 7.811.805 6.123.805c-.902 0-1.723.14-2.46.433-.75.293-1.325.621-1.735.985A6.09 6.09 0 00.85 3.465c-.317.457-.504.785-.575.973-.07.187-.129.328-.152.445l3 1.312.211-.468c.14-.329.457-.645.937-.961.481-.329 1.055-.48 1.735-.48.633 0 1.16.175 1.558.527.399.351.598.773.598 1.265 0 .469-.14.879-.422 1.254a4.744 4.744 0 01-1.02.973c-.398.28-.796.562-1.195.867a3.938 3.938 0 00-1.02 1.195c-.28.492-.421 1.067-.421 1.7zm-.246 4.325c0 .48.187.902.562 1.265.375.352.832.54 1.36.54.527 0 .984-.188 1.36-.54.374-.363.562-.785.562-1.265 0-.48-.188-.903-.563-1.254a1.884 1.884 0 00-1.36-.54c-.527 0-.984.176-1.359.54-.375.351-.562.773-.562 1.254z" fill="currentColor"/></svg><svg fill="none" viewBox="0 0 25 25" id="icon-real-estate" xmlns="http://www.w3.org/2000/svg"><path d="M20.703 10.405l-7.4-7.38a1.17 1.17 0 00-.81-.36 1.19 1.19 0 00-.82.34l-7.37 7.4c-.72.72.64 2 .64 2v9.93h15.12v-9.97s1.34-1.24.64-1.96z" fill="#fff" stroke="#363A45" stroke-width=".7" stroke-linecap="round" stroke-linejoin="round"/><path d="M15.924 14.604v3.3h1.38v-1.92a1.38 1.38 0 00-1.38-1.38zM9.063 14.604v3.3h1.37v-1.92a1.372 1.372 0 00-1.37-1.38z" fill="#00C65E"/><path d="M15.924 14.665a1.37 1.37 0 00-1.37 1.37v1.93h2.75v-1.94a1.369 1.369 0 00-1.38-1.36zM9.064 14.665a1.37 1.37 0 00-1.36 1.36v1.93h2.75v-1.93a1.37 1.37 0 00-1.39-1.36v0z" stroke="#363A45" stroke-width=".7" stroke-linecap="round" stroke-linejoin="round"/><path d="M16.503 11.085s.73-.67.34-1.05l-3.92-3.92a.6.6 0 00-.86 0l-3.92 3.92c-.39.39.34 1.05.34 1.05h8.02z" fill="#fff" stroke="#363A45" stroke-width=".7" stroke-linecap="round" stroke-linejoin="round"/><path d="M13.524 3.665c-.59-.59-.81-.68-1.1-.68a1.14 1.14 0 00-.78.32l-7 7c-.69.69.61 1.88.61 1.88l8.27-8.52z" fill="#00C65E"/></svg><svg fill="none" viewBox="0 0 18 19" id="icon-repair" xmlns="http://www.w3.org/2000/svg"><path d="M14.777 13.563l-8.92-9.435c0-.087-.082-.361-.131-.68a2.516 2.516 0 00-.598-1.512c-.641-.614-1.535-1.053-2.225-.861l.838.888a1.234 1.234 0 01.033 1.793A1.206 1.206 0 012.02 3.58l-.839-.888c-.258.68.154 1.595.724 2.27.406.392.93.638 1.491.702.384.087.707.18.707.18l8.882 9.403a2.297 2.297 0 00.58 2.077 2.233 2.233 0 003.257-3.053 2.314 2.314 0 00-2.045-.708z" fill="#fff" stroke="#00C65E" stroke-width=".7" stroke-linecap="round" stroke-linejoin="round"/><path d="M16.697 1.902l-.466-.466-.11.11-2.418 1.814.29.29L9.57 8.097l-.894-.889-.548.549.225.548-.549.548-6.228 6.272a1.387 1.387 0 000 1.957l.165.17a1.388 1.388 0 001.963 0l6.792-6.754.548.225.549-.549-.889-.888 4.49-4.446.296.29 1.832-2.4.104-.11-.472-.472-.257-.246z" fill="#fff" stroke="#00C65E" stroke-width=".7" stroke-linecap="round" stroke-linejoin="round"/><path d="M9.166 9.265l-.309-.312-.149.153.08.196-.2.2-3.595 3.608a.48.48 0 000 .684l.06.06a.482.482 0 00.684 0l3.805-3.795.192.08.15-.153-.313-.312-.405-.409zM16.098 16.381a1.109 1.109 0 11-.326-1.515 1.094 1.094 0 01.326 1.515z" fill="#00C65E"/></svg><svg fill="none" viewBox="0 0 26 27" id="icon-repair-w" xmlns="http://www.w3.org/2000/svg"><path d="M20.879 19.296L7.762 5.42c0-.13-.121-.532-.194-1a3.7 3.7 0 00-.878-2.225C5.746 1.293 4.432.648 3.417.93L4.65 2.236a1.814 1.814 0 01.048 2.637 1.773 1.773 0 01-2.58-.258L.886 3.309c-.379 1 .226 2.346 1.064 3.337a3.765 3.765 0 002.193 1.032c.564.13 1.04.266 1.04.266l13.06 13.827a3.379 3.379 0 00.855 3.055 3.282 3.282 0 104.789-4.49 3.402 3.402 0 00-3.007-1.04z" fill="#00C65E" stroke="#fff" stroke-width="1.035" stroke-linecap="round" stroke-linejoin="round"/><path d="M23.702 2.146l-.685-.685-.161.16-3.556 2.67.428.427-6.506 6.538-1.314-1.306-.807.806.33.806-.805.807-9.159 9.223a2.04 2.04 0 000 2.878l.242.25a2.04 2.04 0 002.886 0l9.99-9.933.805.33.807-.805-1.306-1.306 6.602-6.539.436.428 2.692-3.532.154-.16-.694-.694-.379-.363z" fill="#00C65E" stroke="#fff" stroke-width="1.035" stroke-linecap="round" stroke-linejoin="round"/><path d="M12.627 12.974l-.454-.46-.22.226.117.288-.293.293-5.287 5.306a.708.708 0 000 1.006l.088.088a.707.707 0 001.006 0l5.595-5.58.283.117.22-.224-.459-.46-.596-.6z" fill="#00C65E"/><path d="M22.822 23.44a1.63 1.63 0 11-.48-2.23 1.61 1.61 0 01.48 2.23z" fill="#fff"/></svg><svg fill="none" viewBox="0 0 15 15" id="icon-search" xmlns="http://www.w3.org/2000/svg"><path d="M14.206 14.206zm0 0v-.001l.146-.145m-.146.146l-.561.561m.707-.707l.415-.416m-.415.416l-.145.145v.001m.145-.146l-.145.145v.001l-.562.561m.561-.56zm0 0l-.561.56m0 0l1.295-.865m0 0a.795.795 0 01-.172.865l.172-.865zm0 0a.794.794 0 00-.172-.258m-.562.562zm.562-.562L11.4 10.277m3.367 3.367L11.4 10.277m0 0a.937.937 0 00-.036-.033A6.353 6.353 0 006.152.003 6.347 6.347 0 00.003 6.15a6.352 6.352 0 005.752 6.523 6.346 6.346 0 004.49-1.31l1.156-1.086zm0 0l-.412.418-.021-.022.01.01.008.009.415-.415z"/></svg><svg fill="none" viewBox="0 0 25 25" id="icon-service" xmlns="http://www.w3.org/2000/svg"><path d="M13.958 6.601l1.65 1-8.25 14.23a.69.69 0 01-.45.35.73.73 0 01-.56-.07l-.36-.21a.71.71 0 01-.34-.45.76.76 0 01.07-.57l8.24-14.27v-.01z" fill="#fff" stroke="#363A45" stroke-width=".7" stroke-miterlimit="10"/><path d="M18.908 8.462l-3.77-1-4-2.6 1.21-2.07 4.3 2.15 2.73 2.78-.47.74z" fill="#fff" stroke="#363A45" stroke-width=".7" stroke-miterlimit="10"/><path d="M18.868 7.741l-2.45-2.53-1.24-.63-2.68-1.36-.61 1.06 6.85 3.77.16-.28-.03-.03z" fill="#00C65E"/></svg><svg fill="none" viewBox="0 0 18 14" id="icon-sheet" xmlns="http://www.w3.org/2000/svg"><path d="M3.096 8.5h-2a.503.503 0 01-.5-.5V6c0-.274.226-.5.5-.5h2c.274 0 .5.226.5.5v2c0 .274-.226.5-.5.5zm0 5h-2a.503.503 0 01-.5-.5v-2c0-.274.226-.5.5-.5h2c.274 0 .5.226.5.5v2c0 .274-.226.5-.5.5zm0-10h-2a.503.503 0 01-.5-.5V1c0-.274.226-.5.5-.5h2c.274 0 .5.226.5.5v2c0 .274-.226.5-.5.5zm13 5h-10a.503.503 0 01-.5-.5V6c0-.274.226-.5.5-.5h10c.274 0 .5.226.5.5v2c0 .274-.226.5-.5.5zm0 5h-10a.503.503 0 01-.5-.5v-2c0-.274.226-.5.5-.5h10c.274 0 .5.226.5.5v2c0 .274-.226.5-.5.5zM5.596 3V1c0-.274.226-.5.5-.5h10c.274 0 .5.226.5.5v2c0 .274-.226.5-.5.5h-10a.503.503 0 01-.5-.5z" fill="#fff"/></svg><svg fill="none" viewBox="0 0 18 18" id="icon-shop" xmlns="http://www.w3.org/2000/svg"><path d="M12.34 15.582c.234.363.61.776.93 1.102.204.208.059.578-.234.578h-7.11c-.292 0-.438-.37-.233-.578.32-.326.695-.739.93-1.102.475-.737.636-1.891.636-1.891h4.444s.162 1.154.637 1.891z" fill="#fff" stroke="#363A45" stroke-width=".7"/><mask id="bta" fill="#fff"><rect x="2.427" y="3.358" width="14.11" height="11.223" rx=".637"/></mask><rect x="2.427" y="3.358" width="14.11" height="11.223" rx=".637" fill="#fff" stroke="#363A45" stroke-width="1.4" mask="url(#bta)"/><path d="M4.824 13.002C3.956 12.784 3.7 11.837 3.7 11.02c0-2.965.912-2.715.882-4.288-.041-2.112.983-2.302 1.36-2.21 4.282 1.076 6.69.315 6.69.315 1.653-.372-1.653 3.063 0 6.569.915 1.976-6.37 1.957-7.808 1.597z" fill="#00C65E"/><mask id="btb" fill="#fff"><rect x="2.427" y=".762" width="14.11" height="3.021" rx=".637"/></mask><rect x="2.427" y=".762" width="14.11" height="3.021" rx=".637" fill="#fff" stroke="#363A45" stroke-width="1.4" mask="url(#btb)"/><path d="M2.617 3.297a.287.287 0 01.273-.199h13.18c.126 0 .236.08.274.2l1.037 3.236a.287.287 0 01-.273.375H1.853a.287.287 0 01-.273-.375l1.037-3.237z" fill="#fff" stroke="#363A45" stroke-width=".7"/><path fill="#363A45" d="M9.119 2.844h.722v4.168h-.722zM12.937 2.844h.722l.722 4.168h-.722l-.723-4.168zM6.023 2.844h-.722l-.722 4.168H5.3l.722-4.168z"/></svg><svg fill="none" viewBox="0 0 26 26" id="icon-shop-w" xmlns="http://www.w3.org/2000/svg"><path d="M17.476 22.659c.344.533.895 1.14 1.366 1.62.301.306.087.85-.343.85H8.044c-.43 0-.645-.544-.343-.85.47-.48 1.022-1.087 1.366-1.62.7-1.084.937-2.782.937-2.782h6.535s.237 1.698.936 2.782z" fill="#00C65E" stroke="#fff" stroke-width="1.029"/><mask id="bua" fill="#fff"><rect x="2.896" y="4.68" width="20.751" height="16.504" rx=".937"/></mask><rect x="2.896" y="4.68" width="20.751" height="16.504" rx=".937" fill="#00C65E" stroke="#fff" stroke-width="2.059" mask="url(#bua)"/><path d="M6.422 18.864c-1.276-.32-1.653-1.713-1.653-2.916 0-4.36 1.341-3.994 1.297-6.307-.061-3.106 1.446-3.385 2.001-3.25 6.297 1.583 9.838.464 9.838.464 2.431-.548-2.431 4.505 0 9.66 1.345 2.907-9.368 2.879-11.483 2.35z" fill="#00C65E"/><mask id="bub" fill="#fff"><rect x="2.896" y=".863" width="20.751" height="4.443" rx=".937"/></mask><rect x="2.896" y=".863" width="20.751" height="4.443" rx=".937" fill="#00C65E" stroke="#fff" stroke-width="2.059" mask="url(#bub)"/><path d="M3.578 4.299h19.384c.183 0 .346.118.402.293l1.525 4.76a.422.422 0 01-.402.55H2.053a.422.422 0 01-.402-.55l1.525-4.76a.422.422 0 01.402-.293z" fill="#00C65E" stroke="#fff" stroke-width="1.029"/><path fill="#fff" d="M12.738 3.926H13.8v6.129h-1.062zM18.352 3.926h1.063l1.062 6.129h-1.063l-1.062-6.13zM8.185 3.926H7.123L6.06 10.055h1.063l1.062-6.13z"/></svg><svg fill="none" viewBox="0 0 11 11" id="icon-star" xmlns="http://www.w3.org/2000/svg"><path d="M4.77.55c.218-.655 1.16-.655 1.376 0l.774 2.338c.047.143.139.267.262.355a.732.732 0 00.425.135h2.503c.7 0 .99.881.425 1.286L8.51 6.11a.699.699 0 00-.263.794l.774 2.339c.217.654-.546 1.199-1.114.794L5.883 8.592a.732.732 0 00-.85 0L3.01 10.037c-.567.405-1.329-.14-1.113-.794l.774-2.34a.699.699 0 00-.263-.793L.383 4.665C-.183 4.26.108 3.38.808 3.38H3.31a.732.732 0 00.425-.135.711.711 0 00.263-.355L4.772.55H4.77z" fill="currentColor"/></svg><svg fill="none" viewBox="0 0 11 11" id="icon-star1" xmlns="http://www.w3.org/2000/svg"><path d="M4.77.551c.218-.654 1.16-.654 1.376 0l.774 2.34c.047.142.139.266.262.354a.732.732 0 00.425.135h2.503c.7 0 .99.881.425 1.286L8.51 6.112a.699.699 0 00-.263.794l.774 2.339c.217.654-.546 1.199-1.114.794L5.883 8.594a.732.732 0 00-.85 0L3.01 10.039c-.567.405-1.329-.14-1.113-.794l.774-2.34a.699.699 0 00-.263-.793L.383 4.667c-.566-.405-.275-1.286.425-1.286H3.31a.732.732 0 00.425-.135.711.711 0 00.263-.355L4.772.552H4.77z" fill="currentColor"/></svg><svg fill="none" viewBox="0 0 16 17" id="icon-telephone" xmlns="http://www.w3.org/2000/svg"><path d="M6.77 9.852C5.186 8.27 3.672 6.435 4.397 5.71 5.435 4.673 6.34 4.033 4.5 1.745 2.662-.542 1.436 1.215.432 2.22-.728 3.38.37 7.704 4.643 11.978c4.274 4.273 8.598 5.368 9.758 4.207 1.006-1.005 2.762-2.225.475-4.063-2.287-1.839-2.927-.936-3.965.103-.725.722-2.559-.79-4.142-2.373z" fill="currentColor"/></svg><svg fill="none" viewBox="0 0 18 14" id="icon-tile" xmlns="http://www.w3.org/2000/svg"><path d="M1.096 6.462h3c.55 0 1-.485 1-1.077V1.077c0-.592-.45-1.077-1-1.077h-3c-.55 0-1 .485-1 1.077v4.308c0 .592.45 1.077 1 1.077zm0 7.538h3c.55 0 1-.485 1-1.077V8.615c0-.592-.45-1.077-1-1.077h-3c-.55 0-1 .485-1 1.077v4.308c0 .592.45 1.077 1 1.077zm6 0h3c.55 0 1-.485 1-1.077V8.615c0-.592-.45-1.077-1-1.077h-3c-.55 0-1 .485-1 1.077v4.308c0 .592.45 1.077 1 1.077zm6 0h3c.55 0 1-.485 1-1.077V8.615c0-.592-.45-1.077-1-1.077h-3c-.55 0-1 .485-1 1.077v4.308c0 .592.45 1.077 1 1.077zm-6-7.538h3c.55 0 1-.485 1-1.077V1.077c0-.592-.45-1.077-1-1.077h-3c-.55 0-1 .485-1 1.077v4.308c0 .592.45 1.077 1 1.077zm5-5.385v4.308c0 .592.45 1.077 1 1.077h3c.55 0 1-.485 1-1.077V1.077c0-.592-.45-1.077-1-1.077h-3c-.55 0-1 .485-1 1.077z" fill="currentColor"/></svg><svg fill="none" viewBox="0 0 25 25" id="icon-transport" xmlns="http://www.w3.org/2000/svg"><path d="M18.324 10.663h-.634l-.117-.429a4.942 4.942 0 00-4.747-4.005H11.53c-2.66.097-4.123 1.773-4.746 4.005l-.117.43h-.624a3.606 3.606 0 00-3.606 3.635v1.471a.4.4 0 00.117.293.42.42 0 00.292.127h18.665a.429.429 0 00.419-.42V14.3a3.626 3.626 0 00-1.063-2.534 3.576 3.576 0 00-2.543-1.102z" fill="#fff" stroke="#363A45" stroke-width=".7" stroke-miterlimit="10"/><path d="M11.686 10.497v-2.31a.525.525 0 00-.575-.487 3.45 3.45 0 00-3.031 2.7.497.497 0 00.477.614H11.2a.498.498 0 00.487-.517zM13.08 10.995h2.631a.497.497 0 00.536-.595 3.45 3.45 0 00-3.03-2.68.526.526 0 00-.576.487v2.29a.487.487 0 00.439.498z" fill="#00C65E"/><path d="M17.3 18.13a1.95 1.95 0 100-3.9 1.95 1.95 0 000 3.9z" fill="#fff" stroke="#363A45" stroke-width=".7" stroke-miterlimit="10"/><path d="M17.3 17.038a.888.888 0 100-1.776.888.888 0 000 1.776z" fill="#00C65E"/><path d="M6.803 18.13a1.95 1.95 0 100-3.9 1.95 1.95 0 000 3.9z" fill="#fff" stroke="#363A45" stroke-width=".7" stroke-miterlimit="10"/><path d="M6.803 17.038a.887.887 0 100-1.775.887.887 0 000 1.775z" fill="#00C65E"/></svg><svg fill="none" viewBox="0 0 25 25" id="icon-transport-goods" xmlns="http://www.w3.org/2000/svg"><path d="M15.09 22.02c2.54 0 4.6-4.26 4.6-9.52s-2.06-9.52-4.6-9.52c-2.54 0-4.6 4.26-4.6 9.52s2.06 9.52 4.6 9.52z" fill="#fff" stroke="#363A45" stroke-width=".7" stroke-miterlimit="10"/><path d="M15.39 16.77c1.14 0 2.06-1.91 2.06-4.27 0-2.36-.92-4.27-2.06-4.27-1.14 0-2.07 1.91-2.07 4.27 0 2.36.93 4.27 2.07 4.27z" fill="#00C65E"/><path d="M9.57 22.02h5.52c-2.41 0-4.36-4.26-4.36-9.52s1.95-9.52 4.36-9.52H9.66c-2.4 0-4.35 4.26-4.35 9.52s2 9.52 4.35 9.52" fill="#fff"/><path d="M9.57 22.02h5.52c-2.41 0-4.36-4.26-4.36-9.52s1.95-9.52 4.36-9.52H9.66c-2.4 0-4.35 4.26-4.35 9.52s2 9.52 4.35 9.52" stroke="#363A45" stroke-width=".7" stroke-miterlimit="10"/><path d="M9.57 22.02h5.52c-2.41 0-4.36-4.26-4.36-9.52s1.95-9.52 4.36-9.52H9.66c-2.4 0-4.35 4.26-4.35 9.52s2 9.52 4.35 9.52" stroke="#363A45" stroke-width=".7" stroke-miterlimit="10"/><path d="M10.36 5.39a16 16 0 00-1.47 7.1v0a16 16 0 001.47 7.17M7.49 8.13a19.09 19.09 0 00-.48 4.36v0a19 19 0 00.48 4.35" stroke="#363A45" stroke-width=".7" stroke-miterlimit="10" stroke-linecap="round"/></svg><svg fill="none" viewBox="0 0 19 20" id="icon-vk" xmlns="http://www.w3.org/2000/svg"><path fill-rule="evenodd" clip-rule="evenodd" d="M4.857.89A4.654 4.654 0 00.203 5.544v9.309a4.654 4.654 0 004.654 4.654h9.309a4.654 4.654 0 004.654-4.654V5.544A4.654 4.654 0 0014.166.89H4.857zm10.164 5.624c.41 0 .497.211.41.499-.172.791-1.826 3.121-1.826 3.121-.144.23-.202.345 0 .604.07.1.222.247.395.417.178.174.38.371.54.56.583.657 1.022 1.21 1.145 1.592.111.382-.083.576-.47.576h-1.358c-.363 0-.546-.203-.942-.643a16.638 16.638 0 00-.648-.69c-.805-.777-1.15-.877-1.352-.877-.273 0-.355.077-.355.465v1.217c0 .334-.106.528-.97.528-1.437 0-3.018-.873-4.14-2.483C3.768 9.04 3.307 7.257 3.307 6.897c0-.201.078-.384.466-.384H5.13c.347 0 .478.152.608.528.664 1.934 1.783 3.624 2.244 3.624.172 0 .251-.08.251-.518V8.15c-.031-.569-.23-.815-.377-.997-.09-.113-.162-.2-.162-.326 0-.152.13-.312.345-.312h2.133c.288 0 .388.154.388.499v2.69c0 .287.125.388.212.388.172 0 .316-.1.632-.417.978-1.093 1.669-2.776 1.669-2.776.086-.201.245-.384.59-.384h1.358z" fill="currentColor"/></svg><svg fill="none" viewBox="0 0 17 17" id="icon-web" xmlns="http://www.w3.org/2000/svg"><path d="M0 7.863v-.022C.204 5.216 1.156 3.247 2.81 2 4.44.736 6.208.125 8.134.125 10.151.1 12.032.78 13.708 2.138c1.7 1.335 2.538 3.326 2.538 5.906v.159c0 2.602-.838 4.549-2.538 5.884-1.699 1.358-3.58 2.037-5.596 2.037h-.09c-1.972-.023-3.785-.702-5.462-2.06C.884 12.73.023 10.67 0 7.864zM7.636 4.31V.735h-.544c-.113.135-.204.294-.294.43-.091.135-.182.271-.272.43-.091.135-.204.316-.272.452a2.58 2.58 0 00-.227.43c-.136.227-.25.453-.34.657a4.422 4.422 0 00-.272.588c.136.09.295.204.476.271.204.068.408.136.612.182.227.045.43.067.612.09.204.023.385.045.52.045zM8.588.735v3.553c.113 0 .249.022.385 0 .136 0 .294-.023.43-.046.25-.045.544-.113.77-.18.25-.091.476-.204.635-.34a12.754 12.754 0 00-.86-1.675A6.495 6.495 0 008.95.757V.735h-.362zM6.14.938V.916c-.158.068-.317.18-.498.249a5.45 5.45 0 00-.521.249c-.317.158-.635.339-.952.543-.294.203-.589.43-.838.656.09.09.204.181.294.249.091.068.204.158.318.249.09.045.204.113.317.204.113.067.249.158.385.248.181-.407.363-.837.59-1.222.226-.407.475-.792.724-1.131a.474.474 0 01.09-.136c.023-.023.046-.09.091-.136zm6.934 1.675V2.59c-.566-.43-1.065-.792-1.563-1.018a35.806 35.806 0 00-1.45-.634c.362.362.68.815.883 1.245.227.453.453.928.634 1.38.091-.045.204-.09.34-.18.114-.068.272-.136.408-.204.136-.09.25-.181.385-.272.136-.113.272-.203.363-.294zm-.385 5.047h2.605c0-.838-.18-1.63-.52-2.444A5.913 5.913 0 0013.436 3.2V3.18c-.114.18-.272.34-.431.452-.181.114-.34.204-.521.295-.114.067-.227.158-.34.203-.113.068-.272.113-.385.181.09.181.181.385.272.566.068.204.18.43.226.634.136.362.227.747.318 1.131.067.34.113.702.113 1.019zM4.486 4.31v-.022c-.18-.09-.385-.159-.543-.25a18.262 18.262 0 00-.454-.316 2.246 2.246 0 01-.385-.249 3.483 3.483 0 01-.294-.272c-.59.566-1.02 1.2-1.292 1.947A9.32 9.32 0 00.93 7.637h2.787c0-.634.09-1.245.25-1.856a6.03 6.03 0 01.52-1.47zm3.15 3.327V5.034a2.763 2.763 0 01-.612 0 3.098 3.098 0 01-.657-.158c-.181-.045-.408-.09-.59-.158a2.117 2.117 0 01-.566-.227c-.135.227-.249.498-.34.792-.113.272-.18.566-.249.838-.045.271-.068.566-.09.814a8.347 8.347 0 00-.046.702h3.15zm.952-2.557v2.557h3.353c0-.136 0-.294-.023-.475-.045-.159-.068-.362-.09-.543-.068-.272-.136-.566-.227-.838-.09-.249-.181-.498-.294-.701-.046-.113-.091-.25-.136-.34-.068-.113-.136-.18-.182-.249-.249.181-.589.295-.997.385-.385.09-.838.181-1.246.204h-.158zM3.716 8.384H.929c0 .385.068.815.181 1.335.114.543.34 1.041.59 1.584.113.272.249.543.385.815.158.249.34.52.52.77.137-.091.273-.159.386-.227.136-.068.294-.158.43-.226.159-.068.318-.136.499-.226.159-.068.362-.159.566-.25-.18-.565-.385-1.108-.52-1.72a6.889 6.889 0 01-.25-1.833v-.022zm3.92 2.648V8.384h-3.15c0 .18.023.452.068.724.023.272.091.566.136.86.09.317.159.634.25.905.09.272.18.498.271.702a9.34 9.34 0 011.088-.34c.295-.09.567-.158.838-.18h.25c.09-.023.18-.023.249-.023zm.952-2.648v2.625c.158.023.34.045.52.068.205.023.454.068.658.113l.34.068c.113.045.249.068.362.09.136.046.272.068.408.114.113.045.227.068.317.113.295-.747.476-1.358.59-1.879.113-.497.158-.927.158-1.29v-.022H8.588zm6.707.022v-.022h-2.606v.136c-.023.43-.09.928-.181 1.448-.091.498-.295 1.086-.567 1.81.363.181.702.363.974.544.272.18.522.384.703.565.385-.384.725-.905 1.02-1.584a8.002 8.002 0 00.611-2.06c.023-.135.023-.27.045-.407v-.43zm-7.66 6.88v-3.53c-.566.09-1.041.204-1.404.294-.362.09-.634.181-.816.272.136.34.272.633.408.905.136.249.295.52.43.747.046.09.137.18.205.294.068.09.113.204.18.294.069.113.137.249.205.385.09.113.158.249.25.34h.543zm.953 0h.52c.205-.158.409-.384.567-.633.181-.25.385-.544.521-.793.159-.294.318-.565.454-.837.136-.271.249-.52.34-.701-.25-.09-.59-.181-.93-.272-.34-.09-.815-.181-1.472-.272v3.508zm4.486-1.855v-.023a1.844 1.844 0 00-.498-.453 2.245 2.245 0 00-.34-.203 10.048 10.048 0 01-.476-.25c-.09.182-.25.498-.476.928-.204.43-.567.951-1.02 1.517a4.218 4.218 0 001.518-.566 5.022 5.022 0 001.292-.95zm-8.429-.725v-.022c-.159.09-.408.203-.657.317a4.914 4.914 0 00-.838.43c.158.135.317.271.453.362.136.113.294.203.43.294.25.158.544.317.839.452.294.136.657.272 1.11.408-.159-.181-.272-.408-.385-.589-.114-.18-.25-.362-.363-.543-.113-.18-.204-.384-.294-.566a6.392 6.392 0 01-.295-.543z" fill="currentColor"/></svg></svg>