<svg width="484" height="525" viewBox="0 0 484 525" fill="none" xmlns="http://www.w3.org/2000/svg">
<g clip-path="url(#clip0_3488_50674)">
<path d="M235.862 0.713724C248.441 -4.72928 274.632 35.8157 274.632 35.8157C274.632 35.8157 365.034 167.391 382.181 219.41C385.303 228.095 387.751 237.038 389.504 246.159C392.137 262.826 391.652 278.02 403.381 290.703C433.242 322.826 481.223 360.333 533.186 396.61C509.646 437.304 478.807 472.628 444.823 505.209C396.308 456.646 348.805 412.732 310.906 385.101C293.059 372.198 272.724 376.091 250.545 366.419C240.021 361.722 230.035 355.962 220.733 349.224C156.734 304.504 59.41 213.201 59.41 213.201C18.9586 174.529 -0.202898 145.171 7.1133 136.587C11.7373 131.307 18.4731 130.706 39.362 147.111L136.562 223L34.637 124.943C10.6861 100.825 -4.33679 78.8647 2.84711 69.7457C7.15931 64.8207 19.7571 63.5877 39.938 78.7427L174.224 178.617L52.01 69.1877L45.208 63.2307C24.0823 43.8937 5.61111 21.6387 17.0695 9.23973C26.9174 -1.32028 51.042 12.9917 84.313 38.2467L211.773 132.877L96.546 31.1387L95.639 30.3437C95.639 30.3437 79.937 16.5937 88.765 6.39873C97.592 -3.79727 128.656 15.8577 175.688 52.8477L244.681 108.336L272.77 132.303C272.77 132.303 210.923 11.5807 235.862 0.713724Z" fill="#FBCFB1"/>
<path d="M428.831 524.284L308.179 409.273L437.137 286.022L556.462 375.47C546.204 389.618 533.049 408.544 517.575 427.674C491.862 459.463 460.722 493.982 428.831 524.284Z" fill="#CCEFDB"/>
<path d="M173.59 265.924C167.699 260.072 163.804 252.469 162.424 244.131C161.044 235.792 162.245 227.113 165.866 219.25C169.487 211.388 175.357 204.715 182.693 200.121C190.029 195.528 198.483 193.232 206.928 193.539C206.587 185.068 208.821 176.576 213.334 169.189C217.848 161.803 224.427 155.871 232.199 152.182C239.972 148.492 248.569 147.218 256.853 148.53C265.136 149.841 272.712 153.676 278.578 159.525C282.799 164.194 285.964 169.744 287.871 175.818C289.779 181.892 290.385 188.358 289.653 194.801C289.267 214.8 276.758 263.283 276.758 263.283C276.758 263.283 231.394 275.972 208.531 276.918C202.164 277.587 195.786 276.958 189.781 275.068C183.776 273.179 178.269 270.068 173.59 265.924Z" fill="#00C65E"/>
</g>
<defs>
<clipPath id="clip0_3488_50674">
<rect width="484" height="525" fill="white"/>
</clipPath>
</defs>
</svg>
