<svg width="420" height="314" viewBox="0 0 420 314" fill="none" xmlns="http://www.w3.org/2000/svg">
<path d="M419.413 115.318C419.385 92.2243 411.942 69.6443 398.076 50.5882C384.21 31.5322 364.58 16.9051 341.801 8.6567C319.022 0.408259 294.178 -1.06974 270.579 4.41969C246.98 9.90913 225.747 22.1053 209.711 39.3825C193.533 22.1175 172.237 9.89751 148.647 4.34353C125.057 -1.21044 100.289 0.164085 77.6274 8.28476C54.9662 16.4054 35.4831 30.8885 21.7627 49.8126C8.0423 68.7368 0.733021 91.2077 0.804439 114.245C1.7702 131.725 6.56783 148.843 14.8905 164.505C23.2132 180.167 34.8778 194.028 49.1381 205.201C89.6777 243.607 209.725 313.861 209.725 313.861C209.725 313.861 325.447 249.137 372.398 205.846C386.281 194.583 397.603 180.756 405.683 165.199C413.763 149.641 418.433 132.674 419.413 115.318Z" fill="#CCEFDB"/>
</svg>
