<svg width="220" height="220" viewBox="0 0 220 220" fill="none" xmlns="http://www.w3.org/2000/svg">
<circle cx="110.325" cy="110.006" r="109.623" fill="white"/>
<path d="M97.6938 100.024L100.13 98.9131H105.156C105.156 98.9131 105.676 102.272 110.183 102.272C114.69 102.272 115.209 98.9131 115.209 98.9131H120.235L122.824 101.127V137.154H97.6938V100.024Z" fill="#9DD625"/>
<path d="M120.146 98.9248C120.146 98.9248 121.063 98.7852 124.095 100.136C126.836 101.357 128.242 103.527 128.486 103.931C128.512 103.975 128.537 104.02 128.56 104.067L131.922 110.597L122.674 115.023L120.146 98.9248Z" fill="#9DD625"/>
<path d="M100.278 98.9131C100.278 98.9131 99.361 98.7735 96.3289 100.124C93.5876 101.345 92.1822 103.515 91.9379 103.92C91.9114 103.963 91.8872 104.009 91.8634 104.055L88.5017 110.585L97.7496 115.011L100.278 98.9131Z" fill="#9DD625"/>
<path d="M100.437 110.617C100.748 109.284 99.909 108.754 99.604 108.119C98.3301 105.466 102.102 108.119 103.49 109.119C104.878 110.119 104.655 111.617 103.49 111.784C102.324 111.95 102.435 113.172 100.437 113.283C98.4387 113.394 100.048 112.283 100.437 110.617Z" fill="#EFC046"/>
<path d="M119.7 124.182C119.7 125.906 121.097 127.303 122.821 127.303V121.062C121.097 121.062 119.7 122.459 119.7 124.182Z" fill="#1E7836"/>
<path d="M100.052 120.595C100.052 122.319 99.4206 123.716 98.6414 123.716V117.475C99.4206 117.475 100.052 118.872 100.052 120.595Z" fill="#1E7836"/>
<path d="M34.9449 85.8442C31.2822 85.8717 29.6898 90.4888 32.5567 92.7684L34.5297 94.3372L24.2384 114.348C19.0927 123.629 27.9547 132.619 33.6721 135.809C39.1036 138.999 47.9656 139.289 55.97 139.289L70.5494 115.218C73.742 117.008 77.301 113.535 75.5897 110.3L63.6482 87.7225C62.9704 86.441 61.6353 85.6436 60.1856 85.6545L34.9449 85.8442ZM25.6677 134.939L49.1091 179.021C53.9689 185.112 62.8309 186.562 71.9788 186.272H92.9654C95.1105 186.272 96.8495 184.533 96.8495 182.387V148.37C96.8495 146.234 95.1251 144.499 92.9893 144.486L49.6808 144.22C42.2482 144.8 32.8145 143.06 25.3818 134.939H25.6677ZM167.906 63.5246C169.649 60.2875 166.337 56.6653 162.957 58.1129L160.313 59.2456L148.02 40.3947C142.589 31.4042 130.582 34.8844 125.151 38.3646C119.719 41.8447 115.431 49.3851 111.429 56.3454L125.151 80.9966C122.026 82.9669 123.384 87.7946 127.077 87.8481L152.237 88.2128C153.686 88.2338 155.026 87.4464 155.713 86.1704L167.906 63.5246ZM130.011 31.4042L80.5549 30.8242C73.1222 31.9843 67.4048 39.2346 63.1168 47.645L52.9416 66.3241C51.9259 68.1886 52.5957 70.5233 54.4454 71.5658L83.7326 88.0723C85.6067 89.1285 87.9823 88.4604 89.031 86.5821L110.285 48.5151C113.43 41.8447 119.433 34.0144 130.011 31.6943V31.4042ZM126.351 192.109C128.34 195.26 133.194 194.073 133.506 190.36L133.727 187.722L156.025 185.982C166.602 185.402 169.175 173.221 168.889 166.551C168.603 160.17 164.315 152.63 160.027 145.67L132.252 145.938C131.998 142.254 127.106 141.16 125.307 144.385L112.792 166.835C112.1 168.076 112.141 169.597 112.9 170.799L126.351 192.109ZM172.56 174.649L196.859 131.147C199.431 123.897 196.001 115.486 190.855 107.656L179.763 89.5532C178.631 87.7061 176.207 87.1418 174.376 88.2991L146.05 106.2C144.261 107.331 143.707 109.685 144.803 111.496L167.414 148.838C171.702 154.928 175.418 163.919 172.274 174.649H172.56Z" fill="#00C65E"/>
</svg>
