<svg width="459" height="344" viewBox="0 0 459 344" fill="none" xmlns="http://www.w3.org/2000/svg">
<path opacity="0.6" d="M458.312 126.973C458.381 101.628 450.342 76.8157 435.266 55.8431C420.189 34.8705 398.793 18.7339 373.927 9.58395C349.061 0.434053 321.907 -1.29444 296.086 4.62886C270.264 10.5522 247 23.846 229.396 42.7383C211.784 23.7215 188.556 10.2193 162.791 4.02296C137.027 -2.17334 109.945 -0.770945 85.1369 8.04405C60.329 16.8591 38.9681 32.6701 23.8877 53.3798C8.80732 74.0895 0.720219 98.7194 0.699219 124.001C1.67982 143.189 6.85092 161.996 15.8818 179.22C24.9127 196.444 37.6047 211.706 53.1459 224.029C97.2981 266.351 229.378 343.971 229.378 343.971C229.378 343.971 355.014 273.43 406.527 226.121C421.753 213.82 434.189 198.695 443.089 181.655C451.988 164.616 457.166 146.016 458.312 126.973Z" fill="#F89358"/>
<path d="M329.506 153.628C329.492 142.319 325.862 131.262 319.098 121.93C312.334 112.599 302.759 105.436 291.648 101.397C280.537 97.3577 268.418 96.6337 256.907 99.3217C245.396 102.01 235.039 107.982 227.217 116.443C219.325 107.988 208.937 102.004 197.431 99.2847C185.924 96.5647 173.842 97.2377 162.789 101.215C151.735 105.191 142.231 112.283 135.539 121.55C128.846 130.817 125.281 141.821 125.316 153.102C125.787 161.662 128.127 170.045 132.187 177.714C136.246 185.384 141.936 192.171 148.892 197.642C168.666 216.449 227.223 250.852 227.223 250.852C227.223 250.852 283.671 219.157 306.573 197.958C313.345 192.442 318.867 185.672 322.809 178.054C326.75 170.435 329.028 162.127 329.506 153.628Z" fill="#CCEFDB"/>
<path d="M238.464 218.716C262.807 211.907 277.029 186.679 270.229 162.368C263.429 138.057 238.182 123.87 213.839 130.679C189.496 137.488 175.274 162.716 182.074 187.026C188.874 211.337 214.121 225.525 238.464 218.716Z" fill="white"/>
<path d="M238.577 219.375C263.274 212.467 277.702 186.873 270.803 162.209C263.904 137.545 238.29 123.151 213.594 130.059C188.897 136.967 174.469 162.561 181.368 187.225C188.266 211.889 213.88 226.283 238.577 219.375Z" fill="white"/>
<path d="M246.821 133.178C250.496 135.018 253.91 137.336 256.976 140.071C256.721 140.851 256.274 141.725 255.478 141.77C254.762 141.705 254.056 141.552 253.378 141.314C252.066 140.842 250.669 140.655 249.279 140.766C247.92 140.999 246.617 141.483 245.437 142.195C244.688 142.756 243.783 143.071 242.848 143.097C242.034 142.727 241.342 142.135 240.852 141.389C240.629 141.144 240.435 140.874 240.272 140.586L240.577 140.126C241.665 138.744 242.831 137.425 244.069 136.175C245.014 135.181 245.991 134.159 246.821 133.178ZM231.759 128.703C231.637 130.282 231.195 131.82 230.459 133.224C230.171 133.639 229.761 133.954 229.286 134.126C228.811 134.297 228.294 134.317 227.807 134.182C227.3 133.854 226.875 133.414 226.563 132.898C226.251 132.381 226.06 131.8 226.006 131.199C225.798 130.248 225.474 129.326 225.041 128.454C227.302 128.368 229.565 128.446 231.814 128.687L231.759 128.703ZM192.16 143.148C197.348 137.51 203.859 133.251 211.106 130.756C212.078 133.597 213.234 136.249 214.367 138.749C215.404 140.623 215.989 142.713 216.075 144.852C216.013 145.618 215.855 146.608 215.396 147.012C214.734 147.346 214.013 147.548 213.274 147.606C211.511 147.683 209.805 148.249 208.345 149.241L207.362 150.028C206.808 150.567 206.161 151.002 205.452 151.311C204.715 151.437 203.96 151.421 203.229 151.263C202.726 151.226 202.181 151.182 201.627 151.179C200.21 151.218 198.814 151.538 197.521 152.12C196.227 152.702 195.062 153.533 194.092 154.567C193.684 155.125 193.42 155.774 193.322 156.458C193.224 157.141 193.296 157.838 193.531 158.487C193.866 159.37 194.438 160.144 195.183 160.724C198.292 163.286 202.071 164.902 206.074 165.382C206.647 165.458 207.211 165.497 207.737 165.547C210.648 165.796 212.106 165.999 213.279 167.937C213.593 168.497 213.862 169.08 214.083 169.682C214.383 170.421 214.729 171.14 215.119 171.836C215.629 172.82 216.407 173.641 217.363 174.203C218.32 174.765 219.416 175.046 220.526 175.012C221.822 174.806 223.031 174.228 224.006 173.349C224.359 173.064 224.738 172.813 225.138 172.599C225.782 172.427 226.456 172.406 227.109 172.538C227.762 172.669 228.376 172.951 228.902 173.359C230.146 174.049 231.136 175.118 231.728 176.41C231.928 176.896 231.989 177.427 231.904 177.945C231.819 178.463 231.591 178.947 231.246 179.343L225.248 184.843C223.32 186.624 221.253 188.758 221.267 191.769C221.306 192.662 221.455 193.546 221.708 194.404C221.887 194.972 221.979 195.564 221.982 196.159C221.67 196.284 221.344 196.375 221.012 196.43C220.393 196.584 219.794 196.811 219.229 197.107C216.168 198.79 216.008 202.519 215.91 204.99C215.839 206.783 215.222 208.315 214.556 208.403C213.89 208.49 213.196 207.562 212.882 206.507C212.69 205.808 212.551 205.097 212.464 204.378C212.341 203.15 212.064 201.944 211.637 200.787C210.976 199.334 210.095 197.992 209.025 196.809C208.129 195.865 207.424 194.758 206.948 193.547C206.758 192.588 206.709 191.606 206.804 190.633C206.957 189.133 206.834 187.618 206.441 186.163C205.67 184.182 204.413 182.426 202.784 181.059C201.897 180.288 201.124 179.397 200.485 178.411C199.925 177.239 199.716 175.928 199.884 174.639C200.004 173.189 199.837 171.729 199.393 170.344C198.802 169.088 197.822 168.056 196.597 167.402C193.86 165.578 191.299 163.505 188.946 161.208C187.652 160.088 186.627 158.691 185.948 157.121C185.836 156.719 185.749 156.408 185.682 156.171C185.504 155.39 185.113 154.674 184.552 154.103C186.543 150.103 189.106 146.413 192.16 143.148ZM264.728 200.299C263.51 200.121 262.39 199.53 261.557 198.625C259.757 196.705 260.224 194.919 261.287 191.667C261.916 189.989 262.328 188.239 262.513 186.457C262.835 184.118 262.256 181.745 260.893 179.818C259.398 178.189 257.442 177.053 255.286 176.559C254.877 176.437 254.504 176.305 254.15 176.167C252.46 175.52 250.827 174.731 249.269 173.809C248.334 173.35 247.49 172.725 246.78 171.964C246.078 171.077 246.78 167.59 248.215 164.824C249.306 162.726 251.529 160.449 254.256 160.888C255.5 161.101 256.724 161.417 257.914 161.835C260.33 162.803 262.939 163.193 265.533 162.975L267.465 162.829C268.652 162.831 269.833 162.653 270.967 162.302C271.915 165.76 272.46 169.317 272.59 172.901C272.937 182.633 270.184 192.226 264.728 200.299Z" fill="#00C65E"/>
<path d="M247.244 172.582C247.237 170.337 246.489 168.141 245.1 166.286C243.711 164.431 241.748 163.005 239.471 162.199C237.194 161.393 234.712 161.244 232.356 161.774C230 162.303 227.881 163.484 226.282 165.161C224.663 163.479 222.534 162.287 220.176 161.743C217.819 161.199 215.345 161.328 213.083 162.113C210.821 162.898 208.878 164.302 207.511 166.139C206.144 167.976 205.418 170.159 205.429 172.398C205.529 174.098 206.012 175.763 206.846 177.287C207.68 178.811 208.848 180.16 210.275 181.249C214.332 184.99 226.336 191.843 226.336 191.843C226.336 191.843 237.883 185.573 242.565 181.373C243.949 180.281 245.078 178.939 245.882 177.429C246.686 175.918 247.149 174.269 247.244 172.582Z" fill="#F4B0D5"/>
</svg>
