<svg width="459" height="344" viewBox="0 0 459 344" fill="none" xmlns="http://www.w3.org/2000/svg">
<path opacity="0.6" d="M458.312 126.973C458.381 101.628 450.342 76.8157 435.266 55.8431C420.189 34.8705 398.793 18.7339 373.927 9.58395C349.061 0.434053 321.907 -1.29444 296.086 4.62886C270.264 10.5522 247 23.846 229.396 42.7383C211.784 23.7215 188.556 10.2193 162.791 4.02296C137.027 -2.17334 109.945 -0.770945 85.1369 8.04405C60.329 16.8591 38.9681 32.6701 23.8877 53.3798C8.80732 74.0895 0.720219 98.7194 0.699219 124.001C1.67982 143.189 6.85092 161.996 15.8818 179.22C24.9127 196.444 37.6047 211.706 53.1459 224.029C97.2981 266.351 229.378 343.971 229.378 343.971C229.378 343.971 355.014 273.43 406.527 226.121C421.753 213.82 434.189 198.695 443.089 181.655C451.988 164.616 457.166 146.016 458.312 126.973Z" fill="#84B2F9"/>
<path d="M324.456 150.309C324.442 139 320.812 127.943 314.048 118.612C307.285 109.28 297.709 102.118 286.598 98.0776C275.487 94.0386 263.368 93.3156 251.857 96.0036C240.346 98.6916 229.989 104.664 222.167 113.124C214.276 104.67 203.888 98.6856 192.381 95.9656C180.874 93.2466 168.792 93.9196 157.739 97.8956C146.685 101.873 137.181 108.965 130.489 118.232C123.796 127.499 120.231 138.503 120.266 149.783C120.737 158.343 123.077 166.726 127.137 174.396C131.196 182.065 136.886 188.853 143.842 194.324C163.617 213.131 222.174 247.533 222.174 247.533C222.174 247.533 278.621 215.839 301.523 194.64C308.295 189.124 313.818 182.354 317.759 174.735C321.7 167.117 323.978 158.808 324.456 150.309Z" fill="#CCEFDB"/>
<path d="M199.1 163.639C200.012 162.837 201.184 162.395 202.398 162.395L239.823 162.376C241.051 162.375 242.236 162.826 243.153 163.643L250.101 169.836C252.221 171.726 253.438 174.428 253.447 177.268L253.584 218.789C253.593 221.551 251.362 223.796 248.601 223.805L193.801 223.984C191.04 223.993 188.794 221.762 188.785 219.001L188.648 177.381C188.638 174.493 189.878 171.742 192.047 169.836L199.1 163.639Z" fill="white"/>
<path d="M220.958 193.113C217.6 193.137 214.386 194.489 212.011 196.875C209.636 199.262 208.291 202.492 208.267 205.867V223.966H233.929V205.867C233.917 204.171 233.571 202.495 232.912 200.935C232.252 199.375 231.292 197.961 230.086 196.776C228.88 195.59 227.453 194.656 225.886 194.028C224.32 193.399 222.645 193.088 220.958 193.113Z" fill="#FFB762"/>
<path d="M241.72 141.052L200.432 141.166L200.518 163.416L241.806 163.302L241.72 141.052Z" fill="white"/>
<path d="M222.146 79H220.088V99.9066H222.146V79Z" fill="#FFB762"/>
<path d="M229.116 86.4779L229.116 88.207L213.119 88.207L213.119 86.4779L229.116 86.4779Z" fill="#FFB762"/>
<path d="M190.501 134.783C190.501 143.474 190.486 143.474 221.744 143.474C251.139 143.474 251.734 143.474 251.734 134.783C251.734 126.093 246.85 114.827 239.291 107.457C229.751 98.1552 221.117 97.0332 221.117 97.0332C221.117 97.0332 212.484 98.1552 202.944 107.457C195.385 114.827 190.501 126.093 190.501 134.783Z" fill="#FFB762"/>
</svg>
