<svg width="459" height="344" viewBox="0 0 459 344" fill="none" xmlns="http://www.w3.org/2000/svg">
<path opacity="0.6" d="M458.312 126.973C458.381 101.628 450.342 76.8157 435.266 55.8431C420.189 34.8705 398.793 18.7339 373.927 9.58395C349.061 0.434053 321.907 -1.29444 296.086 4.62886C270.264 10.5522 247 23.846 229.396 42.7383C211.784 23.7215 188.556 10.2193 162.791 4.02296C137.027 -2.17334 109.945 -0.770945 85.1369 8.04405C60.329 16.8591 38.9681 32.6701 23.8877 53.3798C8.80732 74.0895 0.720219 98.7194 0.699219 124.001C1.67982 143.189 6.85092 161.996 15.8818 179.22C24.9127 196.444 37.6047 211.706 53.1459 224.029C97.2981 266.351 229.378 343.971 229.378 343.971C229.378 343.971 355.014 273.43 406.527 226.121C421.753 213.82 434.189 198.695 443.089 181.655C451.988 164.616 457.166 146.016 458.312 126.973Z" fill="#00C65E"/>
<path d="M314.976 140.978L240.855 71.6754C238.679 69.6445 235.729 68.5039 232.655 68.5039C229.58 68.5039 226.631 69.6445 224.454 71.6754L150.386 140.978C143.091 147.799 156.776 159.399 156.776 159.399V252.748H308.746V159.399C308.746 159.399 322.271 147.799 314.976 140.978Z" fill="#FFB762"/>
<path d="M264.63 135.303C264.63 135.303 270.434 130.324 267.345 127.486L236.142 98.3117C235.223 97.4537 233.979 96.9727 232.681 96.9727C231.383 96.9727 230.138 97.4537 229.22 98.3117L198.016 127.486C194.981 130.374 200.732 135.303 200.732 135.303H264.63Z" fill="white"/>
<path d="M214.524 158.53H183.816V189.547H214.524V158.53Z" fill="white"/>
<path d="M277.346 158.504H246.639V189.521H277.346V158.504Z" fill="white"/>
<path d="M214.524 207.198H183.816V238.215H214.524V207.198Z" fill="white"/>
<path d="M276.625 207.198H245.918V238.215H276.625V207.198Z" fill="white"/>
<path d="M261.989 185.846C269.219 185.846 275.079 179.924 275.079 172.619C275.079 165.314 269.219 159.392 261.989 159.392C254.76 159.392 248.899 165.314 248.899 172.619C248.899 179.924 254.76 185.846 261.989 185.846Z" fill="#FBCFB1"/>
<path d="M276.937 167.498C276.937 175.84 268.664 164.348 265.866 162.792C262 160.64 255.813 161.243 257.458 162.387C257.458 162.387 257.203 165.472 254.27 167.991C250.775 170.993 247.285 173.478 247.285 168.52C246.446 164.461 246.52 162.043 248.498 159.251C251.168 155.484 253.91 154.091 258.652 154.091C263.364 154.546 264.365 150.501 271.072 154.545C274.223 157.314 276.937 162.946 276.937 167.498Z" fill="#FFF6A2"/>
<path d="M277.768 170.502C277.038 168.673 275.482 170.832 274.795 172.14C274.315 172.954 273.781 176.339 274.288 176.066C274.795 175.793 278.68 172.788 277.768 170.502Z" fill="#FBCFB1" stroke="#FBCFB1" stroke-width="0.2"/>
<path d="M246.596 170.502C247.326 168.673 248.882 170.832 249.569 172.14C250.05 172.954 250.583 176.339 250.076 176.066C249.569 175.793 245.684 172.788 246.596 170.502Z" fill="#FBCFB1" stroke="#FBCFB1" stroke-width="0.2"/>
<path d="M261.991 181.39C263.586 181.39 264.879 180.083 264.879 178.472H259.104C259.104 180.083 260.396 181.39 261.991 181.39Z" fill="#FE3232"/>
<path d="M199.307 184.169C206.536 184.169 212.396 178.247 212.396 170.942C212.396 163.637 206.536 157.715 199.307 157.715C192.077 157.715 186.217 163.637 186.217 170.942C186.217 178.247 192.077 184.169 199.307 184.169Z" fill="#FBCFB1"/>
<path d="M214.257 165.82C214.257 174.163 207.564 162.982 199.308 162.982C191.052 162.982 184.359 174.163 184.359 165.82C184.359 157.478 191.052 150.715 199.308 150.715C207.564 150.715 214.257 157.478 214.257 165.82Z" fill="#9F8370"/>
<path d="M172.438 178.698L185.678 167.293L181.693 187.707L172.438 178.698Z" fill="#9F8370"/>
<path d="M226.175 178.698L212.936 167.293L216.92 187.707L226.175 178.698Z" fill="#9F8370"/>
<path d="M199.171 150.691V163.644" stroke="#FBCFB1" stroke-width="0.2"/>
<path d="M213.777 170.187C214.781 170.187 215.596 169.356 215.596 168.332C215.596 167.307 214.781 166.477 213.777 166.477C212.772 166.477 211.958 167.307 211.958 168.332C211.958 169.356 212.772 170.187 213.777 170.187Z" fill="#FE3232"/>
<path d="M184.997 170.187C186.001 170.187 186.815 169.356 186.815 168.332C186.815 167.307 186.001 166.477 184.997 166.477C183.992 166.477 183.178 167.307 183.178 168.332C183.178 169.356 183.992 170.187 184.997 170.187Z" fill="#FE3232"/>
<path d="M199.309 181.391C200.903 181.391 202.196 180.084 202.196 178.473H196.421C196.421 180.084 197.714 181.391 199.309 181.391Z" fill="#FE3232"/>
<path d="M232.241 131.591C239.47 131.591 245.331 125.669 245.331 118.364C245.331 111.059 239.47 105.137 232.241 105.137C225.012 105.137 219.151 111.059 219.151 118.364C219.151 125.669 225.012 131.591 232.241 131.591Z" fill="#FBCFB1"/>
<path d="M247.189 113.243C247.189 121.586 240.496 110.404 232.241 110.404C223.985 110.404 217.292 121.586 217.292 113.243C217.292 104.901 223.985 98.1377 232.241 98.1377C240.496 98.1377 247.189 104.901 247.189 113.243Z" fill="#A86C24"/>
<path d="M232.104 98.1133V111.066" stroke="#FBCFB1" stroke-width="0.2"/>
<path d="M232.239 128.813C233.834 128.813 235.127 127.506 235.127 125.895H229.352C229.352 127.506 230.644 128.813 232.239 128.813Z" fill="#FE3232"/>
<path d="M261.405 235.722C268.635 235.722 274.495 229.8 274.495 222.495C274.495 215.19 268.635 209.268 261.405 209.268C254.176 209.268 248.315 215.19 248.315 222.495C248.315 229.8 254.176 235.722 261.405 235.722Z" fill="#FBCFB1"/>
<path d="M276.353 217.373C276.353 225.715 269.66 214.534 261.405 214.534C253.149 214.534 246.456 225.715 246.456 217.373C246.456 209.03 253.149 202.268 261.405 202.268C269.66 202.268 276.353 209.03 276.353 217.373Z" fill="#E9922C"/>
<path d="M229.117 238.858L235.32 234.919L234.334 243.069L229.117 238.858Z" fill="#E9922C"/>
<path d="M293.445 238.911L287.242 234.972L288.229 243.122L293.445 238.911Z" fill="#E9922C"/>
<path d="M261.268 202.244V215.197" stroke="#FBCFB1" stroke-width="0.2"/>
<path d="M274.689 221.093C275.857 222.848 277.698 223.662 278.802 222.912C279.907 222.162 279.855 220.131 278.687 218.376C277.52 216.622 275.678 215.807 274.574 216.558C273.47 217.308 273.521 219.338 274.689 221.093Z" fill="#E9922C"/>
<path d="M247.939 221.093C246.771 222.848 244.93 223.662 243.825 222.912C242.721 222.162 242.773 220.131 243.94 218.376C245.108 216.622 246.95 215.807 248.054 216.558C249.158 217.308 249.107 219.338 247.939 221.093Z" fill="#E9922C"/>
<path d="M278.428 226.713C279.596 228.468 281.438 229.282 282.542 228.532C283.646 227.782 283.594 225.751 282.427 223.997C281.259 222.242 279.417 221.428 278.313 222.178C277.209 222.928 277.261 224.959 278.428 226.713Z" fill="#E9922C"/>
<path d="M244.198 226.713C243.03 228.468 241.188 229.282 240.084 228.532C238.98 227.782 239.032 225.751 240.199 223.997C241.367 222.242 243.209 221.428 244.313 222.178C245.417 222.928 245.365 224.959 244.198 226.713Z" fill="#E9922C"/>
<path d="M282.401 232.683C283.569 234.438 285.41 235.252 286.514 234.502C287.619 233.752 287.567 231.721 286.399 229.966C285.232 228.212 283.39 227.397 282.286 228.147C281.182 228.898 281.233 230.928 282.401 232.683Z" fill="#E9922C"/>
<path d="M240.223 232.683C239.055 234.438 237.214 235.252 236.11 234.502C235.006 233.752 235.057 231.721 236.225 229.966C237.392 228.212 239.234 227.397 240.338 228.147C241.442 228.898 241.391 230.928 240.223 232.683Z" fill="#E9922C"/>
<path d="M286.763 237.514C287.732 237.78 288.733 237.194 288.999 236.205C289.264 235.216 288.694 234.199 287.724 233.933C286.755 233.668 285.754 234.254 285.488 235.243C285.223 236.232 285.793 237.249 286.763 237.514Z" fill="#FFE27A"/>
<path d="M235.868 237.514C234.899 237.78 233.898 237.194 233.632 236.205C233.367 235.216 233.937 234.199 234.907 233.933C235.876 233.668 236.877 234.254 237.143 235.243C237.408 236.232 236.838 237.249 235.868 237.514Z" fill="#FFE27A"/>
<path d="M261.271 231.35C262.865 231.35 264.158 230.043 264.158 228.432H258.383C258.383 230.043 259.676 231.35 261.271 231.35Z" fill="#FE3232"/>
<path d="M200.528 235.861C207.758 235.861 213.618 229.939 213.618 222.633C213.618 215.328 207.758 209.406 200.528 209.406C193.299 209.406 187.438 215.328 187.438 222.633C187.438 229.939 193.299 235.861 200.528 235.861Z" fill="#FBCFB1"/>
<path d="M215.477 217.512C215.477 225.854 205.986 218.599 203.189 217.042C201.888 216.318 197.043 212.529 197.192 212.482C197.192 212.482 195.743 215.486 192.81 218.005C189.315 221.007 185.824 223.492 185.824 218.534C185.824 210.191 192.273 202.406 200.529 202.406C208.784 202.406 215.477 209.169 215.477 217.512Z" fill="#282725"/>
<path d="M216.306 220.516C215.576 218.687 214.02 220.846 213.333 222.154C212.853 222.968 212.32 226.354 212.826 226.081C213.333 225.807 217.218 222.803 216.306 220.516Z" fill="#FBCFB1" stroke="#FBCFB1" stroke-width="0.2"/>
<path d="M185.134 220.516C185.864 218.687 187.42 220.846 188.107 222.154C188.588 222.968 189.121 226.354 188.614 226.081C188.107 225.807 184.222 222.803 185.134 220.516Z" fill="#FBCFB1" stroke="#FBCFB1" stroke-width="0.2"/>
<path d="M200.649 231.351C202.244 231.351 203.537 230.044 203.537 228.433H197.762C197.762 230.044 199.055 231.351 200.649 231.351Z" fill="#FE3232"/>
</svg>
