<svg width="221" height="220" viewBox="0 0 221 220" fill="none" xmlns="http://www.w3.org/2000/svg">
<circle cx="110.395" cy="109.676" r="109.623" fill="white"/>
<path d="M94.3838 146.045L108.089 146.049L104.405 203.421H98.2156L94.3838 146.045Z" fill="#FBCFB1"/>
<path d="M110.514 146.045L124.219 146.049L120.535 203.421H114.345L110.514 146.045Z" fill="#FBCFB1"/>
<path d="M94.9678 204.742C94.9678 202.533 96.7586 200.742 98.9678 200.742H103.511C105.72 200.742 107.511 202.533 107.511 204.742V208.493H94.9678V204.742Z" fill="#FFB762"/>
<path d="M111.089 204.742C111.089 202.533 112.88 200.742 115.089 200.742H119.632C121.841 200.742 123.632 202.533 123.632 204.742V208.493H111.089V204.742Z" fill="#FFB762"/>
<ellipse cx="108.851" cy="37.8037" rx="21.27" ry="21.4932" fill="#FBCFB1"/>
<path d="M133.143 29.4729C133.143 43.0289 122.268 24.8603 108.852 24.8603C95.4372 24.8603 84.562 43.0289 84.562 29.4729C84.562 15.917 95.4372 4.92773 108.852 4.92773C122.268 4.92773 133.143 15.917 133.143 29.4729Z" fill="#E9922C"/>
<path d="M108.626 4.89062V25.938" stroke="#FBCFB1" stroke-width="0.2"/>
<path d="M108.628 52.181C111.22 52.181 113.321 50.0581 113.321 47.4395H103.936C103.936 50.0581 106.037 52.181 108.628 52.181Z" fill="#FE3232"/>
<rect x="95.7534" y="62.3125" width="27.1893" height="19.5027" fill="#FBCFB1"/>
<path d="M124.387 62.0829L125.509 76.5964L149.181 116.365L153.287 113.972L137.966 82.471C137.966 82.471 133.01 72.4682 130.087 67.5306C126.849 62.0625 124.387 62.0829 124.387 62.0829Z" fill="#FBCFB1"/>
<path d="M153.123 113.627L148.956 115.907C148.956 115.907 148.227 119.055 149.724 121.557C151.22 124.059 154.112 126.712 154.112 126.712C154.112 126.712 155.664 127.324 157.489 126.51C158.428 126.091 158.845 124.192 158.845 124.192C158.845 124.192 158.827 119.903 157.156 117.111C155.485 114.319 153.123 113.627 153.123 113.627Z" fill="#FBCFB1"/>
<path d="M94.1076 62.0848L92.9853 76.5983L69.313 116.367L65.207 113.973L80.5278 82.473C80.5278 82.473 85.4839 72.4701 88.4074 67.5326C91.6452 62.0644 94.1076 62.0848 94.1076 62.0848Z" fill="#FBCFB1"/>
<path d="M65.3715 113.629L69.5386 115.909C69.5386 115.909 70.2675 119.057 68.7706 121.559C67.2738 124.061 64.3819 126.714 64.3819 126.714C64.3819 126.714 62.8303 127.326 61.0056 126.512C60.0666 126.093 59.6495 124.194 59.6495 124.194C59.6495 124.194 59.6672 119.905 61.3381 117.113C63.0091 114.321 65.3715 113.629 65.3715 113.629Z" fill="#FBCFB1"/>
<path d="M109.331 172.26C132.095 172.26 147.831 166.128 147.831 166.128C147.831 166.128 139.366 124.982 122.357 96.8965H96.3043C79.2948 124.982 70.8306 166.128 70.8306 166.128C70.8306 166.128 86.5664 172.26 109.331 172.26Z" fill="#FFB762"/>
<path d="M124.708 62.2617H121.234V73.3098C117.262 74.1069 109.284 75.3131 109.377 75.3131H109.284C109.377 75.3131 101.388 74.1069 97.4276 73.3098V62.2617H93.9886L91.6729 72.533L96.3044 92.7077H122.392L127.023 72.533L124.708 62.2617Z" fill="#FFB762"/>
<path d="M127.022 72.5327L124.707 62.3125H121.233V73.3094" fill="#F89358"/>
<path d="M91.6729 72.533L93.9886 62.2617H97.4623V73.3098" fill="#F89358"/>
<path d="M122.345 92.71H96.2573V96.9002H122.345V92.71Z" fill="#F89358"/>
<ellipse rx="2.95751" ry="3.01253" transform="matrix(0.964427 0.264351 -0.25926 0.965807 158.082 39.9316)" fill="#FE3232"/>
<ellipse cx="135.027" cy="25.8005" rx="4.18979" ry="2.55602" transform="rotate(32.9973 135.027 25.8005)" fill="#E9922C"/>
<ellipse cx="140.992" cy="29.3513" rx="4.18979" ry="2.55602" transform="rotate(32.9973 140.992 29.3513)" fill="#E9922C"/>
<ellipse cx="147.032" cy="33.3786" rx="4.18979" ry="2.55602" transform="rotate(32.9973 147.032 33.3786)" fill="#E9922C"/>
<ellipse cx="152.737" cy="36.9294" rx="4.18979" ry="2.55602" transform="rotate(32.9973 152.737 36.9294)" fill="#E9922C"/>
<path d="M162.748 48.5059C162.748 48.8808 166.307 43.7298 168.086 41.1074H159.376C160.5 43.4173 162.748 48.1309 162.748 48.5059Z" fill="#E9922C"/>
<ellipse rx="2.95751" ry="3.01253" transform="matrix(-0.964427 0.264351 0.25926 0.965807 62.4844 39.9316)" fill="#FE3232"/>
<ellipse rx="4.18979" ry="2.55602" transform="matrix(-0.838696 0.5446 0.5446 0.838696 85.5392 25.8005)" fill="#E9922C"/>
<ellipse rx="4.18979" ry="2.55602" transform="matrix(-0.838696 0.5446 0.5446 0.838696 79.5743 29.3513)" fill="#E9922C"/>
<ellipse rx="4.18979" ry="2.55602" transform="matrix(-0.838696 0.5446 0.5446 0.838696 73.5343 33.3786)" fill="#E9922C"/>
<ellipse rx="4.18979" ry="2.55602" transform="matrix(-0.838696 0.5446 0.5446 0.838696 67.8292 36.9294)" fill="#E9922C"/>
<path d="M57.8178 48.5059C57.8177 48.8808 54.2592 43.7298 52.4799 41.1074H61.1895C60.0656 43.4173 57.8179 48.1309 57.8178 48.5059Z" fill="#E9922C"/>
<path d="M74.7923 105.352L85.7532 100.489C86.7095 100.065 87.7951 100.038 88.7713 100.414C89.7474 100.79 90.5342 101.539 90.9585 102.495C91.3827 103.451 91.4097 104.537 91.0336 105.513C90.6574 106.489 89.9088 107.276 88.9526 107.7L77.9916 112.563C77.9299 112.609 77.8533 112.629 77.7772 112.62C77.7011 112.611 77.6313 112.573 77.5818 112.515L74.5904 105.773C74.5579 105.699 74.5558 105.616 74.5847 105.541C74.6135 105.466 74.6709 105.406 74.7442 105.373L74.7923 105.352Z" fill="#CD9756"/>
<path d="M80.7761 119.241L91.5113 124.537C92.4479 124.999 93.1625 125.814 93.4981 126.803C93.8337 127.792 93.7627 128.873 93.3007 129.81C92.8387 130.746 92.0235 131.461 91.0346 131.797C90.0457 132.132 88.9639 132.061 88.0274 131.599L77.2922 126.304C77.2204 126.268 77.1656 126.206 77.1398 126.13C77.1141 126.054 77.1196 125.971 77.155 125.899L80.3718 119.378C80.4072 119.306 80.4697 119.252 80.5456 119.226C80.6214 119.2 80.7043 119.206 80.7761 119.241Z" fill="#CD9756"/>
<path d="M68.5691 114.513L56.5818 114.204C55.536 114.177 54.5437 113.736 53.8232 112.977C53.1028 112.219 52.7132 111.205 52.7401 110.159C52.767 109.114 53.2083 108.121 53.9668 107.401C54.7253 106.68 55.739 106.291 56.7848 106.318L68.7721 106.626C68.8523 106.628 68.9284 106.662 68.9836 106.72C69.0388 106.778 69.0687 106.856 69.0666 106.936L68.8799 114.192C68.8824 114.234 68.8763 114.276 68.8617 114.315C68.8471 114.355 68.8245 114.391 68.7952 114.421C68.766 114.451 68.7308 114.475 68.6919 114.491C68.6529 114.506 68.6111 114.514 68.5691 114.513Z" fill="#CD9756"/>
<path d="M74.298 127.037L66.3453 136.012C65.6515 136.795 64.6751 137.27 63.6308 137.333C62.5866 137.396 61.5601 137.042 60.7771 136.348C59.9941 135.654 59.5188 134.678 59.4558 133.633C59.3927 132.589 59.7471 131.563 60.4409 130.78L68.3935 121.805C68.4199 121.775 68.4518 121.751 68.4875 121.734C68.5232 121.716 68.562 121.706 68.6016 121.704C68.6413 121.701 68.681 121.707 68.7185 121.72C68.7561 121.733 68.7907 121.753 68.8204 121.779L74.2722 126.61C74.3019 126.636 74.3262 126.668 74.3435 126.704C74.3609 126.74 74.3711 126.778 74.3735 126.818C74.3759 126.858 74.3705 126.897 74.3575 126.935C74.3445 126.973 74.3243 127.007 74.298 127.037Z" fill="#CD9756"/>
<path d="M84.0074 107.847C82.7676 101.601 76.6987 97.5419 70.4521 98.7816C64.2055 100.021 60.1466 106.09 61.3864 112.337L63.6746 123.867C64.9144 130.113 70.9833 134.172 77.2299 132.932C83.4765 131.693 87.5354 125.624 86.2956 119.377L84.0074 107.847Z" fill="#CD9756"/>
<path d="M74.6626 91.66C77.3174 92.3855 80.0577 90.8215 80.7832 88.1667C81.5087 85.5119 79.9447 82.7716 77.2899 82.0461C74.6351 81.3206 71.8948 82.8846 71.1693 85.5394C70.4438 88.1942 72.0078 90.9345 74.6626 91.66Z" fill="#CD9756"/>
<path d="M60.0669 94.8407C62.7217 95.5662 65.462 94.0021 66.1875 91.3473C66.913 88.6925 65.349 85.9522 62.6942 85.2267C60.0394 84.5012 57.2991 86.0652 56.5736 88.72C55.8481 91.3749 57.4121 94.1151 60.0669 94.8407Z" fill="#CD9756"/>
<path d="M80.1893 93.5801C80.6695 96.0127 80.2815 98.5368 79.0928 100.713C77.9041 102.889 75.99 104.579 73.6835 105.49C71.3771 106.4 68.8244 106.473 66.4698 105.696C64.1152 104.918 62.1077 103.34 60.7968 101.235C59.4859 99.1304 58.9546 96.6325 59.2953 94.1764C59.636 91.7203 60.8272 89.4614 62.6615 87.793C64.4959 86.1245 66.8572 85.152 69.3345 85.0449C71.8118 84.9378 74.2483 85.7028 76.2198 87.2067C78.2755 88.7763 79.6871 91.0428 80.1893 93.5801Z" fill="#CD9756"/>
<path d="M73.2012 94.0152C73.7967 94.1779 74.4112 93.8272 74.5739 93.2318C74.7367 92.6364 74.3859 92.0218 73.7905 91.8591C73.1951 91.6964 72.5805 92.0471 72.4178 92.6425C72.2551 93.2379 72.6058 93.8525 73.2012 94.0152Z" fill="white"/>
<path d="M65.0299 95.6402C65.6253 95.8029 66.2398 95.4522 66.4026 94.8568C66.5653 94.2614 66.2145 93.6468 65.6191 93.4841C65.0237 93.3214 64.4091 93.6721 64.2464 94.2675C64.0837 94.8629 64.4345 95.4775 65.0299 95.6402Z" fill="white"/>
<path d="M74.0235 85.8166L74.065 85.6644C74.4105 85.2305 74.9042 84.9397 75.4512 84.8477C75.9982 84.7558 76.5599 84.8693 77.0282 85.1664C77.4966 85.4635 77.8386 85.9232 77.9886 86.4572C78.1385 86.9912 78.0858 87.5618 77.8405 88.0593L77.5958 88.4558C77.5958 88.4558 76.6968 87.5559 75.9948 86.9824C75.374 86.5355 74.7142 86.1453 74.0235 85.8166Z" fill="white"/>
<path d="M62.3627 87.9879L62.2497 87.9025C61.7692 87.6128 61.1977 87.5132 60.6475 87.6233C60.0973 87.7335 59.6082 88.0453 59.2762 88.4977C58.9442 88.9501 58.7934 89.5102 58.8533 90.0681C58.9133 90.6261 59.1797 91.1414 59.6002 91.5129L59.9575 91.8014C59.9575 91.8014 60.4944 90.585 60.9376 89.8611C61.3492 89.1909 61.8266 88.5634 62.3627 87.9879Z" fill="white"/>
<path d="M70.6558 100.682C70.5821 100.663 70.5153 100.623 70.463 100.568C70.4106 100.513 70.3748 100.444 70.3596 100.369L69.911 97.9703C69.8999 97.9182 69.8994 97.8645 69.9096 97.8122C69.9198 97.76 69.9404 97.7104 69.9703 97.6663C70.0001 97.6223 70.0386 97.5847 70.0834 97.5559C70.1281 97.5271 70.1782 97.5077 70.2307 97.4988C70.3355 97.48 70.4435 97.5029 70.5316 97.5626C70.6197 97.6223 70.6809 97.7142 70.7022 97.8185L71.168 100.154C71.1869 100.259 71.164 100.367 71.1042 100.455C71.0445 100.543 70.9527 100.604 70.8484 100.625C70.7891 100.658 70.7233 100.677 70.6558 100.682Z" fill="white"/>
<path d="M71.6339 101.496C71.3096 101.408 71.0164 101.231 70.7873 100.985C70.5581 100.74 70.4023 100.435 70.3373 100.105C70.3159 99.9982 70.338 99.8871 70.3986 99.7963C70.4592 99.7055 70.5534 99.6424 70.6604 99.6211C70.7675 99.5997 70.8786 99.6218 70.9694 99.6824C71.0602 99.743 71.1232 99.8372 71.1446 99.9442C71.1665 100.072 71.2138 100.194 71.2836 100.304C71.3535 100.413 71.4446 100.508 71.5515 100.581C71.6584 100.655 71.7789 100.706 71.906 100.733C72.0331 100.759 72.1642 100.76 72.2916 100.735C72.4569 100.703 72.6115 100.63 72.741 100.522C72.8704 100.415 72.9706 100.276 73.0323 100.119C73.0512 100.069 73.0799 100.023 73.1167 99.9835C73.1536 99.9442 73.1978 99.9126 73.2469 99.8906C73.2961 99.8685 73.3491 99.8564 73.4029 99.8549C73.4567 99.8535 73.5103 99.8627 73.5605 99.882C73.6105 99.9007 73.6562 99.9293 73.6948 99.9662C73.7335 100.003 73.7642 100.047 73.7852 100.096C73.8062 100.145 73.817 100.198 73.817 100.252C73.817 100.305 73.8062 100.358 73.7852 100.407C73.6808 100.694 73.5033 100.948 73.2701 101.145C73.037 101.342 72.7563 101.475 72.4561 101.529C72.1833 101.584 71.9013 101.573 71.6339 101.496Z" fill="white"/>
<path d="M68.9015 102.016C68.5837 101.915 68.2998 101.729 68.0808 101.478C68.0119 101.395 67.9771 101.29 67.9836 101.183C67.9901 101.075 68.0373 100.975 68.1156 100.901C68.1981 100.832 68.3037 100.798 68.4109 100.804C68.5181 100.811 68.6187 100.858 68.6922 100.936C68.8032 101.067 68.9472 101.166 69.1092 101.222C69.2712 101.278 69.4453 101.29 69.6135 101.256C69.7415 101.234 69.8637 101.187 69.9729 101.117C70.0821 101.046 70.1758 100.955 70.2486 100.847C70.3213 100.74 70.3714 100.619 70.3959 100.491C70.4205 100.364 70.4189 100.232 70.3913 100.106C70.3699 99.9985 70.392 99.8874 70.4526 99.7966C70.5132 99.7058 70.6074 99.6428 70.7144 99.6214C70.8215 99.6001 70.9326 99.6221 71.0234 99.6827C71.1142 99.7433 71.1773 99.8375 71.1986 99.9445C71.2868 100.413 71.1855 100.898 70.9168 101.292C70.648 101.686 70.2339 101.958 69.7653 102.047C69.479 102.106 69.1828 102.095 68.9015 102.016Z" fill="white"/>
<path d="M69.8117 97.2326L70.6697 97.0854C70.8127 97.058 70.9603 97.0693 71.0974 97.1182C71.2345 97.1671 71.356 97.2518 71.4492 97.3636C71.5425 97.4753 71.6042 97.61 71.6278 97.7536C71.6514 97.8972 71.6362 98.0445 71.5837 98.1802L71.2915 99C71.2417 99.1389 71.1558 99.262 71.0425 99.3566C70.9292 99.4512 70.7927 99.5138 70.6472 99.5379C70.5016 99.5621 70.3522 99.5469 70.2145 99.4939C70.0767 99.441 69.9556 99.3522 69.8637 99.2368L69.3071 98.5804C69.2135 98.4681 69.1514 98.333 69.1269 98.1889C69.1025 98.0448 69.1166 97.8968 69.1679 97.7599C69.2191 97.623 69.3057 97.5021 69.4187 97.4095C69.5318 97.3169 69.6674 97.2558 69.8117 97.2326Z" fill="white"/>
<path d="M79.9485 111.104C79.2049 107.357 75.5649 104.923 71.8184 105.666C68.0718 106.41 65.6374 110.05 66.381 113.796L67.7376 120.632C68.4812 124.378 72.1211 126.813 75.8677 126.069C79.6142 125.326 82.0486 121.686 81.305 117.939L79.9485 111.104Z" fill="white"/>
</svg>
