<svg width="234" height="242" viewBox="0 0 234 242" fill="none" xmlns="http://www.w3.org/2000/svg">
<circle cx="124.271" cy="109.762" r="109.591" fill="white"/>
<path d="M76.0211 143.389H75.1381H74.6419L54.4788 142.766L74.766 142.434H74.8754C76.0722 142.285 77.1596 141.655 77.1085 140.495C77.0501 139.08 74.423 137.827 69.3001 137.827H48.8305L59.9228 133.772C59.9228 133.772 63.7175 132.307 62.2799 129.088C61.0977 126.441 56.3616 127.998 56.3616 127.998C56.3616 127.998 37.0304 134.367 30.9589 137.282C28.7832 138.415 26.8823 139.986 25.3835 141.889L0 138C0 138 0.5 140 0 141.5C2.59265 149.005 -1.19209e-05 152.834 0 161L25.9017 158.434C26.6549 159.915 27.9584 161.066 29.5504 161.653C32.63 162.963 36.848 163.069 42.5401 163.274L65.3595 163.324C71.7229 163.324 74.1749 161.604 74.1749 160.21C74.1749 159.339 73.8392 158.087 70.4385 157.967L51.4066 157.655L72.2337 157.316C78.028 157.132 80.3048 155.384 80.3048 153.834C80.3048 152.886 79.378 151.711 76.7582 151.584H76.1598L55.3618 151.272L76.7655 150.565C80.4143 150.437 84.0192 149.694 84.0192 146.779C84.0484 144.316 80.2756 143.559 76.0211 143.389Z" fill="url(#paint0_linear_1555_40271)"/>
<path d="M69.6132 117.053C83.3743 117.053 94.5299 105.862 94.5299 92.0564C94.5299 78.251 83.3743 67.0596 69.6132 67.0596C55.852 67.0596 44.6964 78.251 44.6964 92.0564C44.6964 105.862 55.852 117.053 69.6132 117.053Z" fill="white" stroke="white" stroke-width="2.49124" stroke-miterlimit="10"/>
<path d="M68.9574 82.1875C66.657 82.2378 64.376 82.6221 62.1854 83.3284C63.1964 86.098 63.7212 89.0225 63.7362 91.9719C63.7465 95.7663 62.9154 99.5154 61.303 102.948C59.6907 106.38 57.3375 109.41 54.414 111.817C58.5924 115.047 63.6846 116.862 68.9574 117.003V82.1875Z" fill="#FFB762"/>
<path d="M75.4713 92.0402C75.4864 89.0908 76.0111 86.1664 77.0222 83.3968C74.8319 82.6891 72.5507 82.3047 70.2502 82.2559V117.002C75.524 116.868 80.618 115.051 84.7936 111.816C81.879 109.416 79.5313 106.398 77.9193 102.978C76.3073 99.5587 75.4713 95.823 75.4713 92.0402Z" fill="#FFB762"/>
<path d="M62.5138 92.0428C62.5115 89.2109 62.0098 86.4017 61.0319 83.7451C57.4131 85.1265 54.174 87.352 51.5822 90.2376C48.9905 93.1233 47.1204 96.5863 46.1266 100.341C47.5918 104.48 50.1105 108.163 53.4328 111.024C56.2653 108.743 58.5516 105.853 60.1232 102.568C61.6948 99.2835 62.5117 95.6866 62.5138 92.0428Z" fill="#FFB762"/>
<path d="M78.6059 82.6147C82.103 83.9462 85.2676 86.0286 87.8781 88.7161C90.4885 91.4037 92.4817 94.6313 93.7179 98.1729C94.8864 93.6568 94.7626 88.9018 93.3606 84.453C91.9586 80.0043 89.3353 76.042 85.7914 73.0205C82.6404 75.5714 80.1711 78.8684 78.6059 82.6147Z" fill="#FFB762"/>
<path d="M44.696 92.0396C44.7074 94.1101 44.9736 96.1713 45.4886 98.1764C46.7278 94.6336 48.7239 91.4055 51.3373 88.718C53.9507 86.0305 57.1182 83.9486 60.6179 82.6182C59.0403 78.8888 56.5727 75.6058 53.4324 73.0586C50.6913 75.3976 48.4902 78.3068 46.9816 81.5844C45.4731 84.862 44.6932 88.4295 44.696 92.0396Z" fill="#FFB762"/>
<path d="M93.082 100.341C92.0921 96.5845 90.2234 93.1196 87.6311 90.2333C85.0388 87.3471 81.7977 85.1228 78.1767 83.7451C76.4286 88.5183 76.2236 93.7225 77.5908 98.6192C78.958 103.516 81.8278 107.856 85.793 111.024C89.1157 108.167 91.6296 104.482 93.082 100.341Z" fill="#FFB762"/>
<path d="M61.7546 82.1693C64.0823 81.4 66.5079 80.9692 68.9574 80.89V67.0605C63.6831 67.193 58.5884 69.0097 54.414 72.2466C57.6287 74.9062 60.1484 78.3121 61.7546 82.1693Z" fill="#FFB762"/>
<path d="M70.2502 80.89C72.6941 80.9691 75.1139 81.4 77.4357 82.1693C79.0469 78.3103 81.5726 74.9042 84.7936 72.2466C80.6215 69.0055 75.5254 67.1882 70.2502 67.0605V80.89Z" fill="#FFB762"/>
<path d="M111.027 123.405H124.663L123.439 177.682H111.027V123.405Z" fill="#6D62E9"/>
<path d="M123.878 123.404H137.515V177.681H125.103L123.878 123.404Z" fill="#6D62E9"/>
<path d="M110.567 27.275L113.233 26.0586H118.735C118.735 26.0586 119.303 29.7357 124.237 29.7357C129.17 29.7357 129.739 26.0586 129.739 26.0586H135.24L138.074 28.4814V67.9168H110.567V27.275Z" fill="#9DD625"/>
<path d="M135.144 26.0692C135.144 26.0692 136.148 25.9164 139.467 27.3949C142.435 28.7173 143.972 31.0552 144.264 31.5344C144.3 31.593 144.331 31.6527 144.363 31.7147L148.034 38.8454L137.911 43.69L135.144 26.0692Z" fill="#9DD625"/>
<path d="M113.397 26.0575C113.397 26.0575 112.393 25.9047 109.074 27.3832C106.106 28.7055 104.568 31.0435 104.277 31.5227C104.241 31.5813 104.209 31.6409 104.177 31.7029L100.506 38.8337L110.629 43.6783L113.397 26.0575Z" fill="#9DD625"/>
<path d="M180.378 240.304H70.6795L63.5588 209.368H172.855H187.204L180.378 240.304Z" fill="#FFE486"/>
<path d="M180.918 240.918H70.1303L62.7141 208.699H188.038L180.918 240.918ZM71.2051 239.609H179.829L186.372 209.97H64.3935L71.2051 239.609Z" fill="#FFE486"/>
<path d="M171.571 212.602L166.331 211.423C169.582 197.697 173.559 188.045 178.127 182.74C181.983 178.248 185.14 178.222 186.014 178.326C186.839 178.384 187.639 178.627 188.352 179.036C189.065 179.445 189.672 180.009 190.125 180.684C193.067 184.796 192.113 195.091 187.303 211.174L182.144 209.707C188.11 189.747 186.39 183.998 185.597 183.513C184.831 183.723 177.872 185.988 171.571 212.602Z" fill="#FFE486"/>
<path d="M63.7681 211.961C57.8432 196.506 56.1369 186.421 58.703 181.994C59.1137 181.259 59.6896 180.624 60.3875 180.136C61.0855 179.649 61.8875 179.321 62.7336 179.178C64.5205 178.759 74.5835 178.209 84.7003 210.101L79.568 211.646C75.0537 197.423 70.8485 190.691 68.1077 187.587C65.6088 184.719 63.9696 184.391 63.6338 184.352C63.5397 184.352 63.486 184.444 63.4054 184.575C62.1962 186.67 62.8814 194.62 68.7795 210.114L63.7681 211.961ZM63.7681 184.299H63.6606H63.7681Z" fill="#FFE486"/>
<path d="M74.5267 241L77.4553 241.013L72.2564 208.728L69.3144 208.715L74.5267 241Z" fill="#F89358"/>
<path d="M92.0157 241L93.0098 241.013L87.7975 208.728L86.8168 208.715L92.0157 241Z" fill="#F89358"/>
<path d="M173.666 240.973H168.051L173.425 208.715H179.04L173.666 240.973Z" fill="#F89358"/>
<path d="M176.557 70.8672H203.279L211.877 109.761H169.385L176.557 70.8672Z" fill="#31E6BA"/>
<path d="M175.455 76.7812H204.575L204.873 78.1067H175.21L175.455 76.7812Z" fill="white"/>
<path d="M205.712 109.762L200.312 83.4521L202.084 109.762H205.712Z" fill="#25C8A1"/>
<path d="M176.38 109.762L181.78 83.4521L180.008 109.762H176.38Z" fill="#25C8A1"/>
<path d="M187.651 109.762L189.887 83.4521L193.611 109.762H187.651Z" fill="#25C8A1"/>
<defs>
<linearGradient id="paint0_linear_1555_40271" x1="28.2419" y1="159.051" x2="0.584995" y2="159.051" gradientUnits="userSpaceOnUse">
<stop offset="0.409852" stop-color="#F3CEB4"/>
<stop offset="1" stop-color="#F3CEB4" stop-opacity="0"/>
</linearGradient>
</defs>
</svg>
