<svg width="233" height="222" viewBox="0 0 233 222" fill="none" xmlns="http://www.w3.org/2000/svg">
<circle cx="122.817" cy="112.333" r="109.623" fill="white"/>
<path d="M148.414 57.5188L171.499 70.8472L159.528 108.736L122.818 87.5419L148.414 57.5188Z" fill="#31E6BA"/>
<path d="M144.512 62.0753L169.669 76.5995L169.265 77.8931L143.64 63.0981L144.512 62.0753Z" fill="white"/>
<path d="M154.2 105.663L162.658 80.2402L151.066 103.853L154.2 105.663Z" fill="#25C8A1"/>
<path d="M128.862 91.029L146.649 70.9932L131.995 92.8384L128.862 91.029Z" fill="#25C8A1"/>
<path d="M138.597 96.652L153.651 75.0379L143.746 99.6246L138.597 96.652Z" fill="#25C8A1"/>
<path d="M195.432 140.308H145.225L141.966 96.6074H191.988H198.556L195.432 140.308Z" fill="#FECE28"/>
<path d="M199.576 146.097H149.369L146.11 102.396H196.133H202.7L199.576 146.097Z" fill="#FFE486"/>
<path d="M56.3274 123.295L58.5296 120.456L64.502 117.323C64.502 117.323 67.2129 120.991 72.5684 118.182C77.9239 115.372 76.4468 111.057 76.4468 111.057L82.4193 107.924L86.8754 108.94L109.332 151.749L79.4714 167.414L56.3274 123.295Z" fill="#9DD625"/>
<path d="M82.3195 107.993C82.3195 107.993 83.3225 107.255 87.7673 106.97C91.7859 106.712 94.808 108.414 95.3507 108.743C95.4094 108.778 95.4664 108.817 95.5235 108.857L103.588 114.521L95.3586 125.545L82.3195 107.993Z" fill="#9DD625"/>
<path d="M58.7064 120.363C58.7064 120.363 57.5293 120.769 54.7685 124.264C52.2724 127.424 51.9547 130.878 51.9167 131.511C51.9126 131.58 51.9121 131.649 51.9126 131.719L51.9886 141.573L65.7361 141.068L58.7064 120.363Z" fill="#9DD625"/>
<path d="M66.1896 134.171C65.7285 132.394 64.4011 132.286 63.6427 131.722C60.4757 129.364 66.6103 130.165 68.883 130.488C71.1556 130.811 71.8258 132.73 70.5442 133.654C69.2626 134.579 70.1562 135.961 67.8512 137.339C65.5462 138.716 66.7661 136.393 66.1896 134.171Z" fill="#EFC046"/>
<path d="M97.5351 138.282C98.6095 140.33 101.141 141.12 103.189 140.045L99.298 132.629C97.2501 133.703 96.4608 136.234 97.5351 138.282Z" fill="#1E7836"/>
<path d="M71.9521 146.268C73.0264 148.316 73.1468 150.37 72.2209 150.855L68.3304 143.439C69.2563 142.953 70.8778 144.22 71.9521 146.268Z" fill="#1E7836"/>
<path d="M105.197 207.649H56.4911L53.3296 165.256H101.856H108.227L105.197 207.649Z" fill="#1E7836"/>
<path d="M105.436 208.491H56.2474L52.9546 164.339H108.598L105.436 208.491ZM56.7246 206.696H104.953L107.858 166.08H53.7002L56.7246 206.696Z" fill="#1E7836"/>
<path d="M97.2743 213.613H48.5688L45.4072 171.22H93.9338H100.305L97.2743 213.613Z" fill="#00C65E"/>
<path d="M97.5132 214.456H48.3245L45.0317 170.304H100.675L97.5132 214.456ZM48.8017 212.661H97.0301L99.9351 172.045H45.7774L48.8017 212.661Z" fill="#00C65E"/>
<path d="M35.7778 59.9795L51.3246 68.9554L14.2023 130.029L0.0516052 121.859L35.7778 59.9795Z" fill="#6D62E9"/>
<path d="M50.4272 68.4404L65.974 77.4164L30.2478 139.296L16.0971 131.126L50.4272 68.4404Z" fill="#3B3396"/>
<path d="M50.4478 68.4072L65.9945 77.3832L33.271 134.062L16.1176 131.093L50.4478 68.4072Z" fill="#6D62E9"/>
<path d="M53.9226 92.6285C52.0506 95.8708 51.631 99.1331 52.9852 99.915L59.7642 88.1736C58.4099 87.3917 55.7945 89.3862 53.9226 92.6285Z" fill="#3B3396"/>
<path d="M15.5483 100.852C14.3768 102.881 12.2967 103.873 10.9022 103.068L15.1445 95.72C16.539 96.5251 16.7198 98.8226 15.5483 100.852Z" fill="#3B3396"/>
<g clip-path="url(#clip0_1555_40315)">
<path d="M205.248 77.8254C218.069 72.5365 225.35 65.0458 225.35 65.0458C225.35 65.0458 209.968 41.2809 193.143 27.6694L178.47 33.7223C176.135 55.2374 181.983 82.9354 181.983 82.9354C181.983 82.9354 192.427 83.1142 205.248 77.8254Z" fill="#FFB762"/>
<path d="M185.532 5.46366L183.576 6.2707L186.426 13.1797C184.395 14.601 182.125 16.7191 181.211 19.4816L181.159 19.5031C178.564 18.188 175.454 18.2892 173.018 18.7107L170.168 11.8017L168.231 12.6006L169.576 19.5619L177.389 31.1023L192.082 25.0414L189.486 11.3489L185.532 5.46366Z" fill="#FFB762"/>
<path d="M189.486 11.349L185.545 5.49569L183.589 6.30273L186.426 13.1798" fill="#F89358"/>
<path d="M169.576 19.5619L168.231 12.6006L170.187 11.7936L173.038 18.7026" fill="#F89358"/>
<path d="M192.056 25.0543L177.363 31.1152L178.444 33.7357L193.137 27.6747L192.056 25.0543Z" fill="#F89358"/>
</g>
<defs>
<clipPath id="clip0_1555_40315">
<rect width="46.9123" height="74.4127" fill="white" transform="translate(155.188 17.9814) rotate(-22.4167)"/>
</clipPath>
</defs>
</svg>
