<svg width="73" height="67" viewBox="0 0 73 67" fill="none" xmlns="http://www.w3.org/2000/svg">
<circle cx="35.5488" cy="33.457" r="32.5" fill="#CCEFDB"/>
<path d="M0.0185547 16.0914C0.0185547 13.8361 1.84686 12.0078 4.10218 12.0078H50.5536C52.809 12.0078 54.6373 13.8361 54.6373 16.0914V49.5006H4.10219C1.84686 49.5006 0.0185547 47.6723 0.0185547 45.417V16.0914Z" fill="#F89358"/>
<path fill-rule="evenodd" clip-rule="evenodd" d="M2.6582 17.7628C2.6582 15.6199 4.39531 13.8828 6.53815 13.8828H50.6727C52.8155 13.8828 54.5526 15.6199 54.5526 17.7628V23.8076H64.6213C66.1404 23.8076 67.5197 24.6941 68.1507 26.076L72.6309 35.8877C72.8619 36.3936 72.9815 36.9432 72.9815 37.4993V45.6232C72.9815 47.766 71.2443 49.5031 69.1015 49.5031H54.5526V49.5055H6.53814C4.39531 49.5055 2.6582 47.7684 2.6582 45.6256V17.7628Z" fill="#FFB762"/>
<path d="M64.9502 27.5586H58.1461C57.7175 27.5586 57.3701 27.906 57.3701 28.3346V35.9788C57.3701 36.4073 57.7175 36.7548 58.1461 36.7548H68.7105C69.2754 36.7548 69.651 36.1704 69.4164 35.6564L66.0379 28.2577C65.8435 27.8318 65.4184 27.5586 64.9502 27.5586Z" fill="white"/>
<path d="M55.1415 54.9075C51.4272 54.9075 48.4162 51.8965 48.4162 48.1823C48.4162 44.468 51.4272 41.457 55.1415 41.457C58.8557 41.457 61.8667 44.468 61.8667 48.1823C61.8667 51.8965 58.8557 54.9075 55.1415 54.9075Z" fill="white"/>
<path d="M55.1423 51.5455C53.2851 51.5455 51.7796 50.0401 51.7796 48.1829C51.7796 46.3258 53.2851 44.8203 55.1423 44.8203C56.9994 44.8203 58.5049 46.3258 58.5049 48.1829C58.5049 50.0401 56.9994 51.5455 55.1423 51.5455Z" fill="#F89358"/>
<path d="M19.0917 54.9075C15.3774 54.9075 12.3664 51.8965 12.3664 48.1823C12.3664 44.468 15.3774 41.457 19.0917 41.457C22.8059 41.457 25.8169 44.468 25.8169 48.1823C25.8169 51.8965 22.8059 54.9075 19.0917 54.9075Z" fill="white"/>
<path d="M19.0915 51.5455C17.2344 51.5455 15.7289 50.0401 15.7289 48.1829C15.7289 46.3258 17.2344 44.8203 19.0915 44.8203C20.9486 44.8203 22.4541 46.3258 22.4541 48.1829C22.4541 50.0401 20.9486 51.5455 19.0915 51.5455Z" fill="#F89358"/>
<path d="M28.207 27.5589H31.772V35.6929H33.3044C36.743 35.6929 38.4616 34.0222 38.4602 30.6808C38.4602 27.4077 36.8646 25.7718 33.6734 25.773H33.0296V23.125L33.4899 23.125C36.2348 23.125 38.3675 23.7837 39.8878 25.1011C41.4082 26.4185 42.1677 28.2526 42.1663 30.6036C42.1663 33.1066 41.3793 35.0228 39.8052 36.3522C38.231 37.6816 35.9526 38.3504 32.9697 38.3588H28.207V27.5589Z" fill="#00C65E"/>
<path d="M31.774 23.125H28.207V26.3029H31.774V23.125Z" fill="#00C65E"/>
</svg>
