<svg width="66" height="66" viewBox="0 0 66 66" fill="none" xmlns="http://www.w3.org/2000/svg">
<circle cx="32.7744" cy="33.457" r="32.5" fill="#CCEFDB"/>
<path d="M42.6858 21.168H21.1052C20.0124 21.168 19.1265 22.0539 19.1265 23.1467V43.8744C19.1265 44.9672 20.0124 45.8531 21.1052 45.8531H42.6858C43.7786 45.8531 44.6645 44.9672 44.6645 43.8744V23.1467C44.6645 22.0539 43.7786 21.168 42.6858 21.168Z" fill="#FFB762"/>
<path d="M34.8171 20.7539H28.9736V25.0438C28.9736 25.4081 29.2689 25.7034 29.6332 25.7034H34.1575C34.5218 25.7034 34.8171 25.4081 34.8171 25.0438V20.7539Z" fill="#F89358"/>
<path d="M42.0954 26.3984H37.3656C37.0014 26.3984 36.7061 26.6937 36.7061 27.058V28.5127C36.7061 28.8769 37.0014 29.1722 37.3656 29.1722H42.0954C42.4597 29.1722 42.755 28.8769 42.755 28.5127V27.058C42.755 26.6937 42.4597 26.3984 42.0954 26.3984Z" fill="white"/>
<path d="M42.3855 41.3047H33.7764C33.5722 41.3047 33.4067 41.4702 33.4067 41.6743C33.4067 41.8784 33.5722 42.0439 33.7764 42.0439H42.3855C42.5896 42.0439 42.7551 41.8784 42.7551 41.6743C42.7551 41.4702 42.5896 41.3047 42.3855 41.3047Z" fill="#F89358"/>
<path d="M42.3861 38.0918H36.7183C36.5141 38.0918 36.3486 38.2573 36.3486 38.4614C36.3486 38.6656 36.5141 38.831 36.7183 38.831H42.3861C42.5902 38.831 42.7557 38.6656 42.7557 38.4614C42.7557 38.2573 42.5902 38.0918 42.3861 38.0918Z" fill="#F89358"/>
<path d="M42.3854 34.8711H39.1968C38.9926 34.8711 38.8271 35.0366 38.8271 35.2407C38.8271 35.4448 38.9926 35.6103 39.1968 35.6103H42.3854C42.5895 35.6103 42.755 35.4448 42.755 35.2407C42.755 35.0366 42.5895 34.8711 42.3854 34.8711Z" fill="#F89358"/>
<path d="M41.1252 7.1034C41.7486 7.57908 41.697 8.53338 41.0258 8.93897L34.6265 12.8058C33.8623 13.2676 32.893 12.6857 32.9413 11.7941L33.3962 3.39212C33.4445 2.50054 34.4709 2.02668 35.1808 2.56827L41.1252 7.1034Z" fill="#00C65E"/>
<path d="M37.5405 8.07435C36.3633 7.81177 35.1805 7.63409 33.9999 7.53822C23.1264 6.65528 12.4326 12.7116 7.91524 23.2976C2.62701 35.69 7.67695 49.8985 19.1996 56.3027" stroke="#00C65E" stroke-width="3.71929" stroke-linecap="round"/>
<path d="M24.4232 59.8126C23.7997 59.3369 23.8514 58.3826 24.5226 57.977L30.9218 54.1102C31.686 53.6484 32.6553 54.2304 32.6071 55.1219L32.1522 63.5239C32.1039 64.4155 31.0774 64.8893 30.3675 64.3477L24.4232 59.8126Z" fill="#00C65E"/>
<path d="M28.0078 58.8417C29.185 59.1042 30.3678 59.2819 31.5485 59.3778C42.4219 60.2607 53.1157 54.2044 57.6331 43.6184C62.9213 31.226 57.8714 17.0175 46.3488 10.6134" stroke="#00C65E" stroke-width="3.71929" stroke-linecap="round"/>
</svg>
