<svg width="94" height="67" viewBox="0 0 94 67" fill="none" xmlns="http://www.w3.org/2000/svg">
<circle cx="47.7744" cy="33.457" r="32.5" fill="#CCEFDB"/>
<path d="M31.832 22.3727C31.832 20.1174 33.6603 18.2891 35.9157 18.2891H73.7901C76.0454 18.2891 77.8737 20.1174 77.8737 22.3727V49.8942H35.9157C33.6603 49.8942 31.832 48.0659 31.832 45.8105V22.3727Z" fill="#F89358"/>
<path fill-rule="evenodd" clip-rule="evenodd" d="M34.0576 23.7471C34.0576 21.6043 35.7947 19.8672 37.9376 19.8672H73.9228C76.0657 19.8672 77.8028 21.6043 77.8028 23.7471V28.2344H85.8974C87.4165 28.2344 88.7959 29.1209 89.4268 30.5027L92.9858 38.2969C93.2168 38.8028 93.3363 39.3524 93.3363 39.9085V46.0148C93.3363 48.1577 91.5992 49.8948 89.4564 49.8948H77.8028V49.8959H37.9376C35.7947 49.8959 34.0576 48.1588 34.0576 46.0159V23.7471Z" fill="#FFB762"/>
<path d="M86.4468 31.3984H80.9537C80.5252 31.3984 80.1777 31.7459 80.1777 32.1744V38.3745C80.1777 38.8031 80.5252 39.1505 80.9537 39.1505H89.5477C90.1126 39.1505 90.4882 38.5661 90.2535 38.0522L87.5345 32.0975C87.3401 31.6717 86.915 31.3984 86.4468 31.3984Z" fill="white"/>
<path d="M78.2986 54.4516C75.1677 54.4516 72.6295 51.9134 72.6295 48.7824C72.6295 45.6514 75.1677 43.1133 78.2986 43.1133C81.4296 43.1133 83.9678 45.6514 83.9678 48.7824C83.9678 51.9134 81.4296 54.4516 78.2986 54.4516Z" fill="white"/>
<path d="M78.2999 51.6189C76.7343 51.6189 75.4651 50.3497 75.4651 48.7841C75.4651 47.2184 76.7343 45.9492 78.2999 45.9492C79.8656 45.9492 81.1348 47.2184 81.1348 48.7841C81.1348 50.3497 79.8656 51.6189 78.2999 51.6189Z" fill="#F89358"/>
<path d="M47.91 54.4516C44.779 54.4516 42.2408 51.9134 42.2408 48.7824C42.2408 45.6514 44.779 43.1133 47.91 43.1133C51.0409 43.1133 53.5791 45.6514 53.5791 48.7824C53.5791 51.9134 51.0409 54.4516 47.91 54.4516Z" fill="white"/>
<path d="M47.9112 51.6189C46.3456 51.6189 45.0764 50.3497 45.0764 48.7841C45.0764 47.2184 46.3456 45.9492 47.9112 45.9492C49.4769 45.9492 50.7461 47.2184 50.7461 48.7841C50.7461 50.3497 49.4769 51.6189 47.9112 51.6189Z" fill="#F89358"/>
<path d="M55.5947 31.3977H58.5998V38.2545H59.8916C62.7902 38.2545 64.239 36.8461 64.2378 34.0295C64.2378 31.2703 62.8928 29.8913 60.2027 29.8923H59.66V27.6602L60.048 27.6602C62.3619 27.6602 64.1596 28.2154 65.4412 29.3259C66.7228 30.4364 67.363 31.9826 67.3619 33.9643C67.3619 36.0743 66.6985 37.6896 65.3715 38.8102C64.0446 39.9308 62.1239 40.4947 59.6095 40.5017H55.5947V31.3977Z" fill="#00C65E"/>
<path d="M58.6018 27.6602H55.5947V30.3393H58.6018V27.6602Z" fill="#00C65E"/>
<path d="M10.7529 27.6562L21.7094 27.6563" stroke="#00C65E" stroke-width="2.44411" stroke-linecap="round"/>
<path d="M21.1304 32.2734L28.5537 32.2734" stroke="#FFB762" stroke-width="1.6294" stroke-linecap="round"/>
<path d="M1.9165 37.875L19.6069 37.8748" stroke="#00C65E" stroke-width="2.44411" stroke-linecap="round"/>
<path d="M13.8735 44.5977L23.3554 44.5977" stroke="#FFB762" stroke-width="1.6294" stroke-linecap="round"/>
<path d="M62.4474 45.7854C68.9109 45.7854 74.1506 40.5457 74.1506 34.0821C74.1506 27.6186 68.9109 22.3789 62.4474 22.3789C55.9839 22.3789 50.7441 27.6186 50.7441 34.0821C50.7441 40.5457 55.9839 45.7854 62.4474 45.7854Z" fill="#00C65E"/>
<path d="M62.4464 44.0237C67.9381 44.0237 72.3899 39.5718 72.3899 34.0802C72.3899 28.5886 67.9381 24.1367 62.4464 24.1367C56.9548 24.1367 52.5029 28.5886 52.5029 34.0802C52.5029 39.5718 56.9548 44.0237 62.4464 44.0237Z" fill="white"/>
<path d="M62.4463 44.1447C60.4558 44.1443 58.5102 43.5537 56.8553 42.4475C55.2005 41.3414 53.9108 39.7694 53.1493 37.9303C52.3879 36.0912 52.1889 34.0676 52.5774 32.1154C52.966 30.1632 53.9247 28.3701 55.3323 26.9628C56.7399 25.5554 58.5333 24.5971 60.4855 24.2089C62.4378 23.8207 64.4613 24.0201 66.3003 24.7819C68.1392 25.5438 69.711 26.8337 70.8168 28.4888C71.9226 30.1439 72.5128 32.0897 72.5128 34.0801C72.5097 36.7488 71.448 39.3072 69.5608 41.194C67.6736 43.0809 65.115 44.142 62.4463 44.1447ZM62.4463 24.2577C60.5036 24.2577 58.6045 24.8337 56.9892 25.9131C55.374 26.9924 54.115 28.5264 53.3715 30.3212C52.6281 32.1161 52.4336 34.091 52.8126 35.9964C53.1916 37.9018 54.1271 39.652 55.5008 41.0257C56.8745 42.3994 58.6247 43.3349 60.5301 43.7139C62.4354 44.0929 64.4104 43.8984 66.2052 43.1549C68 42.4115 69.5341 41.1525 70.6134 39.5372C71.6927 37.9219 72.2688 36.0228 72.2688 34.0801C72.2667 31.4753 71.2313 28.9778 69.3898 27.1355C67.5483 25.2933 65.0511 24.2569 62.4463 24.2537V24.2577Z" fill="white"/>
<path d="M62.4413 34.8963C62.8862 34.8963 63.2469 34.5356 63.2469 34.0907C63.2469 33.6458 62.8862 33.2852 62.4413 33.2852C61.9964 33.2852 61.6357 33.6458 61.6357 34.0907C61.6357 34.5356 61.9964 34.8963 62.4413 34.8963Z" fill="#00C65E"/>
<path d="M62.8373 26.2082V25.2082C62.8373 24.994 62.6637 24.8203 62.4494 24.8203C62.2352 24.8203 62.0615 24.994 62.0615 25.2082V26.2082C62.0615 26.4224 62.2352 26.5961 62.4494 26.5961C62.6637 26.5961 62.8373 26.4224 62.8373 26.2082Z" fill="#00C65E"/>
<path d="M62.8305 42.966V41.966C62.8305 41.7518 62.6568 41.5781 62.4426 41.5781C62.2284 41.5781 62.0547 41.7518 62.0547 41.966V42.966C62.0547 43.1803 62.2284 43.3539 62.4426 43.3539C62.6568 43.3539 62.8305 43.1803 62.8305 42.966Z" fill="#00C65E"/>
<path d="M54.5607 33.6969H53.5607C53.3465 33.6969 53.1729 33.8705 53.1729 34.0848C53.1729 34.299 53.3465 34.4727 53.5607 34.4727H54.5607C54.775 34.4727 54.9486 34.299 54.9486 34.0848C54.9486 33.8705 54.775 33.6969 54.5607 33.6969Z" fill="#00C65E"/>
<path d="M71.3225 33.7008H70.3225C70.1082 33.7008 69.9346 33.8744 69.9346 34.0887C69.9346 34.3029 70.1082 34.4766 70.3225 34.4766H71.3225C71.5367 34.4766 71.7104 34.3029 71.7104 34.0887C71.7104 33.8744 71.5367 33.7008 71.3225 33.7008Z" fill="#00C65E"/>
<path d="M62.9395 34.0876H61.9573L61.6895 28.2344H63.2073L62.9395 34.0876Z" fill="#00C65E"/>
<path d="M64.2369 27.9344C64.3539 28.0515 64.271 28.2517 64.1054 28.2517H60.7885C60.623 28.2517 60.54 28.0515 60.6571 27.9344L62.3156 26.276C62.3881 26.2034 62.5058 26.2034 62.5784 26.276L64.2369 27.9344Z" fill="#00C65E"/>
<path d="M62.8979 34.4654L62.6613 34.0879L67.4719 30.7434L67.9952 31.5741L62.8979 34.4654Z" fill="#00C65E"/>
<path d="M68.4257 31.8917C68.4011 31.9993 68.2587 32.0236 68.2 31.9301L67.2371 30.3993C67.1784 30.3059 67.2618 30.1881 67.3694 30.2125L68.617 30.4957C68.6838 30.5109 68.7256 30.5774 68.7104 30.6441L68.4257 31.8917Z" fill="#00C65E"/>
</svg>
