<svg width="77" height="66" viewBox="0 0 77 66" fill="none" xmlns="http://www.w3.org/2000/svg">
<circle cx="38.7744" cy="33.457" r="32.5" fill="#CCEFDB"/>
<path d="M47.9404 11.4981C48.7143 10.7268 49.8233 10.3945 50.8938 10.6131L68.168 14.1406C69.238 14.3591 70.1275 15.0988 70.5374 16.111L73.426 23.2438C73.9077 24.4332 74.0277 25.7383 73.7709 26.9957L67.3714 58.335C67.0112 60.0991 65.2891 61.2371 63.525 60.8769L36.8408 55.4279C35.0767 55.0677 33.9387 53.3456 34.2989 51.5815L40.6967 20.251C40.9532 18.9948 41.5743 17.8422 42.4825 16.9371L47.9404 11.4981Z" fill="#FFB762"/>
<path d="M1.53678 18.2159C1.61952 17.1264 2.24261 16.1508 3.19629 15.6174L18.5843 7.0122C19.5374 6.47918 20.6941 6.45881 21.6655 6.95795L28.5101 10.4752C29.6515 11.0617 30.5944 11.972 31.2208 13.0921L46.8327 41.0094C47.7115 42.5808 47.1499 44.5672 45.5785 45.4459L21.808 58.7389C20.2365 59.6176 18.2502 59.0561 17.3714 57.4847L1.76395 29.5752C1.13817 28.4562 0.856196 27.1775 0.953285 25.8991L1.53678 18.2159Z" fill="#F89358"/>
<path d="M19.7682 29.5295C19.5899 30.1473 19.2908 30.7236 18.8884 31.2252C18.4859 31.7267 17.988 32.1435 17.4235 32.4515C16.8589 32.7594 16.239 32.9524 15.5994 33.0192C14.9598 33.0861 14.3133 33.0255 13.6973 32.8409C13.0945 32.689 12.5297 32.4141 12.0383 32.0333C11.5469 31.6526 11.1396 31.1744 10.8419 30.6287C10.5442 30.083 10.3627 29.4816 10.3086 28.8623C10.2545 28.243 10.3292 27.6193 10.5278 27.0302C10.7061 26.4124 11.0051 25.836 11.4076 25.3345C11.81 24.8329 12.3079 24.4161 12.8725 24.1082C13.437 23.8003 14.057 23.6073 14.6966 23.5404C15.3361 23.4736 15.9826 23.5342 16.5986 23.7188C17.2014 23.8707 17.7663 24.1456 18.2576 24.5263C18.749 24.9071 19.1564 25.3853 19.454 25.931C19.7517 26.4767 19.9333 27.0781 19.9874 27.6974C20.0414 28.3167 19.9668 28.9404 19.7682 29.5295ZM24.4721 21.6747C24.7128 21.5555 24.9807 21.5017 25.2488 21.5188C25.517 21.5359 25.7758 21.6232 25.9995 21.772C26.2232 21.9208 26.4038 22.1258 26.5232 22.3665C26.6426 22.6071 26.6966 22.875 26.6797 23.1431L25.4874 43.2895C25.4702 43.547 25.3875 43.796 25.2473 44.0127C25.1071 44.2295 24.914 44.4069 24.6862 44.5283V44.5283C24.4469 44.6495 24.1797 44.7052 23.9119 44.6896C23.6441 44.6741 23.3852 44.5879 23.1615 44.4398C22.9378 44.2917 22.7573 44.087 22.6384 43.8465C22.5195 43.6061 22.4664 43.3384 22.4845 43.0707L23.731 22.8948C23.744 22.646 23.8185 22.4043 23.9478 22.1914C24.0772 21.9784 24.2573 21.8009 24.4721 21.6747V21.6747ZM14.5655 30.2292C15.083 30.3707 15.6352 30.3063 16.1062 30.0494C16.5771 29.7925 16.9303 29.3631 17.0915 28.8514C17.2025 28.4674 17.1974 28.0591 17.0768 27.678C16.9562 27.2969 16.7255 26.96 16.4137 26.7097C16.102 26.4595 15.7232 26.3071 15.325 26.2717C14.9268 26.2364 14.5271 26.3197 14.1761 26.5111C13.8252 26.7025 13.5388 26.9935 13.3529 27.3474C13.1671 27.7014 13.0901 28.1024 13.1318 28.4999C13.1734 28.8975 13.3318 29.2739 13.5869 29.5816C13.8421 29.8893 14.1826 30.1147 14.5655 30.2292V30.2292ZM29.3586 36.7189C29.5376 36.1002 29.8375 35.5231 30.2407 35.0209C30.644 34.5187 31.1428 34.1014 31.7082 33.793C32.2736 33.4845 32.8945 33.2912 33.5351 33.224C34.1756 33.1568 34.8232 33.2171 35.4403 33.4015C36.0401 33.5583 36.6016 33.8361 37.09 34.218C37.5785 34.5999 37.9836 35.0777 38.2805 35.622C38.5774 36.1663 38.7598 36.7656 38.8164 37.383C38.8731 38.0004 38.8028 38.6229 38.6098 39.2122C38.4307 39.8308 38.1309 40.4079 37.7276 40.9101C37.3243 41.4123 36.8256 41.8296 36.2602 42.1381C35.6948 42.4465 35.0739 42.6399 34.4333 42.7071C33.7927 42.7743 33.1452 42.7139 32.5281 42.5296C31.9282 42.3728 31.3668 42.0949 30.8784 41.713C30.3899 41.3311 29.9848 40.8533 29.6879 40.309C29.391 39.7647 29.2086 39.1654 29.1519 38.548C29.0953 37.9306 29.1656 37.3081 29.3586 36.7189V36.7189ZM34.5819 35.9796C34.0647 35.8475 33.5166 35.9161 33.048 36.1718C32.5793 36.4274 32.2249 36.851 32.056 37.3575C31.9349 37.8739 32.0238 38.4174 32.3034 38.8683C32.4176 39.1231 32.5832 39.3516 32.79 39.5394C32.9967 39.7271 33.24 39.8701 33.5047 39.9593C33.7693 40.0485 34.0495 40.082 34.3278 40.0577C34.606 40.0334 34.8761 39.9518 35.1213 39.8181C35.3665 39.6843 35.5813 39.5013 35.7524 39.2806C35.9234 39.0598 36.047 38.8061 36.1153 38.5353C36.1835 38.2645 36.1951 37.9825 36.1491 37.707C36.1032 37.4316 36.0008 37.1686 35.8483 36.9346C35.7153 36.6975 35.5354 36.4901 35.3195 36.3249C35.1036 36.1597 34.8563 36.0402 34.5927 35.9737L34.5819 35.9796Z" fill="white"/>
<circle cx="55.2742" cy="36.1506" r="9.47183" transform="rotate(-8.85648 55.2742 36.1506)" fill="white"/>
<path d="M76.4111 23.6349C75.9732 22.9205 75.2696 22.409 74.455 22.2129C73.6403 22.0168 72.7811 22.1519 72.066 22.5888V22.5888L56.816 32.0388L54.7891 26.4541C54.4715 25.7064 53.8784 25.1095 53.1327 24.7872C52.387 24.4649 51.5459 24.442 50.7837 24.7231C50.0215 25.0041 49.3967 25.5677 49.0388 26.297C48.6809 27.0263 48.6173 27.8654 48.8613 28.6402L52.125 37.4529C52.1955 37.7999 52.3294 38.1309 52.5199 38.4294C52.9072 39.0575 53.5069 39.5259 54.2101 39.7495C54.7183 39.9374 55.2677 39.9854 55.8008 39.8884C56.334 39.7915 56.8312 39.5531 57.2408 39.1983L75.37 27.9888C76.0845 27.5487 76.5954 26.8432 76.7905 26.027C76.9857 25.2109 76.8493 24.3506 76.4111 23.6349V23.6349Z" fill="#00C65E"/>
</svg>
