<svg width="606" height="336" viewBox="0 0 606 336" fill="none" xmlns="http://www.w3.org/2000/svg">
<path opacity="0.4" d="M363.871 275.484C370.987 306.104 345.802 334.608 314.539 331.316L212.208 320.541C175.247 316.649 158.119 272.632 182.727 244.781L261.764 155.331C286.372 127.481 332.164 139.059 340.577 175.259L363.871 275.484Z" fill="#FFB762"/>
<path opacity="0.8" d="M598.806 261.821C612.035 277.74 605.628 301.951 586.257 309.244L522.853 333.115C499.952 341.736 476.876 320.889 483.136 297.233L503.241 221.256C509.501 197.6 539.868 190.894 555.507 209.714L598.806 261.821Z" fill="#F89358"/>
<path opacity="0.4" d="M457.755 185.726C435.576 195.697 410.182 180.833 408.016 156.612L400.927 77.3306C398.366 48.6956 429.221 29.1266 454.033 43.6506L533.721 90.2956C558.533 104.82 556.576 141.305 530.354 153.092L457.755 185.726Z" fill="#00C65E"/>
<path opacity="0.4" d="M120.311 112.787C112.864 133.838 86.8888 141.271 69.4328 127.347L12.2972 81.7712C-8.33977 65.3092 -1.76318 32.4112 23.6164 25.1484L105.13 1.82276C130.509 -5.43984 153.494 18.9993 144.689 43.8862L120.311 112.787Z" fill="#CDC9E1"/>
</svg>
