<svg width="82" height="48" viewBox="0 0 82 48" fill="none" xmlns="http://www.w3.org/2000/svg">
<path d="M0.274414 13.9294H11.3327V39.1609H16.0862C26.7525 39.1609 32.0836 33.9785 32.0794 23.6136C32.0794 13.4606 27.1299 8.3859 17.2308 8.38962H15.2339V0.175781L16.6616 0.175781C25.1763 0.175781 31.7917 2.21902 36.5077 6.30551C41.2237 10.392 43.5797 16.0815 43.5755 23.374C43.5755 31.1383 41.1341 37.0823 36.2513 41.206C31.3685 45.3296 24.3007 47.4044 15.0479 47.4304H0.274414V13.9294Z" fill="#00C65E"/>
<path d="M11.3389 0.175781H0.274414V10.0335H11.3389V0.175781Z" fill="#00C65E"/>
<path d="M54.1534 20.3593V34.1016H50.3619V20.3593H54.1534ZM53.8249 14.9116C54.2264 15.2949 54.4272 15.8059 54.4272 16.4446C54.4272 17.0743 54.2264 17.5807 53.8249 17.9639C53.4234 18.3472 52.8759 18.5388 52.1824 18.5388C51.5436 18.5388 51.0326 18.3472 50.6494 17.9639C50.2753 17.5807 50.0882 17.0743 50.0882 16.4446C50.0882 15.8059 50.2798 15.2949 50.6631 14.9116C51.0463 14.5284 51.5528 14.3367 52.1824 14.3367C52.8759 14.3367 53.4234 14.5284 53.8249 14.9116ZM61.8732 14.4736V34.1016H58.0817V14.4736H61.8732ZM68.8812 34.9365L69.3055 33.9647L63.9811 20.3593H67.9094L71.126 29.4752L74.3562 20.3593H78.2709L72.8095 34.9365C71.5594 38.3036 69.7846 39.9872 67.4851 39.9872C67.0744 39.9872 66.6684 39.9507 66.2669 39.8777C65.8654 39.8047 65.5688 39.7317 65.3772 39.6587L65.1034 39.5629V36.2094C65.4776 36.3919 65.9429 36.4832 66.4996 36.4832C67.6402 36.4832 68.4341 35.9676 68.8812 34.9365Z" fill="#00C65E"/>
</svg>
