<svg width="72" height="67" viewBox="0 0 72 67" fill="none" xmlns="http://www.w3.org/2000/svg">
<circle cx="35.7744" cy="33.457" r="32.5" fill="#CCEFDB"/>
<rect width="44.2296" height="31.7135" rx="3" transform="matrix(0.451026 -0.892511 0.893383 0.449296 23.8101 48.3555)" fill="#00C65E"/>
<rect x="30.3735" y="51.6641" width="44.2296" height="5.33757" transform="rotate(-63.2464 30.3735 51.6641)" fill="white"/>
<circle cx="61.9141" cy="26.1977" r="3.50574" transform="rotate(-63.2464 61.9141 26.1977)" fill="#F00E0E"/>
<circle cx="59.5015" cy="30.9789" r="3.50574" transform="rotate(-63.2464 59.5015 30.9789)" fill="#FFB762"/>
<rect x="1.30938" y="25.8867" width="22.4356" height="44.0441" transform="rotate(-33.21 1.30938 25.8867)" fill="white" stroke="#00C65E"/>
<path d="M20.2789 36.6422L17.8301 33.0102L20.4288 31.2581C20.9455 30.9097 21.4969 30.7959 22.0779 30.909C22.6589 31.022 23.1274 31.3343 23.4757 31.851C23.8241 32.3676 23.9379 32.919 23.8248 33.5C23.704 34.0862 23.3866 34.547 22.8776 34.8901L20.2789 36.6422ZM23.9435 36.471C24.9614 35.7847 25.5913 34.8889 25.8279 33.7759C26.0621 32.6758 25.8555 31.6374 25.2108 30.6811C24.5661 29.7249 23.6809 29.144 22.5681 28.9409C21.4527 28.7506 20.3809 28.9909 19.363 29.6772L15.0215 32.6044L18.5361 37.8173L17.2715 38.6699L18.3373 40.2508L19.602 39.3981L20.3454 40.5008L19.0808 41.3535L20.1466 42.9343L21.4113 42.0816L22.4771 43.6625L24.2199 42.4875L23.154 40.9066L26.7013 38.515L25.6354 36.9342L22.0882 39.3258L21.3447 38.2231L23.9435 36.471Z" fill="#00C65E"/>
</svg>
