<svg width="643" height="278" viewBox="0 0 643 278" fill="none" xmlns="http://www.w3.org/2000/svg">
<path opacity="0.4" fill-rule="evenodd" clip-rule="evenodd" d="M640.848 57.4627C641.689 59.2575 644.174 68.1027 642.246 68.886C595.961 87.6906 580.118 92.8433 553.267 124.115C550.144 128.176 541.795 137.408 538.747 141.505C520.594 162.095 510.262 175.467 481.823 195.766C407.707 245.111 331.74 238.032 268.244 225.265C235.36 217.174 205.568 203.157 179.153 194.574L178.925 194.5C152.454 185.899 129.383 178.402 110.045 175.809C79.2989 171.687 56.7154 177.03 41.7734 187.792C14.7964 205.263 5.37159 264.339 2.47022 274.048C1.90647 275.935 2.70997 277.752 0.68323 277.227C-0.520536 276.915 0.119657 275.41 0.68341 273.524C3.97783 262.499 13.2894 203.605 37.799 184.31C54.4097 172.346 78.3896 164.4 111.131 168.79C131.202 171.481 154.847 179.164 180.827 187.606L181.664 187.878C208.124 196.476 236.964 209.794 269.852 218.334C332.037 230.837 403.326 236.322 474.262 187.64C500.746 169.008 519.972 143.16 535.953 121.706C539.048 117.552 542.173 113.355 545.418 109.136C565.391 83.1657 589.524 61.8812 637.539 42.3741C639.325 36.2869 640.006 55.6679 640.848 57.4627Z" fill="url(#paint0_linear_3777_50626)"/>
<path opacity="0.4" fill-rule="evenodd" clip-rule="evenodd" d="M627.499 17.2789C628.327 19.1755 630.83 28.429 628.933 29.2568C583.404 49.1281 569.433 65.7326 543.021 98.778C539.949 103.07 531.736 112.826 528.738 117.155C510.881 138.913 501.932 154.868 473.957 176.318C401.051 228.462 326.324 220.982 263.865 207.491C232.699 200.759 203.637 190.638 177.654 181.569L177.429 181.49C151.391 172.401 128.696 164.48 109.674 161.74C79.4294 157.384 57.2147 163.03 42.5166 174.402C15.98 192.864 5.2839 248.781 2.42989 259.041C1.87534 261.035 2.66573 262.955 0.672077 262.4C-0.512038 262.071 0.117703 260.48 0.672253 258.487C3.9129 246.836 14.4976 191.112 38.6071 170.723C54.9466 158.08 78.535 149.684 110.742 154.323C130.486 157.166 153.744 165.285 179.3 174.206L180.123 174.494C206.152 183.579 234.798 193.546 265.447 200.166C326.616 213.379 396.741 219.175 466.52 167.731C492.572 148.043 510.27 118.903 525.989 96.2327C529.034 91.8424 532.108 87.4077 535.3 82.9499C554.947 55.506 577.072 21.8546 624.303 1.24099C626.06 -5.19143 626.671 15.3823 627.499 17.2789Z" fill="url(#paint1_linear_3777_50626)"/>
<defs>
<linearGradient id="paint0_linear_3777_50626" x1="701.618" y1="3.69522" x2="24.1985" y2="304.486" gradientUnits="userSpaceOnUse">
<stop stop-color="#FFB762"/>
<stop offset="1" stop-color="#FFB762" stop-opacity="0"/>
</linearGradient>
<linearGradient id="paint1_linear_3777_50626" x1="690.164" y1="-26.6498" x2="-11.2311" y2="262.497" gradientUnits="userSpaceOnUse">
<stop stop-color="#00C65E"/>
<stop offset="1" stop-color="#00C65E" stop-opacity="0"/>
</linearGradient>
</defs>
</svg>
