<svg width="80" height="69" viewBox="0 0 80 69" fill="none" xmlns="http://www.w3.org/2000/svg">
<g clip-path="url(#clip0_3794_50636)">
<path d="M38.7744 65.957C56.7237 65.957 71.2744 51.4063 71.2744 33.457C71.2744 15.5078 56.7237 0.957031 38.7744 0.957031C20.8252 0.957031 6.27441 15.5078 6.27441 33.457C6.27441 51.4063 20.8252 65.957 38.7744 65.957Z" fill="#CCEFDB"/>
<g filter="url(#filter0_d_3794_50636)">
<path d="M58.2297 22.875H19.3206C18.8884 22.875 18.5381 23.2254 18.5381 23.6576V68.1557C18.5381 68.5879 18.8884 68.9383 19.3206 68.9383H58.2297C58.6619 68.9383 59.0123 68.5879 59.0123 68.1557V23.6576C59.0123 23.2254 58.6619 22.875 58.2297 22.875Z" fill="white"/>
<path d="M24.6016 41.0399V41.2797C24.6016 41.6894 24.9337 42.0215 25.3433 42.0215H52.2092C52.6189 42.0215 52.951 41.6894 52.951 41.2797V41.0399C52.951 40.6302 52.6189 40.2981 52.2092 40.2981H25.3433C24.9337 40.2981 24.6016 40.6302 24.6016 41.0399Z" fill="#FD9558"/>
<path d="M24.6016 49.3094V49.5493C24.6016 49.9589 24.9337 50.291 25.3433 50.291H52.2092C52.6189 50.291 52.951 49.9589 52.951 49.5493V49.3094C52.951 48.8997 52.6189 48.5677 52.2092 48.5677H25.3433C24.9337 48.5677 24.6016 48.8997 24.6016 49.3094Z" fill="#FD9558"/>
<path d="M24.6016 57.5828V57.8227C24.6016 58.2324 24.9337 58.5645 25.3433 58.5645H52.2092C52.6189 58.5645 52.951 58.2324 52.951 57.8227V57.5828C52.951 57.1732 52.6189 56.8411 52.2092 56.8411H25.3433C24.9337 56.8411 24.6016 57.1732 24.6016 57.5828Z" fill="#FD9558"/>
</g>
<path d="M38.9773 10.7424C37.6095 10.7184 36.0638 9.29216 34.8255 9.66875C33.5872 10.0453 33.0691 12.1126 31.9927 12.8738C30.9162 13.6349 28.7958 13.3585 27.9986 14.4122C27.2014 15.4658 28.035 17.3848 27.5939 18.6387C27.1528 19.8927 25.3115 20.8622 25.2873 22.2123C25.263 23.5624 27.0921 24.6401 27.4725 25.866C27.8529 27.0919 26.9747 29.043 27.7153 30.1086C28.4558 31.1743 30.5967 30.998 31.6569 31.7873C32.7171 32.5765 33.1056 34.6397 34.3763 35.0724C35.647 35.5051 37.2089 34.1149 38.5645 34.1389C39.9202 34.163 41.4741 35.5892 42.7286 35.2126C43.9831 34.836 44.4809 32.7688 45.5614 32.0076C46.6419 31.2464 48.7582 31.5229 49.5676 30.4732C50.3769 29.4236 49.5313 27.5006 49.9723 26.2466C50.4134 24.9927 52.2384 24.0272 52.2627 22.665C52.287 21.3029 50.4578 20.2372 50.0775 19.0113C49.6971 17.7854 50.5794 15.8384 49.8226 14.7727C49.0659 13.7071 46.9414 13.8833 45.8811 13.0941C44.8209 12.3049 44.4324 10.2376 43.1617 9.80897C41.891 9.3803 40.3411 10.7665 38.9773 10.7424Z" fill="#00C65E"/>
<path d="M38.9533 12.0435C37.7393 12.0435 36.3634 10.7535 35.2627 11.086C34.162 11.4185 33.7006 13.2574 32.7456 13.9225C31.7906 14.5875 29.9129 14.3671 29.1926 15.3006C28.4723 16.2341 29.225 17.9447 28.8365 19.0585C28.448 20.1722 26.8131 21.0416 26.7807 22.2635C26.7484 23.4854 28.3994 24.4188 28.7272 25.5125C29.055 26.6062 28.2821 28.3169 28.9538 29.2784C29.6256 30.2399 31.5154 30.0797 32.4583 30.7768C33.4012 31.4738 33.7451 33.3127 34.8863 33.6973C36.0275 34.0819 37.3831 32.844 38.5972 32.844C39.8112 32.844 41.1871 34.134 42.2878 33.8015C43.3885 33.469 43.8498 31.6421 44.8048 30.961C45.7599 30.28 47.6375 30.5203 48.3578 29.5869C49.0782 28.6534 48.3295 26.9428 48.714 25.825C49.0984 24.7073 50.7373 23.8459 50.7697 22.6441C50.8021 21.4422 49.151 20.4847 48.8273 19.395C48.5035 18.3053 49.2684 16.5906 48.5966 15.6251C47.9248 14.6596 46.0391 14.8239 45.0962 14.1308C44.1533 13.4377 43.8053 11.6108 42.6884 11.2102C41.5715 10.8096 40.1673 12.0636 38.9533 12.0435Z" fill="#CCE6D6"/>
<path d="M41.089 22.2193C41.2484 22.2989 41.4025 22.3886 41.5503 22.4877C41.7638 22.6251 41.9595 22.7879 42.133 22.9724C42.3264 23.1998 42.4808 23.4569 42.5903 23.7336C42.7341 24.0692 42.8057 24.4308 42.8007 24.7953C42.8002 25.2268 42.7013 25.6527 42.5114 26.0411C42.3215 26.4296 42.0456 26.7706 41.7041 27.0388C40.8903 27.6958 39.8595 28.0312 38.8107 27.9803C38.3158 27.9823 37.8224 27.9245 37.3417 27.808C36.9402 27.7241 36.5512 27.5895 36.1844 27.4074C35.9137 27.2554 35.6528 27.0868 35.4033 26.9026C35.2222 26.7826 35.0576 26.6399 34.9137 26.4779L34.7559 26.3056L36.1317 24.8714L36.2289 24.9916C36.3248 25.0895 36.4275 25.1805 36.5364 25.264C36.6945 25.3945 36.8637 25.5112 37.0423 25.6126C37.5132 25.8706 38.0418 26.0083 38.58 26.0132C39.069 26.0404 39.5524 25.8988 39.9478 25.6126C40.0986 25.4977 40.2199 25.3494 40.3022 25.1796C40.3844 25.0099 40.4252 24.8233 40.4213 24.635C40.4257 24.4471 40.3855 24.2608 40.304 24.091C40.2225 23.9212 40.1019 23.7728 39.9518 23.6575C39.5833 23.3764 39.1256 23.2344 38.6609 23.2569H37.5117V21.382H38.58C38.969 21.4021 39.3511 21.2746 39.6483 21.0254C39.7805 20.9085 39.8853 20.7643 39.9552 20.6031C40.0251 20.4418 40.0585 20.2674 40.053 20.0919C40.0569 19.9255 40.0224 19.7604 39.9523 19.6091C39.8822 19.4578 39.7783 19.3243 39.6483 19.2186C39.3483 18.9755 38.9671 18.8526 38.58 18.874C38.1995 18.8719 37.8239 18.9584 37.4833 19.1264C37.2117 19.2505 36.9628 19.4184 36.7468 19.6232L36.5162 19.8676L35.1363 18.5055C35.1686 18.4654 35.2131 18.4093 35.2738 18.3412C35.4056 18.1964 35.5491 18.0624 35.7028 17.9406C35.9287 17.7554 36.1727 17.593 36.4312 17.4558C37.1726 17.098 37.9859 16.9104 38.8107 16.907C39.7574 16.8608 40.6882 17.1617 41.4249 17.7523C41.7388 18.0075 41.9906 18.3295 42.1615 18.6943C42.3325 19.0592 42.4182 19.4575 42.4122 19.8596C42.4156 20.1583 42.3606 20.4549 42.2504 20.7329C42.1642 20.9698 42.0384 21.1906 41.8781 21.386C41.7435 21.5409 41.5959 21.6843 41.437 21.8146C41.3123 21.9127 41.1765 21.996 41.0323 22.063L40.8826 22.1351L41.089 22.2193Z" fill="white"/>
</g>
<defs>
<filter id="filter0_d_3794_50636" x="3.53809" y="8.875" width="72.4746" height="78.0625" filterUnits="userSpaceOnUse" color-interpolation-filters="sRGB">
<feFlood flood-opacity="0" result="BackgroundImageFix"/>
<feColorMatrix in="SourceAlpha" type="matrix" values="0 0 0 0 0 0 0 0 0 0 0 0 0 0 0 0 0 0 127 0" result="hardAlpha"/>
<feOffset dx="1" dy="2"/>
<feGaussianBlur stdDeviation="8"/>
<feColorMatrix type="matrix" values="0 0 0 0 0.211765 0 0 0 0 0.227451 0 0 0 0 0.270588 0 0 0 0.08 0"/>
<feBlend mode="normal" in2="BackgroundImageFix" result="effect1_dropShadow_3794_50636"/>
<feBlend mode="normal" in="SourceGraphic" in2="effect1_dropShadow_3794_50636" result="shape"/>
</filter>
<clipPath id="clip0_3794_50636">
<rect width="80" height="69" fill="white"/>
</clipPath>
</defs>
</svg>
