<svg width="109" height="95" viewBox="0 0 109 95" fill="none" xmlns="http://www.w3.org/2000/svg">
<path opacity="0.3" d="M64.5011 77.9689C84.4893 62.836 98.3143 42.0652 106.439 27.1861C111.631 17.6778 105.317 6.32503 94.7601 8.75733C84.6363 11.0898 75.7205 15.5314 54.5011 12.5321C53.6701 12.4147 52.8294 12.2179 52.0199 11.9967C39.7321 8.63974 27.4735 11.0289 24.9345 29.9893C23.0063 44.3891 21.1171 50.9396 20.2521 53.3985C19.9562 54.2398 19.6251 55.0642 19.3302 55.9059C18.3396 58.7329 15.7517 65.6804 12.6889 70.4408C8.76184 76.5443 -7.11462 83.6369 5.92208 90.1118C20.4657 96.1657 39.049 97.2384 64.5011 77.9689Z" fill="#FFB762"/>
<path d="M68.3084 76.6812H31.2852V18.7275C31.2921 17.982 31.6049 17.2649 32.1641 16.7124C32.4815 16.3772 32.8761 16.1075 33.3208 15.9215C33.7655 15.7355 34.2498 15.6377 34.7407 15.6348H64.8408C65.2941 15.6348 65.7428 15.7148 66.1614 15.8704C66.58 16.0259 66.9601 16.2539 67.28 16.5413C67.5999 16.8286 67.8533 17.1696 68.0256 17.5448C68.198 17.9199 68.2859 18.3219 68.2843 18.7275L68.3084 76.6812Z" fill="white"/>
<path d="M26.2015 10.5876L33.8114 8.81554L26.2015 7.02177L24.2555 0.00976562L22.44 7.02177L14.8301 8.81554L22.44 10.5876L24.2555 17.9801L26.2015 10.5876Z" fill="#F89358"/>
<path d="M80.1376 21.7487L84.6275 20.6616L80.1267 19.5745L79.0396 15.4434L77.9525 19.5745L73.4409 20.6616L77.8981 21.7487L78.9853 26.0973L80.1376 21.7487Z" fill="#00C65E"/>
<path d="M68.3092 79.4864H34.8799V21.0205C34.8861 20.2684 35.1686 19.5449 35.6735 18.9875C35.9601 18.6494 36.3163 18.3773 36.7179 18.1896C37.1194 18.002 37.5567 17.9033 38 17.9004H65.1783C65.5875 17.9004 65.9927 17.9812 66.3706 18.1381C66.7485 18.295 67.0918 18.525 67.3806 18.8149C67.6695 19.1048 67.8983 19.4488 68.0539 19.8273C68.2095 20.2058 68.2889 20.6112 68.2875 21.0205L68.3092 79.4864Z" fill="#00C65E"/>
<path d="M68.3087 79.4841H34.8794V21.0181C34.8794 19.2896 37.4559 48.0225 43.6634 56.7522C46.1604 60.1759 49.5012 62.895 53.3606 64.6447C58.0898 66.6669 63.1874 67.6849 68.3304 67.6343L68.3087 79.4841Z" fill="#08A636"/>
<path d="M58.1748 25.334V32.2699H62.7299V25.334H58.1748Z" fill="white"/>
<path d="M45.2504 25.334H40.6953V32.2699H45.2504V25.334Z" fill="white"/>
<path d="M49.4346 25.334V32.2699H53.9897V25.334H49.4346Z" fill="white"/>
<path d="M58.1743 37.7383V44.7285H62.7294V37.7383H58.1743Z" fill="white"/>
<path d="M45.2485 37.7383H40.6934V44.6742H45.2485V37.7383Z" fill="white"/>
<path d="M49.4336 37.7383V44.7285H53.9887V37.7383H49.4336Z" fill="white"/>
<path d="M58.1753 50.1992V57.1351H62.7304V50.1992H58.1753Z" fill="white"/>
<path d="M49.4346 50.1992V57.1351H53.9897V50.1992H49.4346Z" fill="white"/>
<path d="M58.1743 62.6055V69.5414H62.7294V62.6055H58.1743Z" fill="white"/>
<path d="M45.7595 60.9824H37.1582V69.929H45.7595V60.9824Z" fill="#F89358"/>
<path d="M41.3567 65.1756C41.0977 65.1756 40.8953 65.2214 40.7496 65.3132L40.8035 64.5954H42.4064V63.875H40.0588L39.9212 66.0876L40.5013 66.1416L40.5607 66.0633C40.6012 66.0148 40.674 65.9635 40.7792 65.9122C40.8818 65.8637 41.0005 65.8367 41.1354 65.8367C41.327 65.8367 41.4862 65.8987 41.6104 66.0202C41.7345 66.1443 41.7965 66.2954 41.7965 66.4735C41.7965 66.6543 41.7399 66.8 41.6211 66.9133C41.5024 67.0267 41.3405 67.0806 41.1327 67.0806C40.9708 67.0806 40.8143 67.0456 40.6578 66.9727C40.504 66.9025 40.4042 66.8459 40.3556 66.8027C40.3097 66.7595 40.2746 66.7244 40.2504 66.6948L39.7539 67.2183L39.8051 67.2803C39.8402 67.3262 39.8969 67.3775 39.9751 67.4368C40.0561 67.4962 40.1478 67.5529 40.2531 67.6122C40.3583 67.6716 40.4959 67.7229 40.6632 67.766C40.8305 67.8092 41.0059 67.8281 41.1894 67.8281C41.6265 67.8281 41.98 67.7013 42.2499 67.4449C42.5197 67.1886 42.6519 66.8648 42.6519 66.4735C42.6519 66.1011 42.5305 65.7935 42.2823 65.5453C42.0367 65.2997 41.7291 65.1756 41.3567 65.1756Z" fill="white"/>
<path d="M13.2368 62.9102L22.5913 62.9131C22.5913 62.9131 19.7848 68.7629 19.4072 70.7769C19.0296 72.7909 18.6002 78.1109 18.6002 78.1109C18.4772 79.7738 18.423 83.9677 18.2773 87.7626C18.7751 87.8708 20.8246 88.3949 20.8246 89.1815C20.8246 89.5015 20.8808 90.2323 20.8246 90.8563H14.3893L14.2666 78.2323C14.0991 76.2544 13.2368 62.9102 13.2368 62.9102Z" fill="#F1A74F"/>
<path d="M12.547 52.2851C12.4063 47.7425 13.1017 46.7872 13.9395 46.3933C14.5123 46.124 16.629 45.717 18.7159 46.6326C19.6468 47.0411 21.2958 47.9566 22.5003 50.2248C23.2349 51.6079 23.6355 53.0039 23.9609 55.671L22.7016 55.8179L20.0804 56.1729L22.7016 58.3915L22.5003 63.5877L13.2449 62.9537C12.6997 59.054 12.6572 55.8413 12.547 52.2851Z" fill="#00C65E"/>
<path d="M13.2368 62.9102L22.5913 62.9131C22.5913 62.9131 21.9887 67.7486 21.5338 70.8822C21.0789 74.0159 20.4235 78.1109 20.4235 78.1109C20.3006 79.7738 20.2464 83.9677 20.1007 87.7626C20.5984 87.8708 22.648 88.3949 22.648 89.1814C22.648 89.5015 22.7041 90.2323 22.648 90.8563H16.2127L16.09 78.2323L13.2368 62.9102Z" fill="#FFB762"/>
<path d="M11.6837 39.084C11.6127 37.7957 11.6136 37.2103 12.1707 36.536C13.6532 34.7416 17.7019 35.5371 18.8577 36.2292C19.6768 36.7197 19.9853 37.51 20.1546 38.5142C20.2901 39.3175 20.4067 41.7827 19.9779 43.0766C19.6884 43.95 18.5052 45.7411 16.088 45.9189C13.6708 46.0966 12.5622 44.3922 12.3101 43.5178C11.9843 42.1417 11.7607 40.481 11.6837 39.084Z" fill="#FBCFB1"/>
<path d="M11.6837 39.084C11.6127 37.7957 11.6136 37.2103 12.1707 36.536C13.6532 34.7416 17.7019 35.5371 18.8577 36.2292C19.6768 36.7197 20.0849 37.5606 20.2044 38.8846L11.6837 39.084Z" fill="#00C65E"/>
<path d="M19.9385 38.0833L22.1245 37.4824" stroke="#00C65E" stroke-width="1.63768" stroke-linecap="round"/>
<path d="M22.5967 64.7684L19.9795 56.3428L23.4751 55.707L24.8018 64.4138L25.3483 65.1793C25.3483 65.1793 25.6819 66.1669 25.788 66.8914C25.9014 67.6657 26.0421 68.8816 26.0421 68.8816L24.7256 69.234C23.8269 68.0178 23.0102 66.9126 22.6775 65.9462C22.6775 65.9462 22.6794 65.0147 22.5967 64.7684Z" fill="#FBCFB1"/>
<path d="M19.1055 52.1063C19.2719 52.0838 19.4249 52.2004 19.4474 52.3668L19.9293 55.9355L23.936 55.6558L19.6637 56.5433C19.5116 56.5433 19.3829 56.4308 19.3625 56.2801L18.8451 52.4481C18.8226 52.2818 18.9392 52.1287 19.1055 52.1063Z" fill="#1E7836"/>
</svg>
