<svg width="434" height="383" viewBox="0 0 434 383" fill="none" xmlns="http://www.w3.org/2000/svg">
<path opacity="0.2" d="M266.92 91.2172C307.27 98.087 328.817 142.68 309.126 178.562L244.67 296.014C221.39 338.437 159.912 336.845 138.858 293.274L71.2385 153.336C50.1847 109.765 87.1406 60.609 134.845 68.7308L266.92 91.2172Z" fill="#FFB762"/>
<rect width="11.5722" height="31.8013" rx="5.78612" transform="matrix(-0.621418 -0.78348 0.787664 -0.616105 325.69 175.453)" fill="#FFB762"/>
<rect width="11.5722" height="31.8013" rx="5.78612" transform="matrix(-0.621418 -0.78348 0.787664 -0.616105 166.481 305.389)" fill="#FFB762"/>
<rect width="11.6102" height="31.6973" rx="5.8051" transform="matrix(0.787664 -0.616105 0.621418 0.78348 183.246 146.939)" fill="#FFB762"/>
<rect width="21.2337" height="111.953" rx="6.16729" transform="matrix(0.787664 -0.616105 0.621418 0.78348 282.411 288.271)" fill="#00C65E"/>
<rect width="15.4803" height="111.953" rx="6.16729" transform="matrix(0.787664 -0.616105 0.621418 0.78348 288.262 282.449)" fill="#CCEFDB"/>
<path d="M309.357 198.24C332.368 227.252 327.317 269.355 298.016 292.274C268.715 315.193 226.314 310.206 203.303 281.195C180.293 252.183 185.344 210.079 214.645 187.161C243.946 164.242 286.347 169.229 309.357 198.24Z" fill="white" stroke="#00C65E" stroke-width="12.3346"/>
<path d="M310.886 195.629C332.74 223.183 327.944 263.171 300.114 284.94C272.284 306.708 232.013 301.97 210.159 274.417C188.306 246.864 193.102 206.875 220.932 185.107C248.762 163.339 289.032 168.076 310.886 195.629Z" fill="white" stroke="#CCEFDB" stroke-width="12.3346"/>
<rect width="11.5912" height="23.6305" rx="5.79562" transform="matrix(-0.996562 -0.116731 0.119185 -0.989461 272.437 146.088)" fill="#FFB762"/>
<rect width="11.5912" height="23.6305" rx="5.79562" transform="matrix(0.119185 -0.989461 -0.996562 -0.116731 170.657 225.699)" fill="#FFB762"/>
<rect width="11.5912" height="23.6305" rx="5.79562" transform="matrix(-0.119185 0.989461 0.996562 0.116731 342.239 230.471)" fill="#FFB762"/>
<rect width="11.5912" height="23.6305" rx="5.79562" transform="matrix(0.996562 0.116731 -0.119185 0.989461 240.59 313.008)" fill="#FFB762"/>
<path d="M241.446 241.579L231.243 227.671L240.526 219.82C242.372 218.259 244.413 217.634 246.627 217.914C248.842 218.195 250.689 219.312 252.14 221.291C253.591 223.269 254.171 225.459 253.906 227.836C253.614 230.236 252.548 232.19 250.729 233.728L241.446 241.579ZM255.17 239.781C258.807 236.706 260.927 232.903 261.51 228.343C262.087 223.836 261.024 219.711 258.338 216.049C255.652 212.388 252.165 210.312 247.927 209.829C243.684 209.399 239.722 210.692 236.085 213.767L220.576 226.883L235.22 246.844L230.702 250.664L235.143 256.718L239.661 252.897L242.758 257.119L238.241 260.94L242.681 266.993L247.199 263.173L251.64 269.226L257.866 263.961L253.425 257.908L266.097 247.191L261.656 241.138L248.984 251.854L245.887 247.632L255.17 239.781Z" fill="#00C65E"/>
<path d="M384.276 194.137C385.728 193.004 389.55 184.064 397.591 186.01C405.632 187.956 408.822 200.207 417.978 198.626C425.304 197.36 430.311 191.614 431.899 188.899" stroke="#00C65E" stroke-width="1.41735"/>
<path d="M3.7494 278.869C3.97259 275.412 -3.81487 258.868 8.9687 249.999C21.7523 241.131 42.9569 251.959 52.1769 237.114C59.5529 225.238 57.7356 211.019 55.905 205.394" stroke="#FD9558" stroke-width="2.12602"/>
<path d="M204.936 43.2997C202.847 42.8789 192.119 46.2638 187.765 37.7398C183.411 29.2158 191.759 17.1803 183.468 10.3366C176.836 4.8616 168.018 4.79835 164.438 5.4511" stroke="#FD9558" stroke-width="2.12602"/>
</svg>
