<svg width="1440" height="400" viewBox="0 0 1440 400" fill="none" xmlns="http://www.w3.org/2000/svg">
<path d="M44.8685 290.805C49.6332 289.884 69.8724 272.63 85.6365 287.971C101.401 303.313 92.8223 337.962 115.68 345.983C133.966 352.399 152.774 344.641 159.891 339.959" stroke="#00C65E" stroke-width="2"/>
<path d="M1306.45 322.019C1309.27 318.027 1312.11 292.381 1334.03 291.146C1355.95 289.912 1373.47 318.582 1395.51 307.53C1413.15 298.688 1421.45 280.245 1423.4 272.129" stroke="#FD9558" stroke-width="3"/>
<path d="M-13.3313 124.242C-10.3285 123.333 0.534331 113.174 13.0788 118.851C25.6233 124.527 24.8981 141.741 41.0692 143.255C54.0062 144.467 65.2743 138.934 69.2913 136.016" stroke="#FD9558" stroke-width="3"/>
<path d="M231.749 43.9483C229.311 43.5706 219.006 35.6042 210.867 43.1272C202.729 50.6503 206.99 67.0664 195.244 71.1898C185.848 74.4885 176.24 71.0326 172.61 68.8923" stroke="#CCEFDB" stroke-width="3"/>
<path d="M1282.73 46.473C1285.23 45.7561 1294.94 36.0692 1304.44 42.8551C1313.94 49.641 1311.66 67.359 1324.48 70.1155C1334.73 72.3208 1344.32 67.4395 1347.83 64.7233" stroke="#00C65E" stroke-width="2"/>
</svg>
