<svg width="201" height="97" viewBox="0 0 201 97" fill="none" xmlns="http://www.w3.org/2000/svg">
<path opacity="0.3" d="M54.0045 84.7076C80.6386 92.0054 107.176 94.9881 128.337 96.0591C149.427 97.1265 158.73 77.4341 148.028 59.23C143.254 51.1087 139.035 40.7378 135.729 23.6911C135.404 22.0167 135.278 20.2806 135.126 18.5818C133.834 4.20309 122.587 -6.17463 98.5584 4.99577C78.8122 14.1754 69.0938 16.447 65.7346 17.0039C64.7988 17.159 63.8603 17.2465 62.92 17.3712C58.1873 17.9987 42.6497 19.9984 33.8687 20.4022C23.4217 20.8826 -1.60583 16.563 1.25213 34.8008C5.83242 54.2793 10.443 72.7717 54.0045 84.7076Z" fill="#FFB762" fill-opacity="0.42"/>
<path d="M70.5537 58.0812C78.3723 53.3318 80.8514 46.2607 81.3791 43.7793C83.3656 42.8236 88.6886 42.5447 85.0198 49.5344C80.4337 58.2716 71.1267 65.3586 62.9638 68.7288C59.1128 70.3189 55.4596 71.3415 50.9774 70.1797C46.4951 69.018 43.785 64.8327 45.2323 62.5701C47.5688 58.9175 53.3366 64.0591 56.5356 63.0218C58.2901 62.4528 55.0158 61.1583 52.7902 57.5333C51.0097 54.6332 55.081 56.4311 57.0424 58.1689C59.0037 59.9067 60.6879 62.0069 61.8843 62.0376C63.4316 62.0774 66.0146 60.8385 70.5537 58.0812Z" fill="#F89358"/>
<path d="M174.337 58.0812C166.518 53.3318 164.039 46.2607 163.512 43.7793C161.525 42.8236 156.202 42.5447 159.871 49.5344C164.457 58.2716 173.764 65.3586 181.927 68.7288C185.778 70.3189 189.431 71.3415 193.913 70.1797C198.396 69.018 201.106 64.8327 199.658 62.5701C197.322 58.9175 191.554 64.0591 188.355 63.0218C186.601 62.4528 189.875 61.1583 192.101 57.5333C193.881 54.6332 189.81 56.4311 187.848 58.1689C185.887 59.9067 184.203 62.0069 183.006 62.0376C181.459 62.0774 178.876 60.8385 174.337 58.0812Z" fill="#F89358"/>
<path d="M122.789 88.1206C146.987 88.1206 166.604 68.5039 166.604 44.3054C166.604 20.107 146.987 0.490234 122.789 0.490234C98.5904 0.490234 78.9736 20.107 78.9736 44.3054C78.9736 68.5039 98.5904 88.1206 122.789 88.1206Z" fill="#CCEFDB"/>
<path d="M143.76 5.79241C147.13 7.63209 150.273 9.92802 153.112 12.6511C152.847 13.3883 152.397 14.1991 151.698 14.1991C151.687 14.1991 151.676 14.1989 151.665 14.1985C151.065 14.1768 150.37 13.9486 149.634 13.7073C148.518 13.3416 147.254 12.9265 145.817 13.0425C144.411 13.1553 143.206 13.7489 142.143 14.2723C141.146 14.763 140.286 15.1874 139.669 15.0332C139.083 14.8872 138.469 14.1492 137.84 13.3406C137.56 12.9812 137.387 12.7236 137.324 12.5723C137.399 12.4472 137.551 12.2496 137.632 12.1446C138.425 11.1191 139.763 9.80645 141.057 8.53701C141.991 7.62095 142.943 6.68519 143.76 5.79241ZM129.767 1.03004C129.535 2.51178 128.894 4.46487 128.314 5.18256C127.672 5.97546 126.539 6.34157 125.787 5.99914C125.028 5.65333 124.427 4.57272 124.18 3.10849C124.018 2.14866 123.699 1.28134 123.362 0.490234C125.526 0.515703 127.666 0.697363 129.767 1.03004ZM91.8765 13.3048C97.0683 8.11301 103.335 4.38688 110.174 2.33231C111 5.04786 112.006 7.5919 112.987 9.99606C113.738 11.8371 114.589 13.9235 114.397 15.8118C114.323 16.5348 114.14 17.4595 113.682 17.7589C113.284 18.0196 112.484 18.0862 111.638 18.1569C110.244 18.2732 108.509 18.4181 106.928 19.528C106.591 19.7649 106.277 20.0101 105.974 20.2466C105.323 20.7554 104.708 21.2357 104.134 21.3965C103.567 21.5557 102.836 21.4723 101.99 21.3758C101.504 21.3205 101.001 21.2634 100.469 21.2459C98.78 21.1838 94.9303 21.9952 93.2542 24.1843C92.4259 25.2661 92.1873 26.5737 92.5825 27.8664C92.8751 28.8245 93.5023 29.4928 94.0775 30.0205C96.7642 32.4837 100.452 34.2283 104.194 34.8073C104.729 34.8901 105.247 34.9534 105.748 35.0149C108.492 35.3507 109.857 35.5949 110.895 37.465C111.154 37.9308 111.362 38.4821 111.582 39.0659C111.836 39.7382 112.098 40.4334 112.481 41.1342C113.615 43.216 115.529 44.4355 117.472 44.3273C118.922 44.2437 119.994 43.4866 120.854 42.8786C121.252 42.598 121.627 42.333 121.948 42.1993C122.81 41.8392 124.127 42.1589 125.468 43.0531C126.388 43.6665 127.579 44.6813 128.024 46.0317C128.359 47.0476 128.127 48.2237 127.477 48.7735L121.629 53.7678C119.746 55.3763 117.731 57.3294 117.664 60.1618C117.642 61.0575 117.827 61.9177 117.99 62.6768C118.104 63.2078 118.295 64.0968 118.192 64.329C118.085 64.4243 117.584 64.5473 117.284 64.6207C116.757 64.7498 116.159 64.8963 115.551 65.2033C112.605 66.6908 112.33 70.215 112.148 72.5473C112.016 74.2392 111.388 75.663 110.748 75.7215C110.228 75.7714 109.493 74.8719 109.238 73.8748C109.08 73.2562 109.005 72.5666 108.926 71.8364C108.813 70.7844 108.684 69.592 108.262 68.4211C107.717 66.9123 106.77 65.6685 105.934 64.5712C105.112 63.4931 104.337 62.475 104.086 61.4159C103.899 60.6226 103.974 59.6693 104.055 58.6597C104.157 57.3744 104.273 55.9175 103.865 54.4346C103.285 52.3267 101.85 50.8205 100.583 49.4912C99.751 48.6185 98.9652 47.7941 98.4985 46.9036C97.9358 45.8299 98.0056 44.7045 98.0866 43.4015C98.1632 42.1665 98.2501 40.7665 97.7585 39.3262C97.2674 37.8878 96.1066 37.0569 95.2469 36.4413C92.7263 34.6368 90.3653 32.5818 88.2298 30.3333C87.0881 29.1313 85.9721 27.8185 85.5397 26.3654C85.4267 25.9856 85.3485 25.6986 85.287 25.4742C85.0138 24.4738 84.8528 24.1164 84.2788 23.4811C86.2771 19.7854 88.8225 16.3588 91.8765 13.3048ZM158.383 69.8041C157.248 69.6008 156.243 69.0247 155.439 68.1061C153.806 66.2399 154.312 64.565 155.428 61.5217C155.989 59.9921 156.569 58.4098 156.75 56.6511C157.027 53.9618 156.605 51.892 155.458 50.3229C154.105 48.4708 152.068 47.7189 150.271 47.0556C149.899 46.9185 149.548 46.7887 149.212 46.6531C147.671 46.0313 146.222 45.163 144.688 44.2437C143.787 43.7035 142.855 43.1452 142.342 42.4385C141.712 41.5697 142.487 38.3136 143.938 35.7385C145.028 33.8043 147.212 31.7277 149.778 32.237C150.988 32.4774 152.058 32.8741 153.192 33.2942C155.272 34.065 157.424 34.8638 160.339 34.638C160.946 34.5914 161.541 34.5839 162.115 34.5765C163.149 34.5636 164.348 34.5479 165.443 34.1911C166.207 37.4524 166.603 40.8242 166.603 44.2574C166.603 53.5555 163.72 62.4093 158.383 69.8041Z" fill="#00C65E"/>
<path d="M113.771 35.0084C115.933 35.0084 117.685 32.5725 117.685 29.5677C117.685 26.5628 115.933 24.127 113.771 24.127C111.609 24.127 109.856 26.5628 109.856 29.5677C109.856 32.5725 111.609 35.0084 113.771 35.0084Z" fill="white"/>
<path d="M131.805 35.0084C133.967 35.0084 135.72 32.5725 135.72 29.5677C135.72 26.5628 133.967 24.127 131.805 24.127C129.643 24.127 127.891 26.5628 127.891 29.5677C127.891 32.5725 129.643 35.0084 131.805 35.0084Z" fill="white"/>
<path d="M113.771 35.0106C115.124 35.0106 116.221 33.4862 116.221 31.6059C116.221 29.7255 115.124 28.2012 113.771 28.2012C112.418 28.2012 111.321 29.7255 111.321 31.6059C111.321 33.4862 112.418 35.0106 113.771 35.0106Z" fill="#363A45"/>
<path d="M131.806 35.0106C133.159 35.0106 134.256 33.4862 134.256 31.6059C134.256 29.7255 133.159 28.2012 131.806 28.2012C130.453 28.2012 129.356 29.7255 129.356 31.6059C129.356 33.4862 130.453 35.0106 131.806 35.0106Z" fill="#363A45"/>
<path fill-rule="evenodd" clip-rule="evenodd" d="M133.937 52.2324C132.979 57.2756 128.351 60.1847 122.788 60.1847C117.224 60.1847 112.596 57.2756 111.638 52.2324C111.518 52.8925 111.456 53.5724 111.456 54.267C111.456 60.5254 116.529 65.5989 122.788 65.5989C129.046 65.5989 134.119 60.5254 134.119 54.267C134.119 53.5724 134.057 52.8925 133.937 52.2324Z" fill="white"/>
</svg>
