<svg width="164" height="104" viewBox="0 0 164 104" fill="none" xmlns="http://www.w3.org/2000/svg">
<path opacity="0.3" d="M23.0586 102.909C39.3919 103.863 64.4868 97.3218 86.1886 90.2533C106.795 83.5417 107.814 62.31 92.2044 47.2768C87.2161 42.4727 81.8937 35.879 75.72 25.7953C74.8294 24.3406 74.0931 22.7725 73.4097 21.2097C67.5392 7.78547 53.916 -9.73659 43.6566 10.5258C32.7803 32.0064 36.5668 42.3289 16.4659 61.6442C4.92538 72.7338 -7.23739 98.1454 8.46582 101.24C12.3536 102.006 17.1248 102.563 23.0586 102.909Z" fill="#F89358"/>
<path d="M116.5 0.322266H94.5059C90.8653 0.322266 87.9141 3.11256 87.9141 6.55456V67.4716C87.9141 70.9136 90.8653 73.7039 94.5059 73.7039H116.5C120.14 73.7039 123.092 70.9136 123.092 67.4716V6.55456C123.092 3.11256 120.14 0.322266 116.5 0.322266Z" fill="#00C65E"/>
<path d="M123.04 6.55456C123.04 3.11256 120.089 0.322266 116.449 0.322266C115.509 13.2606 114.041 27.5719 109.591 45.3735C105.142 63.175 97.1398 73.7039 100.781 73.7039H116.449C120.089 73.7039 123.04 70.9136 123.04 67.4716V6.55456Z" fill="#08A636"/>
<path d="M123.087 24.3184H87.9092V25.9334H123.087V24.3184Z" fill="#FAFAFA"/>
<path d="M91.8613 32.123V39.1159H94.1995V32.123H91.8613Z" fill="#FAFAFA"/>
<path d="M91.8506 10.5684V17.5613H94.1888V10.5684H91.8506Z" fill="#FAFAFA"/>
<path d="M149.123 47.4284L135.642 42.2974C134.181 41.7415 132.557 42.4471 132.014 43.8736L120.416 74.3469C119.873 75.7733 120.617 77.3803 122.077 77.9362L135.558 83.0672C137.019 83.6231 138.643 82.9175 139.186 81.4911L150.784 51.0178C151.327 49.5913 150.583 47.9844 149.123 47.4284Z" fill="white"/>
<path d="M149.123 47.4282L147.382 46.7656C147.382 46.7656 136.555 72.3875 128.129 80.2393L135.558 83.067C137.019 83.6229 138.643 82.9172 139.186 81.4908L150.784 51.0175C151.327 49.5911 150.583 47.9841 149.123 47.4282Z" fill="#CCEFDB"/>
<path d="M138.13 43.2441L146.264 46.34L145.994 47.05C145.944 47.1774 145.87 47.2935 145.774 47.3916C145.678 47.4896 145.563 47.5676 145.435 47.621C145.308 47.6744 145.17 47.7022 145.031 47.7027C144.891 47.7032 144.753 47.6765 144.623 47.624L138.481 45.286C138.219 45.1866 138.007 44.9899 137.891 44.7391C137.775 44.4884 137.764 44.2042 137.862 43.949L138.13 43.2441Z" fill="#00C65E"/>
<path d="M144.47 48.0263L138.328 45.6884C137.959 45.548 137.66 45.2702 137.496 44.9162C137.332 44.5622 137.317 44.161 137.454 43.8008L137.877 42.6895L146.833 46.0981L146.41 47.2094C146.341 47.3905 146.236 47.5556 146.1 47.695C145.965 47.8345 145.802 47.9456 145.622 48.0217C145.441 48.0978 145.246 48.1374 145.048 48.1382C144.851 48.139 144.654 48.1009 144.47 48.0263ZM138.39 43.7977L138.271 44.1115C138.214 44.2603 138.22 44.4259 138.288 44.5721C138.355 44.7183 138.479 44.8329 138.631 44.8909L144.774 47.2289C144.926 47.2868 145.095 47.2833 145.242 47.2191C145.39 47.155 145.505 47.0353 145.562 46.8866L145.681 46.5728L138.39 43.7977Z" fill="#00C65E"/>
<path d="M135.364 83.5791L121.883 78.448C121.045 78.129 120.365 77.4977 119.992 76.6932C119.62 75.8887 119.586 74.9767 119.897 74.158L131.5 43.6744C131.811 42.8557 132.443 42.1973 133.256 41.844C134.07 41.4907 134.997 41.4715 135.836 41.7906L149.317 46.9216C150.155 47.2407 150.835 47.8719 151.208 48.6765C151.58 49.481 151.614 50.3929 151.303 51.2116L139.704 81.6849C139.551 82.0917 139.317 82.4635 139.016 82.779C138.715 83.0945 138.352 83.3475 137.949 83.5234C137.546 83.6994 137.11 83.7949 136.666 83.8045C136.223 83.814 135.78 83.7374 135.364 83.5791ZM135.448 42.8092C134.889 42.5965 134.271 42.6094 133.728 42.8449C133.186 43.0804 132.765 43.5194 132.557 44.0652L120.955 74.5488C120.747 75.0946 120.77 75.7025 121.018 76.2389C121.267 76.7752 121.72 77.196 122.279 77.4088L135.76 82.5398C136.319 82.7525 136.937 82.7397 137.479 82.5042C138.022 82.2687 138.443 81.8297 138.651 81.2839L150.249 50.8106C150.457 50.2648 150.434 49.6569 150.186 49.1205C149.937 48.5841 149.484 48.1633 148.925 47.9506L135.448 42.8092Z" fill="#00C65E"/>
<path d="M158.795 89.6532L163.439 88.5262L158.733 87.3871L157.603 82.9395L156.474 87.3871L151.768 88.5262L156.417 89.6532L157.603 94.3383L158.795 89.6532Z" fill="#00C65E"/>
<path d="M67.8912 16.045L66.3286 15.8379L63.4553 37.5176L65.0178 37.7247L67.8912 16.045Z" fill="#00C65E"/>
<path d="M50.9832 30.0641L51.9438 28.8145L64.0934 38.1539L63.1328 39.4036L50.9832 30.0641Z" fill="#00C65E"/>
<path d="M69.1402 17.3145L67.5776 17.1074L64.7043 38.7871L66.2668 38.9942L69.1402 17.3145Z" fill="white"/>
<path d="M52.7362 30.2165L53.6968 28.9668L65.8463 38.3063L64.8857 39.5559L52.7362 30.2165Z" fill="white"/>
<path d="M84.0348 74.4508C83.5115 74.6248 82.9698 74.5233 82.4724 74.2785C82.2214 74.1592 81.9971 73.9894 81.8133 73.7797C81.6296 73.57 81.4903 73.3248 81.4041 73.0594L80.3019 70.392C80.1756 70.1431 80.1012 69.8711 80.0833 69.5928C80.0655 69.3146 80.1045 69.036 80.1981 68.7743C80.3776 68.2498 80.7544 67.8184 81.2478 67.5723L69.792 72.3057C70.326 72.1401 70.9131 72.1917 71.4097 72.4552C71.6637 72.577 71.8903 72.75 72.0756 72.9634C72.2609 73.1768 72.4009 73.426 72.4868 73.6955L73.5802 76.3418C73.7535 76.8544 73.7586 77.4084 73.5949 77.9219C73.4316 78.4377 73.0912 78.877 72.6343 79.1615L84.0348 74.4508Z" fill="white"/>
<path d="M80.3139 30.1493L44.0632 45.1279C43.2942 45.521 42.7106 46.2008 42.4385 47.0205C42.1664 47.8402 42.2275 48.734 42.6088 49.5089L53.2992 75.3813C53.5761 76.1994 54.1637 76.8757 54.9351 77.2642C55.7064 77.6528 56.5996 77.7223 57.4218 77.458L93.6726 62.4793C94.4475 62.0899 95.0373 61.4102 95.3136 60.5881C95.5899 59.766 95.5304 58.868 95.1479 58.0896L84.4575 32.2172C84.179 31.3959 83.5873 30.7178 82.8113 30.3305C82.0353 29.9432 81.1377 29.8781 80.3139 30.1493Z" fill="white"/>
<path d="M66.5776 81.677L90.1467 71.9383C90.7944 71.6707 91.5363 71.9788 91.8038 72.6264L91.9177 72.902C92.1853 73.5496 91.8772 74.2915 91.2296 74.5591L67.6605 84.2978C67.0129 84.5654 66.271 84.2573 66.0034 83.6097L65.8895 83.3341C65.6219 82.6865 65.93 81.9446 66.5776 81.677Z" fill="#F7F7F7"/>
<path d="M92.8758 59.0732C92.6321 59.7982 92.112 60.3977 91.4286 60.7411L76.7881 66.7905C81.631 61.4558 84.0607 53.0874 79.6477 32.2294C80.3742 31.9903 81.1657 32.0477 81.8501 32.3893C82.5345 32.7308 83.0562 33.3288 83.3019 34.0531L92.7297 56.8699C93.067 57.5563 93.1195 58.3482 92.8758 59.0732Z" fill="#00C65E"/>
<path d="M146.834 69.7051H47.1953V96.1814H146.834V69.7051Z" fill="#FFB762"/>
<path d="M135.471 69.7051H132.453V96.1814H135.471V69.7051Z" fill="white"/>
<path d="M142.32 69.7051H141.074V96.1814H142.32V69.7051Z" fill="white"/>
<path d="M63.2607 69.7051H62.0151V96.1814H63.2607V69.7051Z" fill="white"/>
<path d="M56.4132 69.7051H53.3955V96.1814H56.4132V69.7051Z" fill="#F89358"/>
<path d="M47.1953 69.9459V78.6113H146.834V69.9459H47.1953Z" fill="#F89358"/>
</svg>
