<svg width="71" height="70" viewBox="0 0 71 70" fill="none" xmlns="http://www.w3.org/2000/svg">
<circle cx="35.7656" cy="35" r="35" fill="#00C65E"/>
<path d="M35.0865 36.321V34.7462H36.279C36.5117 34.7462 36.7029 34.8251 36.8566 34.9747C37.0062 35.1285 37.0852 35.3196 37.0852 35.5523C37.0852 35.7684 37.0062 35.9512 36.8566 36.1008C36.7029 36.2504 36.5117 36.321 36.279 36.321H35.0865ZM36.279 37.3391C36.9023 37.3391 37.4051 37.1645 37.7874 36.8155C38.1697 36.4665 38.3608 36.0343 38.3608 35.5107C38.3608 34.9913 38.1655 34.5509 37.7749 34.1852C37.3843 33.8196 36.8899 33.6367 36.2957 33.6367H33.8108V36.321H33.1709V37.3391H33.8108V37.8086H33.1709V38.8308H33.8108V39.5954H35.0865V38.8308H36.8732V37.8086H35.0865V37.3391H36.279Z" fill="white"/>
<path d="M31.5607 30.2891L32.5885 30.623L31.5607 30.2891C31.4884 30.5117 31.2809 30.6625 31.0468 30.6625H25.7616C23.1443 30.6625 22.0561 34.0116 24.1735 35.55L28.4493 38.6566C28.6387 38.7942 28.718 39.0381 28.6456 39.2607L27.0124 44.2873C26.2036 46.7764 29.0526 48.8463 31.17 47.308L35.4459 44.2014C35.6352 44.0638 35.8917 44.0638 36.0811 44.2014L40.3569 47.3079C42.4743 48.8463 45.3233 46.7764 44.5145 44.2873L42.8813 39.2607C42.809 39.0381 42.8882 38.7942 43.0776 38.6566L47.3534 35.55C49.4708 34.0116 48.3826 30.6625 45.7653 30.6625H40.4801C40.246 30.6625 40.0386 30.5117 39.9662 30.2891L38.333 25.2626C37.5242 22.7734 34.0027 22.7734 33.1939 25.2626L31.5607 30.2891Z" stroke="white" stroke-width="2.16143"/>
<rect width="2.13982" height="5.88038" rx="1.06991" transform="matrix(-0.01359 -0.999908 0.999977 -0.006828 51.832 35.2773)" fill="white"/>
<rect width="2.13982" height="5.88039" rx="1.06991" transform="matrix(-0.01359 -0.999908 0.999977 -0.00682799 13.8467 36.3164)" fill="white"/>
<rect width="2.14684" height="5.86116" rx="1.07342" transform="matrix(0.999977 -0.00682792 0.0135899 0.999908 34.1948 15.0156)" fill="white"/>
<rect width="2.14684" height="5.86116" rx="1.07342" transform="matrix(0.999977 -0.00682792 0.0135899 0.999908 34.1953 49.1406)" fill="white"/>
<rect width="2.14334" height="4.36953" rx="1.07167" transform="matrix(-0.71784 -0.701047 0.698653 -0.710719 47.3477 24.957)" fill="white"/>
<rect width="2.14334" height="4.36953" rx="1.07167" transform="matrix(0.698653 -0.710719 -0.717841 -0.701047 23.4575 25.125)" fill="white"/>
<rect width="2.14334" height="4.36953" rx="1.07167" transform="matrix(-0.698654 0.710718 0.717841 0.701046 48.043 45.1992)" fill="white"/>
<rect width="2.14334" height="4.36952" rx="1.07167" transform="matrix(0.717842 0.701046 -0.698654 0.710718 23.8384 45.8047)" fill="white"/>
</svg>
