<svg width="129" height="128" viewBox="0 0 129 128" fill="none" xmlns="http://www.w3.org/2000/svg">
<path opacity="0.3" d="M119.556 101.719C116.993 122.085 95.2957 133.504 77.0575 124.086L17.3602 93.2599C-4.2019 82.1257 -4.70485 51.2144 16.4945 40.0572L84.5818 4.22303C105.782 -6.93417 130.976 10.9818 127.946 35.059L119.556 101.719Z" fill="#FFB762"/>
<path d="M106.864 28.832L107.254 28.6367C107.547 28.5195 107.879 28.3047 108.27 27.9922C108.661 27.6797 109.032 27.3086 109.422 26.8594C109.813 26.4297 110.145 25.8438 110.418 25.1406C110.692 24.4375 110.848 23.6562 110.848 22.8359C110.848 20.6289 109.989 18.7734 108.27 17.2891C106.551 15.8047 104.266 15.043 101.454 15.043C100.223 15.043 99.0509 15.1992 97.9376 15.5117C96.8048 15.8242 95.9063 16.1562 95.2227 16.5078C94.5392 16.8594 93.9142 17.2891 93.3282 17.7773C92.7423 18.2852 92.3712 18.6172 92.2149 18.8125C92.0587 19.0078 91.9415 19.1445 91.8634 19.2422L95.4571 22.8359L96.0626 22.1914C96.4532 21.7812 97.0782 21.3516 97.9767 20.9023C98.8751 20.4727 99.8321 20.2383 100.848 20.2383C102.02 20.2383 102.958 20.5508 103.641 21.1367C104.305 21.7422 104.657 22.5039 104.657 23.4414C104.657 24.457 104.305 25.2773 103.622 25.9023C102.938 26.5273 102.02 26.8398 100.848 26.8398H98.0548V31.8398H101.063C102.489 31.8398 103.602 32.1914 104.422 32.8555C105.243 33.5391 105.653 34.3984 105.653 35.4336C105.653 36.4883 105.223 37.3477 104.403 38.0117C103.583 38.6953 102.391 39.0273 100.848 39.0273C100.067 39.0273 99.3243 38.9297 98.6017 38.7148C97.879 38.5195 97.2931 38.2852 96.8243 38.0117C96.3556 37.7383 95.9259 37.4453 95.5157 37.0938C95.086 36.7422 94.8321 36.5078 94.7149 36.3711C94.5977 36.2344 94.5001 36.1172 94.461 36.0391L90.8477 39.8281L91.2579 40.2773C91.5118 40.6094 91.9415 40.9805 92.5274 41.4102C93.1134 41.8398 93.797 42.25 94.5782 42.6797C95.3595 43.1094 96.3751 43.4805 97.6056 43.793C98.836 44.1055 100.125 44.2422 101.454 44.2422C104.579 44.2422 107.079 43.4219 108.993 41.7617C110.907 40.1211 111.864 38.1484 111.864 35.8438C111.864 34.8281 111.668 33.9102 111.317 33.0508C110.946 32.1914 110.536 31.5273 110.106 31.0391C109.676 30.5703 109.168 30.1406 108.602 29.7695C108.016 29.3984 107.625 29.1641 107.391 29.0664C107.157 28.9688 106.981 28.8906 106.864 28.832Z" fill="white"/>
<path d="M83.8729 82.5039L82.4758 84.9159C82.199 85.3938 82.3605 86.0083 82.8365 86.2883L92.4523 91.9451C92.9283 92.2252 93.5386 92.0648 93.8154 91.5869L95.2126 89.1748C95.4894 88.6969 95.3279 88.0824 94.8519 87.8024L85.2361 82.1456C84.76 81.8655 84.1497 82.026 83.8729 82.5039Z" fill="#FFB762"/>
<path d="M11.494 39.9296L10.0969 42.3417C9.8201 42.8196 9.9816 43.434 10.4576 43.7141L20.0734 49.3709C20.5494 49.6509 21.1597 49.4905 21.4365 49.0126L22.8337 46.6006C23.1105 46.1227 22.949 45.5082 22.4729 45.2282L12.8572 39.5714C12.3811 39.2913 11.7708 39.4517 11.494 39.9296Z" fill="#FFB762"/>
<path d="M76.3981 27.5612L73.982 26.1399C73.506 25.8598 72.8957 26.0202 72.6189 26.4981L67.0488 36.1148C66.772 36.5927 66.9335 37.2071 67.4095 37.4871L69.8256 38.9085C70.3016 39.1885 70.9119 39.0281 71.1887 38.5502L76.7588 28.9336C77.0356 28.4557 76.8741 27.8413 76.3981 27.5612Z" fill="#FFB762"/>
<path d="M41.5447 89.3457L37.7486 87.1125C37.2726 86.8325 36.6623 86.9929 36.3855 87.4708L19.5303 116.571C19.2535 117.049 19.415 117.663 19.8911 117.943L23.6871 120.176C24.1631 120.456 24.7734 120.296 25.0503 119.818L41.9054 90.7181C42.1822 90.2402 42.0207 89.6257 41.5447 89.3457Z" fill="#00C65E"/>
<path d="M75.0718 82.9321C67.3478 96.2672 50.2797 100.727 36.9467 92.883C23.6136 85.0393 19.0742 67.8686 26.7981 54.5334C34.5221 41.1983 51.5901 36.7389 64.9232 44.5825C78.2563 52.4262 82.7957 69.5969 75.0718 82.9321Z" fill="white" stroke="#00C65E" stroke-width="2"/>
<path d="M85.9967 56.1584L86.7141 58.8698C86.8558 59.4056 87.4024 59.7271 87.935 59.5881L95.4334 57.6305C95.9659 57.4915 96.2828 56.9445 96.141 56.4087L95.4236 53.6973C95.2819 53.1616 94.7353 52.84 94.2027 52.979L86.7044 54.9366C86.1718 55.0757 85.855 55.6227 85.9967 56.1584Z" fill="#FFB762"/>
<path d="M44.5573 31.775L41.8618 32.4787C41.3292 32.6178 40.7826 32.2962 40.6408 31.7605L38.6452 24.2177C38.5035 23.682 38.8203 23.135 39.3529 22.996L42.0484 22.2923C42.581 22.1532 43.1276 22.4748 43.2693 23.0105L45.2649 30.5533C45.4067 31.089 45.0898 31.636 44.5573 31.775Z" fill="#FFB762"/>
<path d="M59.93 100.713L62.6256 100.01C63.1581 99.8705 63.7047 100.192 63.8465 100.728L65.8421 108.271C65.9838 108.806 65.667 109.353 65.1344 109.492L62.4389 110.196C61.9063 110.335 61.3597 110.013 61.218 109.478L59.2224 101.935C59.0806 101.399 59.3975 100.852 59.93 100.713Z" fill="#FFB762"/>
<path d="M18.8764 76.5682L18.159 73.8567C18.0172 73.321 17.4706 72.9994 16.9381 73.1385L9.43969 75.0961C8.90713 75.2351 8.5903 75.7821 8.73203 76.3178L9.4494 79.0293C9.59114 79.565 10.1378 79.8866 10.6703 79.7475L18.1687 77.7899C18.7013 77.6509 19.0181 77.1039 18.8764 76.5682Z" fill="#FFB762"/>
<path d="M56.6822 46.7056L41.0821 47.6935C39.3919 47.8006 38.1065 49.2254 38.211 50.876L40.4442 86.1394C40.5487 87.79 42.0036 89.0414 43.6938 88.9343L59.2939 87.9464C60.9841 87.8394 62.2695 86.4145 62.165 84.7639L59.9318 49.5005C59.8273 47.8499 58.3724 46.5986 56.6822 46.7056Z" fill="white"/>
<path d="M56.6837 46.7095L54.6691 46.837C54.6691 46.837 55.4867 76.9687 50.6982 88.4947L59.2954 87.9503C60.9856 87.8433 62.271 86.4184 62.1665 84.7678L59.9333 49.5044C59.8288 47.8538 58.3739 46.6024 56.6837 46.7095Z" fill="#CCEFDB"/>
<path d="M43.9639 47.5082L53.3764 46.9121L53.4284 47.7337C53.437 47.8815 53.4154 48.0296 53.3648 48.1693C53.3143 48.309 53.2358 48.4375 53.1339 48.5475C53.0321 48.6574 52.9089 48.7465 52.7716 48.8096C52.6343 48.8726 52.4856 48.9084 52.3342 48.9148L45.226 49.365C44.9237 49.3841 44.6263 49.2852 44.3993 49.09C44.1723 48.8947 44.0342 48.6191 44.0155 48.3239L43.9639 47.5082Z" fill="#00C65E"/>
<path d="M52.3624 49.3839L45.2543 49.8341C44.8274 49.8611 44.4076 49.7214 44.0871 49.4458C43.7666 49.1701 43.5717 48.7811 43.5453 48.3642L43.4639 47.0782L53.8274 46.4219L53.9089 47.7079C53.9222 47.9174 53.8925 48.1274 53.8216 48.3257C53.7506 48.5241 53.6399 48.7067 53.4958 48.8628C53.3517 49.0189 53.1773 49.1455 52.9826 49.235C52.788 49.3244 52.5771 49.3751 52.3624 49.3839ZM44.4672 47.9412L44.4902 48.3044C44.5011 48.4765 44.5816 48.6371 44.7139 48.7509C44.8462 48.8647 45.0196 48.9224 45.1958 48.9112L52.304 48.4611C52.4802 48.4499 52.6449 48.3709 52.7618 48.2413C52.8787 48.1117 52.9383 47.9422 52.9274 47.7701L52.9044 47.4069L44.4672 47.9412Z" fill="#00C65E"/>
<path d="M59.3315 88.5404L43.7313 89.5284C42.7612 89.5898 41.807 89.2724 41.0786 88.6459C40.3502 88.0194 39.9073 87.1352 39.8473 86.1878L37.6134 50.9125C37.5534 49.9651 37.8813 49.0321 38.5248 48.3188C39.1683 47.6054 40.0748 47.1701 41.0449 47.1087L56.6451 46.1208C57.6152 46.0593 58.5694 46.3768 59.2978 47.0033C60.0261 47.6297 60.469 48.5139 60.529 49.4613L62.7622 84.7247C62.7936 85.1947 62.7297 85.6664 62.5741 86.1128C62.4185 86.5592 62.1744 86.9714 61.8557 87.3259C61.5369 87.6804 61.1499 87.9701 60.7167 88.1786C60.2836 88.387 59.8128 88.5099 59.3315 88.5404ZM41.1196 48.2875C40.4729 48.3285 39.8685 48.6187 39.4395 49.0942C39.0105 49.5698 38.7919 50.1918 38.8319 50.8234L41.0658 86.0987C41.1058 86.7303 41.4011 87.3198 41.8867 87.7374C42.3723 88.1551 43.0084 88.3667 43.6551 88.3257L59.2553 87.3378C59.902 87.2968 60.5064 87.0067 60.9354 86.5311C61.3644 86.0555 61.583 85.4335 61.543 84.8019L59.3098 49.5385C59.2698 48.9069 58.9745 48.3175 58.4889 47.8998C58.0034 47.4822 57.3672 47.2705 56.7205 47.3115L41.1196 48.2875Z" fill="#00C65E"/>
<path d="M58.61 78.7668L43.2197 79.7415C42.6685 79.7764 42.25 80.2515 42.2849 80.8027L42.5471 84.9428C42.582 85.4939 43.0571 85.9125 43.6083 85.8776L58.9985 84.9029C59.5497 84.868 59.9682 84.3929 59.9333 83.8417L59.6712 79.7016C59.6362 79.1505 59.1611 78.7319 58.61 78.7668Z" fill="#FFB762"/>
<path d="M58.1002 70.7122L42.7099 71.6868C42.1587 71.7217 41.7402 72.1968 41.7751 72.748L41.9552 75.5909C41.9901 76.1421 42.4652 76.5606 43.0164 76.5257L58.4066 75.5511C58.9578 75.5161 59.3763 75.041 59.3414 74.4899L59.1614 71.647C59.1265 71.0958 58.6514 70.6773 58.1002 70.7122Z" fill="#FFB762"/>
<path d="M57.4954 52.9331L41.0627 53.9737C40.7994 53.9904 40.5995 54.2174 40.6161 54.4807C40.6328 54.744 40.8598 54.944 41.1231 54.9273L57.5558 53.8866C57.8191 53.87 58.0191 53.643 58.0024 53.3797C57.9857 53.1163 57.7587 52.9164 57.4954 52.9331Z" fill="#FFB762"/>
<path d="M57.7806 57.3706L41.3479 58.4112C41.0846 58.4279 40.8846 58.6549 40.9013 58.9182C40.918 59.1815 41.1449 59.3815 41.4083 59.3648L57.841 58.3241C58.1043 58.3075 58.3042 58.0805 58.2876 57.8172C58.2709 57.5538 58.0439 57.3539 57.7806 57.3706Z" fill="#FFB762"/>
<path d="M51.5125 62.2189L41.6282 62.8448C41.3648 62.8615 41.1649 63.0885 41.1816 63.3518C41.1982 63.6151 41.4252 63.8151 41.6885 63.7984L51.5729 63.1724C51.8362 63.1558 52.0361 62.9288 52.0195 62.6654C52.0028 62.4021 51.7758 62.2022 51.5125 62.2189Z" fill="#FFB762"/>
<path d="M49.66 66.7914L41.9084 67.2823C41.6451 67.299 41.4452 67.526 41.4618 67.7893C41.4785 68.0526 41.7055 68.2526 41.9688 68.2359L49.7204 67.745C49.9837 67.7283 50.1837 67.5013 50.167 67.238C50.1503 66.9747 49.9233 66.7747 49.66 66.7914Z" fill="#FFB762"/>
</svg>
