<svg width="130" height="128" viewBox="0 0 130 128" fill="none" xmlns="http://www.w3.org/2000/svg">
<path opacity="0.2" d="M120.647 101.389C118.084 121.755 96.3866 133.174 78.1483 123.756L18.451 92.9298C-3.11108 81.7956 -3.61403 50.8844 17.5854 39.7272L85.6726 3.89294C106.872 -7.26426 132.067 10.6518 129.037 34.7289L120.647 101.389Z" fill="#00C65E"/>
<path d="M107.554 33.7988V15.9863H100.562L88.3555 32.998V38.9941H101.558V43.9941H107.554V38.9941H110.757V33.7988H107.554ZM101.558 33.7988H93.9609L101.558 22.998V33.7988Z" fill="white"/>
<path d="M4.27191 79.9155L4.09766 97.084L38.0182 97.4283L38.1925 80.2597L4.27191 79.9155Z" fill="#0FC645" stroke="white"/>
<path d="M13.1492 92.5546L10.5756 92.5807L10.5569 90.7393C10.5531 90.3732 10.6757 90.0659 10.9191 89.8175C11.1625 89.5691 11.4672 89.4403 11.8333 89.4366C12.1994 89.4329 12.5067 89.5555 12.7551 89.7989C13.0035 90.0477 13.1269 90.3525 13.1305 90.7131L13.1492 92.5546ZM14.2507 90.7018C14.2434 89.9805 14.0078 89.3817 13.5384 88.9056C13.0746 88.4349 12.4984 88.2003 11.8208 88.2072C11.1433 88.214 10.572 88.4603 10.1123 88.9404C9.65819 89.4259 9.42939 90.0294 9.43669 90.7507L9.46789 93.827L13.1618 93.7895L13.1709 94.6856L14.291 94.6743L14.2819 93.7781L15.0633 93.7702L15.0724 94.6663L16.1926 94.6549L16.1835 93.7588L17.3037 93.7474L17.2911 92.5125L16.171 92.5239L16.1454 90.0103L15.0253 90.0217L15.0508 92.5353L14.2694 92.5432L14.2507 90.7018Z" fill="white"/>
<path d="M9.53009 67.668L0.794922 82.4492L29.9988 99.7076L38.734 84.9264L9.53009 67.668Z" fill="#0FC645" stroke="white"/>
<path d="M11.5213 83.5484L9.28795 82.2692L10.2032 80.6712C10.3852 80.3535 10.6463 80.1504 10.9819 80.0593C11.3175 79.9681 11.6455 80.0111 11.9632 80.1931C12.2809 80.3751 12.484 80.6362 12.5752 80.9718C12.6636 81.3122 12.6159 81.6374 12.4366 81.9504L11.5213 83.5484ZM13.4087 82.5072C13.7672 81.8813 13.8668 81.2456 13.7027 80.5975C13.5407 79.9568 13.1623 79.463 12.5743 79.1262C11.9864 78.7894 11.369 78.7129 10.7296 78.8946C10.0923 79.0837 9.58975 79.4885 9.23115 80.1144L7.70215 82.784L10.9075 84.62L10.4621 85.3977L11.4342 85.9545L11.8796 85.1768L12.5577 85.5652L12.1122 86.3428L13.0843 86.8996L13.5297 86.122L14.5018 86.6787L15.1156 85.6071L14.1435 85.0503L15.3929 82.8691L14.4208 82.3123L13.1715 84.4935L12.4934 84.1052L13.4087 82.5072Z" fill="white"/>
<path d="M19.6672 60.7358L5.35938 70.2266L24.1106 98.4952L38.4185 89.0044L19.6672 60.7358Z" fill="#0FC645" stroke="white"/>
<path d="M18.1785 75.3194L16.7984 73.1469L18.3528 72.1595C18.6618 71.9631 18.9875 71.9051 19.3269 71.9808C19.6664 72.0565 19.9365 72.2474 20.1329 72.5565C20.3292 72.8655 20.3872 73.1912 20.3115 73.5306C20.2312 73.873 20.0373 74.1385 19.7329 74.3319L18.1785 75.3194ZM20.3336 75.2775C20.9424 74.8907 21.3268 74.3747 21.4836 73.7247C21.6387 73.0824 21.534 72.4691 21.1707 71.8972C20.8073 71.3252 20.2967 70.9698 19.6464 70.8327C18.9943 70.7031 18.3609 70.8271 17.7521 71.2139L15.1553 72.8636L17.1361 75.9816L16.3796 76.4622L16.9803 77.4077L17.7368 76.9272L18.1558 77.5868L17.3993 78.0673L18 79.0129L18.7565 78.5323L19.3572 79.4779L20.3996 78.8157L19.7989 77.8701L21.9206 76.5222L21.32 75.5767L19.1982 76.9246L18.7792 76.265L20.3336 75.2775Z" fill="white"/>
<path d="M84.761 59.2463L59.8427 84.7263C58.6842 85.9108 58.7054 87.8102 59.8899 88.9686L76.9457 105.648C78.1302 106.807 80.0296 106.786 81.1881 105.601L106.106 80.1212C107.265 78.9366 107.244 77.0372 106.059 75.8788L89.0034 59.199C87.8188 58.0406 85.9194 58.0617 84.761 59.2463Z" fill="#00C65E"/>
<path d="M91.8068 61.9393L62.6934 91.709L66.2859 95.2224L95.3993 65.4527L91.8068 61.9393Z" fill="white"/>
<path d="M100.609 80.1423C101.883 78.8391 101.86 76.7495 100.557 75.4751C99.2537 74.2006 97.1641 74.2239 95.8896 75.5271C94.6152 76.8303 94.6385 78.9199 95.9416 80.1943C97.2448 81.4688 99.3344 81.4455 100.609 80.1423Z" fill="#F00E0E"/>
<path d="M97.0786 83.7517C98.353 82.4485 98.3297 80.3589 97.0266 79.0845C95.7234 77.81 93.6338 77.8333 92.3594 79.1365C91.0849 80.4397 91.1082 82.5292 92.4114 83.8037C93.7145 85.0781 95.8041 85.0549 97.0786 83.7517Z" fill="#FFB762"/>
<path d="M77.1577 46.832H26.7061C26.1538 46.832 25.7061 47.2797 25.7061 47.832V105.527C25.7061 106.079 26.1538 106.527 26.7061 106.527H77.1577C77.7099 106.527 78.1577 106.079 78.1577 105.527V47.832C78.1577 47.2797 77.7099 46.832 77.1577 46.832Z" fill="white"/>
<path d="M31.8975 57.1477V57.5039C31.8975 58.0562 32.3452 58.5039 32.8975 58.5039H69.6571C70.2093 58.5039 70.6571 58.0562 70.6571 57.5039V57.1477C70.6571 56.5954 70.2093 56.1477 69.6571 56.1477H32.8975C32.3452 56.1477 31.8975 56.5954 31.8975 57.1477Z" fill="#FD9558"/>
<path d="M31.8975 66.7063V67.0625C31.8975 67.6148 32.3452 68.0625 32.8975 68.0625H64.6353C65.1875 68.0625 65.6353 67.6148 65.6353 67.0625V66.7063C65.6353 66.154 65.1875 65.7063 64.6353 65.7063H32.8975C32.3452 65.7063 31.8975 66.154 31.8975 66.7063Z" fill="#FD9558"/>
<path d="M31.8975 76.2688V76.625C31.8975 77.1773 32.3452 77.625 32.8975 77.625H59.2253C59.7775 77.625 60.2253 77.1773 60.2253 76.625V76.2688C60.2253 75.7165 59.7775 75.2688 59.2253 75.2688H32.8975C32.3452 75.2688 31.8975 75.7165 31.8975 76.2688Z" fill="#FD9558"/>
<path d="M31.8975 85.8274V86.1836C31.8975 86.7359 32.3452 87.1836 32.8975 87.1836H52.6479C53.2001 87.1836 53.6479 86.7359 53.6479 86.1836V85.8274C53.6479 85.2751 53.2001 84.8274 52.6479 84.8274H32.8975C32.3452 84.8274 31.8975 85.2751 31.8975 85.8274Z" fill="#FD9558"/>
<path d="M36.8957 95.9006C38.0838 94.2647 40.4088 91.5997 40.2041 94.0267C39.9482 97.0605 37.3531 100.46 39.3999 99.327C41.4468 98.194 44.371 93.186 44.371 95.1598C44.371 97.1336 46.3447 100.716 51.133 96.5853M33.4424 93.2955C33.7103 92.0653 34.5166 90.0143 35.5986 91.6513C36.2243 92.598 36.717 94.2099 36.8957 95.9006L33.4424 93.2955ZM36.8957 95.9006C37.1032 97.8641 36.8872 99.934 35.9641 101.191C34.2462 103.53 33.3679 98.944 36.8957 95.9006Z" stroke="#0FC645"/>
</svg>
