<svg width="141" height="127" viewBox="0 0 141 127" fill="none" xmlns="http://www.w3.org/2000/svg">
<path opacity="0.2" d="M131.469 101.153C128.906 121.518 107.21 132.937 88.971 123.519L29.2742 92.6935C7.71214 81.5593 7.20924 50.648 28.4085 39.4908L96.496 3.65662C117.695 -7.50058 142.89 10.4154 139.859 34.4926L131.469 101.153Z" fill="#00C65E"/>
<path d="M68.1852 31.8398H11.1922C8.13322 31.8398 5.65332 34.3222 5.65332 37.3844V75.845C5.65332 78.9072 8.13322 81.3895 11.1922 81.3895H68.1852C71.2442 81.3895 73.7241 78.9072 73.7241 75.845V37.3844C73.7241 34.3222 71.2442 31.8398 68.1852 31.8398Z" fill="white"/>
<path d="M68.1935 82.1906H11.1925C9.51317 82.1906 7.90247 81.5233 6.71437 80.3354C5.52617 79.1475 4.85757 77.536 4.85547 75.855V37.3865C4.86797 35.708 5.53967 34.1017 6.72537 32.9148C7.91107 31.7279 9.51567 31.0555 11.1925 31.043H68.1935C69.8703 31.0555 71.4748 31.7279 72.6605 32.9148C73.8462 34.1017 74.5179 35.708 74.5305 37.3865V75.855C74.5283 77.536 73.8598 79.1475 72.6716 80.3354C71.4834 81.5233 69.8727 82.1906 68.1935 82.1906ZM11.1925 32.6568C9.93897 32.6693 8.74037 33.1733 7.85397 34.0606C6.96757 34.9479 6.46417 36.1477 6.45167 37.4025V75.855C6.46617 77.1084 6.97057 78.3062 7.85677 79.1918C8.74297 80.0773 9.94037 80.5802 11.1925 80.5927H68.1935C69.4456 80.5802 70.643 80.0773 71.5291 79.1918C72.4153 78.3062 72.9197 77.1084 72.9342 75.855V37.3865C72.9218 36.1317 72.4183 34.9319 71.5319 34.0446C70.6455 33.1573 69.4469 32.6533 68.1935 32.6408L11.1925 32.6568Z" fill="#00C65E"/>
<path d="M0.531271 81.2891H78.0915C78.1719 81.2891 78.2491 81.321 78.306 81.378C78.3628 81.4349 78.3948 81.5121 78.3948 81.5927V84.1333C78.3948 84.5909 78.2132 85.0299 77.8899 85.3535C77.5666 85.6771 77.1281 85.8589 76.6709 85.8589H1.95187C1.49467 85.8589 1.05617 85.6771 0.732872 85.3535C0.409572 85.0299 0.227972 84.5909 0.227972 84.1333V81.6086C0.225772 81.5674 0.231971 81.5262 0.246271 81.4875C0.260571 81.4488 0.28257 81.4135 0.31097 81.3836C0.33927 81.3537 0.373471 81.3298 0.411371 81.3136C0.449271 81.2974 0.489971 81.289 0.531271 81.2891Z" fill="#1E7836"/>
<path d="M10.7021 41.0823H13.1004V46.5576H14.1314C16.4447 46.5576 17.6009 45.433 17.6 43.1838C17.6 40.9805 16.5265 39.8793 14.3796 39.8801H13.9465V38.0977H14.2562C16.1028 38.0977 17.5376 38.541 18.5604 39.4278C19.5832 40.3146 20.0941 41.5493 20.0932 43.1318C20.0932 44.8167 19.5637 46.1065 18.5048 47.0014C17.4458 47.8962 15.9129 48.3465 13.9062 48.3521H10.7021V41.0823Z" fill="#00C65E"/>
<path d="M13.1018 38.0977H10.7021V40.2368H13.1018V38.0977Z" fill="#00C65E"/>
<path d="M22.2301 41.9096H21.5136V44.5064H22.2301V41.9096ZM22.2818 41.1698C22.2818 41.0509 22.243 40.9526 22.168 40.8802C22.0904 40.8077 21.9869 40.7715 21.8576 40.7715C21.7386 40.7715 21.6429 40.8077 21.5705 40.8802C21.4981 40.9526 21.4619 41.0509 21.4619 41.1698C21.4619 41.2888 21.4955 41.3845 21.5679 41.4569C21.6403 41.5294 21.736 41.5656 21.8576 41.5656C21.9869 41.5656 22.0904 41.5294 22.168 41.4569C22.243 41.3845 22.2818 41.2888 22.2818 41.1698ZM23.6888 40.7974H22.9724V44.5064H23.6888V40.7974ZM25.0131 44.6642C24.9278 44.8608 24.7777 44.9565 24.5631 44.9565C24.457 44.9565 24.3691 44.9409 24.2992 44.9047V45.5384L24.351 45.5565C24.3872 45.572 24.4415 45.585 24.5191 45.5979C24.5941 45.6134 24.6717 45.6186 24.7493 45.6186C25.1838 45.6186 25.5175 45.3005 25.7554 44.6642L26.7875 41.9096H26.0477L25.4373 43.6322L24.8295 41.9096H24.0872L25.0933 44.4805L25.0131 44.6642ZM26.7564 44.1624C26.7564 44.2685 26.7978 44.3616 26.8806 44.4392C26.9633 44.5193 27.0616 44.5581 27.1806 44.5581C27.297 44.5581 27.3979 44.5193 27.4806 44.4392C27.5634 44.3616 27.6048 44.2685 27.6048 44.1624C27.6048 44.0564 27.5634 43.9632 27.4806 43.8831C27.3979 43.8055 27.297 43.7641 27.1806 43.7641C27.0616 43.7641 26.9633 43.8055 26.8806 43.8831C26.7978 43.9632 26.7564 44.0564 26.7564 44.1624ZM29.7231 41.8837H29.6171C29.4748 41.8837 29.3403 41.9173 29.211 41.9794C29.0817 42.0441 28.9989 42.0958 28.9601 42.1346C28.9239 42.1734 28.8929 42.2044 28.8722 42.2277V41.9096H28.1583V44.5064H28.8722V43.2623C28.8722 43.0399 28.9291 42.8692 29.0377 42.7502C29.1463 42.6312 29.2963 42.5717 29.4826 42.5717C29.5886 42.5743 29.6688 42.5846 29.7205 42.6028L29.7231 41.8837ZM31.8699 44.5064H32.5838V41.9096H31.8699V43.2882C31.8699 43.4847 31.8208 43.6348 31.7251 43.7382C31.6294 43.8443 31.5 43.896 31.3397 43.896C31.1948 43.896 31.0733 43.8494 30.9776 43.7537C30.8819 43.6606 30.8353 43.5391 30.8353 43.3942V41.9096H30.1214V43.4641C30.1214 43.7951 30.2146 44.0615 30.4008 44.2607C30.587 44.4599 30.8301 44.5581 31.1276 44.5581C31.2673 44.5581 31.4018 44.5297 31.5311 44.4728C31.6604 44.4159 31.7432 44.3693 31.782 44.3331C31.8182 44.2969 31.8492 44.2685 31.8699 44.2426V44.5064Z" fill="#00C65E"/>
<path d="M65.7516 40.5352H38.8195C38.3966 40.5352 38.0537 40.878 38.0537 41.301V71.9395C38.0537 72.3625 38.3966 72.7054 38.8195 72.7054H65.7516C66.1745 72.7054 66.5174 72.3625 66.5174 71.9395V41.301C66.5174 40.878 66.1745 40.5352 65.7516 40.5352Z" fill="#FFB762"/>
<path d="M41.7676 46.7324V47.5857C41.7676 48.0087 42.1104 48.3516 42.5334 48.3516H62.0353C62.4582 48.3516 62.8011 48.0087 62.8011 47.5857V46.7324C62.8011 46.3094 62.4582 45.9666 62.0353 45.9666H42.5334C42.1104 45.9666 41.7676 46.3094 41.7676 46.7324Z" fill="white"/>
<path d="M41.7686 55.4316V56.285C41.7686 56.7079 42.1114 57.0508 42.5344 57.0508H57.7039C58.1269 57.0508 58.4698 56.7079 58.4698 56.285V55.4316C58.4698 55.0086 58.1269 54.6658 57.7039 54.6658H42.5344C42.1114 54.6658 41.7686 55.0086 41.7686 55.4316Z" fill="white"/>
<path d="M41.7676 64.1191V64.9725C41.7676 65.3954 42.1105 65.7383 42.5334 65.7383H55.261C55.6839 65.7383 56.0268 65.3954 56.0268 64.9725V64.1191C56.0268 63.6961 55.6839 63.3533 55.261 63.3533H42.5334C42.1105 63.3533 41.7676 63.6961 41.7676 64.1191Z" fill="white"/>
<path d="M60.9327 66.6301L54.2296 64.1497C54.1818 64.1319 54.1298 64.1281 54.0799 64.1387C54.03 64.1494 53.9842 64.174 53.948 64.2097C53.9118 64.2454 53.8866 64.2907 53.8755 64.3402C53.8644 64.3896 53.8678 64.4413 53.8853 64.4889L56.3964 71.1563C56.4159 71.2079 56.4511 71.2522 56.4971 71.283C56.5432 71.3139 56.5978 71.3296 56.6533 71.3282C56.7088 71.3267 56.7625 71.3081 56.8068 71.2749C56.8512 71.2417 56.884 71.1956 56.9007 71.143L57.6185 68.8243L60.0522 71.1828C60.1022 71.2321 60.1698 71.2598 60.2403 71.2598C60.3108 71.2598 60.3784 71.2321 60.4284 71.1828L61.0555 70.56C61.1052 70.5104 61.1331 70.4432 61.1331 70.3732C61.1331 70.3032 61.1052 70.236 61.0555 70.1864L58.6299 67.8385L60.9327 67.1309C60.9852 67.1129 61.0307 67.0791 61.0628 67.0342C61.095 66.9893 61.1123 66.9356 61.1123 66.8805C61.1123 66.8254 61.095 66.7717 61.0628 66.7268C61.0307 66.6819 60.9852 66.6481 60.9327 66.6301Z" fill="#00C65E"/>
<path d="M94.7048 100.872C90.2868 105.224 85.1968 109.377 83.2948 107.326C80.5755 104.394 78.9193 101.847 72.5725 106.889C66.2285 111.928 70.8808 115.416 73.5165 118.255C76.5586 121.536 88.3538 118.639 100.28 106.884C112.204 95.1261 115.53 83.1064 112.485 79.826C109.85 76.9811 106.695 72.0358 101.529 78.3447C96.3598 84.6536 98.7498 86.4736 101.475 89.409C103.368 91.4592 99.1188 96.5169 94.7048 100.872Z" fill="#FFB762"/>
<path d="M91.5252 99.7108C87.1042 104.067 82.0095 108.224 80.1098 106.176C77.3926 103.246 75.7385 100.701 69.3873 105.748C63.0389 110.793 67.6885 114.276 70.3219 117.113C73.3614 120.39 85.1592 117.483 97.0952 105.718C109.029 93.95 112.365 81.928 109.323 78.6504C106.69 75.808 103.54 70.8658 98.3682 77.1789C93.1932 83.492 95.5822 85.3098 98.3042 88.2427C100.196 90.2911 95.9432 95.3524 91.5252 99.7108Z" fill="#F89358"/>
<path d="M106.381 15.75L106.205 16.082C106.088 16.3164 105.893 16.6094 105.619 16.9414C105.346 17.2734 104.994 17.6055 104.604 17.957C104.213 18.3086 103.646 18.6406 102.943 18.9531C102.221 19.2656 101.439 19.4609 100.58 19.5586V23.3672H105.365V43.7578H111.381V15.75H106.381Z" fill="white"/>
</svg>
