<svg width="130" height="128" viewBox="0 0 130 128" fill="none" xmlns="http://www.w3.org/2000/svg">
<path opacity="0.2" d="M120.512 102.014C117.949 122.38 96.2518 133.799 78.0135 124.381L18.3162 93.5548C-3.24585 82.4206 -3.7488 51.5094 17.4506 40.3522L85.5378 4.51794C106.737 -6.63926 131.932 11.2768 128.902 35.3539L120.512 102.014Z" fill="#F89358"/>
<path d="M112.202 47.0332V41.4277H100.21C100.757 40.5684 101.577 39.6895 102.671 38.8301C103.745 37.9707 104.8 37.1895 105.835 36.5059C106.87 35.8223 107.886 35.0801 108.882 34.2598C109.859 33.4395 110.659 32.4629 111.284 31.291C111.89 30.1387 112.202 28.8496 112.202 27.4238C112.202 24.9043 111.265 22.7754 109.429 21.0371C107.593 19.3184 105.249 18.4395 102.398 18.4395C100.933 18.4395 99.5848 18.6934 98.3738 19.1621C97.1628 19.6309 96.2258 20.1582 95.5618 20.7246C94.8975 21.3105 94.3116 21.9746 93.8038 22.7363C93.2959 23.498 92.9834 24.0254 92.8663 24.3184C92.7491 24.6309 92.6514 24.8652 92.6123 25.041L97.6128 27.4238L97.9248 26.584C98.1588 26.0371 98.6278 25.4707 99.3698 24.8848C100.113 24.3184 100.991 24.0254 102.007 24.0254C103.277 24.0254 104.253 24.3574 104.956 25.002C105.659 25.6465 106.011 26.5254 106.011 27.6387C106.011 28.5957 105.659 29.4941 104.995 30.3145C104.331 31.1348 103.491 31.8574 102.515 32.4824C101.538 33.1074 100.464 33.8496 99.3118 34.7285C98.1398 35.6074 97.0658 36.5254 96.0888 37.502C95.0928 38.4785 94.2725 39.7871 93.6084 41.4473C92.9444 43.127 92.6123 44.9824 92.6123 47.0332H112.202Z" fill="white"/>
<path d="M71.9779 0.246094H11.2139C9.55701 0.246094 8.21387 1.58924 8.21387 3.24609V78.8465C8.21387 80.5033 9.55701 81.8465 11.2139 81.8465H71.9779C73.6347 81.8465 74.9779 80.5033 74.9779 78.8465V3.24609C74.9779 1.58924 73.6347 0.246094 71.9779 0.246094Z" fill="#E9FFF2"/>
<path d="M41.8568 41.3692C44.3645 41.3692 46.3973 39.3532 46.3973 36.8662C46.3973 34.3793 44.3645 32.3633 41.8568 32.3633C39.3492 32.3633 37.3164 34.3793 37.3164 36.8662C37.3164 39.3532 39.3492 41.3692 41.8568 41.3692Z" fill="#FBCFB1"/>
<path d="M41.1596 41.3711H42.5473C43.5073 41.3711 44.4578 41.5586 45.3447 41.9229C46.2316 42.2873 47.0375 42.8213 47.7162 43.4944C48.395 44.1676 48.9335 44.9668 49.3008 45.8463C49.6682 46.7259 49.8573 47.6686 49.8573 48.6206V50.1413C49.8573 50.9385 49.5379 51.703 48.9695 52.2668C48.4011 52.8305 47.6302 53.1472 46.8263 53.1472H36.8777C36.0738 53.1472 35.3029 52.8305 34.7345 52.2668C34.1661 51.703 33.8467 50.9385 33.8467 50.1413V48.6236C33.8463 47.6711 34.0352 46.7278 34.4026 45.8477C34.77 44.9676 35.3086 44.168 35.9878 43.4944C36.6669 42.8209 37.4732 42.2867 38.3606 41.9224C39.2481 41.558 40.1992 41.3707 41.1596 41.3711Z" fill="#FFB762"/>
<path d="M47.613 35.607H46.6591C46.047 33.3437 44.1333 31.6875 41.8631 31.6875C39.5096 31.6875 37.5365 33.4557 37.0017 35.8575C36.9855 35.922 36.9775 35.9884 36.9779 36.0549C36.9755 36.1082 36.984 36.1615 37.0029 36.2115C37.0218 36.2614 37.0508 36.3071 37.088 36.3456C37.1252 36.3842 37.1699 36.4149 37.2195 36.4358C37.269 36.4568 37.3222 36.4675 37.3761 36.4675L47.613 36.4498C47.7257 36.4498 47.8337 36.4054 47.9134 36.3264C47.9931 36.2473 48.0379 36.1401 48.0379 36.0284C48.0379 35.9166 47.9931 35.8094 47.9134 35.7304C47.8337 35.6514 47.7257 35.607 47.613 35.607Z" fill="#00C65E"/>
<path d="M7.48798 2.20415C7.92388 1.02728 9.04628 0.246094 10.3013 0.246094H72.8892C74.1442 0.246094 75.2666 1.02728 75.7024 2.20415L82.753 21.2406C83.4787 23.2 82.0292 25.2826 79.9398 25.2826H3.25072C1.16128 25.2826 -0.288222 23.2 0.437468 21.2406L7.48798 2.20415Z" fill="#00C65E"/>
<path d="M18.4128 0.253906H13.7764V25.2904H18.4128V0.253906Z" fill="white"/>
<path d="M35.1051 0.253906H30.4688V25.2904H35.1051V0.253906Z" fill="white"/>
<path d="M51.7965 0.253906H47.1602V25.2904H51.7965V0.253906Z" fill="white"/>
<path d="M68.485 0.253906H63.8486V25.2904H68.485V0.253906Z" fill="white"/>
<path d="M71.9779 49.4453H11.2139C9.55701 49.4453 8.21387 50.7885 8.21387 52.4453V78.8462C8.21387 80.5031 9.55701 81.8462 11.2139 81.8462H71.9779C73.6347 81.8462 74.9779 80.5031 74.9779 78.8462V52.4453C74.9779 50.7885 73.6347 49.4453 71.9779 49.4453Z" fill="#00C65E"/>
<path d="M24.6768 60.0338H28.0143V67.6488H29.4489C32.6681 67.6488 34.277 66.0847 34.2758 62.9565C34.2758 59.8922 32.782 58.3607 29.7944 58.3618H29.1917V55.8828H29.6226C32.1924 55.8828 34.1889 56.4995 35.6122 57.7328C37.0356 58.9661 37.7466 60.6833 37.7453 62.8842C37.7453 65.2275 37.0085 67.0214 35.5349 68.266C34.0612 69.5105 31.9281 70.1367 29.1355 70.1446H24.6768V60.0338Z" fill="white"/>
<path d="M28.0161 55.8828H24.6768V58.8579H28.0161V55.8828Z" fill="white"/>
<path d="M41.0712 62.3704H39.8371V66.8432H41.0712V62.3704ZM41.1603 61.0962C41.1603 60.8913 41.0934 60.722 40.9642 60.5973C40.8306 60.4725 40.6524 60.4102 40.4297 60.4102C40.2247 60.4102 40.0599 60.4725 39.9351 60.5973C39.8104 60.722 39.748 60.8913 39.748 61.0962C39.748 61.3012 39.806 61.466 39.9307 61.5907C40.0554 61.7155 40.2203 61.7779 40.4297 61.7779C40.6524 61.7779 40.8306 61.7155 40.9642 61.5907C41.0934 61.466 41.1603 61.3012 41.1603 61.0962ZM43.5838 60.4547H42.3497V66.8432H43.5838V60.4547ZM45.8647 67.1149C45.7177 67.4535 45.4593 67.6183 45.0895 67.6183C44.9069 67.6183 44.7554 67.5916 44.6351 67.5292V68.6207L44.7242 68.6519C44.7866 68.6786 44.8802 68.7009 45.0138 68.7231C45.143 68.7499 45.2767 68.7588 45.4103 68.7588C46.1587 68.7588 46.7334 68.2108 47.1433 67.1149L48.9208 62.3704H47.6467L46.5953 65.3374L45.5484 62.3704H44.2698L46.0028 66.7986L45.8647 67.1149ZM48.8674 66.2506C48.8674 66.4333 48.9386 66.5937 49.0812 66.7273C49.2238 66.8654 49.393 66.9322 49.598 66.9322C49.7984 66.9322 49.9722 66.8654 50.1147 66.7273C50.2573 66.5937 50.3286 66.4333 50.3286 66.2506C50.3286 66.068 50.2573 65.9076 50.1147 65.7695C49.9722 65.6359 49.7984 65.5646 49.598 65.5646C49.393 65.5646 49.2238 65.6359 49.0812 65.7695C48.9386 65.9076 48.8674 66.068 48.8674 66.2506ZM53.9772 62.3258H53.7946C53.5495 62.3258 53.3179 62.3837 53.0951 62.4906C52.8724 62.602 52.7298 62.6911 52.663 62.7579C52.6006 62.8248 52.5472 62.8782 52.5115 62.9183V62.3704H51.2819V66.8432H52.5115V64.7003C52.5115 64.3172 52.6095 64.0232 52.7966 63.8182C52.9837 63.6133 53.2421 63.5108 53.5629 63.5108C53.7455 63.5153 53.8836 63.5331 53.9727 63.5643L53.9772 62.3258ZM57.6748 66.8432H58.9044V62.3704H57.6748V64.7449C57.6748 65.0834 57.5902 65.3418 57.4253 65.52C57.2605 65.7027 57.0378 65.7918 56.7616 65.7918C56.5121 65.7918 56.3027 65.7116 56.1379 65.5468C55.973 65.3864 55.8928 65.177 55.8928 64.9275V62.3704H54.6633V65.0478C54.6633 65.618 54.8236 66.0769 55.1444 66.4199C55.4652 66.763 55.8839 66.9322 56.3963 66.9322C56.6368 66.9322 56.8685 66.8832 57.0912 66.7852C57.314 66.6872 57.4565 66.607 57.5234 66.5447C57.5857 66.4823 57.6392 66.4333 57.6748 66.3887V66.8432Z" fill="white"/>
<path d="M56.1152 73.4352C56.1152 71.1799 57.9435 69.3516 60.1988 69.3516H98.9172C101.172 69.3516 103.001 71.1799 103.001 73.4352V101.27H60.1988C57.9435 101.27 56.1152 99.4417 56.1152 97.1864V73.4352Z" fill="#F89358"/>
<path fill-rule="evenodd" clip-rule="evenodd" d="M58.3828 74.8253C58.3828 72.6824 60.1199 70.9453 62.2627 70.9453H99.0502C101.193 70.9453 102.93 72.6824 102.93 74.8253V79.3951H111.229C112.743 79.3951 114.119 80.2765 114.753 81.6523L118.394 89.5603C118.628 90.0691 118.75 90.6227 118.75 91.1829V97.3903C118.75 99.5331 117.012 101.27 114.87 101.27H102.93V101.272H62.2627C60.1199 101.272 58.3828 99.5346 58.3828 97.3918V74.8253Z" fill="#FFB762"/>
<path d="M111.749 82.5859H106.125C105.696 82.5859 105.349 82.9334 105.349 83.3619V89.6388C105.349 90.0674 105.696 90.4148 106.125 90.4148H114.908C115.474 90.4148 115.85 89.8284 115.613 89.3143L112.836 83.2816C112.64 82.8576 112.216 82.5859 111.749 82.5859Z" fill="white"/>
<path d="M103.434 105.869C100.246 105.869 97.6611 103.305 97.6611 100.143C97.6611 96.9813 100.246 94.418 103.434 94.418C106.623 94.418 109.208 96.9813 109.208 100.143C109.208 103.305 106.623 105.869 103.434 105.869Z" fill="white"/>
<path d="M103.434 103.007C101.839 103.007 100.547 101.725 100.547 100.144C100.547 98.563 101.839 97.2812 103.434 97.2812C105.028 97.2812 106.32 98.563 106.32 100.144C106.32 101.725 105.028 103.007 103.434 103.007Z" fill="#F89358"/>
<path d="M72.4879 105.869C69.2995 105.869 66.7148 103.305 66.7148 100.143C66.7148 96.9813 69.2995 94.418 72.4879 94.418C75.6763 94.418 78.2609 96.9813 78.2609 100.143C78.2609 103.305 75.6763 105.869 72.4879 105.869Z" fill="white"/>
<path d="M72.4881 103.007C70.8939 103.007 69.6016 101.725 69.6016 100.144C69.6016 98.563 70.8939 97.2812 72.4881 97.2812C74.0823 97.2812 75.3747 98.563 75.3747 100.144C75.3747 101.725 74.0823 103.007 72.4881 103.007Z" fill="#F89358"/>
<path d="M80.3125 82.595H83.3727V89.5197H84.6881C87.6399 89.5197 89.1151 88.0974 89.114 85.2528C89.114 82.4663 87.7443 81.0736 85.0049 81.0746H84.4523V78.8203H84.8474C87.2037 78.8203 89.0344 79.3811 90.3395 80.5026C91.6445 81.6241 92.2965 83.1856 92.2953 85.187C92.2953 87.3179 91.6197 88.9492 90.2685 90.0809C88.9172 91.2126 86.9613 91.7821 84.4008 91.7892H80.3125V82.595Z" fill="#00C65E"/>
<path d="M83.3744 78.8203H80.3125V81.5257H83.3744V78.8203Z" fill="#00C65E"/>
</svg>
