<svg width="475" height="343" viewBox="0 0 475 343" fill="none" xmlns="http://www.w3.org/2000/svg">
<g clip-path="url(#clip0_3715_50686)">
<path opacity="0.2" d="M451.943 262.618C445.228 312.322 391.524 340.586 346.752 317.98L200.202 243.986C147.27 217.26 146.634 141.904 199.107 114.287L367.638 25.5903C420.111 -2.02618 481.865 41.1639 473.925 99.9263L451.943 262.618Z" fill="#00C65E"/>
<path d="M438.522 93.973L361.75 90.9992C360.202 90.9393 358.897 92.1461 358.837 93.6948L355.96 167.989C355.9 169.538 357.106 170.842 358.655 170.902L435.427 173.876C436.975 173.936 438.279 172.729 438.339 171.18L441.217 96.8858C441.277 95.3371 440.07 94.033 438.522 93.973Z" fill="white"/>
<path d="M306.026 123.627C305.376 102.653 308.587 98.2417 312.455 96.4231C315.1 95.1798 321.858 95.2878 327.78 98.2187C334.984 101.784 350.306 117.849 358.526 127.649L344.8 143.884L352.911 151.821L351.982 175.813L309.657 176.613C307.14 158.607 306.534 140.046 306.026 123.627Z" fill="#00C65E"/>
<path d="M309.66 176.611L351.984 175.811L351.715 182.756L390.81 205.89C394.614 208.737 396.42 211.526 397.2 219.185C397.98 226.844 402.963 263.499 405.357 280.87C407.707 280.961 413.665 280.655 415.323 283.886C416.858 286.875 417.348 293.112 417.596 295.995L385.244 300.853L372.216 224.023C362.374 220.397 339.492 211.522 339.492 211.522C339.492 211.522 316.271 204.313 310.183 179.764L309.66 176.611Z" fill="#FFB762"/>
<path d="M299.259 231.25L311.734 184.715C315.086 191.219 324.546 205.354 335.569 209.869L319.196 245.293L269.923 280.149C271.147 282.149 273.482 286.486 273.356 289.745C273.128 295.644 265.138 297.953 261.108 300.16L242.936 270.321L299.259 231.25Z" fill="#F1A74F"/>
<path d="M299.384 58.3147C298.997 51.294 299.002 48.1039 302.038 44.4294C310.116 34.651 332.179 38.986 338.477 42.7577C342.941 45.4307 344.622 49.737 345.545 55.2093C346.283 59.5871 346.918 73.0206 344.582 80.0714C343.004 84.8307 336.557 94.5914 323.384 95.5599C310.212 96.5284 304.171 87.2408 302.797 82.4759C301.022 74.9771 299.804 65.927 299.384 58.3147Z" fill="#FBCFB1"/>
<path d="M299.384 58.3147C298.997 51.294 299.002 48.1039 302.038 44.4294C310.116 34.651 332.179 38.986 338.477 42.7577C342.941 45.4307 345.165 50.013 345.816 57.2279L299.384 58.3147Z" fill="#00C65E"/>
<path d="M344.208 54.4531L360.179 53.9941" stroke="#00C65E" stroke-width="5.61255" stroke-linecap="round"/>
<path d="M237.701 133.727H282.471" stroke="#00C65E" stroke-width="8.41883" stroke-linecap="round"/>
<path d="M280.102 152.592H310.432" stroke="white" stroke-width="5.61255" stroke-linecap="round"/>
<path d="M201.592 175.464L273.879 175.463" stroke="#00C65E" stroke-width="8.41883" stroke-linecap="round"/>
<path d="M250.449 202.951H289.191" stroke="white" stroke-width="5.61255" stroke-linecap="round"/>
<path d="M362.062 160.38L344.752 143.86L358.56 127.707L369.565 140.474L418.369 144.048L425.076 141.082L439.498 141.641L438.728 161.525C433.628 161.655 422.875 161.696 420.665 160.826C418.454 159.955 415.169 160.285 413.803 160.56L362.062 160.38Z" fill="#FBCFB1"/>
<path d="M332.059 130.858C332.571 130.276 333.457 130.218 334.039 130.729L346.589 141.734L344.745 143.863L332.188 132.838C331.606 132.327 331.548 131.44 332.059 130.858Z" fill="#1E7836"/>
<path d="M391.12 91.9102L411.18 92.6872L410.352 114.081C410.292 115.63 408.987 116.837 407.439 116.777L392.986 116.217C391.438 116.157 390.231 114.853 390.291 113.304L391.12 91.9102Z" fill="#FD9558"/>
<path opacity="0.4" d="M25.4257 258.325C28.01 251.161 36.7318 248.864 42.5094 253.825L98.267 301.708C105.098 307.574 102.752 318.82 94.231 321.064L13.5322 342.316C5.01027 344.56 -2.57013 335.929 0.485175 327.46L25.4257 258.325Z" fill="#00C65E"/>
<path opacity="0.6" d="M133.434 52.6287C128.849 52.0247 126.356 47.1488 128.549 43.078L149.722 3.7921C152.316 -1.02058 159.291 -1.08783 161.728 3.67636L184.801 48.7911C187.237 53.5553 183.1 59.1716 177.68 58.4575L133.434 52.6287Z" fill="#FFB762"/>
</g>
<defs>
<clipPath id="clip0_3715_50686">
<rect width="475" height="343" fill="white"/>
</clipPath>
</defs>
</svg>
