<svg width="71" height="70" viewBox="0 0 71 70" fill="none" xmlns="http://www.w3.org/2000/svg">
<circle cx="35.7656" cy="35" r="35" fill="#00C65E"/>
<path fill-rule="evenodd" clip-rule="evenodd" d="M35.7677 54.9983C46.8119 54.9983 55.7649 46.0453 55.7649 35.0011C55.7649 23.957 46.8119 15.0039 35.7677 15.0039C24.7236 15.0039 15.7705 23.957 15.7705 35.0011C15.7705 46.0453 24.7236 54.9983 35.7677 54.9983ZM26.2147 49.2991C29.0423 51.1891 32.3668 52.1983 35.768 52.1989C40.3279 52.1945 44.6998 50.3813 47.9244 47.1573C51.1491 43.9333 52.9631 39.5617 52.9685 35.0018C52.9685 31.6007 51.96 28.2759 50.0705 25.448C48.181 22.62 45.4953 20.4158 42.3532 19.1141C39.211 17.8124 35.7534 17.4716 32.4176 18.1349C29.0818 18.7982 26.0175 20.4357 23.6123 22.8404C21.2071 25.2451 19.569 28.3091 18.9051 31.6447C18.2411 34.9804 18.5812 38.4381 19.8823 41.5805C21.1834 44.7229 23.3871 47.409 26.2147 49.2991Z" fill="white"/>
<path d="M36.429 21.5314V19.8229C36.429 19.4569 36.1323 19.1602 35.7662 19.1602C35.4002 19.1602 35.1035 19.4569 35.1035 19.8229V21.5314C35.1035 21.8974 35.4002 22.1941 35.7662 22.1941C36.1323 22.1941 36.429 21.8974 36.429 21.5314Z" fill="white"/>
<path d="M36.4173 50.1681V48.4596C36.4173 48.0936 36.1205 47.7969 35.7545 47.7969C35.3885 47.7969 35.0918 48.0936 35.0918 48.4596V50.1681C35.0918 50.5341 35.3885 50.8309 35.7545 50.8309C36.1205 50.8309 36.4173 50.5341 36.4173 50.1681Z" fill="white"/>
<path d="M22.2892 34.3386H20.5807C20.2147 34.3386 19.918 34.6353 19.918 35.0013C19.918 35.3673 20.2147 35.6641 20.5807 35.6641H22.2892C22.6552 35.6641 22.952 35.3673 22.952 35.0013C22.952 34.6353 22.6552 34.3386 22.2892 34.3386Z" fill="white"/>
<path d="M50.9298 34.3386H49.2213C48.8553 34.3386 48.5586 34.6353 48.5586 35.0013C48.5586 35.3673 48.8553 35.6641 49.2213 35.6641H50.9298C51.2959 35.6641 51.5926 35.3673 51.5926 35.0013C51.5926 34.6353 51.2959 34.3386 50.9298 34.3386Z" fill="white"/>
<path d="M27.742 21.6321L29.0048 23.8192C29.075 23.9408 29.2305 23.9825 29.3521 23.9123C29.4737 23.8421 29.5154 23.6866 29.4451 23.565L28.1824 21.3778C28.1122 21.2562 27.9567 21.2146 27.8351 21.2848C27.7135 21.355 27.6718 21.5105 27.742 21.6321Z" fill="white"/>
<path d="M22.1314 27.4294L24.3185 28.6921C24.4401 28.7624 24.5956 28.7207 24.6658 28.5991C24.7361 28.4775 24.6944 28.322 24.5728 28.2518L22.3856 26.989C22.264 26.9188 22.1085 26.9605 22.0383 27.0821C21.9681 27.2037 22.0098 27.3592 22.1314 27.4294Z" fill="white"/>
<path d="M22.3811 43.0177L24.5682 41.755C24.6898 41.6848 24.7315 41.5293 24.6613 41.4077C24.5911 41.2861 24.4356 41.2444 24.314 41.3146L22.1269 42.5774C22.0052 42.6476 21.9636 42.8031 22.0338 42.9247C22.104 43.0463 22.2595 43.0879 22.3811 43.0177Z" fill="white"/>
<path d="M28.4021 48.8406L29.6649 46.6434C29.7351 46.5212 29.693 46.3653 29.5708 46.2951C29.4486 46.2249 29.2927 46.267 29.2225 46.3892L27.9597 48.5863C27.8895 48.7085 27.9316 48.8645 28.0538 48.9347C28.176 49.0049 28.3319 48.9627 28.4021 48.8406Z" fill="white"/>
<path d="M43.7687 48.3796L42.506 46.1925C42.4358 46.0709 42.2803 46.0292 42.1587 46.0994C42.0371 46.1696 41.9954 46.3251 42.0656 46.4467L43.3284 48.6339C43.3986 48.7555 43.5541 48.7972 43.6757 48.727C43.7973 48.6567 43.8389 48.5013 43.7687 48.3796Z" fill="white"/>
<path d="M49.3793 42.5784L47.1922 41.3157C47.0706 41.2455 46.9151 41.2871 46.8449 41.4087C46.7747 41.5303 46.8164 41.6858 46.938 41.756L49.1251 43.0188C49.2467 43.089 49.4022 43.0473 49.4724 42.9257C49.5426 42.8041 49.5009 42.6486 49.3793 42.5784Z" fill="white"/>
<path d="M49.1306 26.9901L46.9435 28.2528C46.8219 28.323 46.7802 28.4785 46.8504 28.6001C46.9206 28.7217 47.0761 28.7634 47.1977 28.6932L49.3849 27.4304C49.5065 27.3602 49.5481 27.2047 49.4779 27.0831C49.4077 26.9615 49.2522 26.9199 49.1306 26.9901Z" fill="white"/>
<path d="M43.3304 21.3814L42.0676 23.5685C41.9974 23.6901 42.0391 23.8456 42.1607 23.9158C42.2823 23.9861 42.4378 23.9444 42.508 23.8228L43.7707 21.6356C43.8409 21.514 43.7993 21.3585 43.6777 21.2883C43.5561 21.2181 43.4006 21.2598 43.3304 21.3814Z" fill="white"/>
<path d="M36.2415 32.9093C35.4403 32.9093 34.8144 33.0512 34.3637 33.335L34.5307 31.115H39.488V28.8867H32.2272L31.8016 35.7302L33.5959 35.8971L33.7795 35.6551C33.9047 35.5049 34.1301 35.3463 34.4555 35.1877C34.7727 35.0375 35.1399 34.954 35.5572 34.954C36.1497 34.954 36.6421 35.146 37.026 35.5216C37.4099 35.9055 37.6019 36.3728 37.6019 36.9236C37.6019 37.4828 37.4266 37.9335 37.0594 38.284C36.6922 38.6345 36.1915 38.8014 35.5488 38.8014C35.0481 38.8014 34.564 38.6929 34.08 38.4676C33.6043 38.2506 33.2955 38.0753 33.1453 37.9418C33.0034 37.8083 32.8949 37.6998 32.8198 37.608L31.2842 39.227L31.4427 39.419C31.5512 39.5609 31.7265 39.7194 31.9685 39.9031C32.2189 40.0867 32.5027 40.2619 32.8281 40.4455C33.1536 40.6291 33.5792 40.7877 34.0967 40.9212C34.6141 41.0548 35.1566 41.1132 35.7241 41.1132C37.0761 41.1132 38.1694 40.7209 39.004 39.9281C39.8385 39.1352 40.2475 38.1338 40.2475 36.9236C40.2475 35.7719 39.8719 34.8205 39.1041 34.0527C38.3446 33.2933 37.3932 32.9093 36.2415 32.9093Z" fill="white"/>
</svg>
