<svg width="71" height="70" viewBox="0 0 71 70" fill="none" xmlns="http://www.w3.org/2000/svg">
<circle cx="35.7656" cy="35" r="35" fill="#00C65E"/>
<rect x="10.8667" y="33.4802" width="14.6607" height="30.0505" rx="1.01514" transform="rotate(-51.887 10.8667 33.4802)" fill="#00C65E" stroke="white" stroke-width="2.03028"/>
<path d="M20.3484 33.1381L18.4684 31.7042L19.4944 30.3591C19.6984 30.0917 19.9606 29.9382 20.2773 29.8956C20.5939 29.853 20.8874 29.9316 21.1548 30.1356C21.4222 30.3396 21.5757 30.6019 21.6184 30.9185C21.6579 31.2391 21.5752 31.5296 21.3743 31.793L20.3484 33.1381ZM22.1925 32.4171C22.5944 31.8902 22.7617 31.3233 22.6903 30.7133C22.6199 30.1103 22.3347 29.6151 21.8398 29.2376C21.3449 28.86 20.7918 28.716 20.1877 28.8045C19.5845 28.9 19.078 29.2081 18.6762 29.735L16.9622 31.9821L19.6603 34.0401L19.1611 34.6947L19.9793 35.3188L20.4786 34.6642L21.0493 35.0996L20.55 35.7542L21.3683 36.3783L21.8676 35.7237L22.6858 36.3478L23.3738 35.4457L22.5556 34.8216L23.956 32.9856L23.1378 32.3615L21.7374 34.1975L21.1666 33.7622L22.1925 32.4171Z" fill="white"/>
<rect x="27.6604" y="19.5979" width="14.6607" height="30.0505" rx="1.01514" transform="rotate(-0.18135 27.6604 19.5979)" fill="#00C65E" stroke="white" stroke-width="2.03028"/>
<path d="M33.4714 27.3445L33.4318 24.9805L35.1232 24.9522C35.4595 24.9465 35.7425 25.0573 35.9722 25.2793C36.2018 25.5014 36.322 25.7806 36.3276 26.1168C36.3332 26.4531 36.2225 26.7361 36.0004 26.9658C35.7733 27.1955 35.4941 27.3106 35.1628 27.3162L33.4714 27.3445ZM35.1801 28.3451C35.8426 28.334 36.3912 28.114 36.8257 27.6799C37.2553 27.251 37.4673 26.7203 37.4569 26.0979C37.4465 25.4755 37.2168 24.9522 36.773 24.5329C36.3242 24.1187 35.7685 23.9121 35.106 23.9232L32.2802 23.9706L32.337 27.3635L31.5139 27.3773L31.5311 28.4063L32.3543 28.3925L32.3663 29.1102L31.5432 29.124L31.5604 30.1529L32.3835 30.1392L32.4008 31.1681L33.5351 31.1491L33.5179 30.1201L35.8267 30.0815L35.8095 29.0525L33.5006 29.0912L33.4886 28.3735L35.1801 28.3451Z" fill="white"/>
<rect x="49.6142" y="23.5383" width="14.6607" height="30.0505" rx="1.01514" transform="rotate(54.1804 49.6142 23.5383)" fill="#00C65E" stroke="white" stroke-width="2.03028"/>
<path d="M45.5246 34.7071L47.4687 33.3615L48.4315 34.7525C48.6229 35.029 48.688 35.3259 48.6308 35.6402C48.5736 35.9545 48.4082 36.2094 48.1316 36.4008C47.8551 36.5922 47.5582 36.6573 47.2439 36.6001C46.9268 36.5388 46.676 36.3705 46.4874 36.0981L45.5246 34.7071ZM45.6413 36.6838C46.0184 37.2286 46.506 37.5626 47.1083 37.683C47.7035 37.8021 48.2626 37.6838 48.7745 37.3295C49.2863 36.9753 49.594 36.4937 49.6963 35.8917C49.7916 35.2885 49.6548 34.7116 49.2777 34.1668L47.6692 31.8429L44.879 33.7742L44.4104 33.0973L43.5643 33.683L44.0328 34.3599L43.4425 34.7685L42.974 34.0915L42.1278 34.6772L42.5964 35.3541L41.7502 35.9398L42.3959 36.8726L43.2421 36.287L44.5562 38.1857L45.4024 37.6L44.0882 35.7013L44.6785 35.2927L45.6413 36.6838Z" fill="white"/>
</svg>
