<svg width="176" height="110" viewBox="0 0 176 110" fill="none" xmlns="http://www.w3.org/2000/svg">
<path opacity="0.2" d="M97.9846 104.266C122.775 96.6918 145.382 85.8319 162.977 76.0059C181.414 65.7099 178.618 44.38 160.043 34.3365C152.367 30.1865 143.966 23.969 133.183 12.5317C132.013 11.2906 130.981 9.89122 129.94 8.54025C121.473 -2.44482 106.999 -5.04441 93.2118 16.385C81.9131 33.9467 75.1781 40.8226 72.6984 43.0423C71.9916 43.675 71.2489 44.2477 70.5207 44.8556C66.9451 47.8411 55.3763 57.4236 48.4563 62.259C40.1942 68.0321 17.5832 77.4066 29.3063 90.7897C43.0715 104.296 56.3533 116.984 97.9846 104.266Z" fill="#FFB762"/>
<path d="M94.9765 95.198H34.062L42.0446 32.043H86.9939L94.9765 95.198Z" fill="#FFB762"/>
<path d="M102.569 95.198H41.6646L49.647 32.043H94.5865L102.569 95.198Z" fill="#FFB762"/>
<path d="M75.7996 32.2551H54.9453V17.9372C55.0251 15.2615 56.1587 12.7218 58.1055 10.857C60.0522 8.99227 62.659 7.94922 65.3725 7.94922C68.086 7.94922 70.6927 8.99227 72.6394 10.857C74.5862 12.7218 75.7198 15.2615 75.7996 17.9372V32.2551ZM60.1205 27.1499H70.6244V17.9372C70.6538 17.2387 70.5397 16.5416 70.289 15.8878C70.0383 15.2339 69.6562 14.6368 69.1656 14.1324C68.675 13.628 68.0861 13.2266 67.4342 12.9524C66.7824 12.6782 66.0811 12.5368 65.3725 12.5368C64.6638 12.5368 63.9625 12.6782 63.3107 12.9524C62.6588 13.2266 62.0699 13.628 61.5793 14.1324C61.0887 14.6368 60.7066 15.2339 60.4559 15.8878C60.2052 16.5416 60.0911 17.2387 60.1205 17.9372V27.1499Z" fill="#FFB762"/>
<path d="M77.3168 34.5521H56.4625V20.2341C56.4215 18.8578 56.6608 17.4874 57.1663 16.204C57.6719 14.9206 58.4333 13.7504 59.4056 12.7626C60.378 11.7747 61.5413 10.9894 62.8268 10.4532C64.1124 9.91695 65.4939 9.64062 66.8897 9.64062C68.2854 9.64062 69.6669 9.91695 70.9525 10.4532C72.238 10.9894 73.4014 11.7747 74.3737 12.7626C75.346 13.7504 76.1075 14.9206 76.613 16.204C77.1185 17.4874 77.3579 18.8578 77.3168 20.2341V34.5521ZM61.6377 29.4468H72.1416V20.2341C72.171 19.5357 72.0569 18.8386 71.8062 18.1847C71.5555 17.5309 71.1734 16.9338 70.6828 16.4293C70.1922 15.9249 69.6033 15.5235 68.9514 15.2493C68.2996 14.9751 67.5983 14.8338 66.8897 14.8338C66.181 14.8338 65.4797 14.9751 64.8279 15.2493C64.176 15.5235 63.5871 15.9249 63.0965 16.4293C62.606 16.9338 62.2238 17.5309 61.9731 18.1847C61.7224 18.8386 61.6083 19.5357 61.6377 20.2341V29.4468Z" fill="white"/>
<path d="M100.597 95.198H94.2867L86.9312 32.043H93.2416L100.597 95.198Z" fill="white"/>
<path d="M26.2834 70.0862C26.5615 69.0295 27.3504 68.1824 28.3847 67.83L42.5658 62.9984C43.5995 62.6462 44.7409 62.835 45.6062 63.5013L50.5697 67.3235C51.5865 68.1064 52.3496 69.172 52.7635 70.3867L61.5743 96.2471C62.155 97.9514 61.2441 99.8037 59.5398 100.384L37.7662 107.803C36.0619 108.383 34.2096 107.472 33.6289 105.768L24.8206 79.9151C24.4071 78.7015 24.3606 77.3929 24.6869 76.153L26.2834 70.0862Z" fill="#FE8A49"/>
<path d="M48.0099 91.6588C51.5549 88.7664 52.0839 83.5478 49.1914 80.0028C46.299 76.4579 41.0804 75.9289 37.5354 78.8213C33.9905 81.7138 33.4615 86.9324 36.3539 90.4773C39.2464 94.0223 44.465 94.5513 48.0099 91.6588Z" fill="white"/>
<path d="M53.1903 66.45C52.5441 66.1044 51.787 66.0293 51.0855 66.2414C50.384 66.4535 49.7953 66.9353 49.4486 67.581L42.1162 81.4536L38.118 78.1347C37.5478 77.7107 36.8364 77.5224 36.1311 77.6088C35.4259 77.6952 34.7809 78.0496 34.3299 78.5986C33.8789 79.1477 33.6565 79.8492 33.7087 80.5578C33.7609 81.2664 34.0838 81.9277 34.6105 82.4047L40.9688 87.6132C41.1754 87.8439 41.4228 88.0345 41.6985 88.1756C42.2684 88.4785 42.9281 88.5669 43.5576 88.4249C44.0243 88.342 44.4601 88.1354 44.8196 87.8266C45.1791 87.5177 45.449 87.118 45.6013 86.6692L54.3291 70.1961C54.6738 69.5481 54.7475 68.7899 54.534 68.0877C54.3206 67.3854 53.8374 66.7965 53.1903 66.45Z" fill="#00C65E"/>
<path d="M14.5818 28.0675L24.1827 26.7096L14.8534 23.6134L13.3188 14.6914L10.2905 23.2195L0.567383 24.6454L9.77451 27.6601L11.4041 37.0845L14.5818 28.0675Z" fill="#00C65E"/>
<path d="M121.526 97.0948L126.122 96.4447L121.656 94.9625L120.922 90.6914L119.472 94.774L114.817 95.4566L119.225 96.8998L120.005 101.411L121.526 97.0948Z" fill="#00C65E"/>
</svg>
