<svg width="72" height="71" viewBox="0 0 72 71" fill="none" xmlns="http://www.w3.org/2000/svg">
<circle cx="35.7656" cy="35.5" r="35.5" fill="#00C65E"/>
<path d="M22.9847 19.8786C22.9847 19.344 23.3766 18.8894 23.9118 18.8121L35.6108 17.1212C35.7134 17.1063 35.8176 17.1063 35.9203 17.1212L47.6193 18.8121C48.1545 18.8894 48.5463 19.344 48.5463 19.8786V19.892V19.9054V19.9189V19.9324V19.946V19.9596V19.9733V19.987V20.0008V20.0146V20.0285V20.0424V20.0563V20.0704V20.0844V20.0985V20.1127V20.1269V20.1412V20.1555V20.1698V20.1843V20.1987V20.2132V20.2278V20.2424V20.2571V20.2718V20.2866V20.3014V20.3162V20.3312V20.3461V20.3611V20.3762V20.3913V20.4065V20.4217V20.437V20.4523V20.4677V20.4831V20.4986V20.5141V20.5297V20.5454V20.561V20.5768V20.5926V20.6084V20.6243V20.6403V20.6563V20.6723V20.6884V20.7046V20.7208V20.737V20.7534V20.7697V20.7862V20.8026V20.8192V20.8357V20.8524V20.8691V20.8858V20.9026V20.9194V20.9363V20.9533V20.9703V20.9874V21.0045V21.0217V21.0389V21.0562V21.0735V21.0909V21.1083V21.1258V21.1434V21.161V21.1787V21.1964V21.2141V21.232V21.2499V21.2678V21.2858V21.3038V21.3219V21.3401V21.3583V21.3766V21.3949V21.4133V21.4317V21.4502V21.4688V21.4874V21.506V21.5247V21.5435V21.5623V21.5812V21.6002V21.6192V21.6382V21.6573V21.6765V21.6957V21.715V21.7344V21.7538V21.7732V21.7927V21.8123V21.8319V21.8516V21.8714V21.8912V21.911V21.9309V21.9509V21.9709V21.991V22.0112V22.0314V22.0517V22.072V22.0924V22.1128V22.1333V22.1539V22.1745V22.1952V22.2159V22.2367V22.2575V22.2784V22.2994V22.3204V22.3415V22.3627V22.3839V22.4052V22.4265V22.4479V22.4693V22.4908V22.5124V22.534V22.5557V22.5775V22.5993V22.6212V22.6431V22.6651V22.6871V22.7092V22.7314V22.7536V22.7759V22.7983V22.8207V22.8432V22.8657V22.8883V22.911V22.9337V22.9565V22.9793V23.0023V23.0252V23.0483V23.0714V23.0945V23.1177V23.141V23.1644V23.1878V23.2112V23.2348V23.2583V23.282V23.3057V23.3295V23.3533V23.3773V23.4012V23.4253V23.4494V23.4735V23.4977V23.522V23.5464V23.5708V23.5953V23.6198V23.6444V23.6691V23.6938V23.7186V23.7435V23.7684V23.7934V23.8184V23.8436V23.8687V23.894V23.9193V23.9447V23.9701V23.9956V24.0212V24.0468V24.0725V24.0983V24.1241V24.15V24.176V24.202V24.2281V24.2543V24.2805V24.3068V24.3332V24.3596V24.3861V24.4126V24.4393V24.4659V24.4927V24.5195V24.5464V24.5734V24.6004V24.6275V24.6546V24.6819V24.7091V24.7365V24.7639V24.7914V24.819V24.8466V24.8743V24.902V24.9299V24.9578V24.9857V25.0138V25.0419V25.07V25.0983V25.1266V25.1549V25.1834V25.2119V25.2405V25.2691V25.2978V25.3266V25.3555V25.3844V25.4134V25.4424V25.4716V25.5008V25.53V25.5594V25.5888V25.6182V25.6478V25.6774V25.7071V25.7368V25.7667V25.7965V25.8265V25.8565V25.8866V25.9168V25.9471V25.9774V26.0078V26.0382V26.0687V26.0993V26.13V26.1607V26.1916V26.2224V26.2534V26.2844V26.3155V26.3467V26.3779V26.4092V26.4406V26.472V26.5036V26.5352V26.5668V26.5986V26.6304V26.6623V26.6942V26.7262V26.7583V26.7905V26.8228V26.8551V26.8875V26.9199V26.9525V26.9851V27.0178V27.0505V27.0833V27.1162V27.1492V27.1823V27.2154V27.2486V27.2819V27.3152V27.3486V27.3821V27.4157V27.4493V27.483V27.5168V27.5507V27.5846V27.6186V27.6527V27.6868V27.7211V27.7554V27.7898V27.8242V27.8588V27.8934V27.928V27.9628V27.9976V28.0325V28.0675V28.1026V28.1377V28.1729V28.2082V28.2436V28.279V28.3145V28.3501V28.3858V28.4215V28.4573V28.4932V28.5292V28.5652V28.6014V28.6376V28.6738V28.7102V28.7466V28.7831V28.8197V28.8564V28.8931V28.9299V28.9668V29.0038V29.0408V29.0779V29.1151V29.1524V29.1898V29.2272V29.2647V29.3023V29.34V29.3777V29.4156V29.4535V29.4915V29.5295V29.5677V29.6059V29.6442V29.6825V29.721V29.7595V29.7981V29.8368V29.8756V29.9145V29.9534V29.9924V30.0315V30.0707V30.1099V30.1492V30.1886V30.2281V30.2677V30.3073V30.3471V30.3869V30.4268V30.4667V30.5068V30.5469V30.5871V30.6274V30.6678V30.7082V30.7488V30.7894V30.8301V30.8708V30.9117V30.9526V30.9937V31.0348V31.0759V31.1172V31.1586V31.2V31.2415V31.2831V31.3248V31.3665V31.4083V31.4503V31.4923V31.5343V31.5765V31.6188V31.6611V31.7035V31.746V31.7886V31.8312V31.874V31.9168V31.9597V32.0027V32.0458V32.089V32.1322V32.1755V32.219V32.2624V32.306V32.3497V32.3934V32.4373V32.4812V32.5252V32.5693V32.6134V32.6577V32.702V32.7464V32.791V32.8355V32.8802V32.925V32.9698V33.0148V33.0598V33.1049V33.1501V33.1953V33.2407V33.2861V33.3316V33.3773V33.423V33.4687V33.5146V33.5606V33.6066V33.6527V33.699V33.7453V33.7916V33.8381V33.8847V33.9313V33.9781V34.0249V34.0718V34.1188V34.1659V34.213V34.2603V34.3076V34.355V34.4026V34.4502V34.4979V34.5456V34.5935V34.6414V34.6895V34.7376V34.7858C48.5463 46.3235 39.1808 52.0426 36.0356 53.6298C35.8642 53.7163 35.6773 53.7164 35.5058 53.6299C32.3583 52.0428 22.9847 46.3235 22.9847 34.7858V34.7376V34.6895V34.6414V34.5935V34.5456V34.4979V34.4502V34.4026V34.355V34.3076V34.2603V34.213V34.1659V34.1188V34.0718V34.0249V33.9781V33.9313V33.8847V33.8381V33.7916V33.7453V33.699V33.6527V33.6066V33.5606V33.5146V33.4687V33.423V33.3773V33.3316V33.2861V33.2407V33.1953V33.1501V33.1049V33.0598V33.0148V32.9698V32.925V32.8802V32.8355V32.791V32.7464V32.702V32.6577V32.6134V32.5693V32.5252V32.4812V32.4373V32.3934V32.3497V32.306V32.2624V32.219V32.1755V32.1322V32.089V32.0458V32.0027V31.9597V31.9168V31.874V31.8312V31.7886V31.746V31.7035V31.6611V31.6188V31.5765V31.5343V31.4923V31.4503V31.4083V31.3665V31.3248V31.2831V31.2415V31.2V31.1586V31.1172V31.0759V31.0348V30.9937V30.9526V30.9117V30.8708V30.8301V30.7894V30.7488V30.7082V30.6678V30.6274V30.5871V30.5469V30.5068V30.4667V30.4268V30.3869V30.3471V30.3073V30.2677V30.2281V30.1886V30.1492V30.1099V30.0707V30.0315V29.9924V29.9534V29.9145V29.8756V29.8368V29.7981V29.7595V29.721V29.6825V29.6442V29.6059V29.5677V29.5295V29.4915V29.4535V29.4156V29.3777V29.34V29.3023V29.2647V29.2272V29.1898V29.1524V29.1151V29.0779V29.0408V29.0038V28.9668V28.9299V28.8931V28.8564V28.8197V28.7831V28.7466V28.7102V28.6738V28.6376V28.6014V28.5652V28.5292V28.4932V28.4573V28.4215V28.3858V28.3501V28.3145V28.279V28.2436V28.2082V28.1729V28.1377V28.1026V28.0675V28.0325V27.9976V27.9628V27.928V27.8934V27.8588V27.8242V27.7898V27.7554V27.7211V27.6868V27.6527V27.6186V27.5846V27.5507V27.5168V27.483V27.4493V27.4157V27.3821V27.3486V27.3152V27.2819V27.2486V27.2154V27.1823V27.1492V27.1162V27.0833V27.0505V27.0178V26.9851V26.9525V26.9199V26.8875V26.8551V26.8228V26.7905V26.7583V26.7262V26.6942V26.6623V26.6304V26.5986V26.5668V26.5352V26.5036V26.472V26.4406V26.4092V26.3779V26.3467V26.3155V26.2844V26.2534V26.2224V26.1916V26.1607V26.13V26.0993V26.0687V26.0382V26.0078V25.9774V25.9471V25.9168V25.8866V25.8565V25.8265V25.7965V25.7667V25.7368V25.7071V25.6774V25.6478V25.6182V25.5888V25.5594V25.53V25.5008V25.4716V25.4424V25.4134V25.3844V25.3555V25.3266V25.2978V25.2691V25.2405V25.2119V25.1834V25.1549V25.1266V25.0983V25.07V25.0419V25.0138V24.9857V24.9578V24.9299V24.902V24.8743V24.8466V24.819V24.7914V24.7639V24.7365V24.7091V24.6819V24.6546V24.6275V24.6004V24.5734V24.5464V24.5195V24.4927V24.4659V24.4393V24.4126V24.3861V24.3596V24.3332V24.3068V24.2805V24.2543V24.2281V24.202V24.176V24.15V24.1241V24.0983V24.0725V24.0468V24.0212V23.9956V23.9701V23.9447V23.9193V23.894V23.8687V23.8436V23.8184V23.7934V23.7684V23.7435V23.7186V23.6938V23.6691V23.6444V23.6198V23.5953V23.5708V23.5464V23.522V23.4977V23.4735V23.4494V23.4253V23.4012V23.3773V23.3533V23.3295V23.3057V23.282V23.2583V23.2348V23.2112V23.1878V23.1644V23.141V23.1177V23.0945V23.0714V23.0483V23.0252V23.0023V22.9793V22.9565V22.9337V22.911V22.8883V22.8657V22.8432V22.8207V22.7983V22.7759V22.7536V22.7314V22.7092V22.6871V22.6651V22.6431V22.6212V22.5993V22.5775V22.5557V22.534V22.5124V22.4908V22.4693V22.4479V22.4265V22.4052V22.3839V22.3627V22.3415V22.3204V22.2994V22.2784V22.2575V22.2367V22.2159V22.1952V22.1745V22.1539V22.1333V22.1128V22.0924V22.072V22.0517V22.0314V22.0112V21.991V21.9709V21.9509V21.9309V21.911V21.8912V21.8714V21.8516V21.8319V21.8123V21.7927V21.7732V21.7538V21.7344V21.715V21.6957V21.6765V21.6573V21.6382V21.6192V21.6002V21.5812V21.5623V21.5435V21.5247V21.506V21.4874V21.4688V21.4502V21.4317V21.4133V21.3949V21.3766V21.3583V21.3401V21.3219V21.3038V21.2858V21.2678V21.2499V21.232V21.2141V21.1964V21.1787V21.161V21.1434V21.1258V21.1083V21.0909V21.0735V21.0562V21.0389V21.0217V21.0045V20.9874V20.9703V20.9533V20.9363V20.9194V20.9026V20.8858V20.8691V20.8524V20.8357V20.8192V20.8026V20.7862V20.7697V20.7534V20.737V20.7208V20.7046V20.6884V20.6723V20.6563V20.6403V20.6243V20.6084V20.5926V20.5768V20.561V20.5454V20.5297V20.5141V20.4986V20.4831V20.4677V20.4523V20.437V20.4217V20.4065V20.3913V20.3762V20.3611V20.3461V20.3312V20.3162V20.3014V20.2866V20.2718V20.2571V20.2424V20.2278V20.2132V20.1987V20.1843V20.1698V20.1555V20.1412V20.1269V20.1127V20.0985V20.0844V20.0704V20.0563V20.0424V20.0285V20.0146V20.0008V19.987V19.9733V19.9596V19.946V19.9324V19.9189V19.9054V19.892V19.8786Z" stroke="white" stroke-width="3.16474"/>
<path d="M30.6377 30.0562H33.6445V36.9168H34.9371C37.8373 36.9168 39.2869 35.5077 39.2858 32.6894C39.2858 29.9287 37.94 28.5488 35.2483 28.5498H34.7053V26.3164L35.0935 26.3164C37.4088 26.3164 39.2076 26.872 40.4899 27.9831C41.7722 29.0943 42.4128 30.6413 42.4117 32.6242C42.4117 34.7354 41.7478 36.3517 40.4202 37.4729C39.0925 38.5942 37.1707 39.1583 34.6548 39.1654H30.6377V30.0562Z" fill="white"/>
<path d="M33.6462 26.3164H30.6377V28.9968H33.6462V26.3164Z" fill="white"/>
</svg>
