<svg width="186" height="98" viewBox="0 0 186 98" fill="none" xmlns="http://www.w3.org/2000/svg">
<path d="M101.843 95.4502C123.448 90.9258 143.44 83.5559 159.522 76.4274C178.665 67.9418 177.467 46.8939 160.361 34.8169C154.02 30.3398 147.111 23.9841 138.59 13.3955C137.568 12.1252 136.683 10.7195 135.785 9.35869C128.566 -1.57945 115.445 -5.26234 101.777 13.4044C90.8114 28.3799 84.3474 34.2446 81.8438 36.2161C81.0641 36.8301 80.2441 37.3704 79.4375 37.9488C75.8414 40.5274 65.0131 48.2197 58.5387 52.037C50.6888 56.6652 29.5205 63.3641 39.602 76.8352C51.5477 90.6022 63.0909 103.565 101.843 95.4502Z" fill="#FFEEE3"/>
<path d="M93.9979 36.6523H36.4341V92.2935H93.9979V36.6523Z" fill="#03CC60"/>
<path d="M68.1399 36.6523H60.354V44.4501H68.1399V36.6523Z" fill="white"/>
<path d="M90.6643 46.8672H77.0298V53.1195H90.6643V46.8672Z" fill="white"/>
<path d="M88.1379 86.25H67.0664V87.9163H88.1379V86.25Z" fill="white"/>
<path d="M88.1376 81.2773H73.6958V82.9436H88.1376V81.2773Z" fill="white"/>
<path d="M88.1378 76.3164H79.2842V77.9827H88.1378V76.3164Z" fill="white"/>
<path d="M61.0569 60.0139L45.6777 59.5408L61.0569 59.2891V60.0139Z" fill="#03CC60"/>
<path d="M63.0249 65.8708L46.2969 65.6191L63.0249 65.0352V65.8708Z" fill="#03CC60"/>
<path d="M58.8533 70.4175L43.4741 70.1658L58.8533 69.9141V70.4175Z" fill="#03CC60"/>
<path d="M60.9887 62.2023H60.3585H60.0044L45.6147 61.7593L60.0929 61.5227H60.171C61.0251 61.417 61.8011 60.969 61.7647 60.1434C61.723 59.1366 59.8481 58.2456 56.1921 58.2456H41.5837L49.4999 55.3611C49.4999 55.3611 52.208 54.319 51.1821 52.0285C50.3384 50.1458 46.9584 51.2533 46.9584 51.2533C46.9584 51.2533 33.1624 55.7839 28.8294 57.8579C27.2767 58.6638 25.9201 59.7812 24.8505 61.1351L0.318889 57.8511C0.318889 57.8511 0.246095 59.1569 0.246095 60.1434C0.245279 65.7395 0.731396 70.8518 2.16019 76.198L25.2203 72.9047C25.7578 73.9587 26.6881 74.777 27.8243 75.1952C30.022 76.1265 33.0322 76.202 37.0945 76.3479L53.3798 76.3832C57.9212 76.3832 59.6711 75.1599 59.6711 74.1682C59.6711 73.549 59.4315 72.658 57.0046 72.5724L43.4222 72.3509L58.2857 72.1093C62.4209 71.9784 64.0458 70.735 64.0458 69.6325C64.0458 68.958 63.3843 68.1223 61.5147 68.0317H61.0876L46.2449 67.8102L61.5199 67.3068C64.1239 67.2162 66.6966 66.6876 66.6966 64.6136C66.7174 62.8618 64.0249 62.3231 60.9887 62.2023Z" fill="url(#paint0_linear_3657_50936)"/>
<path d="M123.176 13.9467L114.681 28.6602L143.759 45.4485L152.254 30.735L123.176 13.9467Z" fill="#0FC645" stroke="white"/>
<path d="M124.685 29.1611L122.453 27.932L123.332 26.3348C123.507 26.0173 123.762 25.8119 124.093 25.716C124.423 25.6202 124.749 25.6573 125.066 25.8321C125.384 26.007 125.589 26.2621 125.685 26.5928C125.779 26.9283 125.737 27.2511 125.564 27.5639L124.685 29.1611ZM126.536 28.0988C126.88 27.4732 126.968 26.8423 126.795 26.2034C126.624 25.5718 126.241 25.0893 125.654 24.7657C125.066 24.4421 124.453 24.3767 123.824 24.5672C123.196 24.7651 122.705 25.1742 122.36 25.7999L120.891 28.4682L124.095 30.2322L123.667 31.0095L124.639 31.5445L125.067 30.7672L125.745 31.1404L125.317 31.9176L126.288 32.4526L126.716 31.6753L127.688 32.2103L128.278 31.1391L127.306 30.6042L128.506 28.424L127.535 27.889L126.334 30.0692L125.657 29.6961L126.536 28.0988Z" fill="white"/>
<path d="M133.663 5.94661L118.949 14.4414L135.738 43.5196L150.451 35.0248L133.663 5.94661Z" fill="#0FC645" stroke="white"/>
<path d="M127.659 20.6053L126.355 18.4159L127.921 17.4829C128.232 17.2974 128.556 17.2493 128.89 17.3338C129.224 17.4184 129.486 17.6151 129.671 17.9265C129.857 18.2379 129.905 18.5619 129.821 18.8957C129.731 19.2322 129.532 19.4895 129.225 19.6723L127.659 20.6053ZM129.793 20.6252C130.406 20.2597 130.801 19.7599 130.975 19.1212C131.147 18.4899 131.061 17.88 130.717 17.3036C130.374 16.7272 129.879 16.3609 129.239 16.2067C128.597 16.0598 127.967 16.1645 127.353 16.53L124.736 18.0887L126.608 21.231L125.846 21.6851L126.413 22.638L127.176 22.1839L127.572 22.8486L126.809 23.3027L127.377 24.2556L128.139 23.8016L128.707 24.7545L129.757 24.1288L129.19 23.1758L131.328 21.9023L130.76 20.9494L128.622 22.2229L128.226 21.5582L129.793 20.6252Z" fill="white"/>
<path d="M145.776 4.89297L128.831 6.11914L131.254 39.6082L148.2 38.382L145.776 4.89297Z" fill="#0FC645" stroke="white"/>
<path d="M137.401 16.7486L137.267 14.2038L139.088 14.1081C139.45 14.0891 139.759 14.1975 140.015 14.4278C140.271 14.6582 140.411 14.9542 140.43 15.3162C140.449 15.6782 140.341 15.9873 140.111 16.2432C139.875 16.4994 139.579 16.6342 139.222 16.6529L137.401 16.7486ZM139.28 17.7605C139.993 17.723 140.576 17.4649 141.027 16.9806C141.473 16.5021 141.681 15.9223 141.646 15.2523C141.611 14.5824 141.343 14.0275 140.849 13.593C140.35 13.1641 139.743 12.963 139.03 13.0005L135.988 13.1604L136.18 16.8128L135.294 16.8593L135.352 17.9669L136.238 17.9204L136.279 18.693L135.393 18.7396L135.451 19.8472L136.337 19.8006L136.395 20.9082L137.616 20.8441L137.558 19.7364L140.044 19.6058L139.985 18.4982L137.5 18.6288L137.459 17.8562L139.28 17.7605Z" fill="white"/>
<path d="M131.881 54.3522C132.814 55.4124 146.941 54.6694 150.885 53.9924C156.897 52.9606 158.27 51.3918 164.083 51.1327C172.866 50.7412 173.991 51.5869 183.649 52.3811C183.649 52.3811 184.484 49.4586 184.802 44.0835C185.12 38.7083 184.802 33.4376 184.802 33.4376C183.177 32.9562 172.912 36.5601 165.008 36.3886C160.575 36.2924 157.339 35.6271 156.134 34.3036C155.739 33.8705 154.275 31.5594 152.623 29.9074C151.301 28.5858 149.048 27.4819 147.917 27.3242L148.105 31.858C148.105 31.858 140.018 32.1009 133.858 32.0301C127.697 31.9593 129.304 36.0526 130.878 38.108C128.588 40.3031 129.825 42.9368 130.73 43.9793C128.889 46.198 130.73 48.4443 131.881 49.2901C131.881 49.2901 129.455 51.5963 131.881 54.3522Z" fill="url(#paint1_linear_3657_50936)"/>
<defs>
<linearGradient id="paint0_linear_3657_50936" x1="26.8904" y1="73.3435" x2="7.15268" y2="73.3435" gradientUnits="userSpaceOnUse">
<stop stop-color="#F3CEB4"/>
<stop offset="1" stop-color="#F3CEB4" stop-opacity="0"/>
</linearGradient>
<linearGradient id="paint1_linear_3657_50936" x1="163.988" y1="49.8716" x2="184.943" y2="49.8716" gradientUnits="userSpaceOnUse">
<stop stop-color="#FBCFB1"/>
<stop offset="1" stop-color="#FBCFB1" stop-opacity="0"/>
</linearGradient>
</defs>
</svg>
