<svg width="311" height="264" viewBox="0 0 311 264" fill="none" xmlns="http://www.w3.org/2000/svg">
<path d="M131.249 206.622C135.939 205.372 154.934 186.758 171.723 200.97C188.512 215.183 182.355 250.343 205.713 256.761C224.4 261.895 242.625 252.853 249.401 247.69" stroke="#00C65E" stroke-width="2"/>
<path d="M306.164 7.7315C303.726 7.35382 293.421 -0.612632 285.282 6.91042C277.144 14.4335 281.405 30.8496 269.66 34.973C260.263 38.2717 250.655 34.8158 247.025 32.6755" stroke="#CCEFDB" stroke-width="3"/>
<path d="M0.942638 98.4864C3.94546 97.5774 14.8083 87.4183 27.3527 93.0948C39.8972 98.7713 39.172 115.985 55.3432 117.5C68.2801 118.711 79.5482 113.178 83.5652 110.26" stroke="#FD9558" stroke-width="3"/>
</svg>
