<svg width="198" height="77" viewBox="0 0 198 77" fill="none" xmlns="http://www.w3.org/2000/svg">
<path d="M56.8867 11.9065V65.4007C56.8867 67.6075 58.6757 69.3965 60.8825 69.3965H138.936C141.143 69.3965 142.932 67.6075 142.932 65.4007V11.9065C142.932 9.69973 141.143 7.91079 138.936 7.91079L60.8825 7.91079C58.6757 7.91079 56.8867 9.69973 56.8867 11.9065Z" fill="#00C65E"/>
<path d="M139.683 13.3739C139.683 12.6193 139.071 12.0075 138.317 12.0075C137.562 12.0075 136.95 12.6193 136.95 13.3739C136.95 14.1285 137.562 14.7402 138.317 14.7402C139.071 14.7402 139.683 14.1285 139.683 13.3739Z" fill="white"/>
<path d="M139.683 63.9305C139.683 63.1759 139.071 62.5642 138.317 62.5642C137.562 62.5642 136.95 63.1759 136.95 63.9305C136.95 64.6851 137.562 65.2969 138.317 65.2969C139.071 65.2969 139.683 64.6851 139.683 63.9305Z" fill="white"/>
<path d="M62.8675 13.3739C62.8675 12.6193 62.2557 12.0075 61.5011 12.0075C60.7465 12.0075 60.1348 12.6193 60.1348 13.3739C60.1348 14.1285 60.7465 14.7402 61.5011 14.7402C62.2557 14.7402 62.8675 14.1285 62.8675 13.3739Z" fill="white"/>
<path d="M62.8665 63.9305C62.8665 63.1759 62.2548 62.5642 61.5001 62.5642C60.7455 62.5642 60.1338 63.1759 60.1338 63.9305C60.1338 64.6851 60.7455 65.2969 61.5001 65.2969C62.2548 65.2969 62.8665 64.6851 62.8665 63.9305Z" fill="white"/>
<path d="M76.6777 18.6133V37.1444C76.6777 39.4082 78.5129 41.2434 80.7767 41.2434H87.5304C89.7942 41.2434 91.6293 43.0784 91.6295 45.3422L91.6299 51.4229C91.6301 53.6866 93.4653 55.5216 95.729 55.5216H110.358" stroke="white" stroke-width="2.7327"/>
<path d="M91.6221 48.349V21.5059" stroke="white" stroke-width="2.7327"/>
<path d="M74.5121 19.1805C74.5121 20.3782 75.4831 21.3492 76.6809 21.3492C77.8786 21.3492 78.8496 20.3782 78.8496 19.1805C78.8496 17.9827 77.8786 17.0117 76.6809 17.0117C75.4831 17.0117 74.5121 17.9827 74.5121 19.1805Z" fill="white" stroke="white" stroke-width="1.36635"/>
<path d="M87.2342 41.7364C87.2342 44.1592 89.1982 46.1233 91.621 46.1233C94.0438 46.1233 96.0078 44.1592 96.0078 41.7364C96.0078 39.3137 94.0438 37.3496 91.621 37.3496C89.1982 37.3496 87.2342 39.3137 87.2342 41.7364Z" fill="white"/>
<path d="M109.127 55.5203C109.127 56.7181 110.098 57.6891 111.296 57.6891C112.494 57.6891 113.465 56.7181 113.465 55.5203C113.465 54.3225 112.494 53.3516 111.296 53.3516C110.098 53.3516 109.127 54.3225 109.127 55.5203Z" fill="white" stroke="white" stroke-width="1.36635"/>
<path d="M95.607 55.5195H74.1943" stroke="white" stroke-width="2.7327"/>
<path d="M67.8837 55.5191C67.8837 58.0494 69.935 60.1006 72.4653 60.1006C74.9956 60.1006 77.0469 58.0494 77.0469 55.5191C77.0469 52.9887 74.9956 50.9375 72.4653 50.9375C69.935 50.9375 67.8837 52.9887 67.8837 55.5191Z" fill="white"/>
<path d="M122.553 47.4148C122.553 50.5185 125.069 53.0346 128.173 53.0346C131.277 53.0346 133.793 50.5185 133.793 47.4148C133.793 44.311 131.277 41.7949 128.173 41.7949C125.069 41.7949 122.553 44.311 122.553 47.4148Z" fill="white"/>
<path d="M92.0742 34.6133H125.776C127.1 34.6133 128.173 35.6867 128.173 37.0107V47.4152" stroke="white" stroke-width="2.7171"/>
<path d="M108.825 34.3525V20.0615C108.825 18.7374 109.899 17.6641 111.223 17.6641H121.342" stroke="white" stroke-width="2.7171"/>
<path d="M119.009 18.6148C119.009 21.1451 121.06 23.1963 123.59 23.1963C126.121 23.1963 128.172 21.1451 128.172 18.6148C128.172 16.0844 126.121 14.0332 123.59 14.0332C121.06 14.0332 119.009 16.0844 119.009 18.6148Z" fill="white"/>
<path d="M88.2032 19.9624C88.2032 22.1205 89.9527 23.8701 92.1109 23.8701C94.269 23.8701 96.0186 22.1205 96.0186 19.9624C96.0186 17.8042 94.269 16.0547 92.1109 16.0547C89.9527 16.0547 88.2032 17.8042 88.2032 19.9624Z" fill="white"/>
<path d="M112.938 3.10852C112.938 1.56372 111.686 0.311523 110.141 0.311523C108.596 0.311523 107.344 1.56372 107.344 3.10852H112.938ZM112.938 9.86692V3.10852H107.344V9.86692H112.938Z" fill="#00C65E"/>
<path d="M92.1995 3.10852C92.1995 1.56372 90.9473 0.311523 89.4025 0.311523C87.8578 0.311523 86.6055 1.56372 86.6055 3.10852H92.1995ZM92.1995 9.86692V3.10852H86.6055V9.86692H92.1995Z" fill="#00C65E"/>
<path d="M71.4623 3.10852C71.4623 1.56372 70.21 0.311523 68.6652 0.311523C67.1205 0.311523 65.8682 1.56372 65.8682 3.10852H71.4623ZM71.4623 9.86692V3.10852H65.8682V9.86692H71.4623Z" fill="#00C65E"/>
<path d="M133.676 3.10852C133.676 1.56372 132.424 0.311523 130.879 0.311523C129.334 0.311523 128.082 1.56372 128.082 3.10852H133.676ZM133.676 9.86692V3.10852H128.082V9.86692H133.676Z" fill="#00C65E"/>
<path d="M112.999 73.319C112.999 74.8637 111.747 76.116 110.202 76.116C108.657 76.116 107.405 74.8637 107.405 73.319H112.999ZM112.999 66.5605V73.319H107.405V66.5605H112.999Z" fill="#00C65E"/>
<path d="M92.261 73.319C92.261 74.8637 91.0087 76.116 89.464 76.116C87.9192 76.116 86.667 74.8637 86.667 73.319H92.261ZM92.261 66.5605V73.319H86.667V66.5605H92.261Z" fill="#00C65E"/>
<path d="M71.5227 73.319C71.5227 74.8637 70.2704 76.116 68.7257 76.116C67.1809 76.116 65.9287 74.8637 65.9287 73.319H71.5227ZM71.5227 66.5605V73.319H65.9287V66.5605H71.5227Z" fill="#00C65E"/>
<path d="M133.737 73.319C133.737 74.8637 132.485 76.116 130.94 76.116C129.395 76.116 128.143 74.8637 128.143 73.319H133.737ZM133.737 66.5605V73.319H128.143V66.5605H133.737Z" fill="#00C65E"/>
<path d="M72.6907 55.1991V56.6239H72.1675L62.0679 58.063V56.6762L40.9007 56.6239L40.848 62.55H38.2316L37.4597 60.7054H34.8433L5.01551 60.6008C3.77769 60.598 2.59135 60.1051 1.71608 59.2298C0.840812 58.3545 0.347872 57.1682 0.345112 55.9304L0.332032 55.1323C0.331682 54.5172 0.452592 53.908 0.687832 53.3396C0.923072 52.7713 1.26804 52.2548 1.70301 51.8198C2.13798 51.3849 2.65442 51.0399 3.22281 50.8047C3.79119 50.5694 4.40036 50.4485 5.01551 50.4489L37.342 50.3573L38.1138 48.5127H40.7303L40.6908 54.4257L62.015 54.3211L62.028 52.9213L72.1276 54.2818L72.6378 54.2949V55.7459L72.6907 55.1991Z" fill="#FFB762"/>
<path d="M124.729 18.2928V19.7176H125.253L135.352 21.1567V19.77L156.519 19.7177L156.572 25.6438H159.188L159.96 23.7992H162.577L192.404 23.6945C193.642 23.6918 194.829 23.1988 195.704 22.3235C196.579 21.4483 197.072 20.2619 197.075 19.0241L197.088 18.2261C197.088 17.611 196.967 17.0018 196.732 16.4334C196.497 15.865 196.152 15.3486 195.717 14.9136C195.282 14.4786 194.766 14.1337 194.197 13.8984C193.629 13.6632 193.02 13.5423 192.404 13.5426L160.078 13.451L159.306 11.6064H156.69L156.729 17.5195L135.405 17.4148L135.392 16.015L125.292 17.3756L124.782 17.3886V18.8397L124.729 18.2928Z" fill="#FFB762"/>
</svg>
