<svg width="169" height="93" viewBox="0 0 169 93" fill="none" xmlns="http://www.w3.org/2000/svg">
<path d="M106.487 22.3633H62.933C59.4966 22.3633 56.7109 25.149 56.7109 28.5853V78.3617C56.7109 81.7981 59.4966 84.5838 62.933 84.5838H106.487C109.924 84.5838 112.709 81.7981 112.709 78.3617V28.5853C112.709 25.149 109.924 22.3633 106.487 22.3633Z" fill="#FFB762"/>
<path d="M102.043 40.417H85.4841C83.4223 40.417 81.7509 42.0885 81.7509 44.1503V50.3013C81.7509 52.3629 80.0796 54.0343 78.0179 54.0345L72.6802 54.0349C70.6186 54.035 68.9473 55.7064 68.9473 57.7681V71.0917" stroke="white" stroke-width="2.48882"/>
<path d="M75.376 54.0264H95.7137C97.7755 54.0264 99.4469 55.6978 99.4469 57.7596V73.4959" stroke="white" stroke-width="2.48882"/>
<path d="M102.044 38.4412C100.953 38.4412 100.069 39.3255 100.069 40.4164C100.069 41.5073 100.953 42.3916 102.044 42.3916C103.135 42.3916 104.02 41.5073 104.02 40.4164C104.02 39.3255 103.135 38.4412 102.044 38.4412Z" fill="white" stroke="white" stroke-width="1.24441"/>
<path d="M81.5008 50.0308C79.2942 50.0308 77.5054 51.8196 77.5054 54.0262C77.5054 56.2327 79.2942 58.0215 81.5008 58.0215C83.7073 58.0215 85.4961 56.2327 85.4961 54.0262C85.4961 51.8196 83.7073 50.0308 81.5008 50.0308Z" fill="white"/>
<path d="M68.9486 69.9705C67.8577 69.9705 66.9734 70.8548 66.9734 71.9457C66.9734 73.0366 67.8577 73.9209 68.9486 73.9209C70.0395 73.9209 70.9238 73.0366 70.9238 71.9457C70.9238 70.8548 70.0395 69.9705 68.9486 69.9705Z" fill="white" stroke="white" stroke-width="1.24441"/>
<path d="M68.9482 57.6561V38.1543" stroke="white" stroke-width="2.48882"/>
<path d="M68.9474 32.4066C66.6429 32.4066 64.7747 34.2747 64.7747 36.5793C64.7747 38.8838 66.6429 40.752 68.9474 40.752C71.2519 40.752 73.1201 38.8838 73.1201 36.5793C73.1201 34.2747 71.2519 32.4066 68.9474 32.4066Z" fill="white"/>
<path d="M99.4455 66.1976C97.1409 66.1976 95.2728 68.0658 95.2728 70.3703C95.2728 72.6748 97.1409 74.543 99.4455 74.543C101.75 74.543 103.618 72.6748 103.618 70.3703C103.618 68.0658 101.75 66.1976 99.4455 66.1976Z" fill="white"/>
<path d="M107.731 28.5865C108.418 28.5865 108.975 28.0293 108.975 27.3421C108.975 26.6548 108.418 26.0977 107.731 26.0977C107.043 26.0977 106.486 26.6548 106.486 27.3421C106.486 28.0293 107.043 28.5865 107.731 28.5865Z" fill="#363A45"/>
<path d="M61.6878 28.5865C62.375 28.5865 62.9322 28.0293 62.9322 27.3421C62.9322 26.6548 62.375 26.0977 61.6878 26.0977C61.0005 26.0977 60.4434 26.6548 60.4434 27.3421C60.4434 28.0293 61.0005 28.5865 61.6878 28.5865Z" fill="#363A45"/>
<path d="M107.731 80.8502C108.418 80.8502 108.975 80.293 108.975 79.6057C108.975 78.9185 108.418 78.3613 107.731 78.3613C107.043 78.3613 106.486 78.9185 106.486 79.6057C106.486 80.293 107.043 80.8502 107.731 80.8502Z" fill="#363A45"/>
<path d="M61.6878 80.8502C62.375 80.8502 62.9322 80.293 62.9322 79.6057C62.9322 78.9185 62.375 78.3613 61.6878 78.3613C61.0005 78.3613 60.4434 78.9185 60.4434 79.6057C60.4434 80.293 61.0005 80.8502 61.6878 80.8502Z" fill="#363A45"/>
<path d="M131.095 15.4618V41.911C131.095 43.9978 132.786 45.6895 134.873 45.6895H165.101C167.188 45.6895 168.879 43.9978 168.879 41.911V15.4618C168.879 13.375 167.188 11.6833 165.101 11.6833H134.873C132.786 11.6833 131.095 13.375 131.095 15.4618Z" fill="white"/>
<path d="M134.874 14.7072C134.874 14.2898 134.535 13.9515 134.118 13.9515C133.701 13.9515 133.362 14.2898 133.362 14.7072C133.362 15.1246 133.701 15.4629 134.118 15.4629C134.535 15.4629 134.874 15.1246 134.874 14.7072Z" fill="#363A45"/>
<path d="M134.874 42.6662C134.874 42.2488 134.535 41.9105 134.118 41.9105C133.701 41.9105 133.362 42.2488 133.362 42.6662C133.362 43.0835 133.701 43.4219 134.118 43.4219C134.535 43.4219 134.874 43.0835 134.874 42.6662Z" fill="#363A45"/>
<path d="M166.613 14.7072C166.613 14.2898 166.275 13.9515 165.857 13.9515C165.44 13.9515 165.102 14.2898 165.102 14.7072C165.102 15.1246 165.44 15.4629 165.857 15.4629C166.275 15.4629 166.613 15.1246 166.613 14.7072Z" fill="#363A45"/>
<path d="M166.613 42.6662C166.613 42.2488 166.275 41.9105 165.857 41.9105C165.44 41.9105 165.102 42.2488 165.102 42.6662C165.102 43.0835 165.44 43.4219 165.857 43.4219C166.275 43.4219 166.613 43.0835 166.613 42.6662Z" fill="#363A45"/>
<path d="M141.558 21.9004L159.358 37.4759" stroke="#363A45" stroke-width="2.87075"/>
<path d="M156.641 37.3984C156.641 38.8994 157.857 40.1162 159.358 40.1162C160.859 40.1162 162.076 38.8994 162.076 37.3984C162.076 35.8975 160.859 34.6807 159.358 34.6807C157.857 34.6807 156.641 35.8975 156.641 37.3984Z" fill="white" stroke="#363A45" stroke-width="1.68867"/>
<path d="M138.84 21.5722C138.84 23.0732 140.057 24.29 141.558 24.29C143.059 24.29 144.275 23.0732 144.275 21.5722C144.275 20.0713 143.059 18.8545 141.558 18.8545C140.057 18.8545 138.84 20.0713 138.84 21.5722Z" fill="white" stroke="#363A45" stroke-width="1.68867"/>
<path d="M139.23 4.79297L157.031 20.3684" stroke="#363A45" stroke-width="2.87075"/>
<path d="M154.314 20.291C154.314 21.792 155.53 23.0087 157.031 23.0087C158.532 23.0087 159.749 21.792 159.749 20.291C159.749 18.79 158.532 17.5732 157.031 17.5732C155.53 17.5732 154.314 18.79 154.314 20.291Z" fill="white" stroke="#363A45" stroke-width="1.68867"/>
<path d="M136.512 4.46481C136.512 5.96579 137.729 7.18257 139.23 7.18257C140.73 7.18257 141.947 5.96579 141.947 4.46481C141.947 2.96384 140.73 1.74707 139.23 1.74707C137.729 1.74707 136.512 2.96384 136.512 4.46481Z" fill="white" stroke="#363A45" stroke-width="1.68867"/>
<path d="M142.792 40.1816L160.593 55.7571" stroke="#363A45" stroke-width="2.87075"/>
<path d="M157.875 55.6797C157.875 57.1806 159.092 58.3974 160.593 58.3974C162.094 58.3974 163.311 57.1806 163.311 55.6797C163.311 54.1787 162.094 52.9619 160.593 52.9619C159.092 52.9619 157.875 54.1787 157.875 55.6797Z" fill="white" stroke="#363A45" stroke-width="1.68867"/>
<path d="M140.074 39.8535C140.074 41.3545 141.291 42.5712 142.792 42.5712C144.293 42.5712 145.51 41.3545 145.51 39.8535C145.51 38.3525 144.293 37.1357 142.792 37.1357C141.291 37.1357 140.074 38.3525 140.074 39.8535Z" fill="white" stroke="#363A45" stroke-width="1.68867"/>
<path d="M0.540039 49.1474L0.540039 75.5965C0.540039 77.6833 2.23171 79.375 4.3185 79.375H34.5462C36.633 79.375 38.3246 77.6833 38.3246 75.5965V49.1474C38.3246 47.0606 36.633 45.3689 34.5462 45.3689H4.3185C2.23171 45.3689 0.540039 47.0606 0.540039 49.1474Z" fill="white"/>
<path d="M4.319 48.3927C4.319 47.9754 3.98067 47.6371 3.56331 47.6371C3.14595 47.6371 2.80762 47.9754 2.80762 48.3927C2.80762 48.8101 3.14595 49.1484 3.56331 49.1484C3.98067 49.1484 4.319 48.8101 4.319 48.3927Z" fill="#363A45"/>
<path d="M4.319 76.3517C4.319 75.9344 3.98067 75.596 3.56331 75.596C3.14595 75.596 2.80762 75.9344 2.80762 76.3517C2.80762 76.7691 3.14595 77.1074 3.56331 77.1074C3.98067 77.1074 4.319 76.7691 4.319 76.3517Z" fill="#363A45"/>
<path d="M36.0573 48.3927C36.0573 47.9754 35.7189 47.6371 35.3016 47.6371C34.8842 47.6371 34.5459 47.9754 34.5459 48.3927C34.5459 48.8101 34.8842 49.1484 35.3016 49.1484C35.7189 49.1484 36.0573 48.8101 36.0573 48.3927Z" fill="#363A45"/>
<path d="M36.0573 76.3517C36.0573 75.9344 35.7189 75.596 35.3016 75.596C34.8842 75.596 34.5459 75.9344 34.5459 76.3517C34.5459 76.7691 34.8842 77.1074 35.3016 77.1074C35.7189 77.1074 36.0573 76.7691 36.0573 76.3517Z" fill="#363A45"/>
<path d="M11.002 55.5879L28.8027 71.1634" stroke="#363A45" stroke-width="2.87075"/>
<path d="M26.085 71.0859C26.085 72.5869 27.3018 73.8037 28.8028 73.8037C30.3037 73.8037 31.5205 72.5869 31.5205 71.0859C31.5205 69.5849 30.3037 68.3682 28.8028 68.3682C27.3018 68.3682 26.085 69.5849 26.085 71.0859Z" fill="white" stroke="#363A45" stroke-width="1.68867"/>
<path d="M8.28423 55.2597C8.28423 56.7607 9.501 57.9775 11.002 57.9775C12.5029 57.9775 13.7197 56.7607 13.7197 55.2597C13.7197 53.7588 12.5029 52.542 11.002 52.542C9.501 52.542 8.28423 53.7588 8.28423 55.2597Z" fill="white" stroke="#363A45" stroke-width="1.68867"/>
<path d="M8.6748 38.4805L26.4755 54.0559" stroke="#363A45" stroke-width="2.87075"/>
<path d="M23.7569 53.9785C23.7569 55.4795 24.9737 56.6962 26.4746 56.6962C27.9756 56.6962 29.1924 55.4795 29.1924 53.9785C29.1924 52.4775 27.9756 51.2607 26.4746 51.2607C24.9737 51.2607 23.7569 52.4775 23.7569 53.9785Z" fill="white" stroke="#363A45" stroke-width="1.68867"/>
<path d="M5.95708 38.1523C5.95708 39.6533 7.17386 40.8701 8.67483 40.8701C10.1758 40.8701 11.3926 39.6533 11.3926 38.1523C11.3926 36.6513 10.1758 35.4346 8.67483 35.4346C7.17386 35.4346 5.95708 36.6513 5.95708 38.1523Z" fill="white" stroke="#363A45" stroke-width="1.68867"/>
<path d="M12.2373 73.8691L30.038 89.4446" stroke="#363A45" stroke-width="2.87075"/>
<path d="M27.3194 89.3672C27.3194 90.8681 28.5362 92.0849 30.0371 92.0849C31.5381 92.0849 32.7549 90.8681 32.7549 89.3672C32.7549 87.8662 31.5381 86.6494 30.0371 86.6494C28.5362 86.6494 27.3194 87.8662 27.3194 89.3672Z" fill="white" stroke="#363A45" stroke-width="1.68867"/>
<path d="M9.51958 73.541C9.51958 75.042 10.7364 76.2587 12.2373 76.2587C13.7383 76.2587 14.9551 75.042 14.9551 73.541C14.9551 72.04 13.7383 70.8232 12.2373 70.8232C10.7364 70.8232 9.51958 72.04 9.51958 73.541Z" fill="white" stroke="#363A45" stroke-width="1.68867"/>
<path fill-rule="evenodd" clip-rule="evenodd" d="M142.861 35.9121C141.077 35.9121 139.554 37.0318 138.958 38.6068H106.405C105.808 37.0321 104.285 35.9128 102.501 35.9128C100.197 35.9128 98.3292 37.781 98.3292 40.0855C98.3292 42.39 100.197 44.2582 102.501 44.2582C104.286 44.2582 105.809 43.1378 106.405 41.5619H138.957C139.554 43.1374 141.076 44.2575 142.861 44.2575C145.165 44.2575 147.034 42.3893 147.034 40.0848C147.034 37.7803 145.165 35.9121 142.861 35.9121ZM65.0435 72.57H32.4916C31.8954 74.1459 30.3723 75.2663 28.5876 75.2663C26.2831 75.2663 24.415 73.3981 24.415 71.0936C24.415 68.7891 26.2831 66.9209 28.5876 66.9209C30.3715 66.9209 31.8938 68.0402 32.4907 69.6149H65.0438C65.6404 68.0398 67.163 66.9201 68.9472 66.9201C71.2517 66.9201 73.1199 68.7882 73.1199 71.0928C73.1199 73.3973 71.2517 75.2655 68.9472 75.2655C67.1628 75.2655 65.64 74.1454 65.0435 72.57Z" fill="#F89358"/>
</svg>
