<svg width="92" height="91" viewBox="0 0 92 91" fill="none" xmlns="http://www.w3.org/2000/svg">
<g clip-path="url(#clip0_1649_35196)">
<path opacity="0.2" d="M86.0745 72.4882C84.1064 87.0544 68.368 95.3375 55.2471 88.7126L12.2997 67.028C-3.21253 59.1958 -3.39909 37.112 11.9786 29.0188L61.3679 3.02522C76.7456 -5.06802 94.8431 7.58919 92.5164 24.8101L86.0745 72.4882Z" fill="#00C65E"/>
<path d="M47.012 90.5217L34.012 82.4317L21.012 90.5217L23.042 39.4717H44.992L47.012 90.5217Z" fill="#FA9458"/>
<path d="M61.8419 40.1721C61.8419 42.7521 53.9019 44.0521 53.1419 46.3821C52.3819 48.7121 57.9919 54.5121 56.5219 56.5221C55.0519 58.5321 47.8619 54.9621 45.8319 56.4421C43.8019 57.9221 45.0319 65.8521 42.6119 66.6321C40.1919 67.4121 36.6119 60.2721 34.0119 60.2721C31.4119 60.2721 27.7519 67.3921 25.4119 66.6321C23.0719 65.8721 24.1919 57.9021 22.1919 56.4421C20.1919 54.9821 12.9719 58.5621 11.4919 56.5221C10.0119 54.4821 15.6719 48.8021 14.8919 46.3821C14.1119 43.9621 6.19189 42.7521 6.19189 40.1721C6.19189 37.5921 14.1319 36.2821 14.8919 33.9521C15.6519 31.6221 10.0419 25.8221 11.5019 23.8121C12.9619 21.8021 20.1919 25.3721 22.1919 23.9021C24.1919 22.4321 23.0019 14.4821 25.4119 13.7021C27.8219 12.9221 31.4119 20.0621 34.0119 20.0621C36.6119 20.0621 40.2819 12.9421 42.6119 13.7021C44.9419 14.4621 43.8219 22.4321 45.8319 23.9021C47.8419 25.3721 55.0519 21.7721 56.5219 23.8121C57.9919 25.8521 52.3619 31.5321 53.1919 33.9521C54.0219 36.3721 61.8419 37.5821 61.8419 40.1721Z" fill="#FFB663"/>
<path d="M34.012 52.6319C40.8935 52.6319 46.472 47.0534 46.472 40.1719C46.472 33.2904 40.8935 27.7119 34.012 27.7119C27.1305 27.7119 21.552 33.2904 21.552 40.1719C21.552 47.0534 27.1305 52.6319 34.012 52.6319Z" fill="white"/>
<path d="M58.0718 20.0825C57.2214 19.289 56.0908 18.8655 54.9283 18.9049C53.7659 18.9442 52.6666 19.4433 51.8718 20.2925L34.9718 38.5825L30.1918 31.8625C29.49 30.9799 28.4756 30.4011 27.3586 30.2462C26.2417 30.0913 25.108 30.3721 24.1925 31.0304C23.277 31.6887 22.65 32.6741 22.4413 33.7822C22.2327 34.8904 22.4584 36.0363 23.0718 36.9825L30.7018 47.5625C30.9247 48.0006 31.2264 48.3938 31.5918 48.7225C32.3425 49.4193 33.3182 49.8238 34.3418 49.8625C35.0913 49.9256 35.8439 49.7863 36.5212 49.4591C37.1984 49.1319 37.7754 48.6289 38.1918 48.0025L58.2918 26.2925C59.0846 25.4391 59.5066 24.3061 59.4654 23.142C59.4242 21.9779 58.923 20.8777 58.0718 20.0825Z" fill="#35B661"/>
</g>
<defs>
<clipPath id="clip0_1649_35196">
<rect width="92" height="91" fill="white"/>
</clipPath>
</defs>
</svg>
