<svg width="100" height="91" viewBox="0 0 100 91" fill="none" xmlns="http://www.w3.org/2000/svg">
<g clip-path="url(#clip0_1649_35183)">
<path opacity="0.2" d="M92.8264 72.4882C90.8583 87.0544 75.12 95.3375 61.9991 88.7126L19.0516 67.028C3.53942 59.1958 3.35287 37.112 18.7305 29.0188L68.1199 3.02522C83.4975 -5.06802 101.595 7.58919 99.2683 24.8101L92.8264 72.4882Z" fill="#FFB762"/>
<path d="M40.4904 9.88819C36.4942 9.81796 31.9778 5.65103 28.3599 6.75129C24.7421 7.85155 23.2287 13.8913 20.0838 16.1152C16.9388 18.3391 10.7435 17.5315 8.41436 20.6099C6.08521 23.6882 8.52077 29.2949 7.23205 32.9585C5.94334 36.6221 0.563826 39.4547 0.492887 43.3992C0.421949 47.3438 5.76599 50.4924 6.87736 54.0741C7.98873 57.6558 5.42312 63.356 7.58675 66.4695C9.75037 69.583 16.0048 69.068 19.1024 71.3739C22.2001 73.6797 23.3351 79.7077 27.0476 80.9719C30.76 82.236 35.3237 78.1744 39.2845 78.2446C43.2452 78.3149 47.7853 82.4818 51.4504 81.3815C55.1156 80.2813 56.5698 74.2416 59.7266 72.0176C62.8834 69.7937 69.0669 70.6013 71.4315 67.5347C73.7961 64.468 71.3251 58.8497 72.6138 55.186C73.9025 51.5224 79.2347 48.7015 79.3057 44.7219C79.3766 40.7422 74.0326 37.6287 72.9212 34.047C71.8098 30.4654 74.3873 24.7768 72.1763 21.6633C69.9654 18.5498 63.7583 19.0648 60.6606 16.759C57.563 14.4531 56.428 8.41338 52.7155 7.16096C49.0031 5.90854 44.4748 9.95842 40.4904 9.88819Z" fill="#00C65E"/>
<path d="M40.4195 13.6802C36.8726 13.6802 32.8527 9.91119 29.6368 10.8827C26.421 11.8542 25.0731 17.2267 22.2829 19.1697C19.4926 21.1128 14.0067 20.469 11.9022 23.1962C9.79768 25.9235 11.9968 30.9214 10.8618 34.1754C9.72674 37.4293 4.9502 39.9693 4.85562 43.5393C4.76104 47.1093 9.58486 49.8365 10.5425 53.0319C11.5002 56.2273 9.24199 61.2253 11.2046 64.0345C13.1673 66.8437 18.6886 66.3755 21.4434 68.4121C24.1982 70.4488 25.2032 75.8213 28.5373 76.945C31.8714 78.0686 35.8321 74.4518 39.3791 74.4518C42.926 74.4518 46.9459 78.2208 50.1617 77.2493C53.3776 76.2778 54.7254 70.9404 57.5157 68.9505C60.306 66.9607 65.7919 67.663 67.8964 64.9358C70.0009 62.2085 67.8136 57.2106 68.9368 53.9449C70.06 50.6792 74.8484 48.1627 74.9429 44.6512C75.0375 41.1398 70.2137 38.3423 69.2679 35.1586C68.322 31.9749 70.5566 26.9652 68.5939 24.1443C66.6313 21.3234 61.1217 21.8033 58.367 19.7784C55.6122 17.7535 54.5954 12.416 51.3322 11.2455C48.069 10.0751 43.9664 13.7387 40.4195 13.6802Z" fill="#CCE6D6"/>
<path d="M46.6618 43.4121C47.1275 43.6448 47.5777 43.9068 48.0097 44.1963C48.6335 44.5978 49.2053 45.0734 49.7122 45.6126C50.2771 46.2768 50.7284 47.0281 51.0482 47.8366C51.4682 48.8171 51.6776 49.8734 51.663 50.9383C51.6614 52.1991 51.3724 53.4433 50.8177 54.5782C50.2629 55.7131 49.4566 56.7095 48.4589 57.4931C46.0812 59.4126 43.0698 60.3925 40.0054 60.2437C38.5595 60.2498 37.1182 60.0808 35.7137 59.7404C34.5405 59.4955 33.404 59.1021 32.3322 58.5699C31.5414 58.1258 30.7793 57.6333 30.0504 57.0951C29.5213 56.7446 29.0404 56.3275 28.6198 55.8544L28.1587 55.3511L32.1785 51.1607L32.4623 51.5119C32.7425 51.7978 33.0428 52.0638 33.3609 52.3078C33.8227 52.6891 34.3172 53.0299 34.8387 53.3261C36.2148 54.08 37.7589 54.4823 39.3315 54.4966C40.7603 54.576 42.1726 54.1623 43.3277 53.3261C43.7682 52.9907 44.1228 52.5574 44.3631 52.0613C44.6034 51.5652 44.7226 51.0202 44.711 50.4701C44.724 49.9211 44.6066 49.3767 44.3684 48.8807C44.1302 48.3846 43.7778 47.9509 43.3395 47.6142C42.2627 46.7929 40.9257 46.378 39.568 46.4437H36.2102V40.9658H39.3315C40.468 41.0246 41.5843 40.6521 42.4528 39.9241C42.8391 39.5825 43.145 39.1613 43.3493 38.6902C43.5536 38.219 43.6511 37.7093 43.6351 37.1968C43.6464 36.7106 43.5458 36.2282 43.341 35.7861C43.1361 35.3441 42.8324 34.9539 42.4528 34.6452C41.5762 33.9349 40.4625 33.5758 39.3315 33.6386C38.2199 33.6324 37.1224 33.885 36.1275 34.376C35.3339 34.7384 34.6067 35.2289 33.9757 35.8274L33.3017 36.5414L29.2701 32.5617C29.3646 32.4447 29.4947 32.2808 29.672 32.0818C30.0572 31.6587 30.4763 31.2673 30.9253 30.9113C31.5854 30.3704 32.2983 29.8959 33.0535 29.495C35.2195 28.4497 37.5958 27.9016 40.0054 27.8915C42.7715 27.7564 45.4909 28.6357 47.6432 30.3612C48.5604 31.1069 49.2961 32.0476 49.7955 33.1135C50.295 34.1794 50.5453 35.3431 50.528 36.518C50.5378 37.3907 50.3772 38.2571 50.0551 39.0696C49.8034 39.7616 49.4356 40.4066 48.9673 40.9775C48.5741 41.4301 48.143 41.8491 47.6786 42.2299C47.3142 42.5163 46.9175 42.7599 46.4963 42.9556L46.0589 43.1663L46.6618 43.4121Z" fill="white"/>
</g>
<defs>
<clipPath id="clip0_1649_35183">
<rect width="100" height="91" fill="white"/>
</clipPath>
</defs>
</svg>
