<svg width="93" height="91" viewBox="0 0 93 91" fill="none" xmlns="http://www.w3.org/2000/svg">
<g clip-path="url(#clip0_1649_35167)">
<path opacity="0.2" d="M85.8381 72.4882C83.8701 87.0544 68.1317 95.3375 55.0108 88.7126L12.0634 67.028C-3.44886 59.1958 -3.63541 37.112 11.7422 29.0188L61.1316 3.02522C76.5092 -5.06802 94.6068 7.58919 92.2801 24.8101L85.8381 72.4882Z" fill="#00C65E"/>
<path d="M48.6658 35.4488C56.0476 35.4488 62.0318 29.4646 62.0318 22.0828C62.0318 14.701 56.0476 8.7168 48.6658 8.7168C41.284 8.7168 35.2998 14.701 35.2998 22.0828C35.2998 29.4646 41.284 35.4488 48.6658 35.4488Z" fill="#FACFB0"/>
<path d="M46.6191 35.4502H50.7041C53.53 35.4502 56.3282 36.0068 58.9389 37.0882C61.5497 38.1696 63.9218 39.7547 65.92 41.7528C67.9182 43.751 69.5033 46.1232 70.5847 48.734C71.6661 51.3447 72.2227 54.1429 72.2227 56.9687V61.4824C72.2227 63.8487 71.2826 66.1182 69.6094 67.7914C67.9361 69.4647 65.6667 70.4047 63.3003 70.4047H34.0141C31.6478 70.4047 29.3783 69.4647 27.7051 67.7914C26.0318 66.1182 25.0918 63.8487 25.0918 61.4824V56.9775C25.0906 54.1502 25.6467 51.3503 26.7281 48.738C27.8096 46.1257 29.3952 43.7521 31.3944 41.7528C33.3937 39.7536 35.7673 38.168 38.3796 37.0865C40.9919 36.0051 43.7918 35.449 46.6191 35.4502Z" fill="#35B661"/>
<path d="M33.9096 65.8035C32.7078 65.8035 31.5553 65.3261 30.7056 64.4764C29.8558 63.6266 29.3784 62.4741 29.3784 61.2724V53.0761C29.3784 51.8743 29.8558 50.7218 30.7056 49.8721C31.5553 49.0223 32.7078 48.5449 33.9096 48.5449C35.1113 48.5449 36.2638 49.0223 37.1136 49.8721C37.9633 50.7218 38.4407 51.8743 38.4407 53.0761V61.2461C38.4442 61.8434 38.3295 62.4354 38.1033 62.9882C37.8772 63.5409 37.544 64.0436 37.1229 64.4671C36.7018 64.8906 36.2011 65.2267 35.6496 65.4561C35.0982 65.6854 34.5068 65.8035 33.9096 65.8035V65.8035Z" stroke="#FFB762" stroke-width="4.18"/>
<path d="M46.3043 81.7142H20.0622C19.4136 81.7142 18.7713 81.5863 18.1722 81.3379C17.5731 81.0894 17.0288 80.7252 16.5706 80.2662C16.1124 79.8071 15.7491 79.2622 15.5017 78.6626C15.2543 78.0631 15.1275 77.4206 15.1287 76.772V59.2772C15.1264 58.6264 15.2529 57.9815 15.5009 57.3798C15.7489 56.7781 16.1135 56.2314 16.5737 55.7712C17.0339 55.311 17.5806 54.9464 18.1823 54.6984C18.784 54.4504 19.4289 54.3239 20.0797 54.3262H46.3218C46.9727 54.3239 47.6175 54.4504 48.2192 54.6984C48.821 54.9464 49.3677 55.311 49.8279 55.7712C50.2881 56.2314 50.6527 56.7781 50.9007 57.3798C51.1487 57.9815 51.2752 58.6264 51.2729 59.2772V76.772C51.274 77.4235 51.1461 78.0689 50.8965 78.6708C50.6469 79.2726 50.2806 79.8191 49.8186 80.2786C49.3567 80.7381 48.8083 81.1016 48.2051 81.348C47.6019 81.5944 46.9559 81.7189 46.3043 81.7142Z" fill="#FFB762"/>
<path d="M47.0213 78.9764H21.5665C21.0018 78.9787 20.4423 78.8692 19.9201 78.6542C19.398 78.4392 18.9236 78.1229 18.5243 77.7236C18.125 77.3243 17.8088 76.8499 17.5937 76.3278C17.3787 75.8057 17.2692 75.2461 17.2715 74.6814V61.5079C17.2692 60.9432 17.3787 60.3837 17.5937 59.8615C17.8088 59.3394 18.125 58.865 18.5243 58.4657C18.9236 58.0664 19.398 57.7502 19.9201 57.5351C20.4423 57.3201 21.0018 57.2106 21.5665 57.2129H47.0213C47.586 57.2106 48.1456 57.3201 48.6677 57.5351C49.1898 57.7502 49.6642 58.0664 50.0635 58.4657C50.4628 58.865 50.7791 59.3394 50.9941 59.8615C51.2091 60.3837 51.3186 60.9432 51.3163 61.5079V74.6814C51.2961 75.8142 50.8371 76.895 50.036 77.6961C49.2349 78.4972 48.1541 78.9562 47.0213 78.9764Z" fill="white"/>
<path d="M47.9135 67.8854H20.6742C19.7733 67.8854 18.9091 67.5281 18.2712 66.8919C17.6333 66.2556 17.2738 65.3924 17.2715 64.4914V57.6947C17.2715 56.7923 17.63 55.9268 18.2681 55.2886C18.9063 54.6505 19.7718 54.292 20.6742 54.292H47.9135C48.816 54.292 49.6815 54.6505 50.3196 55.2886C50.9578 55.9268 51.3163 56.7923 51.3163 57.6947V64.4914C51.3071 65.3903 50.9454 66.2495 50.309 66.8843C49.6726 67.5191 48.8124 67.8786 47.9135 67.8854Z" fill="#FFB762"/>
<path d="M34.3203 70.3332C34.0733 70.3367 33.828 70.2915 33.5985 70.2001C33.369 70.1088 33.1598 69.9732 32.9827 69.801C32.8056 69.6288 32.6642 69.4234 32.5665 69.1965C32.4688 68.9696 32.4168 68.7257 32.4133 68.4787V64.8486C32.4156 64.3575 32.6117 63.8871 32.959 63.5398C33.3063 63.1926 33.7767 62.9964 34.2678 62.9941H34.3203C34.8114 62.9964 35.2817 63.1926 35.629 63.5398C35.9763 63.8871 36.1724 64.3575 36.1747 64.8486V68.4787C36.1782 68.7233 36.1327 68.966 36.0407 69.1926C35.9488 69.4192 35.8123 69.625 35.6394 69.7979C35.4665 69.9708 35.2607 70.1073 35.0341 70.1992C34.8075 70.2912 34.5648 70.3367 34.3203 70.3332Z" fill="#FFB762"/>
<path d="M65.61 18.3489H62.8021C61.0002 11.6309 55.3669 6.71484 48.6839 6.71484C41.7559 6.71484 35.9477 11.9633 34.3732 19.0924C34.3256 19.2841 34.3021 19.481 34.3032 19.6785C34.2961 19.8367 34.3212 19.9948 34.3769 20.1432C34.4326 20.2915 34.5178 20.427 34.6274 20.5414C34.7369 20.6559 34.8686 20.747 35.0143 20.8091C35.16 20.8713 35.3169 20.9032 35.4753 20.9031L65.61 20.8506C65.9418 20.8506 66.26 20.7188 66.4945 20.4842C66.7291 20.2496 66.8609 19.9315 66.8609 19.5997C66.8609 19.268 66.7291 18.9498 66.4945 18.7152C66.26 18.4806 65.9418 18.3489 65.61 18.3489Z" fill="#35B661"/>
</g>
<defs>
<clipPath id="clip0_1649_35167">
<rect width="93" height="91" fill="white"/>
</clipPath>
</defs>
</svg>
