<svg width="93" height="91" viewBox="0 0 93 91" fill="none" xmlns="http://www.w3.org/2000/svg">
<g clip-path="url(#clip0_1649_35210)">
<path opacity="0.2" d="M85.8264 72.4882C83.8583 87.0544 68.12 95.3375 54.9991 88.7126L12.0516 67.028C-3.46058 59.1958 -3.64713 37.112 11.7305 29.0188L61.1199 3.02522C76.4975 -5.06802 94.5951 7.58919 92.2683 24.8101L85.8264 72.4882Z" fill="#FFB762"/>
<path d="M22.4418 20.2149C23.2428 19.4716 24.3629 19.1791 25.425 19.4358L45.8894 24.3809C46.951 24.6374 47.8135 25.4084 48.1871 26.4346L51.4519 35.403C51.8908 36.6088 51.9642 37.9174 51.6628 39.1648L42.7337 76.1159C42.3108 77.866 40.5492 78.9419 38.7991 78.519L7.01097 70.8375C5.26086 70.4146 4.18494 68.6531 4.60785 66.9029L13.5344 29.9623C13.8355 28.7161 14.4974 27.5863 15.4373 26.7142L22.4418 20.2149Z" fill="#00C65E"/>
<path d="M16.9846 20.8534C17.4576 19.8684 18.3926 19.1859 19.4749 19.0356L40.3283 16.1401C41.41 15.9899 42.495 16.3913 43.2186 17.2093L49.5418 24.3582C50.392 25.3194 50.9397 26.5102 51.1162 27.7812L56.3444 65.4346C56.592 67.218 55.3471 68.8644 53.5637 69.1121L21.1714 73.6098C19.388 73.8574 17.7415 72.6124 17.4939 70.8291L12.2672 33.1863C12.0908 31.9164 12.2928 30.6227 12.8479 29.467L16.9846 20.8534Z" fill="#CCEFDB"/>
<path d="M32.8061 44.8764C32.455 45.3355 32.0163 45.7205 31.5154 46.009C31.0146 46.2975 30.4615 46.4839 29.8882 46.5574C29.3149 46.6308 28.7327 46.5899 28.1753 46.437C27.6178 46.284 27.0963 46.0221 26.6407 45.6663C26.1856 45.3422 25.8024 44.9275 25.5153 44.4482C25.2282 43.9688 25.0433 43.4353 24.9723 42.8811C24.9013 42.3269 24.9457 41.764 25.1027 41.2278C25.2597 40.6915 25.5259 40.1936 25.8846 39.7652C26.2358 39.3061 26.6745 38.9211 27.1753 38.6326C27.6761 38.3441 28.2292 38.1577 28.8025 38.0842C29.3759 38.0108 29.9581 38.0517 30.5155 38.2046C31.0729 38.3576 31.5944 38.6195 32.05 38.9752C32.5051 39.2993 32.8883 39.7141 33.1754 40.1934C33.4626 40.6727 33.6475 41.2063 33.7185 41.7605C33.7895 42.3147 33.7451 42.8776 33.5881 43.4138C33.4311 43.95 33.1648 44.448 32.8061 44.8764ZM39.3108 39.8354C39.5514 39.8142 39.7933 39.8567 40.0122 39.9586C40.2311 40.0605 40.4194 40.2181 40.5581 40.4158C40.6968 40.6135 40.7811 40.8441 40.8025 41.0847C40.8238 41.3252 40.7815 41.5671 40.6798 41.7861L33.1007 58.2671C33.0021 58.4771 32.8516 58.6586 32.6634 58.7943C32.4752 58.93 32.2555 59.0155 32.025 59.0427C31.785 59.0661 31.5431 59.0254 31.324 58.9249C31.1048 58.8244 30.9161 58.6676 30.7772 58.4706C30.6382 58.2735 30.5539 58.0431 30.5329 57.8029C30.5119 57.5627 30.5549 57.3212 30.6575 57.103L38.2917 40.615C38.3839 40.4109 38.5252 40.2329 38.7031 40.0968C38.8809 39.9608 39.0898 39.8709 39.3108 39.8354ZM28.2209 43.7629C28.608 44.0505 29.0914 44.1769 29.5697 44.1156C30.048 44.0543 30.484 43.8101 30.7861 43.4343C31.0045 43.149 31.1336 42.8054 31.1571 42.4468C31.1806 42.0883 31.0975 41.7308 30.9182 41.4194C30.7389 41.1081 30.4714 40.8567 30.1496 40.697C29.8277 40.5374 29.4657 40.4765 29.1093 40.5222C28.7529 40.5679 28.418 40.718 28.1468 40.9537C27.8755 41.1893 27.6801 41.5 27.5851 41.8465C27.4901 42.193 27.4998 42.5599 27.6129 42.901C27.7261 43.242 27.9376 43.5419 28.2209 43.7629ZM38.4886 54.0294C38.8406 53.5698 39.2802 53.1845 39.7819 52.8957C40.2837 52.6069 40.8377 52.4204 41.4119 52.3468C41.9861 52.2732 42.5692 52.3141 43.1276 52.4671C43.6859 52.62 44.2084 52.882 44.665 53.238C45.1161 53.5653 45.4954 53.9813 45.7797 54.4607C46.064 54.94 46.2472 55.4725 46.318 56.0252C46.3889 56.578 46.3458 57.1394 46.1916 57.675C46.0373 58.2105 45.7751 58.7088 45.4211 59.1392C45.069 59.5987 44.6294 59.984 44.1277 60.2728C43.626 60.5616 43.072 60.7482 42.4978 60.8218C41.9235 60.8953 41.3404 60.8545 40.7821 60.7015C40.2237 60.5485 39.7012 60.2865 39.2447 59.9305C38.7936 59.6033 38.4142 59.1872 38.1299 58.7079C37.8456 58.2285 37.6624 57.6961 37.5916 57.1433C37.5208 56.5905 37.5638 56.0291 37.7181 55.4936C37.8723 54.9581 38.1345 54.4598 38.4886 54.0294ZM43.104 55.1166C42.7141 54.837 42.2327 54.7154 41.7568 54.7764C41.2808 54.8374 40.8456 55.0764 40.5388 55.4453C40.2686 55.8382 40.1656 56.3223 40.2524 56.7912C40.2648 57.0419 40.3289 57.2874 40.4407 57.5121C40.5525 57.7369 40.7095 57.9361 40.902 58.0972C41.0945 58.2584 41.3182 58.3779 41.5591 58.4485C41.8 58.519 42.0529 58.5389 42.3019 58.507C42.5509 58.4751 42.7906 58.3921 43.0059 58.2631C43.2213 58.1341 43.4076 57.962 43.5532 57.7575C43.6989 57.5531 43.8006 57.3207 43.8521 57.075C43.9037 56.8293 43.9038 56.5757 43.8526 56.3299C43.8186 56.088 43.7357 55.8555 43.6089 55.6466C43.4821 55.4377 43.314 55.2569 43.115 55.1152L43.104 55.1166Z" fill="#FFB663"/>
<circle cx="30.5801" cy="25.1243" r="4.31571" fill="white"/>
<path fill-rule="evenodd" clip-rule="evenodd" d="M22.6047 7.0212C21.8523 8.98041 21.6301 11.6023 22.1997 14.4017C22.865 17.6717 24.4242 20.2777 26.1825 21.7062C27.4367 22.7252 28.6956 23.0804 29.8074 22.8541C30.5802 22.6969 31.416 21.8659 32.0369 21.1449C32.0369 21.1449 32.6513 21.2239 33.2876 21.758C33.9239 22.2922 34.134 22.6438 34.134 22.6438C33.1967 23.7321 31.7593 25.1306 30.3298 25.4215C28.2405 25.8466 26.2052 25.1004 24.5304 23.7396C22.2058 21.851 20.3915 18.6556 19.6323 14.924C18.9786 11.711 19.202 8.5737 20.1589 6.08193C21.1094 3.60711 22.8716 1.59109 25.3777 1.08123C27.8837 0.571373 30.2936 1.73854 32.1355 3.64526C33.99 5.56505 35.4215 8.3657 36.0752 11.5787C36.4926 13.6305 36.5203 15.566 36.2639 17.396L33.7392 17.0974C33.9521 15.5773 33.8691 13.8766 33.5078 12.101C32.9383 9.30159 31.7092 6.97499 30.2511 5.46552C28.7804 3.94298 27.2256 3.37889 25.9 3.64858C24.5744 3.91828 23.3637 5.04503 22.6047 7.0212Z" fill="#00C65E"/>
</g>
<defs>
<clipPath id="clip0_1649_35210">
<rect width="93" height="91" fill="white"/>
</clipPath>
</defs>
</svg>
