<svg width="165" height="67" viewBox="0 0 165 67" fill="none" xmlns="http://www.w3.org/2000/svg">
<path d="M52.9794 0.771484H7.265C3.65823 0.771484 0.734375 3.69534 0.734375 7.3021V59.5471C0.734375 63.1538 3.65823 66.0777 7.265 66.0777H52.9794C56.5861 66.0777 59.51 63.1538 59.51 59.5471V7.3021C59.51 3.69534 56.5861 0.771484 52.9794 0.771484Z" fill="white"/>
<path d="M11.9268 47.1315H29.3078C31.4719 47.1315 33.2262 45.3772 33.2262 43.2131V36.7571C33.2262 34.5931 34.9804 32.8389 37.1443 32.8387L42.7467 32.8383C44.9106 32.8381 46.6648 31.0838 46.6648 28.9199V14.9355" stroke="#363A45" stroke-width="2.61225"/>
<path d="M39.9179 32.8472H18.5717C16.4076 32.8472 14.6533 31.0928 14.6533 28.9288V12.4121" stroke="#363A45" stroke-width="2.61225"/>
<path d="M11.9267 48.3407C13.0717 48.3407 13.9998 47.4125 13.9998 46.2675C13.9998 45.1225 13.0717 44.1943 11.9267 44.1943C10.7817 44.1943 9.85352 45.1225 9.85352 46.2675C9.85352 47.4125 10.7817 48.3407 11.9267 48.3407Z" fill="white" stroke="#00C65E" stroke-width="1.30612"/>
<path d="M33.4894 37.0412C35.8054 37.0412 37.6828 35.1638 37.6828 32.8478C37.6828 30.5318 35.8054 28.6543 33.4894 28.6543C31.1734 28.6543 29.2959 30.5318 29.2959 32.8478C29.2959 35.1638 31.1734 37.0412 33.4894 37.0412Z" fill="#00C65E"/>
<path d="M46.663 16.1121C47.808 16.1121 48.7362 15.184 48.7362 14.039C48.7362 12.894 47.808 11.9658 46.663 11.9658C45.518 11.9658 44.5898 12.894 44.5898 14.039C44.5898 15.184 45.518 16.1121 46.663 16.1121Z" fill="white" stroke="#00C65E" stroke-width="1.30612"/>
<path d="M46.6641 29.0371V49.5061" stroke="#363A45" stroke-width="2.61225"/>
<path d="M46.6658 55.5386C49.0846 55.5386 51.0454 53.5777 51.0454 51.1589C51.0454 48.7401 49.0846 46.7793 46.6658 46.7793C44.247 46.7793 42.2861 48.7401 42.2861 51.1589C42.2861 53.5777 44.247 55.5386 46.6658 55.5386Z" fill="#00C65E"/>
<path d="M14.6541 20.0718C17.0729 20.0718 19.0337 18.1109 19.0337 15.6921C19.0337 13.2733 17.0729 11.3125 14.6541 11.3125C12.2352 11.3125 10.2744 13.2733 10.2744 15.6921C10.2744 18.1109 12.2352 20.0718 14.6541 20.0718Z" fill="#00C65E"/>
<path d="M54.2856 7.30169C55.007 7.30169 55.5917 6.71692 55.5917 5.99557C55.5917 5.27422 55.007 4.68945 54.2856 4.68945C53.5643 4.68945 52.9795 5.27422 52.9795 5.99557C52.9795 6.71692 53.5643 7.30169 54.2856 7.30169Z" fill="#00C65E"/>
<path d="M5.95944 7.30169C6.68079 7.30169 7.26556 6.71692 7.26556 5.99557C7.26556 5.27422 6.68079 4.68945 5.95944 4.68945C5.23809 4.68945 4.65332 5.27422 4.65332 5.99557C4.65332 6.71692 5.23809 7.30169 5.95944 7.30169Z" fill="#00C65E"/>
<path d="M54.2856 62.1591C55.007 62.1591 55.5917 61.5743 55.5917 60.853C55.5917 60.1316 55.007 59.5469 54.2856 59.5469C53.5643 59.5469 52.9795 60.1316 52.9795 60.853C52.9795 61.5743 53.5643 62.1591 54.2856 62.1591Z" fill="#00C65E"/>
<path d="M5.95944 62.1591C6.68079 62.1591 7.26556 61.5743 7.26556 60.853C7.26556 60.1316 6.68079 59.5469 5.95944 59.5469C5.23809 59.5469 4.65332 60.1316 4.65332 60.853C4.65332 61.5743 5.23809 62.1591 5.95944 62.1591Z" fill="#00C65E"/>
<path d="M158.155 0.771484H112.441C108.834 0.771484 105.91 3.69534 105.91 7.3021V59.5471C105.91 63.1538 108.834 66.0777 112.441 66.0777H158.155C161.762 66.0777 164.686 63.1538 164.686 59.5471V7.3021C164.686 3.69534 161.762 0.771484 158.155 0.771484Z" fill="white"/>
<path d="M153.491 19.7197H136.11C133.946 19.7197 132.191 21.474 132.191 23.6381V30.0941C132.191 32.258 130.437 34.0123 128.273 34.0125L122.671 34.0129C120.507 34.0131 118.753 35.7673 118.753 37.9313V51.9156" stroke="#363A45" stroke-width="2.61225"/>
<path d="M125.5 34.0049H146.846C149.01 34.0049 150.765 35.7592 150.765 37.9233V54.44" stroke="#363A45" stroke-width="2.61225"/>
<path d="M153.492 18.5109C152.347 18.5109 151.419 19.4391 151.419 20.5841C151.419 21.729 152.347 22.6572 153.492 22.6572C154.637 22.6572 155.565 21.729 155.565 20.5841C155.565 19.4391 154.637 18.5109 153.492 18.5109Z" fill="white" stroke="#00C65E" stroke-width="1.30612"/>
<path d="M131.929 29.8103C129.613 29.8103 127.735 31.6878 127.735 34.0038C127.735 36.3198 129.613 38.1973 131.929 38.1973C134.245 38.1973 136.122 36.3198 136.122 34.0038C136.122 31.6878 134.245 29.8103 131.929 29.8103Z" fill="#00C65E"/>
<path d="M118.755 50.7394C117.61 50.7394 116.682 51.6676 116.682 52.8126C116.682 53.9576 117.61 54.8857 118.755 54.8857C119.9 54.8857 120.828 53.9576 120.828 52.8126C120.828 51.6676 119.9 50.7394 118.755 50.7394Z" fill="white" stroke="#00C65E" stroke-width="1.30612"/>
<path d="M118.754 37.8147V17.3457" stroke="#363A45" stroke-width="2.61225"/>
<path d="M118.752 11.313C116.333 11.313 114.373 13.2738 114.373 15.6926C114.373 18.1114 116.333 20.0723 118.752 20.0723C121.171 20.0723 123.132 18.1114 123.132 15.6926C123.132 13.2738 121.171 11.313 118.752 11.313Z" fill="#00C65E"/>
<path d="M150.764 46.7798C148.345 46.7798 146.384 48.7406 146.384 51.1594C146.384 53.5782 148.345 55.5391 150.764 55.5391C153.183 55.5391 155.144 53.5782 155.144 51.1594C155.144 48.7406 153.183 46.7798 150.764 46.7798Z" fill="#00C65E"/>
<path d="M159.461 7.30169C160.183 7.30169 160.768 6.71692 160.768 5.99557C160.768 5.27422 160.183 4.68945 159.461 4.68945C158.74 4.68945 158.155 5.27422 158.155 5.99557C158.155 6.71692 158.74 7.30169 159.461 7.30169Z" fill="#00C65E"/>
<path d="M111.134 7.30169C111.856 7.30169 112.44 6.71692 112.44 5.99557C112.44 5.27422 111.856 4.68945 111.134 4.68945C110.413 4.68945 109.828 5.27422 109.828 5.99557C109.828 6.71692 110.413 7.30169 111.134 7.30169Z" fill="#00C65E"/>
<path d="M159.461 62.1591C160.183 62.1591 160.768 61.5743 160.768 60.853C160.768 60.1316 160.183 59.5469 159.461 59.5469C158.74 59.5469 158.155 60.1316 158.155 60.853C158.155 61.5743 158.74 62.1591 159.461 62.1591Z" fill="#00C65E"/>
<path d="M111.134 62.1591C111.856 62.1591 112.44 61.5743 112.44 60.853C112.44 60.1316 111.856 59.5469 111.134 59.5469C110.413 59.5469 109.828 60.1316 109.828 60.853C109.828 61.5743 110.413 62.1591 111.134 62.1591Z" fill="#00C65E"/>
<path d="M75.791 41.1742C75.3484 41.4879 74.9873 41.9029 74.7378 42.3846C74.4882 42.8663 74.3574 43.4006 74.3564 43.9431C74.3555 44.4856 74.4844 45.0204 74.7322 45.503C74.98 45.9855 75.3396 46.4018 75.781 46.7171L81.1533 51.4914C81.6613 51.8547 82.2595 52.0712 82.8824 52.1171C83.5053 52.163 84.1287 52.0365 84.6845 51.7514C85.2402 51.4664 85.7067 51.0339 86.0329 50.5013C86.3591 49.9686 86.5323 49.3565 86.5336 48.7319L86.5522 39.2064C86.5531 38.5819 86.3821 37.9692 86.058 37.4354C85.7338 36.9016 85.2691 36.4673 84.7145 36.1801C84.16 35.8929 83.5372 35.7638 82.9142 35.807C82.2912 35.8501 81.6921 36.0639 81.1825 36.4249L75.791 41.1742Z" fill="#00C65E"/>
<path d="M85.2747 40.459H91.5059C92.9486 40.459 94.1182 41.6285 94.1182 43.0712V45.0707C94.1182 46.5134 92.9486 47.6829 91.5059 47.6829H85.2747C83.832 47.6829 82.6625 46.5134 82.6625 45.0707V43.0712C82.6625 41.6285 83.832 40.459 85.2747 40.459Z" fill="#00C65E"/>
<path d="M92.7935 17.7328C93.236 18.0465 93.5972 18.4615 93.8467 18.9432C94.0962 19.4248 94.2269 19.9592 94.2279 20.5017C94.2289 21.0442 94.1001 21.579 93.8523 22.0616C93.6045 22.5441 93.2449 22.9604 92.8034 23.2757L87.4311 28.05C86.9232 28.4133 86.3249 28.6298 85.7021 28.6757C85.0792 28.7216 84.4557 28.5951 83.9 28.31C83.3443 28.025 82.8778 27.5925 82.5516 27.0599C82.2254 26.5272 82.0522 25.9151 82.0509 25.2905L82.0322 15.765C82.0314 15.1405 82.2024 14.5278 82.5265 13.994C82.8506 13.4602 83.3154 13.0259 83.8699 12.7387C84.4245 12.4515 85.0473 12.3224 85.6703 12.3656C86.2933 12.4087 86.8924 12.6225 87.402 12.9835L92.7935 17.7328Z" fill="#00C65E"/>
<path d="M83.3102 17.0176H77.079C75.6363 17.0176 74.4668 18.1871 74.4668 19.6298V21.6292C74.4668 23.072 75.6363 24.2415 77.079 24.2415H83.3102C84.753 24.2415 85.9225 23.072 85.9225 21.6292V19.6298C85.9225 18.1871 84.753 17.0176 83.3102 17.0176Z" fill="#00C65E"/>
</svg>
