<svg width="152" height="86" viewBox="0 0 152 86" fill="none" xmlns="http://www.w3.org/2000/svg">
<g clip-path="url(#clip0_3571_50664)">
<path d="M131.584 27.9414H113.087C111.671 27.9414 110.523 29.0893 110.523 30.5053V40.275C110.523 41.691 111.671 42.8389 113.087 42.8389H131.584C133 42.8389 134.148 41.691 134.148 40.275V30.5053C134.148 29.0893 133 27.9414 131.584 27.9414Z" fill="#00C65E"/>
<path d="M148.318 29.4164C149.231 30.0633 149.975 30.9192 150.49 31.9125C151.005 32.9058 151.274 34.0078 151.276 35.1265C151.278 36.2452 151.013 37.3481 150.502 38.3433C149.991 39.3385 149.249 40.197 148.339 40.8472L137.26 50.6929C136.212 51.4422 134.978 51.8887 133.694 51.9833C132.409 52.0779 131.124 51.817 129.978 51.2292C128.832 50.6414 127.869 49.7494 127.197 48.651C126.524 47.5526 126.167 46.2902 126.164 45.0023L126.126 25.3582C126.124 24.0703 126.477 22.8068 127.145 21.7061C127.814 20.6053 128.772 19.7097 129.916 19.1173C131.059 18.525 132.344 18.2588 133.628 18.3478C134.913 18.4369 136.149 18.8778 137.2 19.6222L148.318 29.4164Z" fill="#00C65E"/>
<path fill-rule="evenodd" clip-rule="evenodd" d="M109.703 31.6488C117.793 32.8288 124.005 39.7947 124.005 48.2116C124.005 57.4563 116.511 64.9506 107.266 64.9506C107.168 64.9506 107.07 64.9497 106.972 64.9481V64.9508H41.7856V64.9504C41.6379 64.9537 41.4899 64.9554 41.3414 64.9554C30.5079 64.9554 21.7256 56.1731 21.7256 45.3396C21.7256 36.1021 28.1108 28.356 36.7083 26.2741C37.6187 11.7036 49.7243 0.167969 64.5242 0.167969C74.0943 0.167969 82.5378 4.9914 87.5562 12.3398C89.3623 11.6731 91.315 11.309 93.353 11.309C102.597 11.309 110.092 18.8033 110.092 28.048C110.092 29.2841 109.958 30.489 109.703 31.6488Z" fill="white"/>
<path fill-rule="evenodd" clip-rule="evenodd" d="M111.337 35.5533C118.625 36.616 124.221 42.891 124.221 50.4731C124.221 58.8007 117.47 65.5515 109.143 65.5515C109.054 65.5515 108.965 65.5508 108.877 65.5492V65.5517H50.1635C50.0283 65.5548 49.8927 65.5563 49.7567 65.5563C39.998 65.5563 32.0869 57.6453 32.0869 47.8865C32.0869 39.5656 37.8385 32.588 45.5829 30.7125C46.4035 17.588 57.3079 7.19727 70.6392 7.19727C79.2598 7.19727 86.8655 11.542 91.3862 18.1613C93.013 17.5605 94.773 17.2324 96.609 17.2324C104.936 17.2324 111.687 23.9832 111.687 32.3108C111.687 33.4239 111.566 34.5089 111.337 35.5533Z" fill="#CBE3F9"/>
<path d="M7.93943 61.5019C8.0284 61.5019 8.10053 61.3939 8.10053 61.2607C8.10053 61.1275 8.0284 61.0195 7.93943 61.0195C7.85045 61.0195 7.77832 61.1275 7.77832 61.2607C7.77832 61.3939 7.85045 61.5019 7.93943 61.5019Z" fill="#C4C4C4"/>
<path d="M34.4729 69.1472C37.615 62.8936 35.0318 55.2461 28.703 52.0662C22.3742 48.8862 14.6965 51.378 11.5543 57.6316C8.4121 63.8853 10.9953 71.5327 17.3241 74.7127C23.6529 77.8926 31.3307 75.4009 34.4729 69.1472Z" stroke="#F89358" stroke-width="14.4996" stroke-miterlimit="10"/>
<path d="M14.2498 49.9176L7.24017 60.1267L0.701172 56.6487L8.63107 45.1045L14.2498 49.9176Z" fill="#F89358"/>
<path d="M6.95315 64.0742L12.4081 75.2918L6.16385 79.1462L-0.00585938 66.4572L6.95315 64.0742Z" fill="#F89358"/>
<path d="M15.7123 77.5527L28.1817 78.5637L28.4668 85.8911L14.3672 84.7463L15.7123 77.5527Z" fill="#F89358"/>
<path d="M31.7734 76.8585L38.783 66.6494L45.3171 70.1249L37.3921 81.6715L31.7734 76.8585Z" fill="#F89358"/>
<path d="M39.0722 62.7057L33.6172 51.4881L39.8614 47.6338L46.0311 60.3227L39.0722 62.7057Z" fill="#F89358"/>
<path d="M30.3081 49.229L17.8388 48.218L17.5537 40.8906L31.6484 42.0329L30.3081 49.229Z" fill="#F89358"/>
<path d="M23.0139 70.5219C27.0952 70.5219 30.4037 67.2133 30.4037 63.132C30.4037 59.0507 27.0952 55.7422 23.0139 55.7422C18.9326 55.7422 15.624 59.0507 15.624 63.132C15.624 67.2133 18.9326 70.5219 23.0139 70.5219Z" stroke="white" stroke-width="4.63582"/>
<path d="M57.0941 64.523C59.006 60.718 57.4342 56.0651 53.5836 54.1303C49.7329 52.1955 45.0615 53.7116 43.1497 57.5165C41.2379 61.3214 42.8096 65.9744 46.6603 67.9092C50.5109 69.844 55.1823 68.3279 57.0941 64.523Z" stroke="#363A45" stroke-width="8.82202" stroke-miterlimit="10"/>
<path d="M44.7942 52.8229L40.5293 59.0345L36.5508 56.9184L41.3756 49.8945L44.7942 52.8229Z" fill="#363A45"/>
<path d="M40.3531 61.4385L43.6721 68.2636L39.8729 70.6087L36.1191 62.8884L40.3531 61.4385Z" fill="#363A45"/>
<path d="M45.6837 69.6377L53.2704 70.2528L53.4439 74.7111L44.8652 74.0146L45.6837 69.6377Z" fill="#363A45"/>
<path d="M55.4541 69.2184L59.7189 63.0068L63.6945 65.1215L58.8727 72.1468L55.4541 69.2184Z" fill="#363A45"/>
<path d="M59.897 60.6019L56.5781 53.7767L60.3772 51.4316L64.1311 59.152L59.897 60.6019Z" fill="#363A45"/>
<path d="M54.566 52.4053L46.9792 51.7902L46.8057 47.332L55.3814 48.027L54.566 52.4053Z" fill="#363A45"/>
</g>
<defs>
<clipPath id="clip0_3571_50664">
<rect width="152" height="86" fill="white"/>
</clipPath>
</defs>
</svg>
