<svg width="51" height="51" viewBox="0 0 51 51" fill="none" xmlns="http://www.w3.org/2000/svg">
<path fill-rule="evenodd" clip-rule="evenodd" d="M10.8848 15.2245C10.8848 14.641 11.3456 14.168 11.914 14.168H39.7182C40.2866 14.168 40.7474 14.641 40.7474 15.2245V35.7424C40.7474 36.3259 40.2866 36.7989 39.7182 36.7989H11.9141C11.3457 36.7989 10.8849 36.3259 10.8849 35.7424V15.2245H10.8848Z" stroke="white"/>
<path fill-rule="evenodd" clip-rule="evenodd" d="M33.0039 24.957C31.5083 24.957 30.2959 23.7143 30.2959 22.181C30.2959 20.6471 31.5083 19.4043 33.0039 19.4043C34.4995 19.4043 35.7119 20.6471 35.7119 22.181C35.7119 23.7143 34.4995 24.957 33.0039 24.957Z" stroke="white"/>
<path d="M34.2723 36.7984L25.3021 23.8427L21.5932 28.9742L16.8232 21.2832L10.8848 30.1374" stroke="white"/>
<path d="M30.1176 16.3133C36.062 21.8109 36.4242 31.0865 30.9266 37.0309" stroke="#CCEFDB" stroke-width="2.27071" stroke-linecap="round" stroke-linejoin="round"/>
<path d="M35.0062 11.2619C43.7374 19.3368 44.2694 32.9609 36.1945 41.6921" stroke="#CCEFDB" stroke-width="2.27071" stroke-linecap="round" stroke-linejoin="round"/>
<path d="M25.7508 26.4717L25.7508 8.06124C25.7508 7.3213 24.9135 6.89472 24.3126 7.32649L11.1244 16.8027C10.8869 16.9733 10.7461 17.2479 10.7461 17.5403L10.7461 35.4074C10.7461 35.6999 10.8869 35.9745 11.1245 36.1451L24.3127 45.6174C24.9136 46.0491 25.7508 45.6225 25.7508 44.8826L25.7508 26.4717Z" fill="#00C65E"/>
<rect x="0.816406" y="17.0488" width="8.57278" height="18.8176" rx="0.908285" fill="#00C65E"/>
</svg>
