<svg width="49" height="51" viewBox="0 0 49 51" fill="none" xmlns="http://www.w3.org/2000/svg">
<path d="M31.5448 25.3879C31.0772 21.4442 27.4628 18.6308 23.4717 19.104C19.4806 19.5772 16.6243 23.1578 17.0918 27.1015C17.5594 31.0452 21.1739 33.8586 25.165 33.3854C29.156 32.9122 32.0124 29.3316 31.5448 25.3879Z" stroke="#F89358" stroke-width="7.54129" stroke-miterlimit="10"/>
<path d="M15.9574 22.6064L15.8305 29.6323L11.6467 30.0301L11.7919 22.0842L15.9574 22.6064Z" fill="#F89358"/>
<path d="M16.9287 31.5902L23.0193 35.1962L21.2678 38.9737L14.3787 34.8946L16.9287 31.5902Z" fill="#F89358"/>
<path d="M25.2909 35.2349L31.5114 31.8146L33.9376 35.1951L26.9034 39.0618L25.2909 35.2349Z" fill="#F89358"/>
<path d="M32.6791 29.8828L32.8059 22.8569L36.9866 22.4595L36.8446 30.405L32.6791 29.8828Z" fill="#F89358"/>
<path d="M31.7095 20.9004L25.619 17.2944L27.3704 13.5169L34.2595 17.596L31.7095 20.9004Z" fill="#F89358"/>
<path d="M23.3467 17.2589L17.1262 20.6792L14.7 17.2987L21.7312 13.4324L23.3467 17.2589Z" fill="#F89358"/>
<path d="M29.0706 5.58218C37.8166 7.61398 44.604 15.1421 45.2787 24.5672C46.1078 36.151 37.3895 46.2136 25.8058 47.0428C14.222 47.8719 4.15941 39.1536 3.33026 27.5699C2.66744 18.3098 8.10579 10.0219 16.2318 6.64576C17.1142 6.27918 18.0282 5.97051 18.9695 5.7248" stroke="#00C65E" stroke-width="3" stroke-linecap="round"/>
<path d="M20.6213 3.88152C21.244 3.99286 21.5588 4.69652 21.2269 5.23498L18.062 10.3687C17.6841 10.9817 16.7741 10.9217 16.48 10.2643L13.7082 4.0691C13.414 3.4117 13.9757 2.69325 14.6846 2.82002L20.6213 3.88152Z" fill="#00C65E"/>
</svg>
