<svg width="208" height="792" viewBox="0 0 208 792" fill="none" xmlns="http://www.w3.org/2000/svg">
<path d="M10.1655 8.12342C12.9908 8.33377 26.5853 2.09737 33.7363 12.6245C40.8873 23.1517 31.8601 40.4081 43.928 48.0686C53.5823 54.1971 65.2265 52.8251 69.8418 51.373" stroke="#00C65E" stroke-width="2"/>
<path d="M102.5 297.517C105.164 293.567 107.4 268.512 128.739 266.853C150.077 265.194 167.745 292.773 189 281.542C206.004 272.558 213.715 254.409 215.446 246.458" stroke="#FFB762" stroke-width="3"/>
<path d="M152.04 775.469C153.967 774.489 160.375 765.045 169.204 769.089C178.033 773.134 178.962 787.966 189.868 788.196C198.592 788.38 205.65 782.881 208.089 780.109" stroke="#F89358" stroke-width="3"/>
</svg>
