<svg width="169" height="751" viewBox="0 0 169 751" fill="none" xmlns="http://www.w3.org/2000/svg">
<path d="M66.3938 725.193C68.8937 722.183 72.769 701.896 90.3386 702.285C107.908 702.675 120.087 726.652 138.371 719.214C152.998 713.264 160.783 699.067 162.847 692.713" stroke="#00C65E" stroke-width="2"/>
<path d="M127.42 6.16293C125.605 5.88178 117.933 -0.0486107 111.875 5.55171C105.816 11.152 108.988 23.3726 100.245 26.4421C93.2499 28.8977 86.0973 26.325 83.3954 24.7318" stroke="#CCEFDB" stroke-width="3"/>
<path d="M3.99885 382.88C6.82164 382.556 18.376 374.846 28.3168 382.503C38.2576 390.16 34.2545 406.406 48.2034 410.756C59.3626 414.237 70.3699 411 74.4787 408.947" stroke="#FD9558" stroke-width="3"/>
</svg>
