<svg width="16" height="16" viewBox="0 0 16 16" fill="none" xmlns="http://www.w3.org/2000/svg">
<rect x="0.431641" y="0.863281" width="15" height="15" rx="3" fill="#DADCDC"/>
<path d="M7.79729 5.68674C7.54129 5.68674 7.31729 5.59474 7.12529 5.41074C6.94129 5.21874 6.84929 4.99474 6.84929 4.73874C6.84929 4.48274 6.94129 4.25874 7.12529 4.06674C7.31729 3.87474 7.54129 3.77874 7.79729 3.77874C8.06129 3.77874 8.28529 3.87474 8.46929 4.06674C8.66129 4.25874 8.75729 4.48274 8.75729 4.73874C8.75729 4.99474 8.66129 5.21874 8.46929 5.41074C8.28529 5.59474 8.06129 5.68674 7.79729 5.68674ZM7.02929 12.4067V6.40674H8.57729V12.4067H7.02929Z" fill="#00C65E"/>
</svg>
